<svg width="414" height="43" viewBox="0 0 414 43" fill="none" xmlns="http://www.w3.org/2000/svg">
<g clip-path="url(#clip0_2455_15411)">
<path d="M210.906 25.2941C210.906 27.8165 209.874 30.2355 208.038 32.0191C206.202 33.8027 203.712 34.8047 201.115 34.8047C198.519 34.8047 196.029 33.8027 194.193 32.0191C192.357 30.2355 191.325 27.8165 191.325 25.2941V0H182.967V25.2941C182.967 29.99 184.887 34.4936 188.306 37.8141C191.724 41.1346 196.36 43 201.194 43C206.028 43 210.663 41.1346 214.082 37.8141C217.5 34.4936 219.42 29.99 219.42 25.2941V0H210.906V25.2941ZM22.1321 8.22059C25.6105 8.21507 28.9577 9.51028 31.4796 11.8376L36.4528 5.05882C33.2302 2.42829 29.3014 0.746247 25.1284 0.210447C20.9554 -0.325352 16.7117 0.307368 12.8962 2.03422C9.08072 3.76107 5.85204 6.51026 3.5898 9.95857C1.32755 13.4069 0.125778 17.4109 0.125778 21.5C0.125778 25.5891 1.32755 29.5931 3.5898 33.0414C5.85204 36.4897 9.08072 39.2389 12.8962 40.9658C16.7117 42.6926 20.9554 43.3254 25.1284 42.7896C29.3014 42.2538 33.2302 40.5717 36.4528 37.9412L31.5838 31.1371C29.04 33.498 25.6501 34.8043 22.1321 34.7794C18.5066 34.7794 15.0296 33.3803 12.4661 30.89C9.90247 28.3996 8.46226 25.0219 8.46226 21.5C8.46226 17.9781 9.90247 14.6004 12.4661 12.11C15.0296 9.61967 18.5066 8.22059 22.1321 8.22059ZM117.43 28.8859L96.8343 0H88.3981V43H96.8343V14.0888L117.43 43H125.892V0H117.43V28.8859ZM137.141 0V8.22059H150.186V43H158.648V8.22059H171.693V0H137.141ZM370.205 0V8.22059H374.787V43H383.249V0H370.205ZM47.623 0V43H77.1238V34.7794H56.0592V25.5976H72.9577V17.4024H56.0592V8.22059H77.1238V0H47.623ZM264.674 14.4429C264.674 12.5463 264.289 10.6682 263.542 8.91587C262.795 7.16357 261.7 5.57139 260.319 4.23024C258.938 2.88909 257.299 1.82523 255.496 1.0994C253.692 0.373578 251.758 0 249.806 0L230.694 0V43H239.157V28.8606H244.546L254.623 43H264.674L254.258 28.2535C257.281 27.3277 259.921 25.4891 261.794 23.0053C263.668 20.5215 264.676 17.522 264.674 14.4429ZM249.806 20.6653H239.157V8.22059H249.806C250.647 8.22059 251.48 8.38153 252.257 8.69424C253.034 9.00694 253.74 9.46527 254.335 10.0431C254.93 10.6209 255.402 11.3068 255.724 12.0617C256.046 12.8167 256.211 13.6258 256.211 14.4429C256.211 15.2601 256.046 16.0692 255.724 16.8241C255.402 17.5791 254.93 18.265 254.335 18.8428C253.74 19.4206 253.034 19.8789 252.257 20.1916C251.48 20.5043 250.647 20.6653 249.806 20.6653ZM303.366 0L290.972 17.3771L278.578 0H268.553L286.754 25.5471V43H295.216V25.5471L313.416 0H303.366ZM358.227 21.4747L358.462 21.1712C359.678 19.4096 360.452 17.3959 360.723 15.2913C360.994 13.1867 360.754 11.0498 360.021 9.05156C359.289 7.05338 358.086 5.2495 356.507 3.78442C354.928 2.31934 353.018 1.23377 350.93 0.614665C348.842 -0.00444175 346.633 -0.139882 344.482 0.219193C342.33 0.578267 340.294 1.42188 338.538 2.68245C336.783 3.94303 335.355 5.58554 334.37 7.47843C333.385 9.37131 332.87 11.462 332.866 13.5829V14.0888H341.329V13.5829C341.336 12.1584 341.923 10.7946 342.962 9.78964C344.002 8.78473 345.408 8.22057 346.875 8.22059C347.608 8.19607 348.338 8.3178 349.02 8.57828C349.703 8.83875 350.323 9.23243 350.843 9.73499C351.363 10.2375 351.771 10.8383 352.042 11.5001C352.314 12.162 352.443 12.8709 352.421 13.5829C352.128 15.0693 351.506 16.476 350.598 17.7059L332.632 43H361.664V34.7794H348.645L358.227 21.4747ZM393.17 42.1906C392.82 41.961 392.533 41.6522 392.333 41.2909C392.134 40.9296 392.028 40.5265 392.024 40.1165V39.7118C392.024 39.7118 392.024 39.56 392.232 39.56H393.691C393.821 39.56 393.899 39.56 393.899 39.7118V40.0406C393.892 40.2765 393.949 40.51 394.063 40.7183C394.177 40.9267 394.345 41.1028 394.55 41.2294C395.053 41.5875 395.672 41.758 396.294 41.71C396.858 41.7376 397.415 41.5867 397.883 41.28C398.068 41.1617 398.22 41.0002 398.325 40.8102C398.429 40.6202 398.483 40.4078 398.481 40.1924C398.486 40.048 398.46 39.9044 398.406 39.7698C398.353 39.6352 398.272 39.5123 398.169 39.4082C397.931 39.1415 397.638 38.9261 397.31 38.7759C396.945 38.5735 396.399 38.3459 395.669 38.0424C394.94 37.7388 394.237 37.4353 393.743 37.1824C393.291 36.9392 392.893 36.6127 392.571 36.2212C392.252 35.825 392.086 35.3327 392.102 34.83C392.098 34.4445 392.194 34.0641 392.38 33.7238C392.567 33.3835 392.838 33.0942 393.17 32.8824C394.027 32.3639 395.025 32.1082 396.034 32.1488C396.788 32.1362 397.537 32.2562 398.247 32.5029C398.834 32.7025 399.35 33.0626 399.731 33.54C400.069 33.9778 400.252 34.5104 400.252 35.0576V35.4118C400.252 35.4118 400.252 35.5635 400.044 35.5635H398.586C398.429 35.5635 398.377 35.5635 398.377 35.4118V35.0829C398.377 34.8473 398.321 34.615 398.212 34.4042C398.104 34.1935 397.946 34.0102 397.752 33.8688C397.234 33.5431 396.624 33.3838 396.008 33.4135C395.476 33.3871 394.949 33.5195 394.498 33.7929C394.322 33.9114 394.18 34.0707 394.085 34.2563C393.989 34.442 393.943 34.6479 393.951 34.8553C393.946 35.1416 394.048 35.4201 394.237 35.6394C394.465 35.8824 394.739 36.08 395.045 36.2212C395.409 36.4235 395.956 36.6512 396.685 36.9547C397.387 37.2415 398.073 37.5623 398.742 37.9159C399.197 38.1433 399.596 38.4624 399.914 38.8518C400.214 39.2271 400.37 39.692 400.356 40.1671C400.356 40.5749 400.253 40.9764 400.058 41.3376C399.863 41.6987 399.581 42.0087 399.237 42.2412C398.336 42.7969 397.282 43.0706 396.216 43.0253C395.138 43.0495 394.076 42.7587 393.17 42.1906ZM402.674 42.6965V32.3765C402.674 32.3765 402.674 32.2247 402.882 32.2247H404.392C404.428 32.2069 404.469 32.1976 404.509 32.1976C404.55 32.1976 404.59 32.2069 404.626 32.2247L407.23 36.4488L409.834 32.2247C409.874 32.2047 409.919 32.1943 409.964 32.1943C410.009 32.1943 410.054 32.2047 410.094 32.2247H411.579C411.579 32.2247 411.787 32.2247 411.787 32.3765V42.6965C411.787 42.6965 411.787 42.8482 411.579 42.8482H410.094C409.938 42.8482 409.886 42.8482 409.886 42.6965V35.4118L407.777 38.6747H406.631L404.496 35.3865V42.6712C404.496 42.6712 404.496 42.8229 404.314 42.8229H402.804C402.804 42.8229 402.674 42.7976 402.674 42.6965Z" fill="#BEAF87"/>
</g>
<defs>
<clipPath id="clip0_2455_15411">
<rect width="414" height="43" fill="white"/>
</clipPath>
</defs>
</svg>
