<svg width="253" height="113" viewBox="0 0 253 113" fill="none" xmlns="http://www.w3.org/2000/svg">
<g clip-path="url(#clip0_2455_15359)">
<path d="M84.5714 0H167.239C167.254 3.97815 167.262 10.9403 167.262 20.8865C167.262 41.7018 167.262 62.5328 167.262 83.3797C167.262 83.3916 167.257 83.403 167.249 83.4114C167.24 83.4199 167.229 83.4246 167.217 83.4246H84.6171C84.5951 83.4246 84.574 83.4158 84.5584 83.4001C84.5428 83.3843 84.5341 83.363 84.5341 83.3408C84.5341 55.6087 84.5341 27.8993 84.5341 0.212508C84.5341 0.109695 84.5465 0.0388586 84.5714 0ZM163.711 3.65271C163.711 3.63403 163.703 3.61612 163.69 3.60291C163.677 3.5897 163.659 3.58228 163.641 3.58228H88.1864C88.1772 3.58228 88.1681 3.5841 88.1596 3.58764C88.1512 3.59118 88.1435 3.59637 88.137 3.60291C88.1305 3.60945 88.1253 3.61721 88.1218 3.62576C88.1183 3.6343 88.1165 3.64346 88.1165 3.65271V79.7427C88.1165 79.752 88.1183 79.7612 88.1218 79.7697C88.1253 79.7782 88.1305 79.786 88.137 79.7925C88.1435 79.7991 88.1512 79.8043 88.1596 79.8078C88.1681 79.8113 88.1772 79.8132 88.1864 79.8132H163.641C163.659 79.8132 163.677 79.8058 163.69 79.7925C163.703 79.7793 163.711 79.7614 163.711 79.7427V3.65271Z" fill="#002168"/>
<path d="M162.836 78.8977C162.836 78.9064 162.833 78.9147 162.827 78.9209C162.821 78.927 162.813 78.9305 162.804 78.9305H89.0233C89.0147 78.9305 89.0064 78.927 89.0003 78.9209C88.9942 78.9147 88.9908 78.9064 88.9908 78.8977V4.49568C88.9908 4.48698 88.9942 4.47864 89.0003 4.47249C89.0064 4.46635 89.0147 4.46289 89.0233 4.46289H162.804C162.808 4.46289 162.812 4.46374 162.816 4.46539C162.82 4.46703 162.824 4.46945 162.827 4.47249C162.83 4.47554 162.832 4.47915 162.834 4.48313C162.836 4.48711 162.836 4.49137 162.836 4.49568V78.8977ZM144.328 16.9984C144.308 16.9977 144.288 16.9909 144.271 16.9787C144.255 16.9666 144.242 16.9498 144.235 16.9304L141.939 10.5078C141.932 10.4878 141.919 10.4705 141.902 10.4583C141.884 10.4461 141.864 10.4395 141.843 10.4395C141.822 10.4395 141.801 10.4461 141.784 10.4583C141.766 10.4705 141.753 10.4878 141.746 10.5078L139.452 16.9304C139.445 16.95 139.433 16.9669 139.416 16.9791C139.399 16.9912 139.379 16.998 139.358 16.9984L132.593 17.2158C132.572 17.2164 132.552 17.2235 132.535 17.2362C132.518 17.2489 132.505 17.2665 132.499 17.2867C132.492 17.3069 132.492 17.3287 132.498 17.349C132.504 17.3694 132.516 17.3873 132.533 17.4004L137.881 21.5862C137.897 21.5988 137.909 21.6161 137.916 21.6358C137.922 21.6555 137.923 21.6767 137.917 21.6967L136.031 28.2516C136.025 28.272 136.026 28.2936 136.033 28.3136C136.04 28.3336 136.052 28.351 136.069 28.3634C136.086 28.3759 136.107 28.3828 136.128 28.3832C136.149 28.3836 136.169 28.3775 136.187 28.3658L141.786 24.5309C141.803 24.5192 141.823 24.5129 141.844 24.5129C141.864 24.5129 141.885 24.5192 141.902 24.5309L147.502 28.3658C147.52 28.3775 147.54 28.3836 147.561 28.3832C147.582 28.3828 147.603 28.3759 147.619 28.3634C147.636 28.351 147.649 28.3336 147.656 28.3136C147.663 28.2936 147.663 28.272 147.658 28.2516L145.771 21.6955C145.765 21.6755 145.765 21.6543 145.772 21.6346C145.778 21.6149 145.79 21.5976 145.807 21.585L151.153 17.3992C151.17 17.3861 151.182 17.3681 151.188 17.3478C151.195 17.3275 151.194 17.3057 151.188 17.2855C151.181 17.2653 151.168 17.2477 151.152 17.235C151.135 17.2223 151.114 17.2151 151.093 17.2146L144.328 16.9984ZM124.912 46.3488V37.4866C124.912 37.4641 124.921 37.4424 124.937 37.4265C124.953 37.4106 124.975 37.4016 124.997 37.4016C128.658 37.4016 132.28 37.4028 135.863 37.4053C136.909 37.4061 137.81 37.7084 138.567 38.3124C139.026 38.6783 139.414 39.1519 139.73 39.7331C140.027 40.2812 140.235 40.8697 140.353 41.4988C140.667 43.1834 140.332 44.7094 139.348 46.0768C138.778 46.8669 138.027 47.4138 137.094 47.7174C136.715 47.8404 136.223 47.9173 135.619 47.9481C135.106 47.974 134.606 47.9809 134.12 47.9687C134.08 47.9677 134.041 47.9772 134.006 47.9964C133.971 48.0156 133.941 48.0437 133.92 48.078C132.586 50.2695 130.908 52.0258 128.886 53.347C128.787 53.4118 128.774 53.4692 128.848 53.5194C128.88 53.5413 128.922 53.5522 128.977 53.5522C131.141 53.5522 133.306 53.5522 135.47 53.5522C136.828 53.5522 137.63 53.5741 137.876 53.6178C138.971 53.8121 139.887 54.3856 140.623 55.3385C141.263 56.1683 141.664 57.0604 141.823 58.0149C142.13 59.8493 141.646 61.4462 140.371 62.8054C139.342 63.9024 138.02 64.4508 136.404 64.4508C132.611 64.4508 128.804 64.4508 124.984 64.4508C124.963 64.4508 124.943 64.4424 124.928 64.4274C124.913 64.4123 124.904 64.3919 124.904 64.3707V55.4599C124.904 55.4509 124.902 55.4421 124.898 55.4341C124.894 55.4262 124.888 55.4193 124.881 55.4142C124.874 55.4091 124.865 55.4058 124.857 55.4047C124.848 55.4035 124.839 55.4046 124.831 55.4077C122.863 56.1582 120.804 56.5832 118.654 56.6828C118.61 56.6846 118.569 56.7034 118.539 56.735C118.509 56.7667 118.492 56.8089 118.492 56.8528V70.1958C118.492 70.218 118.501 70.2394 118.517 70.2551C118.532 70.2708 118.553 70.2796 118.575 70.2796C124.742 70.2796 130.905 70.2796 137.067 70.2796C139.771 70.2796 142.195 69.4883 144.339 67.9056C145.016 67.4045 145.604 66.8556 146.102 66.259C147.764 64.2675 148.515 61.904 148.356 59.1685C148.139 55.4162 146.459 52.5674 143.317 50.622C143.15 50.5184 142.99 50.4362 142.838 50.3755C142.829 50.3715 142.82 50.3649 142.813 50.3564C142.807 50.3478 142.802 50.3377 142.801 50.3269C142.8 50.3161 142.801 50.305 142.805 50.2948C142.809 50.2846 142.816 50.2756 142.824 50.2687C144.424 48.9936 145.552 47.4304 146.208 45.5789C146.467 44.8471 146.645 44.059 146.74 43.2146C147.05 40.4646 146.446 37.9468 144.929 35.6615C144.557 35.1013 144.159 34.6095 143.736 34.1861C143.287 33.7376 142.797 33.3348 142.266 32.9778C141.163 32.2363 139.97 31.7878 138.689 31.6323C138.359 31.5927 137.557 31.5728 136.284 31.5728C130.373 31.5728 124.463 31.5728 118.552 31.5728C118.544 31.5728 118.537 31.5744 118.529 31.5774C118.522 31.5805 118.515 31.585 118.51 31.5906C118.504 31.5962 118.5 31.6029 118.497 31.6103C118.494 31.6177 118.492 31.6256 118.492 31.6335V48.8527C118.492 48.8821 118.481 48.9103 118.46 48.9313C118.44 48.9524 118.412 48.9647 118.383 48.9657C115.96 49.0296 113.82 48.403 111.963 47.0859C111.34 46.6439 110.728 46.1213 110.128 45.5182C109.153 44.5386 108.361 43.4295 107.752 42.1909C106.19 39.0134 105.743 35.7036 106.412 32.2613C106.576 31.4154 106.781 30.6337 107.026 29.9165C107.536 28.422 108.285 27.0693 109.273 25.8582C111.554 23.0612 114.457 21.693 117.983 21.7537C118.8 21.7683 119.596 21.8642 120.371 22.0415C123.799 22.826 126.179 24.9211 127.512 28.3269C127.516 28.3387 127.523 28.3492 127.532 28.3578C127.541 28.3664 127.552 28.3729 127.564 28.3767C127.576 28.3806 127.589 28.3817 127.602 28.38C127.614 28.3783 127.626 28.3739 127.637 28.367L132.655 25.0859C132.674 25.0729 132.688 25.0534 132.695 25.0309C132.702 25.0085 132.7 24.9845 132.691 24.9632C131.262 21.7404 129.063 19.3105 126.094 17.6736C125.396 17.2882 124.661 16.964 123.891 16.7009C121.708 15.9569 119.387 15.6521 116.927 15.7865C113.065 15.997 109.684 17.2842 106.785 19.6481C104.139 21.8072 102.199 24.5451 100.964 27.8618C99.812 30.9568 99.413 34.0962 99.7671 37.2802C100.205 41.213 101.652 44.773 104.109 47.9602C105.138 49.2944 106.357 50.4929 107.768 51.5558C111.624 54.4638 115.948 55.5146 120.739 54.7082C123.673 54.2144 126.349 53.0725 128.765 51.2826C130.852 49.7372 132.358 47.7603 133.282 45.3518C133.288 45.3346 133.29 45.316 133.286 45.2985C133.283 45.281 133.274 45.2653 133.262 45.2535L128.865 41.16C128.855 41.1509 128.844 41.1444 128.831 41.141C128.818 41.1376 128.805 41.1374 128.792 41.1404C128.779 41.1434 128.767 41.1495 128.757 41.1582C128.747 41.1669 128.74 41.1779 128.735 41.1903C128.034 42.9527 126.986 44.5107 125.59 45.8643C125.371 46.0756 125.162 46.2468 124.962 46.3779C124.929 46.4006 124.912 46.3909 124.912 46.3488Z" fill="#002168"/>
<path d="M28.1708 112.69H27.2375C24.4952 112.484 22.2698 111.34 20.5615 109.259C19.6287 108.122 19.0009 106.832 18.6781 105.388C18.5064 104.619 18.4393 103.816 18.477 102.976C18.6079 100.079 19.8169 97.7237 22.1041 95.9087C23.4969 94.8044 25.1402 94.1746 27.034 94.0192C28.4525 93.9034 29.8169 94.1131 31.127 94.6482C31.8504 94.9437 32.5476 95.3404 33.2187 95.8382C35.3124 97.391 36.5423 99.4966 36.9084 102.155C37.15 103.909 36.8967 105.595 36.1485 107.212C35.8113 107.939 35.3839 108.623 34.8661 109.261C33.1914 111.325 30.9597 112.468 28.1708 112.69ZM27.7104 109.135C29.1664 109.138 30.5638 108.531 31.5953 107.448C32.6267 106.366 33.2076 104.896 33.2103 103.362C33.2129 101.829 32.6371 100.357 31.6094 99.2704C30.5817 98.1841 29.1864 97.5724 27.7304 97.5699C26.2744 97.5673 24.877 98.1741 23.8455 99.2567C22.8141 100.339 22.2332 101.809 22.2305 103.343C22.2279 104.877 22.8037 106.348 23.8314 107.435C24.8591 108.521 26.2544 109.133 27.7104 109.135Z" fill="#002168"/>
<path d="M9.71658 112.69H8.81344C6.0687 112.48 3.84095 111.329 2.1302 109.237C1.45104 108.407 0.93163 107.478 0.571979 106.45C0.303846 105.686 0.138471 104.896 0.0758531 104.081C-0.0517909 102.427 0.244038 100.844 0.96334 99.3326C1.66337 97.8616 2.69858 96.6485 4.06894 95.6932C5.69138 94.5631 7.49606 94.0158 9.48297 94.0514C10.9039 94.0765 12.2446 94.4153 13.505 95.0678C15.1932 95.9413 16.5078 97.2293 17.4487 98.9318C17.4524 98.9387 17.4546 98.9463 17.4553 98.9541C17.4559 98.9619 17.455 98.9697 17.4525 98.977C17.45 98.9844 17.446 98.991 17.4408 98.9966C17.4356 99.0022 17.4292 99.0066 17.4222 99.0096L14.0673 100.391C14.0489 100.399 14.0285 100.4 14.0094 100.394C13.9903 100.389 13.9738 100.376 13.9626 100.36C13.3886 99.501 12.6761 98.8181 11.8251 98.3113C10.8256 97.7155 9.78522 97.4815 8.70386 97.6094C7.92917 97.7009 7.18337 97.9798 6.46648 98.4461C5.53685 99.0508 4.83561 99.86 4.36276 100.874C4.00873 101.633 3.81887 102.413 3.79318 103.215C3.76428 104.141 3.95495 105.033 4.36517 105.89C4.6317 106.446 4.97851 106.952 5.40559 107.407C5.82144 107.849 6.2983 108.218 6.83617 108.515C8.26112 109.304 9.72421 109.375 11.2254 108.728C11.7802 108.488 12.2899 108.162 12.7548 107.75C13.2172 107.34 13.617 106.875 13.9541 106.356C13.9658 106.338 13.9833 106.325 14.0037 106.319C14.0241 106.312 14.0461 106.313 14.0661 106.321L17.38 107.673C17.3949 107.679 17.4084 107.688 17.4195 107.7C17.4305 107.712 17.439 107.726 17.4442 107.741C17.4494 107.756 17.4514 107.773 17.4499 107.789C17.4484 107.805 17.4434 107.82 17.4354 107.834C15.7142 110.802 13.1413 112.421 9.71658 112.69Z" fill="#002168"/>
<path d="M43.358 108.979L52.4496 109.008C52.4661 109.008 52.4819 109.015 52.4936 109.026C52.5052 109.037 52.5119 109.053 52.5122 109.069L52.5303 112.25C52.5305 112.264 52.5279 112.278 52.5227 112.291C52.5175 112.303 52.5098 112.315 52.5001 112.325C52.4903 112.335 52.4787 112.342 52.4659 112.348C52.4531 112.353 52.4394 112.356 52.4255 112.356H39.6503C39.6276 112.356 39.6059 112.347 39.5899 112.331C39.5738 112.315 39.5648 112.293 39.5648 112.271L39.5805 94.4068C39.5805 94.3904 39.5868 94.3746 39.5981 94.363C39.6094 94.3514 39.6247 94.3449 39.6407 94.3449L43.1798 94.3242C43.1943 94.3241 43.2087 94.3268 43.2221 94.3324C43.2355 94.3379 43.2477 94.3461 43.2581 94.3565C43.2684 94.3669 43.2765 94.3793 43.2821 94.3929C43.2877 94.4065 43.2906 94.4212 43.2906 94.4359L43.2978 108.918C43.2978 108.934 43.3041 108.95 43.3154 108.961C43.3267 108.972 43.342 108.979 43.358 108.979Z" fill="#002168"/>
<path d="M67.4382 96.5066C68.4224 97.3647 69.1317 98.4135 69.566 99.6529C70.2018 101.463 70.3744 103.295 70.0838 105.149C69.9529 105.984 69.7305 106.76 69.4166 107.476C68.3835 109.83 66.5611 111.348 63.9496 112.029C63.1163 112.247 62.2309 112.356 61.2932 112.356C58.9852 112.356 56.651 112.356 54.2908 112.356C54.2637 112.356 54.2377 112.345 54.2185 112.326C54.1993 112.306 54.1885 112.28 54.1885 112.253L54.1957 94.3924C54.1957 94.3843 54.1973 94.3762 54.2003 94.3687C54.2033 94.3612 54.2077 94.3544 54.2133 94.3486C54.2189 94.3429 54.2256 94.3383 54.2329 94.3352C54.2402 94.3321 54.248 94.3305 54.2559 94.3305C56.401 94.3216 58.546 94.3159 60.6911 94.3135C61.2338 94.3127 61.7761 94.3325 62.318 94.373C64.2655 94.5171 65.9723 95.2283 67.4382 96.5066ZM64.9274 98.9778C64.4032 98.4661 63.783 98.133 63.067 97.9784C62.5002 97.8553 62.0996 97.7905 61.8652 97.7841C60.661 97.7509 59.3902 97.7416 58.0527 97.7561C58.0178 97.7565 57.9844 97.7707 57.9598 97.7957C57.9352 97.8207 57.9215 97.8545 57.9215 97.8897V108.917C57.9215 108.926 57.9232 108.935 57.9265 108.943C57.9298 108.951 57.9347 108.959 57.9409 108.965C57.947 108.971 57.9543 108.976 57.9623 108.98C57.9704 108.983 57.979 108.985 57.9877 108.985C59.2786 108.999 60.5406 108.979 61.7737 108.927C62.1654 108.911 62.5544 108.864 62.9405 108.788C63.9183 108.596 64.7215 108.113 65.3501 107.34C66.022 106.513 66.3933 105.484 66.464 104.252C66.4945 103.728 66.4768 103.06 66.411 102.247C66.3042 100.929 65.8097 99.8391 64.9274 98.9778Z" fill="#002168"/>
<path d="M99.3227 105.261L99.3155 108.844C99.3155 108.866 99.324 108.886 99.3391 108.902C99.3542 108.917 99.3748 108.926 99.3962 108.926H108.753C108.767 108.926 108.78 108.928 108.793 108.934C108.806 108.939 108.818 108.947 108.828 108.957C108.837 108.967 108.845 108.979 108.851 108.992C108.856 109.005 108.859 109.018 108.859 109.032V112.272C108.859 112.283 108.857 112.294 108.852 112.304C108.848 112.314 108.842 112.324 108.834 112.332C108.827 112.339 108.817 112.345 108.807 112.35C108.797 112.354 108.787 112.356 108.776 112.356H95.6451C95.6285 112.356 95.6126 112.349 95.6008 112.338C95.5891 112.326 95.5825 112.31 95.5825 112.293V94.4289C95.5825 94.415 95.5852 94.4013 95.5905 94.3885C95.5957 94.3756 95.6035 94.364 95.6132 94.3542C95.6229 94.3444 95.6345 94.3366 95.6472 94.3313C95.6599 94.326 95.6735 94.3232 95.6873 94.3232H108.768C108.779 94.3232 108.79 94.3254 108.8 94.3296C108.811 94.3337 108.82 94.3398 108.828 94.3475C108.835 94.3552 108.841 94.3643 108.845 94.3743C108.85 94.3843 108.852 94.395 108.851 94.4058L108.837 97.6408C108.837 97.6569 108.831 97.6723 108.819 97.6837C108.808 97.6951 108.793 97.7015 108.777 97.7015L99.3974 97.7234C99.3757 97.7234 99.3548 97.7319 99.3395 97.7472C99.3241 97.7625 99.3155 97.7831 99.3155 97.8047L99.3227 101.663C99.3227 101.671 99.3243 101.679 99.3274 101.686C99.3305 101.693 99.335 101.7 99.3407 101.706C99.3464 101.711 99.3532 101.716 99.3606 101.719C99.3681 101.722 99.3761 101.723 99.3841 101.723L107.693 101.753C107.709 101.753 107.725 101.759 107.736 101.771C107.748 101.782 107.754 101.797 107.754 101.813L107.769 105.124C107.769 105.14 107.762 105.155 107.751 105.166C107.739 105.178 107.723 105.184 107.706 105.184L99.3829 105.199C99.375 105.199 99.3672 105.2 99.3599 105.204C99.3526 105.207 99.3459 105.211 99.3403 105.217C99.3348 105.223 99.3303 105.23 99.3273 105.237C99.3243 105.245 99.3227 105.253 99.3227 105.261Z" fill="#002168"/>
<path d="M115.639 108.979L124.747 108.986C124.765 108.986 124.782 108.993 124.794 109.006C124.807 109.019 124.814 109.036 124.814 109.054V112.293C124.814 112.309 124.808 112.325 124.796 112.337C124.784 112.349 124.768 112.356 124.752 112.356H111.92C111.898 112.356 111.878 112.347 111.863 112.332C111.848 112.317 111.839 112.296 111.839 112.274L111.862 94.4068C111.862 94.3904 111.868 94.3746 111.88 94.363C111.891 94.3514 111.906 94.3449 111.922 94.3449L115.461 94.3242C115.476 94.3241 115.49 94.3268 115.504 94.3324C115.517 94.3379 115.529 94.3461 115.539 94.3565C115.55 94.3669 115.558 94.3793 115.564 94.3929C115.569 94.4065 115.572 94.4212 115.572 94.4359L115.579 108.918C115.579 108.934 115.586 108.95 115.597 108.961C115.608 108.972 115.623 108.979 115.639 108.979Z" fill="#002168"/>
<path d="M130.287 108.979L139.382 108.986C139.399 108.986 139.415 108.993 139.427 109.005C139.438 109.017 139.445 109.033 139.445 109.049V112.272C139.445 112.294 139.436 112.316 139.421 112.332C139.405 112.347 139.384 112.356 139.362 112.356H126.53C126.522 112.356 126.514 112.354 126.507 112.351C126.5 112.348 126.493 112.344 126.487 112.338C126.482 112.333 126.477 112.326 126.474 112.319C126.471 112.311 126.47 112.303 126.47 112.295L126.477 94.3925C126.477 94.376 126.483 94.3603 126.495 94.3487C126.506 94.337 126.521 94.3305 126.537 94.3305L130.141 94.3232C130.158 94.3232 130.173 94.3299 130.185 94.3417C130.196 94.3536 130.203 94.3696 130.203 94.3864V108.893C130.203 108.916 130.212 108.938 130.228 108.954C130.243 108.97 130.265 108.979 130.287 108.979Z" fill="#002168"/>
<path d="M160.509 102.979C161.572 103.403 162.353 104.178 162.851 105.302C163.117 105.904 163.232 106.535 163.198 107.195C163.166 107.791 163.094 108.323 162.981 108.792C162.852 109.326 162.641 109.813 162.346 110.253C161.683 111.241 160.732 111.87 159.494 112.14C158.964 112.255 158.43 112.325 157.892 112.351C157.823 112.354 157.285 112.356 156.28 112.357C153.972 112.359 151.665 112.356 149.358 112.349C149.342 112.349 149.326 112.342 149.314 112.331C149.303 112.319 149.296 112.303 149.296 112.287V94.4204C149.296 94.3949 149.306 94.3705 149.324 94.3526C149.342 94.3346 149.366 94.3245 149.392 94.3245C152.314 94.3091 155.17 94.3188 157.959 94.3536C158.11 94.3552 158.392 94.3912 158.804 94.4617C159.146 94.5192 159.422 94.5827 159.632 94.6523C161.051 95.1219 161.938 96.1233 162.296 97.6566C162.402 98.1115 162.463 98.571 162.481 99.0348C162.5 99.5424 162.451 99.999 162.332 100.405C162.044 101.386 161.432 102.201 160.494 102.849C160.419 102.902 160.424 102.945 160.509 102.979ZM157.983 98.0354C157.749 97.8274 157.45 97.7234 157.086 97.7234C155.762 97.7234 154.429 97.7234 153.088 97.7234C153.071 97.7234 153.054 97.7304 153.042 97.7429C153.029 97.7554 153.022 97.7724 153.022 97.7902L153.029 101.45C153.029 101.466 153.036 101.482 153.047 101.494C153.059 101.505 153.074 101.512 153.091 101.512C154.32 101.532 155.549 101.527 156.777 101.499C157.156 101.49 157.437 101.448 157.621 101.372C157.908 101.255 158.139 101.068 158.313 100.813C159.014 99.7804 158.904 98.8547 157.983 98.0354ZM158.704 105.358C158.279 105.044 157.8 104.887 157.267 104.887C155.893 104.888 154.499 104.888 153.085 104.888C153.068 104.888 153.052 104.895 153.041 104.906C153.029 104.918 153.022 104.934 153.022 104.951V108.918C153.022 108.936 153.029 108.954 153.042 108.966C153.055 108.979 153.072 108.986 153.09 108.986C154.096 108.986 155.087 108.986 156.062 108.986C157.114 108.986 157.735 108.96 157.923 108.909C158.605 108.722 159.076 108.231 159.338 107.436C159.622 106.572 159.41 105.879 158.704 105.358Z" fill="#002168"/>
<path d="M206.706 102.73C206.707 102.843 206.742 102.855 206.811 102.766L213.307 94.4203C213.324 94.3994 213.344 94.3826 213.367 94.371C213.391 94.3594 213.416 94.3534 213.442 94.3535H217.874C217.948 94.3535 217.963 94.383 217.917 94.4421L210.717 103.567C210.701 103.588 210.692 103.614 210.693 103.641C210.695 103.667 210.705 103.693 210.723 103.712L218.626 112.256C218.687 112.323 218.673 112.356 218.583 112.356H213.872C213.833 112.356 213.794 112.348 213.757 112.332C213.721 112.315 213.688 112.292 213.662 112.262L206.749 104.712C206.716 104.674 206.699 104.681 206.699 104.732V112.289C206.699 112.298 206.697 112.307 206.694 112.315C206.691 112.323 206.686 112.33 206.68 112.336C206.673 112.343 206.666 112.347 206.658 112.351C206.65 112.354 206.641 112.356 206.633 112.356L203.061 112.349C203.049 112.349 203.036 112.346 203.025 112.341C203.013 112.337 203.003 112.329 202.994 112.321C202.985 112.312 202.978 112.301 202.973 112.289C202.968 112.278 202.966 112.265 202.966 112.253L202.989 94.4057C202.989 94.3893 202.995 94.3735 203.007 94.3619C203.018 94.3503 203.034 94.3438 203.05 94.3438H206.616C206.632 94.3438 206.648 94.3503 206.659 94.3619C206.671 94.3735 206.677 94.3893 206.677 94.4057L206.706 102.73Z" fill="#002168"/>
<path d="M224.016 105.261L224.009 108.844C224.009 108.866 224.018 108.886 224.033 108.902C224.048 108.917 224.068 108.926 224.09 108.926H233.484C233.493 108.926 233.501 108.927 233.51 108.931C233.518 108.934 233.525 108.939 233.532 108.946C233.538 108.952 233.543 108.959 233.546 108.968C233.55 108.976 233.551 108.985 233.551 108.994L233.531 112.273C233.531 112.29 233.524 112.305 233.513 112.316C233.501 112.328 233.485 112.334 233.469 112.334L220.374 112.356C220.348 112.356 220.323 112.346 220.305 112.327C220.286 112.309 220.276 112.284 220.276 112.258V94.4289C220.276 94.415 220.279 94.4013 220.284 94.3885C220.289 94.3756 220.297 94.364 220.307 94.3542C220.316 94.3444 220.328 94.3366 220.341 94.3313C220.353 94.326 220.367 94.3232 220.381 94.3232H233.472C233.482 94.3232 233.493 94.3253 233.502 94.3294C233.512 94.3335 233.521 94.3395 233.529 94.3471C233.536 94.3546 233.542 94.3636 233.546 94.3735C233.55 94.3833 233.552 94.3939 233.552 94.4046V97.6396C233.552 97.6618 233.543 97.6831 233.528 97.6988C233.512 97.7145 233.491 97.7234 233.469 97.7234L224.076 97.7307C224.061 97.7307 224.045 97.737 224.034 97.7484C224.023 97.7598 224.016 97.7753 224.016 97.7914L224.009 101.669C224.009 101.685 224.016 101.701 224.027 101.713C224.039 101.724 224.055 101.731 224.072 101.731H232.347C232.363 101.731 232.379 101.734 232.393 101.74C232.408 101.746 232.421 101.755 232.432 101.766C232.444 101.777 232.452 101.79 232.458 101.805C232.464 101.82 232.467 101.835 232.467 101.851L232.447 105.108C232.447 105.124 232.44 105.14 232.428 105.152C232.417 105.163 232.401 105.17 232.384 105.17L224.076 105.199C224.06 105.199 224.045 105.206 224.034 105.217C224.023 105.229 224.016 105.245 224.016 105.261Z" fill="#002168"/>
<path d="M247.419 106.273C247.41 106.277 247.402 106.283 247.396 106.291C247.389 106.299 247.385 106.308 247.383 106.318C247.38 106.328 247.38 106.338 247.382 106.348C247.384 106.358 247.389 106.368 247.395 106.376L251.73 112.305C251.755 112.339 251.746 112.356 251.703 112.356H247.415C247.381 112.356 247.348 112.348 247.318 112.333C247.288 112.318 247.262 112.296 247.242 112.269C245.876 110.462 244.567 108.652 243.314 106.84C243.292 106.809 243.263 106.784 243.23 106.766C243.197 106.749 243.161 106.74 243.123 106.74H240.296C240.288 106.74 240.28 106.742 240.273 106.745C240.266 106.748 240.259 106.752 240.253 106.758C240.248 106.763 240.243 106.77 240.24 106.778C240.237 106.785 240.236 106.793 240.236 106.801V112.263C240.236 112.286 240.227 112.308 240.211 112.324C240.195 112.34 240.174 112.349 240.151 112.349L236.585 112.356C236.563 112.356 236.542 112.347 236.527 112.332C236.511 112.316 236.503 112.295 236.503 112.273V94.417C236.503 94.3925 236.512 94.369 236.53 94.3517C236.547 94.3344 236.57 94.3247 236.594 94.3247C239.177 94.3109 241.728 94.3166 244.249 94.3417C245.18 94.3514 245.89 94.4162 246.381 94.536C248.438 95.0395 249.829 96.3474 250.554 98.4595C250.84 99.2933 250.933 100.232 250.833 101.276C250.607 103.616 249.469 105.282 247.419 106.273ZM246.231 98.2652C245.82 97.9025 245.336 97.7212 244.782 97.7212C243.279 97.7187 241.792 97.722 240.32 97.7309C240.298 97.7312 240.276 97.7404 240.26 97.7566C240.245 97.7727 240.236 97.7945 240.236 97.8171V103.289C240.236 103.31 240.244 103.331 240.259 103.346C240.274 103.362 240.295 103.37 240.316 103.37C241.688 103.37 243.035 103.371 244.36 103.374C245.484 103.376 246.286 102.936 246.766 102.054C246.966 101.686 247.079 101.294 247.104 100.878C247.128 100.504 247.096 100.09 247.009 99.6362C246.904 99.0873 246.645 98.6303 246.231 98.2652Z" fill="#002168"/>
<path d="M82.0751 102.498L77.5425 112.263C77.5271 112.296 77.5047 112.324 77.4779 112.343C77.4512 112.363 77.4213 112.373 77.392 112.372L76.9524 112.365C76.9374 112.365 76.9217 112.358 76.9077 112.345C76.8936 112.332 76.8819 112.313 76.8742 112.292L70.3523 94.4486C70.3499 94.442 70.3492 94.4349 70.3501 94.4279C70.351 94.4209 70.3535 94.4143 70.3574 94.4086C70.3613 94.4029 70.3664 94.3982 70.3725 94.395C70.3785 94.3918 70.3852 94.3902 70.392 94.3903L74.1623 94.3575C74.2017 94.3571 74.2403 94.3695 74.2729 94.393C74.3055 94.4165 74.3304 94.45 74.3442 94.4887L77.5461 103.54C77.5798 103.638 77.6184 103.64 77.6617 103.546L81.8366 94.4778C81.8538 94.4392 81.8805 94.4089 81.9125 94.3915C82.0474 94.3179 82.1718 94.3126 82.2858 94.3757C82.3604 94.4162 82.4287 94.5041 82.4905 94.6393C83.8681 97.637 85.2373 100.621 86.598 103.59C86.6317 103.664 86.6622 103.663 86.6895 103.586L89.9793 94.4559C89.9903 94.4263 90.0097 94.4008 90.0349 94.3828C90.0601 94.3648 90.0898 94.3551 90.1202 94.3551L93.9182 94.3891C93.9252 94.3892 93.9321 94.391 93.9382 94.3944C93.9444 94.3977 93.9496 94.4026 93.9535 94.4084C93.9574 94.4142 93.9599 94.4209 93.9606 94.4279C93.9614 94.4349 93.9605 94.442 93.958 94.4486L87.3626 112.276C87.3552 112.296 87.3433 112.313 87.3287 112.326C87.314 112.338 87.2973 112.344 87.2808 112.344H86.8412C86.8082 112.344 86.7752 112.333 86.7462 112.312C86.7171 112.292 86.6933 112.262 86.6775 112.228L82.1919 102.498C82.1525 102.413 82.1136 102.413 82.0751 102.498Z" fill="#002168"/>
<path d="M176.857 109.601L169.056 109.593C169.023 109.593 168.99 109.603 168.962 109.621C168.934 109.638 168.912 109.664 168.897 109.694L167.653 112.263C167.639 112.291 167.618 112.314 167.592 112.331C167.565 112.347 167.535 112.356 167.504 112.356H163.625C163.615 112.356 163.604 112.353 163.595 112.348C163.586 112.343 163.578 112.335 163.573 112.326C163.567 112.317 163.564 112.306 163.563 112.296C163.563 112.285 163.565 112.275 163.57 112.265C166.564 106.374 169.557 100.479 172.548 94.5794C172.614 94.4491 172.696 94.3774 172.793 94.3645C172.888 94.3515 173.009 94.3592 173.154 94.3876C173.193 94.3956 173.231 94.4124 173.263 94.4368C173.295 94.4611 173.321 94.4925 173.339 94.5284L182.339 112.294C182.342 112.3 182.344 112.306 182.343 112.312C182.343 112.319 182.341 112.325 182.338 112.33C182.335 112.336 182.33 112.34 182.325 112.344C182.319 112.347 182.313 112.349 182.307 112.349L178.389 112.356C178.358 112.356 178.329 112.347 178.303 112.33C178.277 112.314 178.256 112.29 178.242 112.261L176.947 109.655C176.939 109.639 176.926 109.625 176.91 109.615C176.894 109.606 176.876 109.601 176.857 109.601ZM172.917 101.686L170.789 106.193C170.786 106.2 170.784 106.207 170.785 106.214C170.785 106.221 170.788 106.228 170.791 106.234C170.795 106.24 170.801 106.245 170.807 106.249C170.813 106.252 170.82 106.254 170.827 106.254H175.017C175.029 106.254 175.042 106.251 175.053 106.245C175.064 106.239 175.073 106.23 175.08 106.219C175.087 106.208 175.091 106.196 175.092 106.183C175.092 106.17 175.09 106.157 175.084 106.146L173.006 101.687C172.976 101.624 172.946 101.623 172.917 101.686Z" fill="#002168"/>
<path d="M187.62 102.278L187.59 112.271C187.59 112.288 187.583 112.305 187.572 112.317C187.56 112.329 187.544 112.336 187.528 112.336H183.963C183.946 112.336 183.931 112.329 183.919 112.317C183.908 112.305 183.901 112.289 183.901 112.272L183.879 94.4909C183.879 94.4577 183.892 94.4257 183.915 94.4015C183.937 94.3774 183.968 94.3629 184.001 94.361C184.129 94.3529 184.241 94.3537 184.337 94.3634C184.439 94.3731 184.537 94.4189 184.631 94.5006C184.914 94.7484 185.464 95.2483 186.281 96.0003C189.329 98.8095 192.371 101.626 195.406 104.45C195.424 104.466 195.469 104.513 195.541 104.591C195.681 104.742 195.742 104.693 195.721 104.442C195.714 104.35 195.711 104.282 195.711 104.24C195.699 100.972 195.707 97.7049 195.732 94.4375C195.733 94.4206 195.739 94.4046 195.751 94.3928C195.762 94.381 195.778 94.3744 195.794 94.3743H199.391C199.399 94.3743 199.407 94.376 199.414 94.3792C199.422 94.3823 199.428 94.387 199.434 94.3928C199.44 94.3987 199.444 94.4057 199.447 94.4133C199.45 94.421 199.452 94.4292 199.452 94.4375L199.466 112.257C199.467 112.274 199.461 112.292 199.45 112.306C199.44 112.32 199.425 112.329 199.409 112.333C199.265 112.369 199.122 112.376 198.979 112.354C198.859 112.336 198.738 112.271 198.616 112.159C195.019 108.894 191.388 105.585 187.722 102.232C187.655 102.17 187.621 102.185 187.62 102.278Z" fill="#002168"/>
</g>
<defs>
<clipPath id="clip0_2455_15359">
<rect width="253" height="112.69" fill="white"/>
</clipPath>
</defs>
</svg>
