<svg width="183" height="96" viewBox="0 0 183 96" fill="none" xmlns="http://www.w3.org/2000/svg">
<g clip-path="url(#clip0_2455_14636)">
<path d="M109.501 0H126.346C126.358 0.0233125 126.364 0.0471548 126.366 0.071527C126.369 0.0937799 126.361 0.116563 126.343 0.139875C115.999 13.7915 105.631 27.4579 95.2407 41.1392C95.2278 41.1555 95.2209 41.1758 95.2209 41.1968C95.2209 41.2178 95.2278 41.2384 95.2407 41.2552L116.245 68.9155C116.314 69.0077 116.291 69.0538 116.177 69.0538L99.4843 69.0633C99.4573 69.0633 99.4306 69.0571 99.4065 69.0452C99.3824 69.0334 99.3614 69.0162 99.3451 68.995L86.8151 52.4849C86.8026 52.4682 86.7863 52.4545 86.7676 52.4452C86.749 52.4358 86.7284 52.4309 86.7075 52.4309C86.6867 52.4309 86.6661 52.4358 86.6474 52.4452C86.6287 52.4545 86.6125 52.4682 86.6 52.4849L74.1189 68.9679C74.0969 68.9975 74.0682 69.0216 74.0353 69.0381C74.0023 69.0547 73.966 69.0633 73.9292 69.0633H57.3231C57.1671 69.0633 57.136 69.0008 57.2298 68.8757L109.501 0Z" fill="#19469D"/>
<path d="M182.902 4.31994C182.902 5.45815 182.452 6.54974 181.651 7.35457C180.85 8.1594 179.764 8.61156 178.631 8.61156C177.499 8.61156 176.413 8.1594 175.612 7.35457C174.811 6.54974 174.361 5.45815 174.361 4.31994C174.361 3.18173 174.811 2.09014 175.612 1.28531C176.413 0.480472 177.499 0.0283203 178.631 0.0283203C179.764 0.0283203 180.85 0.480472 181.651 1.28531C182.452 2.09014 182.902 3.18173 182.902 4.31994ZM182.073 4.31835C182.073 3.86393 181.984 3.41397 181.811 2.99414C181.638 2.57432 181.384 2.19286 181.065 1.87154C180.745 1.55022 180.365 1.29533 179.947 1.12143C179.53 0.947537 179.082 0.858033 178.63 0.858033C177.717 0.858033 176.841 1.2226 176.195 1.87154C175.549 2.52047 175.186 3.40062 175.186 4.31835C175.186 5.23608 175.549 6.11623 176.195 6.76516C176.841 7.4141 177.717 7.77866 178.63 7.77866C179.082 7.77866 179.53 7.68916 179.947 7.51526C180.365 7.34137 180.745 7.08648 181.065 6.76516C181.384 6.44384 181.638 6.06238 181.811 5.64255C181.984 5.22273 182.073 4.77276 182.073 4.31835Z" fill="#19469D"/>
<path d="M178.642 4.93256L178.114 4.92938C178.089 4.92938 178.064 4.93977 178.046 4.95825C178.028 4.97673 178.018 5.0018 178.018 5.02793V6.41397C178.018 6.43164 178.014 6.44913 178.008 6.46544C178.002 6.48174 177.993 6.49653 177.981 6.50895C177.97 6.52137 177.956 6.53117 177.941 6.53779C177.926 6.5444 177.91 6.5477 177.894 6.54748L177.137 6.53795C177.115 6.53748 177.095 6.52778 177.08 6.51088C177.065 6.49399 177.056 6.47121 177.056 6.44735L177.031 2.15096C177.031 2.11877 177.044 2.08788 177.066 2.06497C177.089 2.04207 177.12 2.02899 177.153 2.02857C177.624 2.02433 178.069 2.02433 178.487 2.02857C179.086 2.03281 179.517 2.11016 179.78 2.26063C180.336 2.57747 180.499 3.14174 180.267 3.95344C180.18 4.25544 180.009 4.46472 179.751 4.58129C179.732 4.58973 179.716 4.60212 179.702 4.61772C179.688 4.63332 179.678 4.6518 179.671 4.67202C179.665 4.69224 179.662 4.71379 179.664 4.73536C179.666 4.75692 179.672 4.77805 179.682 4.79746L180.507 6.43463C180.512 6.44421 180.515 6.45491 180.515 6.46569C180.515 6.47648 180.513 6.48699 180.508 6.49624C180.504 6.50548 180.497 6.51315 180.489 6.5185C180.481 6.52385 180.471 6.52672 180.461 6.52682L179.697 6.53159C179.645 6.53206 179.593 6.51455 179.545 6.48108C179.497 6.44761 179.457 6.39955 179.429 6.34244L178.755 5.00886C178.743 4.98634 178.727 4.96735 178.707 4.95392C178.687 4.94049 178.665 4.93311 178.642 4.93256ZM179.438 3.47023C179.488 3.10571 179.291 2.88954 178.848 2.82172C178.768 2.80901 178.521 2.81113 178.106 2.82808C178.085 2.8289 178.064 2.83797 178.049 2.85339C178.034 2.8688 178.026 2.88935 178.026 2.91074L178.016 4.01543C178.016 4.0382 178.024 4.06029 178.038 4.07816C178.052 4.09603 178.072 4.10864 178.094 4.11398C178.435 4.19875 178.746 4.17173 179.025 4.03291C179.266 3.91423 179.403 3.72667 179.438 3.47023Z" fill="#19469D"/>
<path d="M0 41.8736V40.761C0.0569404 38.3131 0.320553 36.0778 0.790838 34.0549C2.13105 28.2946 4.97701 23.4377 9.32873 19.4841C10.1069 18.7773 10.9336 18.1213 11.8088 17.5163C16.3904 14.3511 21.5619 12.5391 27.3235 12.0802C30.5733 11.8217 33.6518 12.0209 36.5589 12.6779C42.0505 13.9198 46.4971 16.7025 49.8987 21.0259C50.5272 21.8249 51.1172 22.7017 51.6686 23.6565C53.8123 27.3632 55.161 31.4121 55.7146 35.8033C55.9318 37.5263 56.0583 38.9834 56.0942 40.1744C56.149 42.0416 56.1669 43.9749 56.1479 45.9745C56.1475 46.0067 56.1345 46.0374 56.1117 46.06C56.0889 46.0826 56.0582 46.0953 56.0261 46.0953L14.0469 46.1048C14.0368 46.1048 14.0269 46.1068 14.0177 46.1109C14.0085 46.115 14.0002 46.121 13.9935 46.1285C13.9868 46.136 13.9817 46.1449 13.9787 46.1545C13.9756 46.1641 13.9746 46.1743 13.9757 46.1843C14.0126 46.5128 14.0991 47.0394 14.2351 47.7642C14.9521 51.5991 16.8665 54.563 19.9782 56.6558C22.4551 58.3206 25.2072 59.1746 28.2345 59.2181C29.3206 59.234 30.3735 59.1858 31.3931 59.0735C32.9273 58.9039 34.4025 58.515 35.8186 57.9068C36.7118 57.5232 37.6286 57.0055 38.5692 56.3538C40.3965 55.0897 42.0473 53.5696 43.5214 51.7936C43.5499 51.7588 43.5906 51.7365 43.6351 51.7311C43.6796 51.7258 43.7244 51.7379 43.7603 51.765L53.516 59.1847C53.5304 59.1956 53.5424 59.2093 53.5514 59.225C53.5604 59.2406 53.5661 59.2579 53.5683 59.2758C53.5705 59.2938 53.5692 59.312 53.5643 59.3294C53.5593 59.3467 53.551 59.363 53.5398 59.377C52.8997 60.1675 52.2148 60.9464 51.4852 61.7136C47.9106 65.4754 43.5868 68.018 38.5138 69.3415C34.8644 70.2931 31.1996 70.6317 27.5196 70.3572C23.2448 70.0393 19.2079 68.9368 15.4087 67.0495C14.4534 66.5748 13.5386 66.0487 12.6645 65.4711C7.0896 61.7867 3.30623 56.7422 1.31437 50.3376C0.523535 47.7944 0.0854105 44.9731 0 41.8736ZM38.1231 25.7069C36.533 24.3166 34.7041 23.3937 32.6363 22.938C29.6986 22.2916 26.7678 22.3149 23.8438 23.008C22.1335 23.4138 20.586 24.1837 19.2016 25.3175C18.4265 25.9533 17.7079 26.7242 17.0457 27.6302C15.3744 29.9138 14.3532 32.5348 13.982 35.4934C13.9802 35.5074 13.9814 35.5216 13.9855 35.535C13.9896 35.5485 13.9966 35.5609 14.0059 35.5715C14.0151 35.582 14.0266 35.5904 14.0394 35.5961C14.0522 35.6019 14.0661 35.6048 14.0801 35.6047L42.1422 35.5951C42.1525 35.5951 42.1627 35.593 42.1722 35.5889C42.1817 35.5848 42.1903 35.5788 42.1976 35.5713C42.2048 35.5637 42.2105 35.5548 42.2143 35.545C42.2181 35.5351 42.2199 35.5246 42.2197 35.5141C42.1838 33.7116 41.8844 32.0066 41.3213 30.3991C40.6834 28.5754 39.6173 27.0114 38.1231 25.7069Z" fill="#19469D"/>
<path d="M137.28 61.9898H137.141C137.12 61.9898 137.1 61.9993 137.085 62.0163C137.07 62.0333 137.062 62.0564 137.062 62.0804L137.052 95.3261C137.052 95.3691 137.035 95.4104 137.005 95.4408C136.975 95.4712 136.934 95.4883 136.891 95.4883L123.26 95.4787C123.216 95.4787 123.174 95.461 123.143 95.4294C123.111 95.3978 123.094 95.3549 123.094 95.3102V13.4961C123.094 13.4577 123.109 13.4209 123.136 13.3938C123.163 13.3667 123.2 13.3514 123.238 13.3514H136.236C136.25 13.3514 136.263 13.3542 136.276 13.3595C136.289 13.3649 136.3 13.3727 136.31 13.3826C136.32 13.3925 136.327 13.4042 136.333 13.4172C136.338 13.4301 136.341 13.4439 136.341 13.4579L136.35 21.5278C136.35 21.5546 136.357 21.5804 136.371 21.6004C136.385 21.6205 136.403 21.6336 136.424 21.6374C136.501 21.6512 136.569 21.6078 136.627 21.5071C138.293 18.6068 140.507 16.3948 143.27 14.871C145.205 13.805 147.416 13.0213 149.903 12.5201C152.183 12.0613 154.478 11.879 156.787 11.9733C157.849 12.0157 158.899 12.1063 159.939 12.2451C164.02 12.7856 167.726 14.1875 171.058 16.4509C175.049 19.1615 178.046 22.7209 180.049 27.1291C180.881 28.9591 181.524 30.8543 181.978 32.8147C183.139 37.8301 183.246 42.8693 182.298 47.9323C181.448 52.4709 179.621 56.6062 176.816 60.3383C176.168 61.1998 175.481 62.0009 174.753 62.7416C170.357 67.2123 165 69.7433 158.682 70.3346C156.664 70.5232 154.486 70.4671 152.149 70.1661C148.545 69.702 145.243 68.4966 142.242 66.55C140.399 65.3537 138.787 63.858 137.408 62.0629C137.391 62.0403 137.37 62.0219 137.348 62.0092C137.325 61.9965 137.302 61.9899 137.28 61.9898ZM141.645 53.5226C145.037 56.6263 149.055 58.0632 153.701 57.8333C157.07 57.6669 160.051 56.5919 162.645 54.6082C165.52 52.4105 167.432 49.5102 168.381 45.9073C169.174 42.8958 169.204 39.8758 168.472 36.8473C167.588 33.1819 165.679 30.1878 162.745 27.865C160.715 26.2586 158.386 25.235 155.759 24.7942C155.061 24.6776 154.265 24.6061 153.372 24.5796C152.457 24.552 151.656 24.5711 150.971 24.6368C147.956 24.9271 145.257 25.9985 142.873 27.8507C142.032 28.5046 141.268 29.2309 140.579 30.0299C138.785 32.1132 137.594 34.5404 137.006 37.3114C136.632 39.0821 136.515 40.8708 136.655 42.6775C136.968 46.7201 138.498 50.2032 141.245 53.1268C141.374 53.2646 141.507 53.3965 141.645 53.5226Z" fill="#19469D"/>
<path d="M48.1146 93.8136C48.0672 93.7585 48.0366 93.6928 48.0229 93.6165C48.0113 93.5582 48.0229 93.4909 48.0577 93.4146C50.2098 88.6833 52.3799 83.9598 54.5679 79.2444C54.6839 78.9953 54.803 78.8369 54.9253 78.7691C55.074 78.6875 55.2343 78.6827 55.4062 78.7548C55.5274 78.8057 55.626 78.9132 55.7019 79.0775C58.5785 85.3305 60.7412 90.0624 62.19 93.2732C62.3935 93.7267 62.2385 93.9514 61.725 93.9471C61.1187 93.9418 60.4844 93.9392 59.8222 93.9392C59.6314 93.9392 59.4985 93.8576 59.4236 93.6944L58.3291 91.3133C58.3188 91.2906 58.3028 91.2713 58.2829 91.2578C58.2629 91.2442 58.24 91.237 58.2168 91.237H52.1274C52.0916 91.2371 52.0566 91.2476 52.0266 91.2674C51.9965 91.2871 51.9728 91.3152 51.9581 91.3483C51.6228 92.1123 51.2769 92.88 50.9205 93.6515C50.8172 93.8751 50.6269 93.9789 50.3495 93.963C50.1281 93.9492 50.0137 93.9423 50.0063 93.9423C49.4643 93.9508 48.9229 93.9423 48.3819 93.9169C48.2586 93.9106 48.1695 93.8761 48.1146 93.8136ZM55.0772 84.2878L53.1365 88.6462C53.129 88.663 53.1259 88.6814 53.1274 88.6997C53.129 88.7181 53.135 88.7357 53.1451 88.7511C53.1552 88.7664 53.169 88.779 53.1851 88.7876C53.2013 88.7962 53.2194 88.8006 53.2377 88.8003L57.0685 88.7749C57.0831 88.7749 57.0975 88.7713 57.1103 88.7642C57.1231 88.7572 57.1339 88.747 57.1418 88.7347C57.1497 88.7223 57.1543 88.7082 57.1554 88.6936C57.1564 88.6789 57.1537 88.6643 57.1476 88.6509L55.1847 84.2878C55.1489 84.2073 55.113 84.2073 55.0772 84.2878Z" fill="#19469D"/>
<path d="M15.6681 88.228C15.6575 89.8196 15.6544 91.4118 15.6586 93.0044C15.6586 93.3986 15.6586 93.5973 15.6586 93.6005C15.6132 93.8484 15.4371 93.9645 15.1303 93.9486C15.0038 93.9422 14.9331 93.939 14.9184 93.939C14.3215 93.939 13.7237 93.939 13.1247 93.939C12.916 93.939 12.8116 93.8341 12.8116 93.6243C12.8116 88.9957 12.8116 84.3687 12.8116 79.7433C12.8116 79.7295 12.8084 79.657 12.8021 79.5256C12.782 79.1473 12.9581 78.9677 13.3304 78.9867C13.4759 78.9941 13.5518 78.9979 13.5581 78.9979C15.6301 78.9979 17.7153 78.9979 19.8136 78.9979C20.0235 78.9979 20.2302 79.027 20.4337 79.0853C22.0786 79.5621 23.1663 80.5359 23.6967 82.0068C24.0141 82.8873 24.0731 83.7525 23.8738 84.6024C23.6619 85.5105 23.1874 86.2883 22.4503 86.9358C22.0464 87.2897 21.5461 87.6124 20.9493 87.9038C20.9401 87.9083 20.9319 87.9146 20.9253 87.9224C20.9186 87.9302 20.9135 87.9393 20.9104 87.9491C20.9073 87.9589 20.9062 87.9692 20.9072 87.9795C20.9082 87.9897 20.9112 87.9996 20.9161 88.0087C21.8756 89.7603 22.8173 91.5214 23.7409 93.2921C23.8169 93.4383 23.8406 93.5655 23.8121 93.6736C23.7668 93.8506 23.6455 93.939 23.4483 93.939C22.6965 93.939 21.8999 93.939 21.0584 93.939C20.9909 93.939 20.9249 93.9203 20.8676 93.8849C20.8104 93.8495 20.7642 93.7989 20.7342 93.7388L18.0074 88.2598C17.9892 88.2235 17.9617 88.193 17.9279 88.1716C17.8941 88.1503 17.8554 88.139 17.816 88.139L15.7472 88.1454C15.726 88.1458 15.7059 88.1547 15.6911 88.1701C15.6763 88.1856 15.6681 88.2064 15.6681 88.228ZM15.7298 85.7627C16.373 85.7553 17.0162 85.7516 17.6594 85.7516C18.7518 85.7505 19.3929 85.7251 19.5827 85.6753C20.1426 85.5301 20.5628 85.199 20.8433 84.6819C21.0964 84.2167 21.1676 83.7234 21.0568 83.2021C20.9219 82.562 20.5613 82.1074 19.975 81.8383C19.6607 81.6942 19.171 81.6221 18.5056 81.6221C17.6019 81.6232 16.6798 81.6189 15.7392 81.6094C15.7179 81.6094 15.6973 81.6179 15.6822 81.6331C15.6671 81.6483 15.6586 81.6689 15.6586 81.6904V85.6928C15.6586 85.7021 15.6604 85.7113 15.664 85.7199C15.6676 85.7285 15.6729 85.7363 15.6795 85.7428C15.6862 85.7493 15.694 85.7544 15.7026 85.7579C15.7113 85.7613 15.7205 85.7629 15.7298 85.7627Z" fill="#19469D"/>
<path d="M35.7554 87.7885L35.7459 91.2457C35.7459 91.2672 35.7546 91.2878 35.77 91.303C35.7854 91.3182 35.8063 91.3267 35.8281 91.3267C37.82 91.314 39.796 91.3103 41.7563 91.3156C42.216 91.3167 42.4374 91.5291 42.4206 91.953C42.3995 92.468 42.3889 92.9835 42.3889 93.4996C42.3889 93.792 42.2434 93.9383 41.9524 93.9383C39.1655 93.9383 36.4034 93.9383 33.666 93.9383C33.6555 93.9383 33.5658 93.9436 33.3971 93.9542C33.0323 93.9764 32.8609 93.8042 32.8831 93.4376C32.8936 93.267 32.8989 93.1769 32.8989 93.1674C32.8989 88.5886 32.8989 83.9833 32.8989 79.3515C32.8989 79.1216 33.0128 79.0066 33.2405 79.0066L41.973 78.9971C42.2503 78.9971 42.3889 79.1369 42.3889 79.4167C42.3889 79.9147 42.3889 80.3858 42.3889 80.8298C42.3889 80.8372 42.3932 80.9135 42.4016 81.0586C42.4216 81.4242 42.2329 81.6075 41.8354 81.6086C39.872 81.616 37.8727 81.6197 35.8376 81.6197C35.8256 81.6197 35.8137 81.6221 35.8025 81.6267C35.7914 81.6314 35.7813 81.6382 35.7728 81.6467C35.7642 81.6553 35.7575 81.6655 35.7529 81.6766C35.7483 81.6878 35.7459 81.6998 35.7459 81.7119V84.9481C35.7459 84.9717 35.7552 84.9944 35.7718 85.0111C35.7885 85.0278 35.811 85.0371 35.8345 85.0371C37.4098 85.0371 38.9762 85.0371 40.5336 85.0371C40.5368 85.0371 40.6401 85.0302 40.8436 85.0165C41.1884 84.9921 41.3608 85.1579 41.3608 85.514C41.3608 86.0173 41.3608 86.5206 41.3608 87.024C41.3608 87.3112 41.2781 87.5077 41.1125 87.6137C41.0218 87.6709 40.8394 87.6995 40.5653 87.6995C38.9889 87.6953 37.4119 87.6985 35.8345 87.7091C35.8241 87.7091 35.8138 87.7111 35.8042 87.7151C35.7946 87.7191 35.7859 87.725 35.7786 87.7323C35.7712 87.7397 35.7654 87.7485 35.7614 87.7581C35.7574 87.7678 35.7554 87.7781 35.7554 87.7885Z" fill="#19469D"/>
<path d="M71.2862 91.3538C72.8658 91.3092 74.4559 91.296 76.0565 91.314C76.0681 91.314 76.1609 91.3087 76.3349 91.2981C76.5669 91.2833 76.744 91.3564 76.8663 91.5175C76.9475 91.6234 76.9881 91.7909 76.9881 92.0197C76.9881 92.4881 76.9881 92.9586 76.9881 93.4312C76.9881 93.7692 76.8199 93.9383 76.4836 93.9383C74.0478 93.9383 71.564 93.9383 69.0323 93.9383C69.0228 93.9383 68.9485 93.942 68.8093 93.9494C68.456 93.9695 68.2905 93.8005 68.3126 93.4423C68.3232 93.2611 68.3284 93.1679 68.3284 93.1626C68.3284 88.534 68.3284 83.9303 68.3284 79.3515C68.3284 79.1152 68.446 78.9971 68.6812 78.9971C69.3033 78.9971 69.9238 78.9971 70.5428 78.9971C70.8771 78.9971 71.0795 79.1099 71.1502 79.3356C71.167 79.3897 71.1755 79.5889 71.1755 79.9333C71.1755 83.6633 71.1755 87.4341 71.1755 91.2457C71.1755 91.2601 71.1783 91.2745 71.1839 91.2878C71.1895 91.3011 71.1977 91.3132 71.2081 91.3232C71.2184 91.3333 71.2306 91.3412 71.244 91.3465C71.2575 91.3517 71.2718 91.3542 71.2862 91.3538Z" fill="#19469D"/>
<path d="M85.9926 81.6294C85.0837 81.6188 84.1742 81.6156 83.2642 81.6198C83.2579 81.6198 83.1862 81.6246 83.0491 81.6342C82.8593 81.6469 82.7054 81.5949 82.5873 81.4784C82.4998 81.3915 82.4544 81.2532 82.4512 81.0635C82.4428 80.5199 82.4407 79.9763 82.4449 79.4327C82.447 79.1424 82.5925 78.9972 82.8815 78.9972C85.8308 78.9972 88.8191 78.9972 91.8464 78.9972C91.8591 78.9972 91.9439 78.9914 92.1011 78.9797C92.4237 78.9564 92.5882 79.1212 92.5945 79.474C92.6009 79.7993 92.6046 80.1247 92.6056 80.45C92.6088 80.9385 92.6093 81.1875 92.6072 81.197C92.5513 81.5065 92.332 81.6516 91.9492 81.6326C91.7773 81.6241 91.6888 81.6198 91.6835 81.6198C90.8083 81.6156 89.9331 81.6188 89.0579 81.6294C89.0475 81.6294 89.0372 81.6314 89.0276 81.6354C89.018 81.6394 89.0093 81.6453 89.002 81.6527C88.9946 81.66 88.9888 81.6688 88.9848 81.6784C88.9809 81.6881 88.9788 81.6984 88.9788 81.7089L88.9693 93.5029C88.9693 93.7868 88.8301 93.9294 88.5518 93.9304L86.513 93.94C86.2262 93.941 86.0828 93.7953 86.0828 93.5029L86.0733 81.7073C86.0733 81.6866 86.0648 81.6668 86.0497 81.6522C86.0345 81.6376 86.014 81.6294 85.9926 81.6294Z" fill="#19469D"/>
<path d="M105.732 83.9047L109.099 79.0726C109.113 79.052 109.132 79.0352 109.154 79.0235C109.176 79.0119 109.201 79.0058 109.226 79.0059H111.695C111.749 79.0059 111.799 79.0246 111.836 79.0583C112.044 79.2522 112.055 79.4854 111.867 79.7577C110.299 82.036 108.719 84.3285 107.127 86.6354C107.096 86.6788 107.08 86.7311 107.08 86.7848V93.4511C107.08 93.7669 106.922 93.9275 106.608 93.9327C106.036 93.9423 105.402 93.9444 104.707 93.9391C104.452 93.937 104.298 93.8527 104.247 93.6864C104.237 93.6546 104.232 93.5052 104.232 93.2381C104.232 91.1898 104.232 89.0938 104.232 86.9501C104.232 86.861 104.206 86.7746 104.157 86.7022C102.535 84.319 100.952 81.9893 99.4084 79.7132C99.2439 79.4705 99.2666 79.2528 99.4764 79.0599C99.513 79.0252 99.5628 79.0059 99.6156 79.0059H102.086C102.111 79.0059 102.135 79.0121 102.158 79.0241C102.18 79.036 102.199 79.0532 102.213 79.0742L105.561 83.9047C105.571 83.9184 105.584 83.9297 105.598 83.9374C105.613 83.9452 105.63 83.9493 105.647 83.9493C105.663 83.9493 105.68 83.9452 105.695 83.9374C105.71 83.9297 105.722 83.9184 105.732 83.9047Z" fill="#19469D"/>
<path d="M74.2961 35.8539C74.289 35.8632 74.2799 35.8707 74.2695 35.8758C74.2591 35.881 74.2476 35.8836 74.236 35.8836C74.2244 35.8836 74.2129 35.881 74.2025 35.8758C74.1921 35.8707 74.183 35.8632 74.1759 35.8539L57.2425 13.5169C57.1592 13.4067 57.1861 13.3516 57.3231 13.3516H73.9402C73.9806 13.3516 74.0203 13.3609 74.0562 13.3789C74.0922 13.3968 74.1234 13.4228 74.1474 13.4549L82.6569 24.6973C82.6709 24.716 82.6783 24.7389 82.678 24.7624C82.6777 24.786 82.6697 24.8089 82.6553 24.8277L74.2961 35.8539Z" fill="#F5821F"/>
</g>
<defs>
<clipPath id="clip0_2455_14636">
<rect width="183" height="95.5283" fill="white"/>
</clipPath>
</defs>
</svg>
