<svg width="208" height="95" viewBox="0 0 208 95" fill="none" xmlns="http://www.w3.org/2000/svg">
<g clip-path="url(#clip0_2455_14546)">
<mask id="mask0_2455_14546" style="mask-type:luminance" maskUnits="userSpaceOnUse" x="0" y="0" width="208" height="95">
<path d="M208 0H0V94.9565H208V0Z" fill="white"/>
</mask>
<g mask="url(#mask0_2455_14546)">
<mask id="mask1_2455_14546" style="mask-type:luminance" maskUnits="userSpaceOnUse" x="0" y="0" width="208" height="95">
<path d="M0 0V94.9565H208V0H0Z" fill="white"/>
</mask>
<g mask="url(#mask1_2455_14546)">
<path d="M206.733 94.0527L206.313 92.9872C206.558 92.778 206.588 92.6413 206.588 92.4139C206.585 92.0185 206.301 91.7754 205.844 91.7754H205.266V94.0551H205.589V93.0307H205.984L206.392 94.0527H206.733ZM205.589 92.7707V92.0535H205.805C206.115 92.0535 206.249 92.1878 206.25 92.4006C206.25 92.5881 206.151 92.7707 205.805 92.7707H205.589Z" fill="#858689"/>
</g>
<mask id="mask2_2455_14546" style="mask-type:luminance" maskUnits="userSpaceOnUse" x="0" y="0" width="208" height="95">
<path d="M0 0V94.9565H208V0H0Z" fill="white"/>
</mask>
<g mask="url(#mask2_2455_14546)">
<path d="M205.935 94.9567C204.794 94.9567 203.867 94.0278 203.867 92.885C203.867 91.7457 204.794 90.8193 205.935 90.8193C207.07 90.8193 208 91.7457 208 92.885C208 94.0278 207.07 94.9567 205.935 94.9567ZM205.935 91.0806C204.94 91.0806 204.13 91.8945 204.13 92.885C204.13 93.8863 204.94 94.6894 205.935 94.6894C206.924 94.6894 207.731 93.8863 207.731 92.885C207.731 91.8945 206.924 91.0806 205.935 91.0806Z" fill="#858689"/>
</g>
<mask id="mask3_2455_14546" style="mask-type:luminance" maskUnits="userSpaceOnUse" x="0" y="0" width="208" height="95">
<path d="M0 0V94.9565H208V0H0Z" fill="white"/>
</mask>
<g mask="url(#mask3_2455_14546)">
<path d="M97.1607 73.6104L91.6119 90.8817L84.9282 73.7168H83.2133L91.2489 94.7771H92.0026L97.7468 76.2117L103.589 94.7771H104.344L112.341 73.7168H110.586L103.998 90.8671L98.3776 73.6104H97.1607Z" fill="#858689"/>
</g>
<mask id="mask4_2455_14546" style="mask-type:luminance" maskUnits="userSpaceOnUse" x="0" y="0" width="208" height="95">
<path d="M0 0V94.9565H208V0H0Z" fill="white"/>
</mask>
<g mask="url(#mask4_2455_14546)">
<path d="M119.273 73.6992V94.6059H129.473V93.2587H120.889V73.6992H119.273Z" fill="#858689"/>
</g>
<mask id="mask5_2455_14546" style="mask-type:luminance" maskUnits="userSpaceOnUse" x="0" y="0" width="208" height="95">
<path d="M0 0V94.9565H208V0H0Z" fill="white"/>
</mask>
<g mask="url(#mask5_2455_14546)">
<path d="M132.447 73.6992V94.6059H142.645V93.2587H134.056V73.6992H132.447Z" fill="#858689"/>
</g>
<mask id="mask6_2455_14546" style="mask-type:luminance" maskUnits="userSpaceOnUse" x="0" y="0" width="208" height="95">
<path d="M0 0V94.9565H208V0H0Z" fill="white"/>
</mask>
<g mask="url(#mask6_2455_14546)">
<path d="M145.489 94.6055H147.105V73.7012H145.489V94.6055Z" fill="#858689"/>
</g>
<mask id="mask7_2455_14546" style="mask-type:luminance" maskUnits="userSpaceOnUse" x="0" y="0" width="208" height="95">
<path d="M0 0V94.9565H208V0H0Z" fill="white"/>
</mask>
<g mask="url(#mask7_2455_14546)">
<path d="M114.678 94.6055H116.304V73.7012H114.678V94.6055Z" fill="#858689"/>
</g>
<mask id="mask8_2455_14546" style="mask-type:luminance" maskUnits="userSpaceOnUse" x="0" y="0" width="208" height="95">
<path d="M0 0V94.9565H208V0H0Z" fill="white"/>
</mask>
<g mask="url(#mask8_2455_14546)">
<path d="M158.011 73.5898L149.39 94.6054H150.893L153.847 87.3841H162.96L165.907 94.6054H167.418L158.8 73.5898H158.011ZM158.388 76.2191L162.412 86.0441H154.398L158.388 76.2191Z" fill="#858689"/>
</g>
<mask id="mask9_2455_14546" style="mask-type:luminance" maskUnits="userSpaceOnUse" x="0" y="0" width="208" height="95">
<path d="M0 0V94.9565H208V0H0Z" fill="white"/>
</mask>
<g mask="url(#mask9_2455_14546)">
<path d="M187.136 73.7402L179.205 83.4444L171.275 73.7402H169.655V94.6058H171.275V76.1034H171.335L179.205 85.8523L187.07 76.1034H187.136V94.6058H188.754V73.7402H187.136Z" fill="#858689"/>
</g>
<mask id="mask10_2455_14546" style="mask-type:luminance" maskUnits="userSpaceOnUse" x="0" y="0" width="208" height="95">
<path d="M0 0V94.9565H208V0H0Z" fill="white"/>
</mask>
<g mask="url(#mask10_2455_14546)">
<path d="M202.13 77.1269C200.813 75.4205 198.941 75.0153 197.504 75.0153C195.007 75.0153 193.116 76.7314 193.116 79.0015C193.116 84.5634 203.025 81.9064 203.025 89.2172C203.025 92.4269 200.374 94.9328 196.984 94.9328C195.278 94.9328 193.448 94.4659 191.645 93.0969V91.2018C193.675 93.1308 195.278 93.4368 196.893 93.4368C199.367 93.4368 201.28 91.6299 201.28 89.2764C201.28 83.342 191.375 85.9385 191.375 79.0619C191.375 75.9768 194.053 73.5302 197.356 73.5205C199.032 73.5205 201.174 74.2086 202.13 75.3552V77.1269Z" fill="#858689"/>
</g>
<mask id="mask11_2455_14546" style="mask-type:luminance" maskUnits="userSpaceOnUse" x="0" y="0" width="208" height="95">
<path d="M0 0V94.9565H208V0H0Z" fill="white"/>
</mask>
<g mask="url(#mask11_2455_14546)">
<path d="M31.0993 73.7646V94.6641H41.8135V91.9635H34.0938V73.7646H31.0993Z" fill="#858689"/>
</g>
<mask id="mask12_2455_14546" style="mask-type:luminance" maskUnits="userSpaceOnUse" x="0" y="0" width="208" height="95">
<path d="M0 0V94.9565H208V0H0Z" fill="white"/>
</mask>
<g mask="url(#mask12_2455_14546)">
<path d="M43.7322 73.7646V94.6641H54.4464V91.9635H46.7279V73.7646H43.7322Z" fill="#858689"/>
</g>
<mask id="mask13_2455_14546" style="mask-type:luminance" maskUnits="userSpaceOnUse" x="0" y="0" width="208" height="95">
<path d="M0 0V94.9565H208V0H0Z" fill="white"/>
</mask>
<g mask="url(#mask13_2455_14546)">
<path d="M56.3772 73.7646V94.6641H68.4807V91.9635H59.3717V85.4728H67.903V82.7722H59.3717V76.4604H68.2045V73.7646H56.3772Z" fill="#858689"/>
</g>
<mask id="mask14_2455_14546" style="mask-type:luminance" maskUnits="userSpaceOnUse" x="0" y="0" width="208" height="95">
<path d="M0 0V94.9565H208V0H0Z" fill="white"/>
</mask>
<g mask="url(#mask14_2455_14546)">
<path d="M83.8596 94.6593L80.0004 84.8959C82.2954 82.9947 82.5547 81.7043 82.5294 79.6133C82.4968 75.9972 79.9063 73.7646 75.6865 73.7646H70.4308V94.6665H73.4265V85.3204C73.4265 85.3204 75.9 85.3228 76.995 85.3155L80.7626 94.6593H83.8596ZM73.4265 82.8992V76.3394H75.3501C78.2541 76.3394 79.4155 77.5367 79.4469 79.4947C79.4782 81.2459 78.5592 82.8992 75.3501 82.8992H73.4265Z" fill="#858689"/>
</g>
<mask id="mask15_2455_14546" style="mask-type:luminance" maskUnits="userSpaceOnUse" x="0" y="0" width="208" height="95">
<path d="M0 0V94.9565H208V0H0Z" fill="white"/>
</mask>
<g mask="url(#mask15_2455_14546)">
<path d="M17.0638 73.7646V94.6303H29.1431V91.9333H20.0547V85.4498H28.5655V82.7589H20.0547V76.458H28.8706V73.7646H17.0638Z" fill="#858689"/>
</g>
<mask id="mask16_2455_14546" style="mask-type:luminance" maskUnits="userSpaceOnUse" x="0" y="0" width="208" height="95">
<path d="M0 0V94.9565H208V0H0Z" fill="white"/>
</mask>
<g mask="url(#mask16_2455_14546)">
<path d="M11.7321 73.7646L10.6745 74.9124L3.00065 83.2862V73.7646H0.0109558V94.5879H3.00065V87.4392L6.32681 83.7844L10.6817 94.5928H13.7679V94.5903L12.6789 91.9031L8.45783 81.4382L13.0009 76.4507L15.4478 73.7646H11.7321Z" fill="#858689"/>
</g>
<mask id="mask17_2455_14546" style="mask-type:luminance" maskUnits="userSpaceOnUse" x="0" y="0" width="208" height="95">
<path d="M0 0V94.9565H208V0H0Z" fill="white"/>
</mask>
<g mask="url(#mask17_2455_14546)">
<path d="M0 0V63.2221H8.79661V48.3925L15.2475 41.9634L24.219 63.2221H33.1314L21.2836 35.0155L29.6014 25.7745L45.7318 63.2221H49.1182L61.2205 34.2584L73.5182 63.2221H76.8564L95.289 20.5826H86.2633L75.168 46.4539L64.4068 20.5826H58.1814L47.3297 46.4539L36.173 20.5826H24.4735L8.79661 36.2732V0H0Z" fill="#C33641"/>
</g>
</g>
</g>
<defs>
<clipPath id="clip0_2455_14546">
<rect width="208" height="94.9565" fill="white"/>
</clipPath>
</defs>
</svg>
