<svg width="244" height="89" viewBox="0 0 244 89" fill="none" xmlns="http://www.w3.org/2000/svg">
<g clip-path="url(#clip0_2455_15413)">
<mask id="mask0_2455_15413" style="mask-type:luminance" maskUnits="userSpaceOnUse" x="0" y="0" width="244" height="89">
<path d="M244 0H0V89H244V0Z" fill="white"/>
</mask>
<g mask="url(#mask0_2455_15413)">
<path d="M18.7086 34.1924C23.0094 34.1924 25.5182 37.0358 25.5182 40.0925C25.5182 42.3673 24.2997 44.0734 21.9342 45.1397C24.0846 46.206 24.7297 48.7651 27.6686 54.8074H21.9342C19.7121 50.4001 18.8519 46.4192 16.0564 46.4192H14.5511V54.8074H9.39014V34.1924H18.7086ZM14.5511 42.7227H17.275C18.7086 42.7227 20.1422 42.083 20.1422 40.3769C20.1422 38.813 19.1387 38.031 17.2033 38.031H14.5511V42.7227Z" fill="black"/>
</g>
<mask id="mask1_2455_15413" style="mask-type:luminance" maskUnits="userSpaceOnUse" x="0" y="0" width="244" height="89">
<path d="M244 0H0V89H244V0Z" fill="white"/>
</mask>
<g mask="url(#mask1_2455_15413)">
<path d="M40.4994 55.1632C32.9013 55.1632 28.6005 49.8317 28.6005 44.5713C28.6005 39.5953 32.6862 33.9795 40.4994 33.9795C48.3126 33.9795 52.3983 39.5953 52.3983 44.5713C52.3983 49.8317 47.9542 55.1632 40.4994 55.1632ZM40.4994 38.2447C36.557 38.2447 33.9048 40.7327 33.9048 44.5713C33.9048 48.3389 36.557 50.898 40.4994 50.898C44.4418 50.898 47.094 48.41 47.094 44.5713C47.094 40.7327 44.4418 38.2447 40.4994 38.2447Z" fill="black"/>
</g>
<mask id="mask2_2455_15413" style="mask-type:luminance" maskUnits="userSpaceOnUse" x="0" y="0" width="244" height="89">
<path d="M244 0H0V89H244V0Z" fill="white"/>
</mask>
<g mask="url(#mask2_2455_15413)">
<path d="M64.6557 45.2108V54.8785H59.423V45.2108L51.2515 34.1924H57.5593L62.0752 40.6612L66.5911 34.1924H72.8273L64.6557 45.2108Z" fill="black"/>
</g>
<mask id="mask3_2455_15413" style="mask-type:luminance" maskUnits="userSpaceOnUse" x="0" y="0" width="244" height="89">
<path d="M244 0H0V89H244V0Z" fill="white"/>
</mask>
<g mask="url(#mask3_2455_15413)">
<path d="M92.8261 54.8787H87.235L85.5147 50.8268H76.1962L74.6193 54.8787H69.0999L77.4865 34.2637H83.5076L92.8261 54.8787ZM80.6404 39.1686L77.5582 47.2014H83.9377L80.6404 39.1686Z" fill="black"/>
</g>
<mask id="mask4_2455_15413" style="mask-type:luminance" maskUnits="userSpaceOnUse" x="0" y="0" width="244" height="89">
<path d="M244 0H0V89H244V0Z" fill="white"/>
</mask>
<g mask="url(#mask4_2455_15413)">
<path d="M111.75 54.8785H95.9084V34.1924H101.069V51.0398H111.75V54.8785Z" fill="black"/>
</g>
<mask id="mask5_2455_15413" style="mask-type:luminance" maskUnits="userSpaceOnUse" x="0" y="0" width="244" height="89">
<path d="M244 0H0V89H244V0Z" fill="white"/>
</mask>
<g mask="url(#mask5_2455_15413)">
<path d="M136.838 54.8785H120.996V34.1924H126.157V51.0398H136.838V54.8785Z" fill="black"/>
</g>
<mask id="mask6_2455_15413" style="mask-type:luminance" maskUnits="userSpaceOnUse" x="0" y="0" width="244" height="89">
<path d="M244 0H0V89H244V0Z" fill="white"/>
</mask>
<g mask="url(#mask6_2455_15413)">
<path d="M144.293 44.9269H151.819V47.9125H144.293V51.8222H152.392V54.8789H140.207V38.458H152.249V41.5147H144.293V44.9269Z" fill="black"/>
</g>
<mask id="mask7_2455_15413" style="mask-type:luminance" maskUnits="userSpaceOnUse" x="0" y="0" width="244" height="89">
<path d="M244 0H0V89H244V0Z" fill="white"/>
</mask>
<g mask="url(#mask7_2455_15413)">
<path d="M165.51 34.1924C170.241 34.1924 172.391 37.4624 172.391 40.3058C172.391 43.2203 170.313 46.5614 165.51 46.5614H161.424V54.8785H156.263V34.2635H165.51V34.1924ZM161.424 42.7938H163.861C166.227 42.7938 167.087 41.9408 167.087 40.3769C167.087 38.5997 166.083 37.96 163.288 37.96H161.424V42.7938Z" fill="black"/>
</g>
<mask id="mask8_2455_15413" style="mask-type:luminance" maskUnits="userSpaceOnUse" x="0" y="0" width="244" height="89">
<path d="M244 0H0V89H244V0Z" fill="white"/>
</mask>
<g mask="url(#mask8_2455_15413)">
<path d="M194.326 54.8787H188.734L187.014 50.8268H177.696L176.119 54.8787H170.599L178.986 34.2637H185.007L194.326 54.8787ZM182.14 39.1686L179.058 47.2014H185.437L182.14 39.1686Z" fill="black"/>
</g>
<mask id="mask9_2455_15413" style="mask-type:luminance" maskUnits="userSpaceOnUse" x="0" y="0" width="244" height="89">
<path d="M244 0H0V89H244V0Z" fill="white"/>
</mask>
<g mask="url(#mask9_2455_15413)">
<path d="M214.969 40.1642C212.317 38.8846 209.737 38.2449 207.156 38.2449C201.494 38.2449 199.558 41.7281 199.558 44.7848C199.558 48.4813 202.425 50.8982 206.726 50.8982C208.016 50.8982 208.662 50.7561 210.167 50.1874V47.7704H207.156V44.0029H215.4V52.4621C213.823 54.0971 210.024 55.2345 206.655 55.2345C199.415 55.2345 194.254 50.8271 194.254 44.6426C194.254 38.316 199.415 34.0508 206.798 34.0508C209.88 34.0508 212.962 34.7616 215.041 35.7569V40.1642H214.969Z" fill="black"/>
</g>
<mask id="mask10_2455_15413" style="mask-type:luminance" maskUnits="userSpaceOnUse" x="0" y="0" width="244" height="89">
<path d="M244 0H0V89H244V0Z" fill="white"/>
</mask>
<g mask="url(#mask10_2455_15413)">
<path d="M224.431 42.2962H233.965V46.1349H224.431V51.0398H234.61V54.8785H219.27V34.1924H234.61V37.96H224.431V42.2962Z" fill="black"/>
</g>
<mask id="mask11_2455_15413" style="mask-type:luminance" maskUnits="userSpaceOnUse" x="0" y="0" width="244" height="89">
<path d="M244 0H0V89H244V0Z" fill="white"/>
</mask>
<g mask="url(#mask11_2455_15413)">
<path d="M119.706 9.3125H9.39014V25.6623H119.706V9.3125Z" fill="#FB000B"/>
</g>
<mask id="mask12_2455_15413" style="mask-type:luminance" maskUnits="userSpaceOnUse" x="0" y="0" width="244" height="89">
<path d="M244 0H0V89H244V0Z" fill="white"/>
</mask>
<g mask="url(#mask12_2455_15413)">
<path d="M234.61 9.3125H232.531V25.6623H234.61V9.3125Z" fill="black"/>
</g>
<mask id="mask13_2455_15413" style="mask-type:luminance" maskUnits="userSpaceOnUse" x="0" y="0" width="244" height="89">
<path d="M244 0H0V89H244V0Z" fill="white"/>
</mask>
<g mask="url(#mask13_2455_15413)">
<path d="M127.304 9.3125H125.226V25.6623H127.304V9.3125Z" fill="black"/>
</g>
<mask id="mask14_2455_15413" style="mask-type:luminance" maskUnits="userSpaceOnUse" x="0" y="0" width="244" height="89">
<path d="M244 0H0V89H244V0Z" fill="white"/>
</mask>
<g mask="url(#mask14_2455_15413)">
<path d="M132.394 9.3125H130.315V25.6623H132.394V9.3125Z" fill="black"/>
</g>
<mask id="mask15_2455_15413" style="mask-type:luminance" maskUnits="userSpaceOnUse" x="0" y="0" width="244" height="89">
<path d="M244 0H0V89H244V0Z" fill="white"/>
</mask>
<g mask="url(#mask15_2455_15413)">
<path d="M137.483 9.3125H135.404V25.6623H137.483V9.3125Z" fill="black"/>
</g>
<mask id="mask16_2455_15413" style="mask-type:luminance" maskUnits="userSpaceOnUse" x="0" y="0" width="244" height="89">
<path d="M244 0H0V89H244V0Z" fill="white"/>
</mask>
<g mask="url(#mask16_2455_15413)">
<path d="M142.644 9.3125H140.565V25.6623H142.644V9.3125Z" fill="black"/>
</g>
<mask id="mask17_2455_15413" style="mask-type:luminance" maskUnits="userSpaceOnUse" x="0" y="0" width="244" height="89">
<path d="M244 0H0V89H244V0Z" fill="white"/>
</mask>
<g mask="url(#mask17_2455_15413)">
<path d="M147.733 9.3125H145.655V25.6623H147.733V9.3125Z" fill="black"/>
</g>
<mask id="mask18_2455_15413" style="mask-type:luminance" maskUnits="userSpaceOnUse" x="0" y="0" width="244" height="89">
<path d="M244 0H0V89H244V0Z" fill="white"/>
</mask>
<g mask="url(#mask18_2455_15413)">
<path d="M152.823 9.3125H150.744V25.6623H152.823V9.3125Z" fill="black"/>
</g>
<mask id="mask19_2455_15413" style="mask-type:luminance" maskUnits="userSpaceOnUse" x="0" y="0" width="244" height="89">
<path d="M244 0H0V89H244V0Z" fill="white"/>
</mask>
<g mask="url(#mask19_2455_15413)">
<path d="M157.984 9.3125H155.905V25.6623H157.984V9.3125Z" fill="black"/>
</g>
<mask id="mask20_2455_15413" style="mask-type:luminance" maskUnits="userSpaceOnUse" x="0" y="0" width="244" height="89">
<path d="M244 0H0V89H244V0Z" fill="white"/>
</mask>
<g mask="url(#mask20_2455_15413)">
<path d="M163.073 9.3125H160.994V25.6623H163.073V9.3125Z" fill="black"/>
</g>
<mask id="mask21_2455_15413" style="mask-type:luminance" maskUnits="userSpaceOnUse" x="0" y="0" width="244" height="89">
<path d="M244 0H0V89H244V0Z" fill="white"/>
</mask>
<g mask="url(#mask21_2455_15413)">
<path d="M168.162 9.3125H166.083V25.6623H168.162V9.3125Z" fill="black"/>
</g>
<mask id="mask22_2455_15413" style="mask-type:luminance" maskUnits="userSpaceOnUse" x="0" y="0" width="244" height="89">
<path d="M244 0H0V89H244V0Z" fill="white"/>
</mask>
<g mask="url(#mask22_2455_15413)">
<path d="M173.251 9.3125H171.173V25.6623H173.251V9.3125Z" fill="black"/>
</g>
<mask id="mask23_2455_15413" style="mask-type:luminance" maskUnits="userSpaceOnUse" x="0" y="0" width="244" height="89">
<path d="M244 0H0V89H244V0Z" fill="white"/>
</mask>
<g mask="url(#mask23_2455_15413)">
<path d="M178.412 9.3125H176.334V25.6623H178.412V9.3125Z" fill="black"/>
</g>
<mask id="mask24_2455_15413" style="mask-type:luminance" maskUnits="userSpaceOnUse" x="0" y="0" width="244" height="89">
<path d="M244 0H0V89H244V0Z" fill="white"/>
</mask>
<g mask="url(#mask24_2455_15413)">
<path d="M183.502 9.3125H181.423V25.6623H183.502V9.3125Z" fill="black"/>
</g>
<mask id="mask25_2455_15413" style="mask-type:luminance" maskUnits="userSpaceOnUse" x="0" y="0" width="244" height="89">
<path d="M244 0H0V89H244V0Z" fill="white"/>
</mask>
<g mask="url(#mask25_2455_15413)">
<path d="M188.591 9.3125H186.512V25.6623H188.591V9.3125Z" fill="black"/>
</g>
<mask id="mask26_2455_15413" style="mask-type:luminance" maskUnits="userSpaceOnUse" x="0" y="0" width="244" height="89">
<path d="M244 0H0V89H244V0Z" fill="white"/>
</mask>
<g mask="url(#mask26_2455_15413)">
<path d="M193.752 9.3125H191.673V25.6623H193.752V9.3125Z" fill="black"/>
</g>
<mask id="mask27_2455_15413" style="mask-type:luminance" maskUnits="userSpaceOnUse" x="0" y="0" width="244" height="89">
<path d="M244 0H0V89H244V0Z" fill="white"/>
</mask>
<g mask="url(#mask27_2455_15413)">
<path d="M198.841 9.3125H196.763V25.6623H198.841V9.3125Z" fill="black"/>
</g>
<mask id="mask28_2455_15413" style="mask-type:luminance" maskUnits="userSpaceOnUse" x="0" y="0" width="244" height="89">
<path d="M244 0H0V89H244V0Z" fill="white"/>
</mask>
<g mask="url(#mask28_2455_15413)">
<path d="M203.931 9.3125H201.852V25.6623H203.931V9.3125Z" fill="black"/>
</g>
<mask id="mask29_2455_15413" style="mask-type:luminance" maskUnits="userSpaceOnUse" x="0" y="0" width="244" height="89">
<path d="M244 0H0V89H244V0Z" fill="white"/>
</mask>
<g mask="url(#mask29_2455_15413)">
<path d="M209.092 9.3125H207.013V25.6623H209.092V9.3125Z" fill="black"/>
</g>
<mask id="mask30_2455_15413" style="mask-type:luminance" maskUnits="userSpaceOnUse" x="0" y="0" width="244" height="89">
<path d="M244 0H0V89H244V0Z" fill="white"/>
</mask>
<g mask="url(#mask30_2455_15413)">
<path d="M214.181 9.3125H212.102V25.6623H214.181V9.3125Z" fill="black"/>
</g>
<mask id="mask31_2455_15413" style="mask-type:luminance" maskUnits="userSpaceOnUse" x="0" y="0" width="244" height="89">
<path d="M244 0H0V89H244V0Z" fill="white"/>
</mask>
<g mask="url(#mask31_2455_15413)">
<path d="M219.27 9.3125H217.192V25.6623H219.27V9.3125Z" fill="black"/>
</g>
<mask id="mask32_2455_15413" style="mask-type:luminance" maskUnits="userSpaceOnUse" x="0" y="0" width="244" height="89">
<path d="M244 0H0V89H244V0Z" fill="white"/>
</mask>
<g mask="url(#mask32_2455_15413)">
<path d="M224.36 9.3125H222.281V25.6623H224.36V9.3125Z" fill="black"/>
</g>
<mask id="mask33_2455_15413" style="mask-type:luminance" maskUnits="userSpaceOnUse" x="0" y="0" width="244" height="89">
<path d="M244 0H0V89H244V0Z" fill="white"/>
</mask>
<g mask="url(#mask33_2455_15413)">
<path d="M229.521 9.3125H227.442V25.6623H229.521V9.3125Z" fill="black"/>
</g>
<mask id="mask34_2455_15413" style="mask-type:luminance" maskUnits="userSpaceOnUse" x="0" y="0" width="244" height="89">
<path d="M244 0H0V89H244V0Z" fill="white"/>
</mask>
<g mask="url(#mask34_2455_15413)">
<path d="M119.706 63.3379H9.39014V79.6877H119.706V63.3379Z" fill="#FB000B"/>
</g>
<mask id="mask35_2455_15413" style="mask-type:luminance" maskUnits="userSpaceOnUse" x="0" y="0" width="244" height="89">
<path d="M244 0H0V89H244V0Z" fill="white"/>
</mask>
<g mask="url(#mask35_2455_15413)">
<path d="M234.61 63.3379H232.531V79.6877H234.61V63.3379Z" fill="black"/>
</g>
<mask id="mask36_2455_15413" style="mask-type:luminance" maskUnits="userSpaceOnUse" x="0" y="0" width="244" height="89">
<path d="M244 0H0V89H244V0Z" fill="white"/>
</mask>
<g mask="url(#mask36_2455_15413)">
<path d="M127.304 63.3379H125.226V79.6877H127.304V63.3379Z" fill="black"/>
</g>
<mask id="mask37_2455_15413" style="mask-type:luminance" maskUnits="userSpaceOnUse" x="0" y="0" width="244" height="89">
<path d="M244 0H0V89H244V0Z" fill="white"/>
</mask>
<g mask="url(#mask37_2455_15413)">
<path d="M132.394 63.3379H130.315V79.6877H132.394V63.3379Z" fill="black"/>
</g>
<mask id="mask38_2455_15413" style="mask-type:luminance" maskUnits="userSpaceOnUse" x="0" y="0" width="244" height="89">
<path d="M244 0H0V89H244V0Z" fill="white"/>
</mask>
<g mask="url(#mask38_2455_15413)">
<path d="M137.483 63.3379H135.404V79.6877H137.483V63.3379Z" fill="black"/>
</g>
<mask id="mask39_2455_15413" style="mask-type:luminance" maskUnits="userSpaceOnUse" x="0" y="0" width="244" height="89">
<path d="M244 0H0V89H244V0Z" fill="white"/>
</mask>
<g mask="url(#mask39_2455_15413)">
<path d="M142.644 63.3379H140.565V79.6877H142.644V63.3379Z" fill="black"/>
</g>
<mask id="mask40_2455_15413" style="mask-type:luminance" maskUnits="userSpaceOnUse" x="0" y="0" width="244" height="89">
<path d="M244 0H0V89H244V0Z" fill="white"/>
</mask>
<g mask="url(#mask40_2455_15413)">
<path d="M147.733 63.3379H145.655V79.6877H147.733V63.3379Z" fill="black"/>
</g>
<mask id="mask41_2455_15413" style="mask-type:luminance" maskUnits="userSpaceOnUse" x="0" y="0" width="244" height="89">
<path d="M244 0H0V89H244V0Z" fill="white"/>
</mask>
<g mask="url(#mask41_2455_15413)">
<path d="M152.823 63.3379H150.744V79.6877H152.823V63.3379Z" fill="black"/>
</g>
<mask id="mask42_2455_15413" style="mask-type:luminance" maskUnits="userSpaceOnUse" x="0" y="0" width="244" height="89">
<path d="M244 0H0V89H244V0Z" fill="white"/>
</mask>
<g mask="url(#mask42_2455_15413)">
<path d="M157.984 63.3379H155.905V79.6877H157.984V63.3379Z" fill="black"/>
</g>
<mask id="mask43_2455_15413" style="mask-type:luminance" maskUnits="userSpaceOnUse" x="0" y="0" width="244" height="89">
<path d="M244 0H0V89H244V0Z" fill="white"/>
</mask>
<g mask="url(#mask43_2455_15413)">
<path d="M163.073 63.3379H160.994V79.6877H163.073V63.3379Z" fill="black"/>
</g>
<mask id="mask44_2455_15413" style="mask-type:luminance" maskUnits="userSpaceOnUse" x="0" y="0" width="244" height="89">
<path d="M244 0H0V89H244V0Z" fill="white"/>
</mask>
<g mask="url(#mask44_2455_15413)">
<path d="M168.162 63.3379H166.083V79.6877H168.162V63.3379Z" fill="black"/>
</g>
<mask id="mask45_2455_15413" style="mask-type:luminance" maskUnits="userSpaceOnUse" x="0" y="0" width="244" height="89">
<path d="M244 0H0V89H244V0Z" fill="white"/>
</mask>
<g mask="url(#mask45_2455_15413)">
<path d="M173.251 63.3379H171.173V79.6877H173.251V63.3379Z" fill="black"/>
</g>
<mask id="mask46_2455_15413" style="mask-type:luminance" maskUnits="userSpaceOnUse" x="0" y="0" width="244" height="89">
<path d="M244 0H0V89H244V0Z" fill="white"/>
</mask>
<g mask="url(#mask46_2455_15413)">
<path d="M178.412 63.3379H176.334V79.6877H178.412V63.3379Z" fill="black"/>
</g>
<mask id="mask47_2455_15413" style="mask-type:luminance" maskUnits="userSpaceOnUse" x="0" y="0" width="244" height="89">
<path d="M244 0H0V89H244V0Z" fill="white"/>
</mask>
<g mask="url(#mask47_2455_15413)">
<path d="M183.502 63.3379H181.423V79.6877H183.502V63.3379Z" fill="black"/>
</g>
<mask id="mask48_2455_15413" style="mask-type:luminance" maskUnits="userSpaceOnUse" x="0" y="0" width="244" height="89">
<path d="M244 0H0V89H244V0Z" fill="white"/>
</mask>
<g mask="url(#mask48_2455_15413)">
<path d="M188.591 63.3379H186.512V79.6877H188.591V63.3379Z" fill="black"/>
</g>
<mask id="mask49_2455_15413" style="mask-type:luminance" maskUnits="userSpaceOnUse" x="0" y="0" width="244" height="89">
<path d="M244 0H0V89H244V0Z" fill="white"/>
</mask>
<g mask="url(#mask49_2455_15413)">
<path d="M193.752 63.3379H191.673V79.6877H193.752V63.3379Z" fill="black"/>
</g>
<mask id="mask50_2455_15413" style="mask-type:luminance" maskUnits="userSpaceOnUse" x="0" y="0" width="244" height="89">
<path d="M244 0H0V89H244V0Z" fill="white"/>
</mask>
<g mask="url(#mask50_2455_15413)">
<path d="M198.841 63.3379H196.763V79.6877H198.841V63.3379Z" fill="black"/>
</g>
<mask id="mask51_2455_15413" style="mask-type:luminance" maskUnits="userSpaceOnUse" x="0" y="0" width="244" height="89">
<path d="M244 0H0V89H244V0Z" fill="white"/>
</mask>
<g mask="url(#mask51_2455_15413)">
<path d="M203.931 63.3379H201.852V79.6877H203.931V63.3379Z" fill="black"/>
</g>
<mask id="mask52_2455_15413" style="mask-type:luminance" maskUnits="userSpaceOnUse" x="0" y="0" width="244" height="89">
<path d="M244 0H0V89H244V0Z" fill="white"/>
</mask>
<g mask="url(#mask52_2455_15413)">
<path d="M209.092 63.3379H207.013V79.6877H209.092V63.3379Z" fill="black"/>
</g>
<mask id="mask53_2455_15413" style="mask-type:luminance" maskUnits="userSpaceOnUse" x="0" y="0" width="244" height="89">
<path d="M244 0H0V89H244V0Z" fill="white"/>
</mask>
<g mask="url(#mask53_2455_15413)">
<path d="M214.181 63.3379H212.102V79.6877H214.181V63.3379Z" fill="black"/>
</g>
<mask id="mask54_2455_15413" style="mask-type:luminance" maskUnits="userSpaceOnUse" x="0" y="0" width="244" height="89">
<path d="M244 0H0V89H244V0Z" fill="white"/>
</mask>
<g mask="url(#mask54_2455_15413)">
<path d="M219.27 63.3379H217.192V79.6877H219.27V63.3379Z" fill="black"/>
</g>
<mask id="mask55_2455_15413" style="mask-type:luminance" maskUnits="userSpaceOnUse" x="0" y="0" width="244" height="89">
<path d="M244 0H0V89H244V0Z" fill="white"/>
</mask>
<g mask="url(#mask55_2455_15413)">
<path d="M224.36 63.3379H222.281V79.6877H224.36V63.3379Z" fill="black"/>
</g>
<mask id="mask56_2455_15413" style="mask-type:luminance" maskUnits="userSpaceOnUse" x="0" y="0" width="244" height="89">
<path d="M244 0H0V89H244V0Z" fill="white"/>
</mask>
<g mask="url(#mask56_2455_15413)">
<path d="M229.521 63.3379H227.442V79.6877H229.521V63.3379Z" fill="black"/>
</g>
</g>
<defs>
<clipPath id="clip0_2455_15413">
<rect width="244" height="89" fill="white"/>
</clipPath>
</defs>
</svg>
