<svg width="202" height="116" viewBox="0 0 202 116" fill="none" xmlns="http://www.w3.org/2000/svg">
<g clip-path="url(#clip0_2455_14962)">
<path d="M35.2983 18.7174C35.2551 18.6979 35.2184 18.6653 35.1927 18.6235C35.167 18.5816 35.1533 18.5324 35.1533 18.4817C35.1533 12.6401 35.1499 6.82707 35.1432 1.04243C35.1432 0.86021 35.1638 0.648108 35.205 0.406117C35.2094 0.380676 35.2229 0.357668 35.2429 0.341232C35.2629 0.324795 35.2881 0.31601 35.3141 0.316456C35.7095 0.327061 36.0748 0.332361 36.4099 0.332361C78.6676 0.347787 120.926 0.34827 163.185 0.333809C163.615 0.333809 164.089 0.328025 164.606 0.316456C164.632 0.315877 164.657 0.320388 164.68 0.329722C164.704 0.339056 164.725 0.353026 164.743 0.37081C164.761 0.388594 164.776 0.409833 164.785 0.433281C164.795 0.456728 164.8 0.481908 164.8 0.507345L164.792 37.2239C164.792 37.2434 164.784 37.2621 164.771 37.2761C164.757 37.2901 164.739 37.2984 164.72 37.2991C164.052 37.329 163.388 37.2952 162.728 37.1979C162.708 37.1951 162.689 37.1853 162.675 37.1704C162.662 37.1555 162.655 37.1365 162.655 37.1169L162.646 2.63609C162.646 2.59697 162.631 2.55945 162.603 2.53179C162.576 2.50413 162.538 2.48859 162.5 2.48859H37.5559C37.49 2.48859 37.4269 2.51495 37.3803 2.56187C37.3337 2.60878 37.3075 2.67242 37.3075 2.73877L37.2989 19.5431C37.299 19.5515 37.2971 19.5597 37.2934 19.5672C37.2896 19.5746 37.2841 19.5809 37.2773 19.5855C37.2706 19.5901 37.2628 19.5929 37.2548 19.5936C37.2467 19.5943 37.2387 19.5929 37.2314 19.5894L35.2983 18.7174Z" fill="#FF0924"/>
<path d="M35.3113 49.6084C35.2629 49.5778 35.223 49.5343 35.1953 49.4819C35.1677 49.4296 35.1532 49.3701 35.1533 49.309C35.1533 46.4398 35.1533 43.6073 35.1533 40.8114C35.1533 40.4971 35.17 40.2406 35.2035 40.042C35.207 40.0202 35.2163 39.9996 35.2304 39.9826C35.2446 39.9655 35.2631 39.9526 35.284 39.9451L37.1797 39.2481C37.194 39.2427 37.2094 39.241 37.2245 39.243C37.2397 39.245 37.2541 39.2508 37.2667 39.2597C37.2792 39.2687 37.2895 39.2805 37.2966 39.2944C37.3037 39.3082 37.3074 39.3236 37.3075 39.3392V50.7262C37.3075 50.8284 37.2649 50.8525 37.1797 50.7985L35.3113 49.6084Z" fill="#FF0924"/>
<path d="M162.637 113.061L162.646 86.1345C162.646 86.1222 162.648 86.11 162.653 86.0986C162.658 86.0872 162.664 86.0768 162.673 86.0681C162.681 86.0593 162.692 86.0524 162.703 86.0477C162.714 86.043 162.726 86.0405 162.738 86.0405L164.721 86.0478C164.74 86.0481 164.758 86.0559 164.771 86.0694C164.784 86.083 164.792 86.1011 164.792 86.1201L164.8 115.27C164.8 115.292 164.796 115.313 164.787 115.332C164.778 115.351 164.765 115.368 164.749 115.382C164.733 115.396 164.714 115.406 164.694 115.412C164.673 115.418 164.652 115.42 164.631 115.416C164.502 115.397 164.355 115.388 164.19 115.389C159.224 115.435 154.257 115.457 149.29 115.455C112.49 115.441 75.6886 115.425 38.8872 115.406C37.6665 115.405 36.4707 115.414 35.2998 115.432C35.2807 115.433 35.2617 115.429 35.2439 115.422C35.2262 115.415 35.21 115.404 35.1964 115.391C35.1827 115.377 35.1719 115.361 35.1645 115.343C35.1571 115.325 35.1533 115.306 35.1533 115.286V84.4107C35.1533 84.35 35.17 84.2906 35.2014 84.2392C35.2329 84.1878 35.2779 84.1465 35.3314 84.12L37.1754 83.2162C37.1894 83.2093 37.2049 83.2062 37.2204 83.2072C37.236 83.2082 37.2511 83.2131 37.2643 83.2217C37.2775 83.2302 37.2884 83.242 37.2959 83.256C37.3035 83.2699 37.3075 83.2856 37.3075 83.3015V113.13C37.3075 113.158 37.3187 113.186 37.3386 113.206C37.3585 113.226 37.3856 113.237 37.4138 113.237C74.2065 113.226 110.948 113.218 147.638 113.211C152.414 113.21 157.344 113.229 162.429 113.267C162.456 113.268 162.483 113.263 162.509 113.252C162.534 113.242 162.557 113.227 162.576 113.208C162.596 113.189 162.611 113.166 162.621 113.14C162.632 113.115 162.637 113.088 162.637 113.061Z" fill="#FF0924"/>
<path d="M182.317 107.536C182.311 108.395 182.134 109.244 181.798 110.035C181.461 110.826 180.971 111.544 180.355 112.147C179.739 112.749 179.01 113.226 178.208 113.549C177.407 113.872 176.549 114.035 175.684 114.029C173.937 114.017 172.266 113.316 171.039 112.081C169.812 110.846 169.13 109.178 169.142 107.443C169.148 106.585 169.324 105.736 169.661 104.944C169.997 104.153 170.487 103.436 171.103 102.833C171.719 102.23 172.449 101.753 173.25 101.43C174.052 101.107 174.909 100.944 175.775 100.95C177.522 100.963 179.192 101.663 180.419 102.898C181.646 104.133 182.329 105.802 182.317 107.536ZM175.739 112.952C177.141 112.949 178.485 112.372 179.475 111.346C180.465 110.32 181.02 108.93 181.017 107.482C181.015 106.034 180.455 104.646 179.462 103.623C178.468 102.601 177.122 102.028 175.72 102.03C174.317 102.033 172.973 102.611 171.983 103.636C170.994 104.662 170.439 106.052 170.441 107.5C170.444 108.949 171.003 110.337 171.997 111.359C172.99 112.381 174.336 112.954 175.739 112.952Z" fill="#FF0924"/>
<path d="M176.94 107.911C176.924 107.914 176.908 107.921 176.895 107.931C176.882 107.942 176.872 107.955 176.865 107.97C176.858 107.986 176.856 108.002 176.857 108.019C176.858 108.035 176.863 108.051 176.872 108.065L178.837 111.137C178.886 111.212 178.866 111.251 178.778 111.253L177.862 111.277C177.8 111.279 177.739 111.263 177.684 111.232C177.628 111.2 177.581 111.153 177.547 111.096L175.741 108.101C175.719 108.066 175.689 108.037 175.653 108.017C175.617 107.996 175.577 107.986 175.535 107.986H174.569C174.514 107.986 174.461 108.008 174.422 108.048C174.383 108.089 174.361 108.143 174.361 108.2L174.346 111.114C174.346 111.149 174.334 111.183 174.313 111.208C174.292 111.234 174.263 111.248 174.233 111.248L173.436 111.261C173.41 111.262 173.384 111.256 173.36 111.246C173.336 111.235 173.314 111.219 173.296 111.199C173.277 111.179 173.263 111.155 173.253 111.129C173.243 111.103 173.238 111.074 173.238 111.046V103.828C173.238 103.802 173.248 103.777 173.266 103.758C173.284 103.739 173.309 103.729 173.335 103.728C174.195 103.718 175.072 103.71 175.966 103.705C176.505 103.702 177.032 103.779 177.546 103.937C178.133 104.116 178.494 104.552 178.63 105.244C178.929 106.763 178.365 107.652 176.94 107.911ZM177.088 104.94C176.755 104.761 176.381 104.675 175.966 104.683C175.464 104.691 174.976 104.696 174.503 104.696C174.484 104.696 174.465 104.7 174.447 104.707C174.43 104.715 174.414 104.726 174.401 104.74C174.387 104.754 174.377 104.771 174.37 104.79C174.363 104.808 174.359 104.828 174.359 104.848L174.385 106.934C174.385 106.95 174.389 106.966 174.395 106.981C174.401 106.995 174.41 107.008 174.421 107.019C174.433 107.03 174.446 107.038 174.46 107.043C174.475 107.049 174.49 107.051 174.506 107.05C174.911 107.025 175.307 107.011 175.695 107.007C176.301 107.001 176.693 106.963 176.871 106.892C177.382 106.69 177.587 106.236 177.484 105.532C177.445 105.258 177.313 105.061 177.088 104.94Z" fill="#FF0924"/>
<path d="M24.253 74.219C24.8802 74.2026 25.5073 74.1877 26.1344 74.1742C26.1541 74.1737 26.1742 74.168 26.1931 74.1575C26.212 74.147 26.2292 74.1319 26.2435 74.1134L26.2852 74.0599C26.2978 74.0435 26.3142 74.0299 26.3333 74.02C26.3523 74.01 26.3736 74.0039 26.3958 74.0021L27.5432 73.8965C27.5906 73.8918 27.6338 73.8719 27.6653 73.8401L27.7113 73.7938C27.7413 73.7636 27.779 73.7421 27.8204 73.7316C28.8343 73.4655 29.696 72.998 30.4054 72.3289C31.9431 70.8779 32.474 69.2037 31.9981 67.3064C31.8047 66.5322 31.4088 65.7493 30.8104 64.9578C29.8827 63.7295 28.7481 62.6917 27.4068 61.8442C26.4082 61.2127 25.4316 60.6786 24.4771 60.2419C21.6115 58.9307 18.8072 57.499 16.0642 55.9468C14.1905 54.8872 12.3169 53.6411 10.4432 52.2084C9.11906 51.1961 7.90984 50.1178 6.8155 48.9734C6.02467 48.1452 5.38942 47.4245 4.90975 46.8114C3.3233 44.7819 2.31035 42.4806 1.87089 39.9074C1.61717 38.4217 1.49462 36.843 1.50324 35.1712C1.51377 33.2517 1.79478 31.3746 2.34625 29.5399C3.12847 26.9397 4.59476 24.6442 6.74513 22.6533C8.90987 20.6479 11.4805 19.1112 14.4572 18.0429C15.2308 17.7653 15.8181 17.5763 16.2193 17.476C16.8005 17.3304 17.4123 17.2364 18.0547 17.194C18.1045 17.1902 18.1509 17.1762 18.194 17.1521C18.3692 17.0528 18.5502 17.0065 18.7369 17.0133C18.8967 17.0181 19.2917 16.9511 19.9217 16.8122C20.274 16.7351 20.6187 16.7057 20.9557 16.724C22.2022 16.7934 23.4474 16.8792 24.6911 16.9814C24.716 16.9834 25.0324 17.0354 25.6404 17.1376C26.0721 17.209 26.5264 17.1945 27.0032 17.0942C27.4322 17.0036 27.9257 16.9549 28.4839 16.9482C28.6294 16.9462 28.8587 16.9135 29.1718 16.8498C29.4169 16.7997 29.7022 16.7819 30.0277 16.7963C31.2839 16.8522 32.349 17.3464 33.2231 18.2786C34.0571 19.1676 34.7316 20.1264 35.2467 21.1551C36.1974 23.0534 36.9796 25.0182 37.5933 27.0496C37.8901 28.033 38.0399 28.5285 38.0428 28.5363C38.8355 31.0728 39.4641 33.176 39.9284 34.8459C40.0146 35.1553 39.9648 35.4638 39.7791 35.7714C39.5618 36.1329 39.2712 36.4198 38.9074 36.6319C38.3951 36.9317 37.8647 37.1949 37.3161 37.4215C36.9963 37.5545 36.443 37.8847 35.656 38.4121C34.8622 38.9433 34.3046 39.2591 33.9829 39.3593C33.3012 39.5714 32.5884 39.568 31.8445 39.3492C31.1197 39.1361 30.562 38.9216 30.1714 38.7057C29.7147 38.4531 29.3523 38.0414 29.0842 37.4706C28.8305 36.9307 28.6256 36.372 28.4695 35.7945C28.189 34.7581 27.8223 33.754 27.3695 32.7822C26.5403 31.0005 26.0592 29.941 25.9261 29.6035C25.5958 28.7638 25.222 28.0556 24.8045 27.4791C24.0932 26.4986 23.107 25.9076 21.8461 25.7061C19.3127 25.3022 17.1035 25.8994 15.2183 27.4979C14.3787 28.2094 13.7841 29.1427 13.4346 30.2977C13.0814 31.4604 12.9387 32.6511 13.0067 33.8697C13.0957 35.4817 13.6055 36.9187 14.5362 38.1807C15.1671 39.0378 15.934 39.8182 16.8368 40.522C18.5458 41.8535 20.375 42.9906 22.3243 43.9335C23.7892 44.6431 25.2512 45.3575 26.7103 46.0767C27.6801 46.554 28.5255 47.0052 29.2465 47.4303C30.3255 48.0666 31.3863 48.7324 32.429 49.4275C33.6353 50.2315 34.4314 50.7685 34.8172 51.0385C36.4458 52.1781 37.9193 53.4358 39.2377 54.8115C39.9174 55.5211 40.4881 56.3695 40.9495 57.3568C41.4407 58.4057 41.8849 59.4744 42.2823 60.5629C42.7964 61.9705 43.0875 63.4249 43.1554 64.926C43.256 67.1598 42.9596 69.3377 42.2665 71.4597C41.3809 74.1718 39.994 76.6485 38.106 78.8901C37.3573 79.779 36.5985 80.5329 35.8297 81.1519C34.43 82.2789 32.922 83.2156 31.3059 83.9618C30.4375 84.3628 29.5332 84.6694 28.593 84.8815C27.1761 85.2016 25.6887 85.3949 24.131 85.4614C19.7249 85.6504 15.5362 84.9153 11.5648 83.2561C9.9592 82.585 8.43738 81.699 6.99933 80.598C6.36168 80.1102 5.61681 79.5033 4.7647 78.7773C3.60526 77.7901 2.55976 76.7493 1.62819 75.655C1.31511 75.2867 1.00059 74.8283 0.684645 74.2797C-0.0707618 72.9666 -0.102835 71.6323 0.588424 70.2768C1.00012 69.4688 1.50851 68.8152 2.1136 68.3158C2.42093 68.0612 2.6713 67.7899 2.8647 67.5016C3.01501 67.2789 3.15192 66.9434 3.27543 66.4951C3.3549 66.2097 3.43245 65.9238 3.50809 65.6375C3.60766 65.2634 3.70053 64.9824 3.78669 64.7944C4.42242 63.4138 5.46218 63.2017 6.90598 64.1581C7.17214 64.3335 7.49432 64.7057 7.8725 65.2745C8.27653 65.88 8.68822 66.4806 9.10757 67.0764C9.50682 67.6433 9.94675 68.1697 10.4274 68.6556C11.2594 69.4973 11.9947 70.1972 12.6333 70.7554C13.8147 71.788 15.2073 72.5631 16.811 73.0809C18.6272 73.667 20.4827 74.0358 22.3775 74.1872C22.8839 74.2277 23.5091 74.2383 24.253 74.219Z" fill="#FF0924"/>
<path d="M150.318 73.7391C150.104 74.4844 149.767 75.2513 149.307 76.0399C148.064 78.1764 146.355 79.9041 144.183 81.223C143.081 81.8911 141.935 82.2888 140.744 82.4161C139.202 82.58 137.719 82.619 136.293 82.5332C135.575 82.4898 134.879 82.337 134.206 82.0748C133.564 81.8251 132.963 81.4606 132.402 80.9815C131.83 80.4927 131.326 79.9316 130.892 79.2981C130.109 78.1566 129.371 77.0036 128.679 75.8389C128.671 75.8262 128.66 75.8154 128.648 75.8075C128.635 75.7996 128.621 75.7949 128.606 75.7936C128.592 75.7923 128.577 75.7946 128.563 75.8002C128.55 75.8058 128.537 75.8146 128.528 75.8259C127.944 76.5046 127.376 77.1627 126.823 77.7999C126.817 77.8067 126.628 78.0303 126.256 78.4709C124.876 80.1012 123.276 81.4283 121.456 82.4522C120.732 82.8591 119.924 83.1922 119.034 83.4515C117.292 83.9586 115.608 83.9403 113.981 83.3966C113.164 83.1227 112.303 82.7029 111.4 82.137C109.014 80.6387 107.378 78.4811 106.493 75.6639C106.458 75.5521 106.307 75.3525 106.039 75.0652C106.033 75.0586 106.026 75.0534 106.018 75.0498C106.009 75.0463 106 75.0445 105.991 75.0447C105.982 75.0448 105.973 75.0468 105.965 75.0506C105.957 75.0544 105.949 75.0599 105.943 75.0667C105.345 75.757 104.752 76.4516 104.164 77.1506C103.468 77.9788 102.733 78.7698 101.961 79.5237C100.872 80.5852 99.661 81.4534 98.3273 82.1283C97.4025 82.5959 96.5044 82.9217 95.6332 83.1059C93.1889 83.6226 90.87 83.1575 88.6765 81.7103C86.8459 80.5033 85.3777 78.9838 84.2719 77.152C84.1599 76.9669 83.9847 76.6372 83.7463 76.1629C83.5806 75.8322 83.4045 75.5034 83.2178 75.1766C83.2131 75.1684 83.2067 75.1613 83.1991 75.1557C83.1915 75.1502 83.1829 75.1463 83.1738 75.1444C83.1646 75.1425 83.1553 75.1426 83.1463 75.1446C83.1373 75.1467 83.1288 75.1507 83.1216 75.1563C82.6036 75.5391 82.1402 75.9541 81.7314 76.4015C81.4375 76.7235 81.2891 76.8859 81.2862 76.8888C79.8328 78.3977 78.2153 79.6616 76.4335 80.6807C75.7394 81.0769 75.0045 81.3715 74.229 81.5643C73.3654 81.7793 72.5861 81.8337 71.891 81.7277C71.0083 81.5927 70.2366 81.2254 69.576 80.6257C69.0685 80.1668 68.5635 79.5951 68.0608 78.9106C67.7985 78.5539 67.4203 77.9281 66.9263 77.0335C66.5376 76.3306 66.1522 75.7083 65.7702 75.1665C65.6764 75.0344 65.6117 74.9245 65.5763 74.8367C65.556 74.7847 65.5272 74.7453 65.4959 74.7268C65.4049 74.67 65.3121 74.6613 65.2173 74.7008C65.1512 74.7288 65.0962 74.7914 65.0521 74.8888C64.1186 76.9992 62.9338 78.9058 61.4977 80.6084C60.7528 81.4905 59.8586 82.2517 58.815 82.8918C56.9097 84.0603 54.9365 84.3915 52.8953 83.8854C51.9838 83.6598 51.1121 83.2722 50.2801 82.7226C48.8755 81.7952 47.797 80.5611 47.0444 79.0205C46.8175 78.5577 46.6079 77.9359 46.4154 77.1549C46.2575 76.5148 46.099 75.8746 45.9401 75.2344C45.6547 74.0823 45.4839 72.9124 45.4274 71.7246C45.3613 70.3508 45.3551 68.9764 45.4087 67.6016C45.5044 65.1113 45.6883 62.7975 45.9602 60.66C46.1067 59.505 46.2101 58.4286 46.2704 57.4308C46.3048 56.8523 46.3015 56.1133 46.2603 55.2138C46.2115 54.134 46.2072 53.3945 46.2474 52.9954C46.3403 52.0641 46.3977 51.1318 46.4197 50.1985C46.4264 49.943 46.4015 49.0373 46.3451 47.4812C46.2972 46.1671 46.3484 44.92 46.4987 43.74C46.559 43.2637 46.7275 42.7474 47.0042 42.1911C47.2752 41.6483 47.7032 41.3008 48.2881 41.1485C49.3528 40.8708 50.4103 40.9021 51.4606 41.2425C52.8325 41.6869 53.9671 41.941 54.8642 42.0046C55.701 42.0644 56.2276 42.1121 56.4439 42.1478C57.23 42.2789 57.9236 42.6047 58.5249 43.1254C59.0113 43.5467 59.1673 44.0822 58.9931 44.732C58.8753 45.1707 58.7786 45.6132 58.703 46.0596C58.3947 47.8827 58.0625 49.701 57.7063 51.5145C57.511 52.5066 57.3626 53.4582 57.2611 54.3692C56.9825 56.8779 56.712 59.3874 56.4497 61.898C56.2764 63.5533 56.1802 64.5121 56.161 64.7744C55.9504 67.5915 56.1165 70.3416 56.6594 73.0247C56.735 73.3969 56.8638 73.7883 57.0457 74.199C57.2582 74.681 57.4799 75.0204 57.7106 75.2171C58.0831 75.5333 58.4856 75.5555 58.9184 75.2836C59.13 75.1506 59.3923 74.8927 59.7054 74.5099C60.8055 73.1669 61.5853 71.5872 62.0449 69.7708C62.4029 68.3555 62.648 67.2237 62.7802 66.3753C63.0703 64.5203 63.3666 62.6663 63.6691 60.8133C63.7122 60.5482 63.7275 60.3356 63.7151 60.1756C63.7017 60.0059 63.695 59.9182 63.695 59.9124C63.6902 59.0939 63.7385 58.0897 63.84 56.9C64.0689 54.214 64.223 52.4386 64.3025 51.5738C64.3302 51.274 64.3269 50.992 64.2924 50.7278C64.2675 50.5398 64.2402 50.3523 64.2106 50.1653C64.179 49.9696 64.1632 49.782 64.1632 49.6027C64.1651 48.3523 64.1742 47.1018 64.1905 45.8514C64.1972 45.2951 64.2666 44.8617 64.3987 44.5513C64.8267 43.5438 65.6697 43.0776 66.9277 43.1528C68.2068 43.229 69.4754 43.3866 70.7335 43.6257C71.1365 43.7019 71.5238 43.74 71.8953 43.74C72.1557 43.74 72.4161 43.74 72.6766 43.74C72.825 43.74 73.083 43.7168 73.4506 43.6706C74.072 43.5925 74.6771 43.685 75.2659 43.9482C75.7705 44.1729 76.1357 44.5402 76.3617 45.0502C76.6738 45.7579 76.7672 46.6116 76.6417 47.6114C76.5048 48.7008 76.3282 49.784 76.1118 50.8609C75.7413 52.7052 75.3631 54.5476 74.9772 56.3881C74.3961 59.1609 74.0706 61.549 74.0007 63.5524C73.9653 64.5608 73.9375 65.2482 73.9174 65.6146C73.8063 67.5534 74.0883 69.3939 74.7633 71.136C74.9232 71.5477 75.1668 71.9782 75.4943 72.4274C75.8791 72.9558 76.4258 73.2706 77.1343 73.3718C77.2502 73.3887 77.3681 73.369 77.4718 73.3154C77.8127 73.1418 78.142 72.9659 78.4599 72.7875C78.8007 72.5976 79.1004 72.3783 79.3589 72.1295C80.7969 70.7499 81.8377 69.1143 82.481 67.2227C82.616 66.8245 82.7017 66.3685 82.7381 65.8546C82.966 62.6287 83.1986 59.4033 83.4361 56.1784C83.5069 55.2201 83.6395 54.2111 83.8339 53.1516C83.8375 53.1317 83.8367 53.1112 83.8315 53.0916C83.8263 53.0721 83.8168 53.0539 83.8037 53.0386C83.7906 53.0232 83.7743 53.0109 83.7559 53.0027C83.7375 52.9945 83.7176 52.9905 83.6975 52.9911C83.0847 53.0036 82.5447 53.0036 82.0775 52.9911C80.9449 52.9583 80.2751 52.3933 80.0683 51.2962C80.0032 50.9529 80.0085 50.508 80.0841 49.9614C80.2172 49.004 80.4384 48.0688 80.7476 47.1558C80.8788 46.7673 81.0081 46.3787 81.1354 45.9902C81.2512 45.6344 81.3393 45.2353 81.3996 44.7928C81.4887 44.1372 81.5835 43.6898 81.684 43.4507C81.9214 42.8839 82.3523 42.5917 82.9765 42.5744C83.4581 42.5618 83.9373 42.5859 84.4141 42.6467C84.462 42.6522 84.5083 42.6408 84.5433 42.6149L85.158 42.1593C85.176 42.1461 85.1903 42.1281 85.1996 42.1071C85.2089 42.0861 85.2129 42.0627 85.2111 42.0393C85.1556 41.3046 85.1733 40.6004 85.2643 39.9265C85.3179 39.5225 85.3452 39.3171 85.3461 39.3104C85.7004 36.2224 85.9445 33.1257 86.0786 30.0203C86.0786 30.0164 86.0829 29.6655 86.0915 28.9675C86.0982 28.4507 86.1489 27.9638 86.2437 27.5068C86.3538 26.9766 86.6334 26.5355 87.0824 26.1836C88.0274 25.4432 88.9805 25.0286 89.9418 24.9399C90.5248 24.8859 91.0514 24.7895 91.5215 24.6507C91.9054 24.5369 92.2774 24.5051 92.6374 24.5552C93.5824 24.6873 94.5077 24.9033 95.4134 25.2031C96.3038 25.4972 97.1904 25.8023 98.0731 26.1185C98.3594 26.2207 98.5729 26.3591 98.7137 26.5336C99.1167 27.0311 99.2355 27.6355 99.0698 28.3471C98.9291 28.9525 98.7903 29.4606 98.6533 29.8713C97.8338 32.3201 97.2517 34.4364 96.907 36.22C96.4915 38.367 96.2641 40.2832 96.2248 41.9684C96.2105 42.6028 96.5341 42.9451 97.1957 42.9952C98.1004 43.0627 98.8061 43.082 99.3125 43.0531C99.9942 43.0145 100.667 43.0719 101.332 43.2251C101.734 43.3177 102.04 43.5149 102.249 43.8166C102.425 44.0683 102.504 44.3965 102.488 44.8015C102.472 45.2083 102.387 45.6055 102.235 45.9931C102.014 46.5571 101.803 47.125 101.602 47.6967C101.372 48.3513 101.322 49.0088 101.452 49.6692C101.548 50.1571 101.595 50.4752 101.593 50.6237C101.585 51.3217 101.427 52.0308 101.116 52.751C100.986 53.0547 100.808 53.2547 100.582 53.3512C99.4226 53.8486 98.2187 53.986 96.9702 53.7633C96.7347 53.7219 96.4264 53.7031 96.0453 53.7069C95.6844 53.7098 95.4115 53.8318 95.2267 54.0728C95.1214 54.2107 95.0305 54.469 94.9539 54.8479C94.7212 56 94.5944 57.1661 94.5733 58.3462C94.5685 58.6412 94.5235 59.3884 94.4383 60.5877C94.3923 61.2414 94.3196 61.9867 94.22 62.8235C94.0668 64.1067 93.9572 65.2053 93.8911 66.1193C93.6929 68.868 94.3579 71.3708 95.8859 73.6278C96.3981 74.3846 97.0616 74.8464 97.8764 75.0132C98.1339 75.0662 98.4025 75.0513 98.6821 74.9683C98.8755 74.9115 99.1086 74.789 99.3815 74.601C100.96 73.5087 102.339 72.21 103.518 70.7051C104.013 70.0736 104.429 69.4484 104.767 68.8294C105.17 68.0919 105.458 67.3934 105.632 66.7339C105.761 66.2432 105.84 65.6421 105.87 64.9306C105.915 63.8691 105.944 63.2646 105.958 63.1171C106.213 60.1245 106.58 57.1449 107.059 54.1784C107.066 54.1383 107.059 54.0973 107.039 54.0616C107.02 54.026 106.99 53.9979 106.953 53.9817C106.555 53.8072 106.142 53.6905 105.713 53.6317C105.008 53.5353 104.562 53.1906 104.375 52.5977C104.275 52.2815 104.263 51.8476 104.339 51.2962C104.402 50.8315 104.546 50.2048 104.77 49.4162C104.845 49.1539 104.871 48.8044 104.85 48.3677C104.808 47.5 104.795 46.5277 104.81 45.4508C104.813 45.2715 104.846 45.0979 104.909 44.9302C105.031 44.611 105.157 44.2341 105.287 43.7993C105.35 43.591 105.456 43.4209 105.606 43.2888C105.723 43.1847 105.898 43.1095 106.13 43.0632C106.664 42.9571 107.205 42.9166 107.751 42.9417C107.766 42.9422 107.784 42.9387 107.806 42.9315C107.828 42.9243 107.852 42.9135 107.878 42.8998L108.222 42.7132C108.261 42.6926 108.293 42.6657 108.316 42.6355C108.339 42.6052 108.352 42.5726 108.353 42.5411C108.404 41.4661 108.488 40.4157 108.604 39.3899C108.794 37.7162 108.9 36.7584 108.923 36.5164C109.148 34.1418 109.379 32.0184 109.617 30.1461C109.723 29.3073 109.782 28.5722 109.795 27.9407C109.796 27.8941 109.814 27.8494 109.845 27.8149C110.263 27.3608 110.722 26.9612 111.222 26.616C111.718 26.2728 112.263 26.0202 112.855 25.8582C113.967 25.5536 115.091 25.488 116.227 25.6615C116.399 25.6876 117.162 25.8606 118.517 26.1807C119.739 26.4699 120.495 26.671 120.783 26.7838C121.754 27.1636 122.16 27.8987 122.003 28.9892C121.904 29.6785 121.759 30.2907 121.568 30.8258C121.17 31.9461 120.755 33.0601 120.325 34.1679C120.034 34.9179 119.778 35.8738 119.558 37.0356C119.216 38.8414 118.987 39.9284 118.871 40.2967C118.597 41.1692 118.528 41.9916 118.664 42.7638C118.714 43.0444 118.897 43.2464 119.212 43.3698C119.489 43.4777 119.849 43.5038 120.292 43.4479C120.961 43.364 121.625 43.3837 122.285 43.5071C122.52 43.5515 122.791 43.5732 123.096 43.5722C123.52 43.5713 123.931 43.6426 124.327 43.7863C124.814 43.9617 125.156 44.13 125.353 44.291C125.683 44.5609 125.823 44.9557 125.773 45.4754C125.747 45.7463 125.602 46.1266 125.337 46.6164C124.909 47.407 124.647 47.9184 124.553 48.1508C124.451 48.3976 124.41 48.6873 124.431 49.0199C124.461 49.5126 124.526 50.2713 124.624 51.2962C124.66 51.6587 124.644 52.0337 124.578 52.4213C124.509 52.831 124.389 53.1824 124.221 53.4755C123.831 54.1543 123.233 54.5322 122.427 54.6093C122.213 54.6305 121.908 54.6146 121.512 54.5616C121.309 54.5356 121.107 54.5091 120.905 54.4821C120.823 54.4714 120.623 54.4372 120.304 54.3794C119.661 54.2637 119.015 54.2646 118.367 54.3823C118.345 54.3862 118.325 54.3955 118.308 54.4094C118.291 54.4233 118.277 54.4413 118.268 54.4618C117.932 55.2379 117.728 56.0507 117.656 56.9C117.268 61.5557 117.041 64.3396 116.977 65.2516C116.885 66.5647 116.941 67.9347 117.145 69.3616C117.336 70.7007 117.827 72.0572 118.62 73.4311C119.146 74.3441 119.833 74.9712 120.681 75.3125C120.723 75.3292 120.771 75.3282 120.813 75.3096C123.451 74.1257 125.37 72.2221 126.572 69.5988C126.724 69.2671 126.849 68.9075 126.948 68.5199C127.026 68.2085 127.068 67.8335 127.074 67.3948C127.103 65.3123 127.1 64.0074 127.066 63.4801C127 62.4832 127.039 61.534 127.182 60.6326C127.259 60.1524 127.268 59.7037 127.209 59.2862C127.156 58.9034 127.192 58.337 127.317 57.587C127.391 57.1435 127.52 56.5558 127.705 55.8241C127.804 55.4327 127.871 55.0345 127.906 54.6296C127.941 54.2256 127.982 53.8226 128.027 53.4206C128.06 53.1178 128.102 52.8903 128.153 52.738C128.167 52.6977 128.166 52.65 128.152 52.602C128.118 52.495 128.127 52.3731 128.179 52.2362C128.408 51.623 128.617 50.8768 128.806 49.9975C129.076 48.7384 129.35 47.4797 129.626 46.2216C129.895 44.9923 130.269 43.7964 130.748 42.6337C131.02 41.9742 131.339 41.5023 131.706 41.2179C132.076 40.9325 132.576 40.8004 133.207 40.8216C133.962 40.8467 134.743 40.907 135.55 41.0024C135.693 41.0193 135.838 40.9905 135.963 40.92C136.29 40.7358 136.641 40.6515 137.017 40.6669C137.301 40.6785 137.638 40.7729 138.028 40.9503C138.396 41.1191 138.751 41.3153 139.091 41.5389C139.391 41.7366 139.716 41.8797 140.064 41.9684C140.285 42.0253 140.431 41.9443 140.502 41.7255C140.61 41.389 140.744 41.0545 140.903 40.7218C141.093 40.3237 141.286 40.0238 141.485 39.8223C141.931 39.3702 142.486 39.1696 143.151 39.2207C144.872 39.3547 146.583 39.5707 148.285 39.8686C148.956 39.9862 149.535 40.2837 150.022 40.7609C150.439 41.1706 150.797 41.6271 151.097 42.1304C151.694 43.135 152.176 44.1931 152.543 45.3047C153.166 47.1896 153.638 49.2108 153.957 51.3685C154.123 52.4839 154.185 53.5078 154.143 54.4401C153.952 58.6658 153.256 63.0289 152.055 67.5293C151.877 68.1926 152.115 68.6901 152.768 69.0217C153.677 69.4816 154.628 69.793 155.622 69.956C156.333 70.0717 156.918 70.0446 157.375 69.875C157.777 69.7255 158.125 69.4908 158.421 69.1707C158.665 68.9075 158.864 68.5488 159.018 68.0947C159.285 67.309 159.424 66.4939 159.438 65.6493C159.447 65.0352 159.453 64.4205 159.456 63.8054C159.461 62.4894 159.519 61.1758 159.629 59.8647C159.792 57.9123 159.868 55.9571 159.854 53.999C159.85 53.4321 159.864 52.9564 159.894 52.5717C159.932 52.0964 159.979 51.622 160.037 51.1487C160.083 50.7755 160.067 50.2583 159.989 49.5969C159.949 49.2537 160.06 48.9481 160.324 48.6801C160.338 48.665 160.348 48.646 160.351 48.6257C160.354 48.6054 160.351 48.5849 160.341 48.5673C160.203 48.3127 160.134 48.1136 160.133 47.97C160.119 46.5373 160.074 45.1061 159.998 43.6763C159.975 43.2435 160.083 42.8332 160.321 42.4457C160.541 42.0861 160.811 41.7775 161.131 41.5201C161.454 41.2589 161.823 41.094 162.237 41.0255C162.5 40.9822 162.891 41.0043 163.409 41.0921C165.278 41.4102 166.448 41.5698 166.919 41.5707C167.788 41.5736 168.629 41.6999 169.443 41.9496C170.184 42.1772 170.764 42.5064 171.181 42.9374C171.895 43.6739 172.21 44.6043 172.125 45.7284C172.081 46.2953 171.968 46.935 171.784 47.6475C171.554 48.5354 171.406 49.1669 171.339 49.542C170.947 51.7295 170.635 53.8207 170.401 55.8154C170.246 57.1391 170.09 58.3496 169.933 59.4467C169.783 60.5024 169.672 61.4593 169.601 62.3173C169.443 64.2436 169.277 66.1839 169.103 68.1381C169.087 68.3155 169.122 68.3266 169.211 68.1714C169.675 67.3519 170.057 66.4481 170.357 65.4598C170.541 64.8486 170.953 63.7192 171.592 62.0715C173.122 58.1206 174.656 54.1711 176.196 50.2231C176.297 49.9638 176.422 49.7165 176.571 49.4812C176.736 49.218 176.966 49.0455 177.26 48.9635C177.308 48.95 177.313 48.9298 177.274 48.9028L176.924 48.6598C176.907 48.6474 176.894 48.6302 176.886 48.6105C176.879 48.5908 176.878 48.5697 176.884 48.5499C177.453 46.4838 177.959 44.4018 178.402 42.3039C178.404 42.2933 178.449 42.0446 178.537 41.5577C178.633 41.0313 178.785 40.5208 178.994 40.0262C179.184 39.575 179.444 39.1745 179.775 38.8245C179.961 38.6268 180.187 38.4928 180.454 38.4224C180.847 38.3193 181.245 38.2696 181.65 38.2735C181.779 38.2745 182.178 38.3024 182.848 38.3574C183.678 38.4249 184.601 38.5468 185.616 38.7233C186.027 38.7956 186.378 38.9479 186.668 39.1802C187.027 39.4685 187.227 39.6242 187.267 39.6474C187.61 39.846 187.97 40.0089 188.348 40.1362C189.053 40.3733 189.638 40.6616 190.103 41.001C190.268 41.1215 190.413 41.2868 190.539 41.497C190.644 41.6753 190.717 41.8788 190.757 42.1073C190.859 42.7012 190.797 43.2546 190.57 43.7675C190.259 44.4684 190.015 45.0242 189.838 45.4349C189.623 45.9275 189.454 46.4588 189.329 47.0285C189.009 48.494 188.7 49.9628 188.405 51.435C188.267 52.1195 188.157 52.9009 188.074 53.7792C187.995 54.6209 187.898 55.4606 187.784 56.2984C187.593 57.6983 187.483 58.5352 187.457 58.809C187.223 61.2163 187.209 63.629 187.415 66.047C187.468 66.6708 187.638 67.2594 187.926 67.8128C188.19 68.3179 188.573 68.7031 189.075 68.9682C190.053 69.4821 191.006 69.578 191.935 69.256C192.246 69.148 192.604 68.9514 193.009 68.666C193.291 68.4664 193.604 68.2056 193.948 67.8836C195.42 66.504 196.713 64.971 197.826 63.2848C198.031 62.9725 198.308 62.4938 198.654 61.8488C198.944 61.3098 199.223 60.8321 199.491 60.4156C199.591 60.2614 199.72 60.1095 199.878 59.9601C200.039 59.8078 200.204 59.7032 200.373 59.6463C200.766 59.5132 201.081 59.5952 201.318 59.8921C201.454 60.0637 201.533 60.3294 201.554 60.689C201.586 61.2375 201.62 61.7856 201.656 62.3333C201.668 62.527 201.719 63.0732 201.809 63.9718C201.9 64.877 201.924 65.7857 201.881 66.6978C201.823 67.9405 201.406 69.0613 200.632 70.0601C200.247 70.5566 199.893 70.9716 199.57 71.3052C198.802 72.0977 198.039 72.8965 197.283 73.7015C196.526 74.5065 195.745 75.287 194.939 76.0428C193.957 76.9636 192.883 77.7599 191.719 78.4319C189.942 79.4558 187.922 79.9552 185.66 79.9301C183.678 79.9079 182.041 79.1699 180.75 77.716C179.926 76.7876 179.239 75.7353 178.691 74.5591C177.811 72.6714 177.321 70.6053 177.223 68.3608C177.136 66.3671 177.303 64.3955 177.725 62.446C177.866 61.7972 177.973 61.1431 178.046 60.4836C178.075 60.2185 178 60.1279 177.82 60.2117C177.75 60.2445 177.692 60.3 177.656 60.3694C176.391 62.8336 175.267 65.2444 174.284 67.6016C173.935 68.4404 173.608 69.3452 173.302 70.3161C172.914 71.552 172.333 73.4219 171.559 75.9257C171.111 77.3757 170.771 78.737 170.54 80.0097C170.437 80.5794 170.348 80.9805 170.273 81.2129C170.144 81.6187 169.983 81.9986 169.791 82.3524C169.524 82.8451 169.133 83.2245 168.619 83.4906C167.564 84.0362 166.509 84.0396 165.455 83.5007C165.229 83.385 164.904 83.1922 164.479 82.9222C164.104 82.6851 163.773 82.5043 163.485 82.3799C163.128 82.2247 162.764 82.0844 162.393 81.9591C161.843 81.772 161.318 81.5296 160.819 81.2317C160.327 80.9376 159.97 80.5245 159.749 79.9923C159.43 79.222 159.269 78.4179 159.268 77.5801C159.266 76.5427 159.294 75.4494 159.352 74.3002C159.352 74.2855 159.349 74.2708 159.343 74.2576C159.337 74.2443 159.327 74.2328 159.315 74.2242C159.304 74.2156 159.29 74.2101 159.275 74.2082C159.261 74.2063 159.246 74.2081 159.232 74.2134C158.741 74.4024 158.284 74.5764 157.862 74.7355C156.597 75.2108 155.356 75.3636 154.137 75.1939C153.69 75.1313 153.205 74.9418 152.684 74.6256C152.095 74.2679 151.437 73.9136 150.71 73.5627C150.511 73.4663 150.38 73.5251 150.318 73.7391ZM146.304 47.5926C146.055 47.419 145.813 47.3149 145.576 47.2802C145.554 47.2772 145.532 47.2807 145.512 47.2902C145.492 47.2997 145.476 47.3148 145.464 47.3337C145.094 47.9218 144.91 48.5436 144.914 49.1992C144.931 52.1475 145.26 55.0533 145.899 57.9167C146.08 58.7275 146.353 59.6501 146.716 60.6846C147.106 61.7905 147.498 62.8958 147.893 64.0007C147.91 64.048 147.941 64.0849 147.977 64.1033C148.113 64.1699 148.192 64.1067 148.213 63.9139C148.39 62.3231 148.488 60.7801 148.507 59.2847C148.522 58.1326 148.514 57.169 148.486 56.3939C148.424 54.6652 148.194 52.9554 147.796 51.2644C147.521 50.0872 147.138 48.9977 146.649 47.996C146.569 47.8312 146.454 47.6967 146.304 47.5926ZM140.593 76.1426C141.076 76.4723 141.615 76.5027 142.208 76.2337C142.899 75.9204 143.508 75.4012 144.037 74.6762C144.626 73.8693 145.134 73.0131 145.559 72.1078C145.798 71.5988 145.948 71.0247 146.007 70.3855C146.019 70.2559 145.984 70.1263 145.908 70.021C145.097 68.8988 144.378 67.6975 143.752 66.4172C143.344 65.5852 143.023 64.8231 142.787 64.1308C142.609 63.6054 142.414 63.0419 142.201 62.4403C141.883 61.5408 141.678 60.6104 141.585 59.6492C141.5 58.7612 141.349 57.9562 141.131 57.2341C140.763 56.0106 140.488 54.9689 140.308 54.1089C140.171 53.4485 140.101 52.9809 140.099 52.7062C140.091 51.5974 140.048 50.4902 139.971 49.3843C139.961 49.2513 139.94 49.1057 139.906 48.9476C139.875 48.803 139.847 48.6574 139.823 48.5109C139.818 48.483 139.808 48.4576 139.793 48.4396C139.779 48.4216 139.762 48.4124 139.745 48.414C139.713 48.4169 139.687 48.4496 139.668 48.5123C139.129 50.2969 138.741 52.0356 138.503 53.7286C138.3 55.1709 138.102 56.6137 137.909 58.057C137.848 58.5082 137.82 59.4159 137.824 60.7801C137.825 61.185 137.821 62.0932 137.811 63.5046C137.796 65.7173 137.912 67.7819 138.16 69.6985C138.372 71.3317 138.849 72.9741 139.593 74.6256C139.804 75.0951 139.933 75.3709 139.98 75.4528C140.148 75.7497 140.352 75.9797 140.593 76.1426Z" fill="#FF0924"/>
</g>
<defs>
<clipPath id="clip0_2455_14962">
<rect width="202" height="115.753" fill="white"/>
</clipPath>
</defs>
</svg>
