<?xml version="1.0" encoding="UTF-8"?>
<svg id="Warstwa_1" data-name="Warstwa 1" xmlns="http://www.w3.org/2000/svg" viewBox="0 0 150 150">
  <defs>
    <style>
      .cls-1 {
        fill: #fff;
      }

      .cls-2 {
        fill: red;
      }
    </style>
  </defs>
  <circle class="cls-2" cx="75" cy="75" r="75"/>
  <path class="cls-1" d="m100.99,87.15c0,3.36-.68,6.51-2.05,9.46-1.37,2.95-3.42,5.53-6.15,7.73-2.73,2.21-6.17,3.95-10.31,5.21-4.14,1.27-8.96,1.9-14.47,1.9-3.05,0-5.78-.1-8.2-.29-2.42-.2-4.69-.45-6.8-.76v-9.14c2.42.43,4.98.76,7.68,1s5.45.35,8.26.35c3.83,0,7.1-.34,9.81-1.03,2.71-.68,4.93-1.67,6.65-2.96,1.72-1.29,2.97-2.85,3.75-4.69.78-1.84,1.17-3.91,1.17-6.21,0-2.11-.47-3.95-1.41-5.51-.94-1.56-2.26-2.87-3.96-3.93s-3.73-1.85-6.09-2.37c-2.36-.53-4.95-.79-7.76-.79h-8.73v-8.38h8.85c2.3,0,4.4-.3,6.3-.91,1.89-.6,3.52-1.47,4.86-2.61,1.35-1.13,2.38-2.53,3.11-4.19.72-1.66,1.08-3.54,1.08-5.65,0-4.1-1.25-7.09-3.75-8.96-2.5-1.88-6.17-2.81-11.02-2.81-2.58,0-5.23.25-7.97.76-2.73.51-5.66,1.27-8.79,2.29v-8.91c1.33-.47,2.74-.89,4.25-1.26,1.5-.37,3.01-.68,4.51-.94,1.5-.25,3-.45,4.48-.59,1.48-.14,2.91-.21,4.28-.21,4.06,0,7.64.44,10.72,1.32,3.09.88,5.66,2.14,7.73,3.78,2.07,1.64,3.63,3.63,4.69,5.98s1.58,4.98,1.58,7.91c0,4.38-1.12,8.05-3.37,11.02-2.25,2.97-5.32,5.33-9.23,7.09,1.99.31,3.96.94,5.89,1.88s3.67,2.14,5.21,3.6c1.54,1.46,2.79,3.19,3.75,5.19.96,1.99,1.44,4.2,1.44,6.62Z"/>
</svg>