<svg width="103" height="73" viewBox="0 0 103 73" fill="none" xmlns="http://www.w3.org/2000/svg">
<path d="M10.1162 6.00001C10.1162 2.6863 12.8025 0 16.1162 0H33.7209C41.9518 0 42.1464 6.42908 49.9973 8.30233C50.3817 8.39403 50.7673 8.43023 51.1624 8.43023C57.3572 8.43023 75.5295 8.43023 85.0587 8.43023C88.3724 8.43023 91.0464 11.1165 91.0464 14.4302V35.3081C91.0464 38.6218 88.3602 41.3081 85.0464 41.3081H16.1162C12.8025 41.3081 10.1162 38.6218 10.1162 35.3081V6.00001Z" fill="#0008C4"/>
<path d="M10.1162 6.00001C10.1162 2.6863 12.8025 0 16.1162 0H33.7209C41.9518 0 42.1464 6.42908 49.9973 8.30233C50.3817 8.39403 50.7673 8.43023 51.1624 8.43023C57.3572 8.43023 75.5295 8.43023 85.0587 8.43023C88.3724 8.43023 91.0464 11.1165 91.0464 14.4302V35.3081C91.0464 38.6218 88.3602 41.3081 85.0464 41.3081H16.1162C12.8025 41.3081 10.1162 38.6218 10.1162 35.3081V6.00001Z" fill="url(#paint0_linear_2396_14165)" fill-opacity="0.2"/>
<rect x="11.2671" y="15.7891" width="40.8581" height="51.0726" rx="2" transform="rotate(-8.40916 11.2671 15.7891)" fill="#D8D7D7"/>
<rect x="31.8555" y="3" width="40" height="50" rx="2" transform="rotate(2.78727 31.8555 3)" fill="#F1F1F1"/>
<rect x="55.4961" y="14" width="40" height="50" rx="2" transform="rotate(6.97565 55.4961 14)" fill="white"/>
<path d="M1.10023 33.9161C0.522659 30.2732 3.33778 26.9766 7.02621 26.9766H95.8226C99.5111 26.9766 102.326 30.2732 101.749 33.9161L96.4337 67.4393C95.9716 70.3539 93.4587 72.4998 90.5077 72.4998H12.3411C9.39014 72.4998 6.87725 70.354 6.41515 67.4394L1.10023 33.9161Z" fill="#3B61FF"/>
<defs>
<linearGradient id="paint0_linear_2396_14165" x1="50.5813" y1="42.1512" x2="50.5813" y2="-26.1337" gradientUnits="userSpaceOnUse">
<stop offset="0.112123"/>
<stop offset="0.395954" stop-opacity="0"/>
</linearGradient>
</defs>
</svg>
