<svg width="41" height="39" viewBox="0 0 41 39" fill="none" xmlns="http://www.w3.org/2000/svg">
<path d="M10.5497 2.79053C10.345 2.79053 10.1417 2.80473 9.95103 2.83454C7.88596 3.16105 5.92183 4.96109 5.90781 6.53825C5.90361 7.02801 6.29195 7.42975 6.77562 7.43401H6.78263C7.2635 7.43401 7.65464 7.0422 7.65885 6.55386C7.66305 6.03288 8.7734 4.81629 10.2174 4.58773C10.3225 4.57212 10.4361 4.56502 10.5497 4.56502C11.0333 4.56502 11.4259 4.16753 11.4259 3.67778C11.4259 3.18802 11.0347 2.79053 10.5497 2.79053Z" fill="black"/>
<path d="M37.8176 11.7978H33.1982C36.0119 10.3868 37.9452 8.34255 37.9185 6.32247C37.8919 3.4691 35.0165 0.610044 31.6322 0.0748589C27.8469 -0.498655 23.6551 2.37033 22.0835 6.47011C21.0348 6.19755 19.9722 6.19613 18.9179 6.47011C17.3463 2.36892 13.1573 -0.507173 9.36502 0.0748589C5.98352 0.608625 3.10672 3.47194 3.08289 6.32105C3.05485 8.34113 4.98954 10.3868 7.80325 11.7978H3.18383C1.42859 11.7978 0 13.2444 0 15.0217V20.7781C0 22.3709 1.1496 23.6883 2.64968 23.9467V35.7761C2.64968 37.5534 4.07827 39 5.83351 39H35.1665C36.9217 39 38.3503 37.5534 38.3503 35.7761V23.9467C39.8504 23.6883 41 22.3709 41 20.7781V15.0203C41 13.2444 39.5728 11.7978 37.8176 11.7978ZM15.6514 13.5723H25.3514V22.2176H15.6514V13.5723ZM31.3672 1.82947C33.8627 2.2227 36.1507 4.37338 36.1661 6.34235V6.34803C36.1969 8.46321 31.8719 11.3365 26.8179 11.7879C26.7155 11.0256 26.4562 10.2547 26.0917 9.58043C27.4389 9.2738 29.5447 8.64208 30.8905 7.4766C31.2579 7.15719 31.3013 6.59787 30.9873 6.22594C30.6732 5.85401 30.1195 5.81 29.7522 6.12799C28.3853 7.31193 25.8057 7.85279 24.9042 8.01178C24.5509 7.67392 24.1402 7.36161 23.7196 7.1146C24.9911 3.79418 28.3965 1.37378 31.3672 1.82947ZM22.3064 8.38372C23.6761 8.96149 24.6911 10.2178 25.0066 11.6772C25.015 11.7141 25.0234 11.751 25.0304 11.7879H15.9696C15.9766 11.751 15.9864 11.7141 15.9948 11.6772C16.5879 8.93168 19.5488 7.24946 22.3064 8.38372ZM4.83532 6.34093C4.85215 4.3748 7.14013 2.22412 9.63139 1.82947C9.88374 1.79114 10.1389 1.77127 10.394 1.77127C13.1951 1.77127 16.114 4.02274 17.286 7.11176C16.8668 7.35735 16.4519 7.67108 16.1 8.01036C15.1985 7.85137 12.6189 7.31193 11.2506 6.12657C10.8847 5.80858 10.331 5.85259 10.0169 6.22452C9.70149 6.59787 9.74495 7.15719 10.1123 7.4766C11.4581 8.64208 13.5639 9.2738 14.9111 9.58043C14.5466 10.2547 14.2887 11.0256 14.1849 11.7879C9.1323 11.335 4.80588 8.46321 4.83532 6.34093ZM1.75384 20.7781V15.0203C1.75384 14.2211 2.39593 13.5709 3.18523 13.5709H13.8989V22.2261H3.18383C2.39593 22.2276 1.75384 21.5774 1.75384 20.7781ZM4.40352 35.7775V24.002H15.3121V37.2255H5.83491C5.04561 37.2255 4.40352 36.5753 4.40352 35.7775ZM17.0645 37.2255V24.002H23.9383V37.2255H17.0645ZM36.5979 35.7775C36.5979 36.5768 35.9558 37.2269 35.1665 37.2269H25.6893V24.0035H36.5965V35.7775H36.5979ZM39.2476 20.7781C39.2476 21.5774 38.6055 22.2276 37.8176 22.2276H27.1039V13.5723H37.8176C38.6069 13.5723 39.2476 14.2225 39.2476 15.0217V20.7781Z" fill="black"/>
</svg>
