<svg width="23" height="22" viewBox="0 0 23 22" fill="none" xmlns="http://www.w3.org/2000/svg">
<path d="M16.7706 0.836914C15.6915 0.853699 14.6359 1.15494 13.7104 1.71022C12.7849 2.26549 12.0224 3.05514 11.4998 3.99941C10.9771 3.05514 10.2146 2.26549 9.28911 1.71022C8.36365 1.15494 7.30805 0.853699 6.22892 0.836914C4.50866 0.911655 2.88789 1.6642 1.72072 2.93014C0.553539 4.19607 -0.065171 5.8725 -0.000243422 7.59316C-0.000243422 11.9507 4.58634 16.7098 8.43309 19.9365C9.29197 20.6582 10.3779 21.0539 11.4998 21.0539C12.6216 21.0539 13.7075 20.6582 14.5664 19.9365C18.4132 16.7098 22.9998 11.9507 22.9998 7.59316C23.0647 5.8725 22.446 4.19607 21.2788 2.93014C20.1116 1.6642 18.4909 0.911655 16.7706 0.836914ZM13.335 18.4702C12.8213 18.9028 12.1713 19.14 11.4998 19.14C10.8282 19.14 10.1782 18.9028 9.66455 18.4702C4.74063 14.3389 1.91642 10.3752 1.91642 7.59316C1.85091 6.3806 2.26752 5.19132 3.0754 4.28471C3.88327 3.3781 5.01686 2.82771 6.22892 2.75358C7.44099 2.82771 8.57458 3.3781 9.38245 4.28471C10.1903 5.19132 10.6069 6.3806 10.5414 7.59316C10.5414 7.84733 10.6424 8.09109 10.8221 8.27081C11.0018 8.45053 11.2456 8.5515 11.4998 8.5515C11.7539 8.5515 11.9977 8.45053 12.1774 8.27081C12.3571 8.09109 12.4581 7.84733 12.4581 7.59316C12.3926 6.3806 12.8092 5.19132 13.6171 4.28471C14.4249 3.3781 15.5585 2.82771 16.7706 2.75358C17.9827 2.82771 19.1162 3.3781 19.9241 4.28471C20.732 5.19132 21.1486 6.3806 21.0831 7.59316C21.0831 10.3752 18.2589 14.3389 13.335 18.4664V18.4702Z" fill="black"/>
</svg>
