<svg width="26" height="26" viewBox="0 0 26 26" fill="none" xmlns="http://www.w3.org/2000/svg">
<path d="M18.4167 19.4916V25.9916H22.75C24.5449 25.9916 26 24.5365 26 22.7416V12.8606C26.0003 12.2977 25.7815 11.7569 25.3901 11.3526L16.1839 1.39994C14.5595 -0.357599 11.818 -0.465509 10.0604 1.15888C9.97694 1.23607 9.8965 1.31646 9.81937 1.39994L0.629434 11.3493C0.226129 11.7554 -0.000152267 12.3045 7.68741e-08 12.8768V22.7416C7.68741e-08 24.5365 1.45509 25.9916 3.25 25.9916H7.58332V19.4916C7.60358 16.5376 9.98862 14.1253 12.8683 14.0558C15.8443 13.984 18.394 16.4374 18.4167 19.4916Z" fill="#3B61FF"/>
<path d="M13 16.2402C11.2051 16.2402 9.75 17.6953 9.75 19.4902V25.9902H16.25V19.4902C16.25 17.6953 14.7949 16.2402 13 16.2402Z" fill="#3B61FF"/>
</svg>
