<svg width="15" height="15" viewBox="0 0 15 15" fill="none" xmlns="http://www.w3.org/2000/svg">
<path d="M14 7.0632L7.8539 13.3056C7.10095 14.0704 6.07974 14.5 5.01492 14.5C3.9501 14.5 2.92889 14.0704 2.17594 13.3056C1.423 12.5409 1 11.5037 1 10.4222C1 9.34064 1.423 8.30342 2.17594 7.53868L8.32204 1.29625C8.82401 0.786419 9.50481 0.5 10.2147 0.5C10.9246 0.5 11.6054 0.786419 12.1073 1.29625C12.6093 1.80608 12.8913 2.49756 12.8913 3.21856C12.8913 3.93957 12.6093 4.63105 12.1073 5.14088L5.95456 11.3833C5.70358 11.6382 5.36317 11.7814 5.00823 11.7814C4.65329 11.7814 4.31289 11.6382 4.06191 11.3833C3.81093 11.1284 3.66993 10.7827 3.66993 10.4222C3.66993 10.0616 3.81093 9.71591 4.06191 9.461L9.73986 3.70084" stroke="#949698" stroke-linecap="round" stroke-linejoin="round"/>
</svg>
