<svg width="28" height="28" viewBox="0 0 28 28" fill="none" xmlns="http://www.w3.org/2000/svg">
<g clip-path="url(#clip0_1446_11406)">
<path d="M12.7983 2.3335H10.465C4.63167 2.3335 2.29834 4.66683 2.29834 10.5002V17.5002C2.29834 23.3335 4.63167 25.6668 10.465 25.6668H17.465C23.2983 25.6668 25.6317 23.3335 25.6317 17.5002V15.1668" stroke="#3B61FF" stroke-width="2.5" stroke-linecap="round" stroke-linejoin="round"/>
<path d="M25.5268 4.15326C24.0918 7.73493 20.4868 12.6116 17.4768 15.0266L15.6334 16.4966C15.4001 16.6716 15.1668 16.8116 14.8984 16.9166C14.8984 16.7416 14.8868 16.5666 14.8634 16.3799C14.7584 15.5983 14.4084 14.8633 13.7784 14.2449C13.1368 13.6033 12.3668 13.2416 11.5734 13.1366C11.3868 13.1249 11.2001 13.1133 11.0134 13.1249C11.1184 12.8333 11.2701 12.5649 11.4684 12.3433L12.9384 10.4999C15.3534 7.48993 20.2418 3.8616 23.8118 2.4266C24.3601 2.2166 24.8968 2.37993 25.2351 2.71826C25.5851 3.06826 25.7484 3.60493 25.5268 4.15326Z" stroke="#3B61FF" stroke-width="2.5" stroke-linecap="round" stroke-linejoin="round"/>
<path d="M14.91 16.9049C14.91 17.9316 14.5134 18.9116 13.7784 19.6582C13.2067 20.2299 12.4367 20.6266 11.515 20.7432L9.21669 20.9882C7.96836 21.1282 6.89503 20.0666 7.03503 18.7949L7.28003 16.4966C7.50169 14.4549 9.20503 13.1482 11.025 13.1132C11.2117 13.1016 11.3984 13.1132 11.585 13.1249C12.3784 13.2299 13.1484 13.5916 13.79 14.2332C14.42 14.8632 14.77 15.5866 14.875 16.3682C14.8984 16.5549 14.91 16.7416 14.91 16.9049Z" stroke="#3B61FF" stroke-width="2.5" stroke-linecap="round" stroke-linejoin="round"/>
<path d="M18.4566 13.9768C18.4566 11.5385 16.4849 9.55518 14.0349 9.55518" stroke="#3B61FF" stroke-width="2.5" stroke-linecap="round" stroke-linejoin="round"/>
</g>
<defs>
<clipPath id="clip0_1446_11406">
<rect width="28" height="28" fill="white"/>
</clipPath>
</defs>
</svg>
