<svg width="29" height="31" viewBox="0 0 29 31" fill="none" xmlns="http://www.w3.org/2000/svg">
<path d="M12.907 29.5003H16.1165C17.3392 29.5003 18.1288 28.6342 17.8995 27.5771L17.3774 25.272H11.6461L11.1239 27.5771C10.8946 28.5706 11.7607 29.5003 12.907 29.5003Z" stroke="#3B61FF" stroke-width="2.5" stroke-linecap="round" stroke-linejoin="round"/>
<path d="M17.3775 25.2589L19.5808 23.2975C20.8163 22.2022 20.8672 21.438 19.8865 20.2025L16.002 15.2737C15.1869 14.2421 13.8496 14.2421 13.0344 15.2737L9.14991 20.2025C8.16923 21.438 8.16922 22.2404 9.45558 23.2975L11.6589 25.2589" stroke="#3B61FF" stroke-width="2.5" stroke-linecap="round" stroke-linejoin="round"/>
<path d="M14.5117 15.0059V18.2282" stroke="#3B61FF" stroke-width="2.5" stroke-linecap="round" stroke-linejoin="round"/>
<path d="M13.5083 6.55493L12.5983 5.64489C12.0499 5.09656 12.0499 4.20995 12.5983 3.66162L13.5083 2.75158C14.0566 2.20325 14.9433 2.20325 15.4916 2.75158L16.4016 3.66162C16.9499 4.20995 16.9499 5.09656 16.4016 5.64489L15.4916 6.55493C14.9433 7.10326 14.0566 7.10326 13.5083 6.55493Z" stroke="#3B61FF" stroke-width="2.5" stroke-linecap="round" stroke-linejoin="round"/>
<path d="M23.1915 11.9453H24.4748C25.2448 11.9453 25.8748 12.5753 25.8748 13.3453V14.6286C25.8748 15.3986 25.2448 16.0287 24.4748 16.0287H23.1915C22.4215 16.0287 21.7915 15.3986 21.7915 14.6286V13.3453C21.7915 12.5753 22.4215 11.9453 23.1915 11.9453Z" stroke="#3B61FF" stroke-width="2.5" stroke-linecap="round" stroke-linejoin="round"/>
<path d="M5.80834 11.9453H4.525C3.755 11.9453 3.125 12.5753 3.125 13.3453V14.6286C3.125 15.3986 3.755 16.0287 4.525 16.0287H5.80834C6.57834 16.0287 7.20833 15.3986 7.20833 14.6286V13.3453C7.20833 12.5753 6.57834 11.9453 5.80834 11.9453Z" stroke="#3B61FF" stroke-width="2.5" stroke-linecap="round" stroke-linejoin="round"/>
<path d="M22.1301 12.2829L15.9468 6.09961" stroke="#3B61FF" stroke-width="2.5" stroke-linecap="round" stroke-linejoin="round"/>
<path d="M6.86963 12.2829L13.053 6.09961" stroke="#3B61FF" stroke-width="2.5" stroke-linecap="round" stroke-linejoin="round"/>
</svg>
