<svg width="28" height="29" viewBox="0 0 28 29" fill="none" xmlns="http://www.w3.org/2000/svg">
<path d="M9.84405 17.4344L13.6803 20.8744C13.8587 21.0419 14.1413 21.0419 14.3197 20.8744L18.156 17.4344C19.1522 16.5363 19.286 15.0142 18.4533 13.9487C17.6207 12.8832 16.104 12.6853 15.0483 13.5073L14.0074 14.3292L12.9517 13.5225C11.8811 12.7006 10.3793 12.8984 9.54666 13.9639C8.71398 15.0142 8.84781 16.5516 9.84405 17.4344Z" fill="#3B61FF"/>
<path d="M25.6666 13.3335V20.3335C25.6666 25.0002 24.4999 26.1668 19.8333 26.1668H8.16659C3.49992 26.1668 2.33325 25.0002 2.33325 20.3335V8.66683C2.33325 4.00016 3.49992 2.8335 8.16659 2.8335H9.91659C11.6666 2.8335 12.0516 3.34683 12.7166 4.2335L14.4666 6.56683C14.9099 7.15016 15.1666 7.50016 16.3333 7.50016H19.8333C24.4999 7.50016 25.6666 8.66683 25.6666 13.3335Z" stroke="#3B61FF" stroke-width="2.5" stroke-miterlimit="10"/>
</svg>
