<svg width="55" height="67" viewBox="0 0 55 67" fill="none" xmlns="http://www.w3.org/2000/svg">
<path d="M37.7998 14.4998C36.2998 14.4998 34.8998 13.8998 33.8998 12.8998C32.8998 11.8998 32.2998 10.3998 32.2998 8.9998V1.2998H7.4998C5.5998 1.2998 3.6998 2.0998 2.3998 3.3998C0.999805 4.7998 0.299805 6.5998 0.299805 8.4998V52.0998C0.299805 53.9998 1.0998 55.8998 2.3998 57.1998C3.7998 58.5998 5.5998 59.2998 7.4998 59.2998H37.1998C38.1998 59.2998 39.0998 59.0998 39.9998 58.6998C40.8998 58.2998 41.6998 57.7998 42.2998 57.0998C42.9998 56.3998 43.4998 55.5998 43.8998 54.7998C44.2998 53.9998 44.4998 52.9998 44.4998 51.9998V14.4998H37.7998Z" fill="#FFF6E8"/>
<path d="M44.4998 14.4998H37.7998C36.2998 14.4998 34.8998 13.8998 33.8998 12.8998C32.8998 11.8998 32.2998 10.3998 32.2998 8.9998V1.2998L44.4998 14.4998Z" fill="#FF9908"/>
<path d="M49.6998 47.2002H16.0998C13.6998 47.2002 11.7998 49.1002 11.7998 51.5002V61.5002C11.7998 63.9002 13.6998 65.8002 16.0998 65.8002H49.6998C52.0998 65.8002 53.9998 63.9002 53.9998 61.5002V51.5002C54.0998 49.1002 52.0998 47.2002 49.6998 47.2002Z" fill="#FF9908"/>
<path d="M28.2002 58.7002V60.7002H26.2002V58.7002H28.2002Z" fill="white"/>
<path d="M34.2001 59.2002H31.2001L30.7001 60.7002H28.6001L31.6001 52.7002H33.9001L36.9001 60.7002H34.8001L34.2001 59.2002ZM33.7001 57.7002L32.7001 54.7002L31.7001 57.7002H33.7001Z" fill="white"/>
<path d="M39.5 52.6001V60.7001H37.5V52.6001H39.5Z" fill="white"/>
<path d="M20.7001 32.0001C20.7001 31.9001 20.7001 31.8001 20.7001 31.7001C20.7001 31.6001 20.8001 31.5001 20.9001 31.4001C21.0001 31.3001 21.1001 31.3001 21.2001 31.2001C21.3001 31.2001 21.4001 31.1001 21.5001 31.1001C21.6001 31.1001 21.7001 31.1001 21.8001 31.2001C21.9001 31.2001 22.0001 31.3001 22.1001 31.4001C22.2001 31.5001 22.2001 31.6001 22.3001 31.7001C22.3001 31.8001 22.4001 31.9001 22.4001 32.0001C22.4001 32.1001 22.4001 32.2001 22.3001 32.3001C22.3001 32.4001 22.2001 32.5001 22.1001 32.6001C22.0001 32.7001 21.9001 32.7001 21.8001 32.8001C21.7001 32.8001 21.6001 32.9001 21.5001 32.8001L12.3001 42.0001L26.0001 35.1001C26.0001 35.1001 27.5001 29.4001 29.3001 27.6001L25.8001 24.1001C24.0001 25.8001 18.3001 27.4001 18.3001 27.4001L11.6001 41.1001L20.7001 32.0001Z" fill="#FF9908"/>
<path d="M33.2001 25.6002L27.8001 20.2002L25.1001 22.9002L30.5001 28.3002L33.2001 25.6002Z" fill="#FF9908"/>
</svg>
