<svg width="54" height="67" viewBox="0 0 54 67" fill="none" xmlns="http://www.w3.org/2000/svg">
<path d="M37.7001 14.4998C36.2001 14.4998 34.8001 13.8998 33.8001 12.8998C32.8001 11.8998 32.2001 10.4998 32.2001 8.9998V1.2998H7.4001C6.4001 1.2998 5.5001 1.4998 4.6001 1.8998C3.7001 2.1998 2.9001 2.6998 2.2001 3.3998C1.6001 4.0998 1.0001 4.8998 0.700098 5.7998C0.300098 6.5998 0.100098 7.5998 0.100098 8.4998V52.0998C0.100098 53.0998 0.300098 53.9998 0.700098 54.8998C1.1001 55.7998 1.6001 56.5998 2.3001 57.1998C3.0001 57.8998 3.8001 58.3998 4.6001 58.7998C5.5001 59.1998 6.4001 59.3998 7.4001 59.3998H37.1001C38.1001 59.3998 39.0001 59.1998 39.9001 58.7998C40.8001 58.3998 41.6001 57.8998 42.2001 57.1998C42.8001 56.4998 43.4001 55.6998 43.8001 54.8998C44.2001 53.9998 44.4001 53.0998 44.4001 52.0998V14.4998H37.7001Z" fill="#E8F2FF"/>
<path d="M44.3001 14.4998H37.6001C36.1001 14.4998 34.7001 13.8998 33.7001 12.8998C32.7001 11.8998 32.1001 10.4998 32.1001 8.9998V1.2998L44.3001 14.4998Z" fill="#0072FF"/>
<path d="M35.2 23.7998H7.5C7.2 23.7998 7 23.6998 6.8 23.4998C6.6 23.2998 6.5 23.0998 6.5 22.7998C6.5 22.6998 6.5 22.4998 6.6 22.3998C6.7 22.2998 6.7 22.1998 6.8 22.0998C6.9 21.9998 7 21.8998 7.1 21.8998C7.2 21.7998 7.4 21.7998 7.5 21.7998H35.3C35.6 21.7998 35.8 21.8998 36 22.0998C36.2 22.2998 36.3 22.4998 36.3 22.7998C36.3 23.0998 36.2 23.2998 36 23.4998C35.8 23.6998 35.5 23.7998 35.2 23.7998Z" fill="#0072FF"/>
<path d="M35.2 29.7998H7.5C7.2 29.7998 7 29.6998 6.8 29.4998C6.6 29.2998 6.5 29.0998 6.5 28.7998C6.5 28.6998 6.5 28.4998 6.6 28.3998C6.7 28.2998 6.7 28.1998 6.8 28.0998C6.9 27.9998 7 27.8998 7.1 27.8998C7.2 27.7998 7.4 27.7998 7.5 27.7998H35.3C35.6 27.7998 35.8 27.8998 36 28.0998C36.2 28.2998 36.3 28.4998 36.3 28.7998C36.3 29.0998 36.2 29.2998 36 29.4998C35.8 29.6998 35.5 29.7998 35.2 29.7998Z" fill="#0072FF"/>
<path d="M35.2 35.8999H7.5C7.4 35.8999 7.2 35.8999 7.1 35.7999C7 35.6999 6.9 35.6999 6.8 35.5999C6.7 35.4999 6.6 35.3999 6.6 35.2999C6.5 35.1999 6.5 34.9999 6.5 34.8999C6.5 34.5999 6.6 34.3999 6.8 34.1999C7 33.9999 7.2 33.8999 7.5 33.8999H35.3C35.6 33.8999 35.8 33.9999 36 34.1999C36.2 34.3999 36.3 34.5999 36.3 34.8999C36.3 35.1999 36.2 35.3999 36 35.5999C35.8 35.6999 35.5 35.8999 35.2 35.8999Z" fill="#0072FF"/>
<path d="M24.3 41.8999H7.5C7.4 41.8999 7.2 41.8999 7.1 41.7999C7 41.6999 6.9 41.6999 6.8 41.5999C6.7 41.4999 6.6 41.3999 6.6 41.2999C6.5 41.1999 6.5 40.9999 6.5 40.8999C6.5 40.5999 6.6 40.3999 6.8 40.1999C7 39.9999 7.2 39.8999 7.5 39.8999H24.3C24.6 39.8999 24.8 39.9999 25 40.1999C25.2 40.3999 25.3 40.5999 25.3 40.8999C25.3 40.9999 25.3 41.1999 25.2 41.2999C25.1 41.3999 25.1 41.4999 25 41.5999C24.9 41.6999 24.8 41.7999 24.7 41.7999C24.6 41.7999 24.4 41.8999 24.3 41.8999Z" fill="#0072FF"/>
<path d="M49.6002 47.2002H16.0002C13.6002 47.2002 11.7002 49.1002 11.7002 51.5002V61.5002C11.7002 63.9002 13.6002 65.8002 16.0002 65.8002H49.6002C52.0002 65.8002 53.9002 63.9002 53.9002 61.5002V51.5002C53.9002 49.1002 52.0002 47.2002 49.6002 47.2002Z" fill="#0072FF"/>
<path d="M20.6001 58.7002V60.7002H18.6001V58.7002H20.6001Z" fill="white"/>
<path d="M28.4001 58.7C28.1001 59.3 27.6001 59.8 26.9001 60.1C26.2001 60.5 25.4001 60.6 24.7001 60.6H21.6001V52.5H24.7001C25.5001 52.5 26.3001 52.7 27.0001 53C27.6001 53.3 28.1001 53.8 28.5001 54.4C28.8001 55 29.0001 55.8 29.0001 56.5C28.9001 57.3 28.7001 58 28.4001 58.7ZM26.3001 58.3C26.5001 58.1 26.7001 57.8 26.8001 57.5C26.9001 57.2 27.0001 56.9 26.9001 56.6C26.9001 56.3 26.9001 56 26.8001 55.7C26.7001 55.4 26.5001 55.1 26.3001 54.9C25.8001 54.5 25.2001 54.3 24.5001 54.3H23.6001V58.9H24.5001C25.2001 58.9 25.8001 58.7 26.3001 58.3Z" fill="white"/>
<path d="M35.8998 53.0001C36.4998 53.3001 36.9998 53.9001 37.3998 54.5001C37.7998 55.2001 37.8998 55.9001 37.8998 56.6001C37.8998 57.3001 37.6998 58.1001 37.3998 58.7001C37.0998 59.3001 36.4998 59.8001 35.8998 60.2001C35.2998 60.6001 34.5998 60.7001 33.7998 60.7001C33.0998 60.7001 32.3998 60.5001 31.6998 60.2001C31.0998 59.8001 30.5998 59.3001 30.1998 58.7001C29.7998 58.0001 29.5998 57.3001 29.6998 56.6001C29.6998 55.9001 29.8998 55.1001 30.1998 54.5001C30.4998 53.9001 31.0998 53.4001 31.6998 53.0001C32.2998 52.6001 32.9998 52.5001 33.7998 52.5001C34.5998 52.4001 35.2998 52.6001 35.8998 53.0001ZM32.2998 54.9001C31.8998 55.4001 31.6998 56.0001 31.6998 56.6001C31.6998 57.2001 31.8998 57.8001 32.2998 58.3001C32.4998 58.5001 32.6998 58.7001 32.9998 58.8001C33.2998 58.9001 33.4998 59.0001 33.7998 58.9001C34.0998 58.9001 34.3998 58.9001 34.5998 58.8001C34.8998 58.7001 35.0998 58.5001 35.2998 58.3001C35.6998 57.8001 35.8998 57.2001 35.8998 56.6001C35.8998 56.0001 35.6998 55.4001 35.2998 54.9001C35.0998 54.7001 34.8998 54.5001 34.5998 54.4001C34.2998 54.3001 34.0998 54.2001 33.7998 54.3001C33.4998 54.3001 33.1998 54.3001 32.9998 54.4001C32.7998 54.5001 32.4998 54.7001 32.2998 54.9001Z" fill="white"/>
<path d="M45.3002 53.2999C46.0002 53.8999 46.4002 54.5999 46.6002 55.4999H44.5002C44.4002 55.0999 44.1002 54.7999 43.8002 54.5999C43.5002 54.3999 43.1002 54.2999 42.7002 54.2999C42.4002 54.2999 42.2002 54.2999 41.9002 54.4999C41.7002 54.5999 41.4002 54.7999 41.3002 54.9999C40.9002 55.4999 40.7002 56.0999 40.8002 56.6999C40.8002 57.2999 41.0002 57.8999 41.3002 58.3999C41.5002 58.5999 41.7002 58.7999 41.9002 58.8999C42.1002 58.9999 42.4002 59.0999 42.7002 59.0999C43.1002 59.0999 43.5002 58.9999 43.8002 58.7999C44.1002 58.5999 44.4002 58.2999 44.5002 57.8999H46.6002C46.4002 58.7999 46.0002 59.4999 45.3002 60.0999C44.6002 60.6999 43.7002 60.8999 42.7002 60.8999C42.0002 60.8999 41.3002 60.6999 40.6002 60.3999C40.0002 60.0999 39.5002 59.5999 39.2002 58.8999C38.9002 58.1999 38.7002 57.4999 38.7002 56.6999C38.7002 55.9999 38.9002 55.1999 39.2002 54.4999C39.5002 53.8999 40.0002 53.3999 40.6002 52.9999C41.2002 52.5999 41.9002 52.4999 42.7002 52.4999C43.7002 52.3999 44.6002 52.6999 45.3002 53.2999Z" fill="white"/>
</svg>
