<svg width="54" height="66" viewBox="0 0 54 66" fill="none" xmlns="http://www.w3.org/2000/svg">
<g clip-path="url(#clip0_46_1637)">
<path d="M37.6 13.7C36.1 13.7 34.7 13.1 33.7 12.1C32.7 11.1 32.1 9.7 32.1 8.2V0.5H7.2C5.3 0.5 3.5 1.3 2.1 2.6C0.8 4 0 5.8 0 7.7V51.3C0 53.2 0.8 55.1 2.1 56.4C3.5 57.8 5.3 58.5 7.2 58.5H37C38.9 58.5 40.8 57.7 42.1 56.4C43.5 55 44.2 53.2 44.2 51.3V13.7H37.6Z" fill="#FFEEEF"/>
<path d="M44.2 13.7H37.5C36 13.7 34.6 13.1 33.6 12.1C32.6 11.1 32 9.7 32 8.2V0.5L44.2 13.7Z" fill="#FF3E4C"/>
<path d="M35.0999 41.1001H7.3999C7.0999 41.1001 6.8999 41.0001 6.6999 40.8001C6.4999 40.6001 6.3999 40.4001 6.3999 40.1001C6.3999 39.8001 6.4999 39.6001 6.6999 39.4001C6.8999 39.2001 7.0999 39.1001 7.3999 39.1001H35.1999C35.4999 39.1001 35.6999 39.2001 35.8999 39.4001C36.0999 39.6001 36.1999 39.8001 36.1999 40.1001C36.1999 40.2001 36.1999 40.4001 36.0999 40.5001C35.9999 40.6001 35.9999 40.7001 35.8999 40.8001C35.7999 40.9001 35.6999 41.0001 35.5999 41.0001C35.3999 41.0001 35.2999 41.1001 35.0999 41.1001Z" fill="#FF3E4C"/>
<path d="M35.0999 29.7002H7.3999C7.0999 29.7002 6.8999 29.6002 6.6999 29.4002C6.4999 29.2002 6.3999 29.0002 6.3999 28.7002C6.3999 28.4002 6.4999 28.2002 6.6999 28.0002C6.8999 27.8002 7.0999 27.7002 7.3999 27.7002H35.1999C35.2999 27.7002 35.4999 27.7002 35.5999 27.8002C35.6999 27.9002 35.7999 27.9002 35.8999 28.0002C35.9999 28.1002 36.0999 28.2002 36.0999 28.3002C36.1999 28.4002 36.1999 28.6002 36.1999 28.7002C36.1999 29.0002 36.0999 29.2002 35.8999 29.4002C35.5999 29.6002 35.3999 29.7002 35.0999 29.7002Z" fill="#FF3E4C"/>
<path d="M35.0999 35.3999H7.3999C7.0999 35.3999 6.8999 35.2999 6.6999 35.0999C6.4999 34.8999 6.3999 34.6999 6.3999 34.3999C6.3999 34.0999 6.4999 33.8999 6.6999 33.6999C6.8999 33.4999 7.0999 33.3999 7.3999 33.3999H35.1999C35.4999 33.3999 35.6999 33.4999 35.8999 33.6999C36.0999 33.8999 36.1999 34.0999 36.1999 34.3999C36.1999 34.4999 36.1999 34.6999 36.0999 34.7999C35.9999 34.8999 35.9999 34.9999 35.8999 35.0999C35.7999 35.1999 35.6999 35.2999 35.5999 35.2999C35.3999 35.3999 35.2999 35.3999 35.0999 35.3999Z" fill="#FF3E4C"/>
<path d="M24.1999 24H7.3999C7.0999 24 6.8999 23.9 6.6999 23.7C6.4999 23.5 6.3999 23.3 6.3999 23C6.3999 22.7 6.4999 22.5 6.6999 22.3C6.8999 22.1 7.0999 22 7.3999 22H24.1999C24.4999 22 24.6999 22.1 24.8999 22.3C25.0999 22.5 25.1999 22.7 25.1999 23C25.1999 23.3 25.0999 23.5 24.8999 23.7C24.6999 23.9 24.3999 24 24.1999 24Z" fill="#FF3E4C"/>
<path d="M24.1999 18.2998H7.3999C7.0999 18.2998 6.8999 18.1998 6.6999 17.9998C6.4999 17.7998 6.3999 17.5998 6.3999 17.2998C6.3999 16.9998 6.4999 16.7998 6.6999 16.5998C6.8999 16.3998 7.0999 16.2998 7.3999 16.2998H24.1999C24.4999 16.2998 24.6999 16.3998 24.8999 16.5998C25.0999 16.7998 25.1999 16.9998 25.1999 17.2998C25.1999 17.5998 25.0999 17.7998 24.8999 17.9998C24.6999 18.1998 24.3999 18.2998 24.1999 18.2998Z" fill="#FF3E4C"/>
<path d="M49.5 46.3999H15.8C13.4 46.3999 11.5 48.2999 11.5 50.6999V60.6999C11.5 63.0999 13.4 64.9999 15.8 64.9999H49.4C51.8 64.9999 53.7 63.0999 53.7 60.6999V50.6999C53.8 48.2999 51.9 46.3999 49.5 46.3999Z" fill="#FF3E4C"/>
<path d="M22.6001 57.8999V59.8999H20.6001V57.8999H22.6001Z" fill="white"/>
<path d="M25.5 57.0002V59.8002H23.5V51.7002H26.7C27.7 51.7002 28.4 51.9002 28.9 52.4002C29.2 52.7002 29.4 53.0002 29.5 53.3002C29.6 53.6002 29.7 54.0002 29.7 54.3002C29.7 54.8002 29.6 55.2002 29.4 55.6002C29.2 56.0002 28.8 56.3002 28.4 56.5002C27.9 56.7002 27.3 56.9002 26.8 56.8002L25.5 57.0002ZM27.7 54.4002C27.7 53.7002 27.3 53.3002 26.5 53.3002H25.5V55.4002H26.5C27.3 55.4002 27.7 55.1002 27.7 54.4002Z" fill="white"/>
<path d="M37.4001 57.9002C37.1001 58.5002 36.6001 59.0002 35.9001 59.3002C35.2001 59.7002 34.4001 59.8002 33.7001 59.8002H30.6001V51.7002H33.7001C34.5001 51.7002 35.3001 51.9002 36.0001 52.2002C36.6001 52.5002 37.1001 53.0002 37.5001 53.6002C37.9001 54.2002 38.0001 55.0002 38.0001 55.7002C37.9001 56.5002 37.8001 57.3002 37.4001 57.9002ZM35.3001 57.5002C35.5001 57.3002 35.7001 57.0002 35.8001 56.7002C35.9001 56.4002 36.0001 56.1002 35.9001 55.8002C35.9001 55.5002 35.9001 55.2002 35.8001 54.9002C35.7001 54.6002 35.5001 54.3002 35.3001 54.1002C34.8001 53.7002 34.2001 53.5002 33.5001 53.5002H32.6001V58.1002H33.5001C34.2001 58.1002 34.8001 57.9002 35.3001 57.5002Z" fill="white"/>
<path d="M44.3 51.7998V53.3998H41V55.1998H43.6V56.6998H41V59.9998H39V51.8998H44.3V51.7998Z" fill="white"/>
<path d="M34.5998 16.2998H29.7998C28.9998 16.2998 28.2998 16.9998 28.2998 17.7998V22.5998C28.2998 23.3998 28.9998 24.0998 29.7998 24.0998H34.5998C35.3998 24.0998 36.0998 23.3998 36.0998 22.5998V17.7998C36.0998 16.9998 35.4998 16.2998 34.5998 16.2998Z" fill="#FF3E4C"/>
</g>
<defs>
<clipPath id="clip0_46_1637">
<rect width="54" height="65" fill="white" transform="translate(0 0.5)"/>
</clipPath>
</defs>
</svg>
