<svg width="54" height="67" viewBox="0 0 54 67" fill="none" xmlns="http://www.w3.org/2000/svg">
<path d="M37.6 14.4998C36.1 14.4998 34.7 13.8998 33.7 12.8998C32.7 11.8998 32.1 10.3998 32.1 8.9998V1.2998H7.2C5.3 1.2998 3.4 2.0998 2.1 3.3998C0.8 4.7998 0 6.5998 0 8.4998V52.0998C0 53.9998 0.8 55.8998 2.1 57.1998C3.5 58.5998 5.3 59.2998 7.2 59.2998H37C38.9 59.2998 40.8 58.4998 42.1 57.1998C43.5 55.7998 44.2 53.9998 44.2 52.0998V14.4998H37.6Z" fill="#E8F0F7"/>
<path d="M44.2 14.4998H37.5C36 14.4998 34.6 13.8998 33.6 12.8998C32.6 11.8998 32 10.3998 32 8.9998V1.2998L44.2 14.4998Z" fill="#005FAD"/>
<path d="M49.5 47.2002H15.8C13.4 47.2002 11.5 49.1002 11.5 51.5002V61.5002C11.5 63.9002 13.4 65.8002 15.8 65.8002H49.4C51.8 65.8002 53.7 63.9002 53.7 61.5002V51.5002C53.8 49.1002 51.9 47.2002 49.5 47.2002Z" fill="#005FAD"/>
<path d="M22.5 58.7002V60.7002H20.5V58.7002H22.5Z" fill="white"/>
<path d="M25.5 57.8V60.6H23.5V52.5H26.7C27.7 52.5 28.4 52.7 28.9 53.2C29.2 53.4 29.4 53.8 29.5 54.1C29.6 54.4 29.7 54.8 29.7 55.1C29.7 55.6 29.6 56 29.4 56.4C29.2 56.8 28.8 57.1 28.4 57.3C27.9 57.5 27.3 57.7 26.8 57.6H25.5V57.8ZM27.7 55.2C27.7 54.5 27.3 54.1 26.5 54.1H25.5V56.2H26.5C27.3 56.2 27.7 55.9 27.7 55.2Z" fill="white"/>
<path d="M36.0999 59.5001C35.8999 59.9001 35.4999 60.2001 35.0999 60.4001C34.5999 60.6001 34.0999 60.7001 33.5999 60.7001C32.7999 60.7001 31.9999 60.5001 31.3999 60.0001C31.0999 59.8001 30.8999 59.5001 30.6999 59.2001C30.4999 58.9001 30.3999 58.5001 30.3999 58.2001H32.4999C32.4999 58.5001 32.5999 58.7001 32.7999 58.9001C32.9999 59.1001 33.2999 59.2001 33.4999 59.2001C33.6999 59.2001 33.8999 59.1001 34.0999 59.0001C34.1999 58.9001 34.1999 58.8001 34.2999 58.8001C34.2999 58.7001 34.3999 58.6001 34.3999 58.5001C34.3999 58.4001 34.3999 58.3001 34.3999 58.2001C34.3999 58.1001 34.2999 58.0001 34.1999 58.0001C34.0999 57.9001 33.8999 57.7001 33.6999 57.7001C33.4999 57.6001 33.1999 57.5001 32.8999 57.4001C32.4999 57.3001 32.0999 57.1001 31.5999 56.9001C31.2999 56.7001 30.9999 56.5001 30.7999 56.2001C30.5999 55.8001 30.3999 55.4001 30.4999 54.9001C30.4999 54.5001 30.5999 54.0001 30.8999 53.7001C31.1999 53.3001 31.4999 53.1001 31.8999 52.9001C32.3999 52.7001 32.8999 52.6001 33.3999 52.6001C34.1999 52.6001 34.8999 52.8001 35.5999 53.2001C35.8999 53.4001 36.0999 53.7001 36.1999 54.0001C36.3999 54.3001 36.3999 54.6001 36.4999 55.0001H34.3999C34.3999 54.8001 34.2999 54.5001 34.0999 54.4001C33.9999 54.3001 33.8999 54.3001 33.7999 54.2001C33.6999 54.2001 33.5999 54.1001 33.4999 54.1001C33.2999 54.1001 33.0999 54.2001 32.8999 54.3001C32.7999 54.4001 32.7999 54.5001 32.6999 54.5001C32.6999 54.6001 32.5999 54.7001 32.6999 54.8001C32.6999 55.0001 32.7999 55.2001 32.8999 55.3001C32.9999 55.4001 33.1999 55.5001 33.3999 55.6001C33.5999 55.7001 33.8999 55.8001 34.1999 55.9001C34.5999 56.0001 35.0999 56.2001 35.4999 56.4001C35.7999 56.6001 36.0999 56.8001 36.2999 57.1001C36.5999 57.5001 36.6999 57.9001 36.6999 58.4001C36.3999 58.8001 36.2999 59.2001 36.0999 59.5001Z" fill="white"/>
<path d="M44.3 58.7C44 59.3 43.5 59.8 42.8 60.1C42.1 60.5 41.3 60.6 40.6 60.6H37.5V52.5H40.6C41.4 52.5 42.2 52.7 42.9 53C43.5 53.3 44 53.8 44.4 54.4C44.7 55 44.9 55.8 44.9 56.5C44.8 57.3 44.6 58 44.3 58.7ZM42.2 58.3C42.4 58.1 42.6 57.8 42.7 57.5C42.8 57.2 42.9 56.9 42.8 56.6C42.8 56.3 42.8 56 42.7 55.7C42.6 55.4 42.4 55.1 42.2 54.9C41.7 54.5 41.1 54.3 40.4 54.3H39.5V58.9H40.4C41 58.9 41.7 58.7 42.2 58.3Z" fill="white"/>
<path d="M13.4999 36.5001C13.4999 36.5001 11.6999 32.8001 13.9999 29.1001C13.9999 29.1001 14.6999 31.1001 15.1999 30.9001C15.1999 30.9001 14.4999 28.1001 14.9999 27.3001C14.9999 27.3001 17.1999 24.1001 19.6999 22.4001C19.6999 22.4001 19.7999 24.3001 20.3999 24.5001C20.3999 24.5001 20.2999 23.3001 21.0999 21.5001C21.0999 21.5001 25.0999 18.4001 31.6999 18.7001C31.6999 18.7001 29.0999 22.8001 27.5999 25.5001C26.7999 27.0001 25.9999 28.4001 24.9999 29.8001C24.9999 29.8001 22.9999 30.9001 21.7999 30.8001C21.7999 30.8001 22.8999 31.6001 23.9999 31.2001C23.9999 31.2001 20.9999 36.6001 15.2999 37.3001C15.2999 37.3001 14.1999 39.5001 13.9999 41.5001C13.9999 41.5001 12.8999 42.2001 12.3999 42.0001C12.3999 42.0001 15.1999 31.3001 24.6999 23.5001C24.7999 23.5001 19.2999 25.0001 13.4999 36.5001Z" fill="#005FAD"/>
</svg>
