<?xml version="1.0" encoding="UTF-8"?><svg id="Capa_1" xmlns="http://www.w3.org/2000/svg" viewBox="0 0 512 512"><defs><style>.cls-1{fill:#cfd8dc;}.cls-2{fill:#90a4ae;}.cls-3{fill:#b0bec5;}</style></defs><path class="cls-2" d="m499.63,407.47c-10.13,12.16-25.13,19.19-40.96,19.2H53.33c-15.83,0-30.83-7.04-40.96-19.2l195.63-162.99,20.27,13.87c16.7,11.52,38.77,11.52,55.47,0l20.27-13.87,195.63,162.99Z"/><path class="cls-1" d="m502.61,108.59l-198.61,135.89-20.27,13.87c-16.7,11.52-38.77,11.52-55.47,0l-20.27-13.87L9.39,108.37c9.99-14.41,26.41-23.02,43.95-23.04h405.33c17.62-.09,34.11,8.64,43.95,23.25Z"/><g><path class="cls-3" d="m208,244.48L12.37,407.47C4.37,397.9-.01,385.81,0,373.33v-234.67c-.06-10.82,3.21-21.4,9.39-30.29l198.61,136.11Z"/><path class="cls-3" d="m512,138.67v234.67c.01,12.48-4.37,24.56-12.37,34.13l-195.63-162.99,198.61-135.89c6.14,8.83,9.42,19.33,9.39,30.08Z"/></g></svg>