<?xml version="1.0" encoding="UTF-8"?><svg id="Capa_1" xmlns="http://www.w3.org/2000/svg" viewBox="0 0 512 512"><defs><style>.cls-1{fill:#eceff1;}.cls-2{fill:#1e88e5;}.cls-3{fill:#2196f3;}.cls-4{fill:#90a4ae;}.cls-5{fill:#64b5f6;}</style></defs><path class="cls-5" d="m512.02,187.23h-.02v8.75l-5.93,3.67-58.07,36.03-68.68,42.6-.17.11-1.01.62-.09.05-80.1,49.69-32.48,20.15c-2.81,2.08-6.14,3.1-9.47,3.1s-6.65-1.02-9.47-3.1l-32.48-20.15-80.45-49.92-69.6-43.19L0,195.93v-8.67h.02s63.98-47.8,63.98-47.8l67.04-50.08,33.97-25.38L246.4,3.2C249.25,1.07,252.63,0,256,0s6.76,1.07,9.6,3.2l81.41,60.8,33.96,25.36,67.03,50.06,64,47.8h.02Z"/><path class="cls-1" d="m416,0H96c-17.63,0-32,14.37-32,32v352c0,8.83,7.17,16,16,16h352c8.83,0,16-7.17,16-16V32c0-17.63-14.34-32-32-32Z"/><g><path class="cls-4" d="m144,96h224c8.83,0,16-7.17,16-16s-7.17-16-16-16h-224c-8.83,0-16,7.17-16,16s7.17,16,16,16Z"/><path class="cls-4" d="m368,128h-224c-8.83,0-16,7.17-16,16s7.17,16,16,16h224c8.83,0,16-7.17,16-16s-7.17-16-16-16Z"/><path class="cls-4" d="m272,192h-128c-8.83,0-16,7.17-16,16s7.17,16,16,16h128c8.83,0,16-7.17,16-16s-7.17-16-16-16Z"/></g><path class="cls-2" d="m458.67,511.64H53.34c-15.83,0-30.84-7.04-40.96-19.2-4.92-5.88-8.47-12.71-10.47-20,1.11-2.08,2.67-3.92,4.62-5.34l100.65-67.1,107.27-71.52,32.08-21.38c2.82-2.08,6.14-3.1,9.47-3.1s6.66,1.02,9.47,3.1l32.08,21.38,3.98,2.66h.01l103.28,68.86,100.65,67.1c1.95,1.43,3.52,3.27,4.63,5.35-2,7.28-5.55,14.11-10.47,19.99-10.13,12.16-25.13,19.2-40.96,19.2Z"/><g><path class="cls-2" d="m499.63,492.8c-10.13,12.16-25.13,19.19-40.96,19.2H53.33c-15.83,0-30.83-7.04-40.96-19.2l195.63-162.99,20.27,13.87c16.7,11.52,38.77,11.52,55.47,0l20.27-13.87,195.63,162.99Z"/><g><path class="cls-3" d="m208,329.81l-17.81,14.84-.03.03-66.4,55.32L12.56,492.65l-.18.15C4.37,483.23-.01,471.15,0,458.67v-234.67c0-.43,0-.86.02-1.29H0v-35.45h.02s9.37,6.45,9.37,6.45l.54.37,54.07,37.05,69.6,47.7,74.4,50.98Z"/><path class="cls-3" d="m512,223.81v234.95c0,.33,0,.66-.01.98,0,.33,0,.66-.03.98-.05,1.36-.15,2.72-.31,4.07-.08.68-.17,1.35-.27,2.02-.06.38-.12.76-.19,1.14-.07.38-.14.76-.21,1.14-.08.38-.16.75-.24,1.13-.17.75-.35,1.51-.55,2.26-.2.73-.41,1.46-.64,2.19-.12.36-.24.73-.36,1.09-.12.36-.25.73-.38,1.09h0c-.39,1.09-.82,2.15-1.28,3.2h0c-.31.71-.63,1.41-.97,2.09-.17.35-.35.69-.52,1.04-.36.68-.73,1.35-1.11,2.01h0c-1.53,2.68-3.3,5.22-5.3,7.61h-.01l-.17-.15-111.2-92.65h-.01l-66.38-55.31h0s-.01-.01-.01-.01l-.03-.03-17.81-14.84,75.15-51.42.17-.11,68.68-46.99,54.62-37.37c1.28,1.84,2.43,3.76,3.45,5.73,3.71,7.11,5.75,14.99,5.91,23.06.02.37.02.73.02,1.1Z"/><path class="cls-3" d="m512,187.24v35.47h-.02c.02.37.02.73.02,1.1v234.95c0,.33,0,.66-.01.98,0,.33,0,.66-.03.98-.01.34-.03.68-.05,1.02-.03.51-.07,1.02-.11,1.53-.04.51-.1,1.01-.15,1.52-.08.68-.17,1.35-.27,2.02-.06.38-.12.76-.19,1.14-.07.38-.14.76-.21,1.14-.08.38-.16.75-.24,1.13-.17.75-.35,1.51-.55,2.26-.2.73-.41,1.46-.64,2.19-.12.36-.24.73-.36,1.09-.12.36-.25.73-.38,1.09h0c-.4,1.08-.82,2.15-1.28,3.2h0c-.31.71-.64,1.4-.97,2.09-.17.35-.35.69-.52,1.04-.36.68-.73,1.35-1.11,2.01h0c-1.54,2.68-3.31,5.22-5.31,7.61l-.17-.15-111.2-92.65h-.01l-66.38-55.31h0s-.01-.01-.01-.01l-.03-.03-17.81-14.84,74.05-50.75.09-.05,69.86-47.88,54.07-37.05.54-.37,9.39-6.47Z"/></g></g><polygon class="cls-5" points="512.02 187.23 512 187.24 512 187.22 512.02 187.23"/></svg>