<svg width="196" height="30" viewBox="0 0 196 30" fill="none" xmlns="http://www.w3.org/2000/svg">
<path d="M0 22.7141V1.1086H9.5212C10.5999 1.1086 11.5955 1.33176 12.5082 1.77807C13.421 2.20409 14.1988 2.77212 14.8419 3.48216C15.5057 4.17191 16.0243 4.97324 16.3976 5.88615C16.771 6.77877 16.9577 7.68153 16.9577 8.59444C16.9577 9.54792 16.7814 10.4811 16.4287 11.394C16.0761 12.2866 15.5783 13.088 14.9352 13.798C14.3129 14.4878 13.5454 15.0456 12.6327 15.4717C11.7407 15.8774 10.7554 16.0803 9.67678 16.0803H6.06743V22.7141H0ZM6.06743 10.9071H9.27228C9.64566 10.9071 9.98793 10.7448 10.2991 10.4203C10.631 10.0754 10.7969 9.46677 10.7969 8.59444C10.7969 7.70182 10.6102 7.09321 10.2369 6.76862C9.86347 6.44404 9.49009 6.28174 9.11671 6.28174H6.06743V10.9071Z" fill="white"/>
<path d="M29.9986 11.6375C28.8577 11.6375 27.8205 11.7592 26.887 12.0026C25.9536 12.2461 25.2587 12.6518 24.8023 13.2198V22.7141H18.8905V6.70777H24.3045V9.75079C24.8853 8.67559 25.601 7.85397 26.4514 7.28594C27.3227 6.69762 28.2561 6.40346 29.2518 6.40346C29.6459 6.40346 29.8948 6.41361 29.9986 6.43389V11.6375Z" fill="white"/>
<path d="M31.8652 22.7141V6.70777H37.7771V22.7141H31.8652ZM31.8652 5.36883V0.5H37.7771V5.36883H31.8652Z" fill="white"/>
<path d="M57.2281 22.7141H51.3162V13.7067C51.3162 12.9155 51.1296 12.3475 50.7562 12.0026C50.4035 11.6375 49.9887 11.4549 49.5116 11.4549C49.0137 11.4549 48.4848 11.6679 47.9247 12.0939C47.3646 12.5199 46.9498 13.0677 46.6801 13.7371V22.7141H40.7682V6.70777H46.0889V9.08132C46.6697 8.20899 47.4787 7.54967 48.5159 7.10336C49.5738 6.63676 50.8184 6.40346 52.2497 6.40346C53.3698 6.40346 54.2514 6.60633 54.8945 7.01207C55.5583 7.39752 56.0561 7.8844 56.388 8.47272C56.7406 9.06104 56.9688 9.68993 57.0725 10.3594C57.1762 11.0289 57.2281 11.6375 57.2281 12.1852V22.7141Z" fill="white"/>
<path d="M71.5751 21.8316C70.7453 22.1765 69.8534 22.4706 68.8992 22.7141C67.9657 22.9372 67.0426 23.0488 66.1299 23.0488C65.4661 23.0488 64.8335 22.9676 64.2319 22.8054C63.6304 22.6431 63.1014 22.3793 62.645 22.0142C62.2094 21.649 61.8568 21.1723 61.5871 20.5839C61.3382 19.9956 61.2138 19.2653 61.2138 18.393V11.0593H59.1913V6.70777H61.2138V1.68678H67.1256V6.70777H70.3305V11.0593H67.1256V16.3541C67.1256 16.8816 67.2397 17.2569 67.4679 17.4801C67.6961 17.6829 68.0072 17.7844 68.4013 17.7844C68.6917 17.7844 69.0236 17.7438 69.397 17.6626C69.7704 17.5612 70.1438 17.4293 70.5172 17.2671L71.5751 21.8316Z" fill="white"/>
<path d="M73.5336 22.7141V1.1086H83.0548C84.1335 1.1086 85.1292 1.33176 86.0419 1.77807C86.9546 2.20409 87.7324 2.77212 88.3755 3.48216C89.0393 4.17191 89.5579 4.97324 89.9312 5.88615C90.3046 6.77877 90.4913 7.68153 90.4913 8.59444C90.4913 9.54792 90.315 10.4811 89.9624 11.394C89.6097 12.2866 89.1119 13.088 88.4688 13.798C87.8465 14.4878 87.079 15.0456 86.1663 15.4717C85.2744 15.8774 84.289 16.0803 83.2104 16.0803H79.601V22.7141H73.5336ZM79.601 10.9071H82.8059C83.1793 10.9071 83.5215 10.7448 83.8327 10.4203C84.1646 10.0754 84.3305 9.46677 84.3305 8.59444C84.3305 7.70182 84.1438 7.09321 83.7705 6.76862C83.3971 6.44404 83.0237 6.28174 82.6503 6.28174H79.601V10.9071Z" fill="white"/>
<path d="M100.118 23.0184C98.687 23.0184 97.4112 22.8054 96.2911 22.3793C95.171 21.933 94.2271 21.3346 93.4596 20.5839C92.7129 19.8333 92.1424 18.9711 91.7483 17.9974C91.3542 17.0236 91.1571 15.9991 91.1571 14.9239C91.1571 13.7676 91.3438 12.6721 91.7172 11.6375C92.1113 10.6028 92.6818 9.70007 93.4285 8.92917C94.196 8.15827 95.1295 7.54967 96.2289 7.10336C97.349 6.63676 98.6455 6.40346 100.118 6.40346C101.57 6.40346 102.856 6.63676 103.977 7.10336C105.097 7.54967 106.03 8.15827 106.777 8.92917C107.544 9.67978 108.115 10.5623 108.488 11.5766C108.882 12.5707 109.079 13.6154 109.079 14.7109C109.079 15.0152 109.059 15.3297 109.017 15.6543C108.996 15.9586 108.965 16.2324 108.924 16.4759H97.4424C97.5046 17.3279 97.8261 17.9467 98.4069 18.3321C98.9877 18.6973 99.6204 18.8799 100.305 18.8799C100.948 18.8799 101.55 18.7378 102.11 18.4538C102.69 18.1698 103.074 17.7742 103.261 17.2671L108.27 18.6668C107.607 19.9449 106.58 20.9897 105.19 21.8012C103.821 22.6126 102.13 23.0184 100.118 23.0184ZM102.732 13.0068C102.628 12.2359 102.338 11.6273 101.861 11.181C101.384 10.7347 100.772 10.5115 100.025 10.5115C99.2781 10.5115 98.6662 10.7347 98.1891 11.181C97.712 11.6273 97.4216 12.2359 97.3179 13.0068H102.732Z" fill="white"/>
<path d="M127.51 22.7141H121.599V13.7067C121.599 12.9155 121.412 12.3475 121.038 12.0026C120.686 11.6375 120.271 11.4549 119.794 11.4549C119.296 11.4549 118.767 11.6679 118.207 12.0939C117.647 12.5199 117.232 13.0677 116.962 13.7371V22.7141H111.051V6.70777H116.371V9.08132C116.952 8.20899 117.761 7.54967 118.798 7.10336C119.856 6.63676 121.101 6.40346 122.532 6.40346C123.652 6.40346 124.534 6.60633 125.177 7.01207C125.841 7.39752 126.338 7.8844 126.67 8.47272C127.023 9.06104 127.251 9.68993 127.355 10.3594C127.459 11.0289 127.51 11.6375 127.51 12.1852V22.7141Z" fill="white"/>
<path d="M136.661 22.7141C135.603 22.7141 134.628 22.5112 133.736 22.1055C132.865 21.6794 132.118 21.1114 131.496 20.4014C130.874 19.671 130.386 18.819 130.034 17.8452C129.702 16.8715 129.536 15.8165 129.536 14.6805C129.536 13.4836 129.723 12.3779 130.096 11.3636C130.469 10.3492 130.988 9.47692 131.652 8.74659C132.336 8.01626 133.145 7.44823 134.079 7.0425C135.012 6.61647 136.039 6.40346 137.159 6.40346C138.341 6.40346 139.379 6.63676 140.271 7.10336C141.162 7.54967 141.868 8.20899 142.386 9.08132V6.70777H147.52V21.2534C147.52 22.5112 147.282 23.6473 146.805 24.6616C146.328 25.6759 145.653 26.5381 144.782 27.2482C143.911 27.9582 142.863 28.5059 141.64 28.8914C140.416 29.2971 139.057 29.5 137.564 29.5C135.821 29.5 134.307 29.2363 133.021 28.7088C131.735 28.1814 130.594 27.4206 129.598 26.4265L132.71 23.2618C133.311 23.8095 134.027 24.266 134.856 24.6312C135.707 25.0166 136.609 25.2093 137.564 25.2093C138.103 25.2093 138.611 25.1383 139.088 24.9963C139.586 24.8543 140.022 24.621 140.395 24.2964C140.768 23.9921 141.059 23.5864 141.266 23.0792C141.494 22.5721 141.608 21.9634 141.608 21.2534V20.2188C141.131 21.0708 140.447 21.6997 139.555 22.1055C138.684 22.5112 137.719 22.7141 136.661 22.7141ZM138.777 18.1495C139.379 18.1495 139.897 18.0177 140.333 17.7539C140.789 17.4699 141.214 17.054 141.608 16.5063V13.6459C141.318 12.9155 140.882 12.3374 140.302 11.9113C139.742 11.4853 139.15 11.2723 138.528 11.2723C138.113 11.2723 137.719 11.3737 137.346 11.5766C136.993 11.7592 136.682 12.0128 136.412 12.3374C136.143 12.6417 135.935 13.017 135.79 13.4633C135.645 13.8893 135.572 14.3458 135.572 14.8326C135.572 15.8267 135.873 16.628 136.474 17.2366C137.076 17.8452 137.844 18.1495 138.777 18.1495Z" fill="white"/>
<path d="M155.5 23.0184C153.841 23.0184 152.575 22.5315 151.704 21.5577C150.833 20.5637 150.397 19.1233 150.397 17.2366V6.70777H156.309V15.9281C156.309 16.6382 156.465 17.1859 156.776 17.5714C157.108 17.9568 157.554 18.1495 158.114 18.1495C158.57 18.1495 159.037 18.0481 159.514 17.8452C159.991 17.6424 160.468 17.196 160.945 16.5063V6.70777H166.857V16.3237C166.857 16.8715 166.961 17.2569 167.168 17.4801C167.376 17.6829 167.749 17.8047 168.288 17.8452V22.7141C167.687 22.8155 167.158 22.8865 166.702 22.9271C166.245 22.9879 165.841 23.0184 165.488 23.0184C163.476 23.0184 162.314 22.2779 162.003 20.797L161.879 20.2188C161.111 21.2128 160.198 21.933 159.141 22.3793C158.083 22.8054 156.869 23.0184 155.5 23.0184Z" fill="white"/>
<path d="M170.637 22.7141V6.70777H176.549V22.7141H170.637ZM170.637 5.36883V0.5H176.549V5.36883H170.637Z" fill="white"/>
<path d="M196 22.7141H190.088V13.7067C190.088 12.9155 189.901 12.3475 189.528 12.0026C189.175 11.6375 188.761 11.4549 188.283 11.4549C187.786 11.4549 187.257 11.6679 186.697 12.0939C186.137 12.5199 185.722 13.0677 185.452 13.7371V22.7141H179.54V6.70777H184.861V9.08132C185.442 8.20899 186.251 7.54967 187.288 7.10336C188.346 6.63676 189.59 6.40346 191.022 6.40346C192.142 6.40346 193.023 6.60633 193.666 7.01207C194.33 7.39752 194.828 7.8844 195.16 8.47272C195.513 9.06104 195.741 9.68993 195.844 10.3594C195.948 11.0289 196 11.6375 196 12.1852V22.7141Z" fill="white"/>
</svg>
