<?xml version="1.0" encoding="UTF-8"?><svg id="Warstwa_1" xmlns="http://www.w3.org/2000/svg" viewBox="0 0 1300 263.49"><defs><style>.cls-1{fill:#e6007f;}.cls-2{fill:#fff;}.cls-3{fill:#009fe3;}.cls-4{fill:#feca00;}</style></defs><g><path d="m339.94,114.42c0-5.53,2.81-8.85,8.44-9.98,2.46-.51,6.14-.89,11.05-1.15,4.91-.25,10.33-.38,16.27-.38,15.55,0,27.52,3.07,35.91,9.21,8.39,6.14,12.59,14.89,12.59,26.24s-3.99,20.23-11.97,26.32c-7.98,6.09-19.54,9.13-34.69,9.13-2.25,0-4.81-.1-7.67-.31-2.87-.2-6.91-.61-12.13-1.23v37.45h-17.8v-95.31Zm65.53,23.94c0-13.3-10.08-19.95-30.23-19.95-3.48,0-6.96.1-10.44.31-3.48.21-5.83.41-7.06.61v37.45c1.84.41,4.6.77,8.29,1.07,3.68.31,7.11.46,10.28.46,19.44,0,29.16-6.65,29.16-19.95Z"/><path d="m436.17,160.16c0-9.31,2.89-16.58,8.67-21.79,5.78-5.22,13.79-7.83,24.02-7.83,6.96,0,12.33,1.02,16.12,3.07,3.78,2.05,5.68,4.66,5.68,7.83,0,1.64-.44,3.28-1.3,4.91-.87,1.64-1.71,2.71-2.53,3.22-4.5-2.25-9.57-3.38-15.19-3.38-11.97,0-17.96,6.34-17.96,19.03v44.51h-17.5v-49.57Z"/><path d="m498.56,116.57c-1.99-2.05-2.99-4.6-2.99-7.67s1-5.63,2.99-7.67c1.99-2.05,4.53-3.07,7.6-3.07s5.6,1.02,7.6,3.07c1.99,2.05,2.99,4.6,2.99,7.67s-1,5.63-2.99,7.67c-2,2.05-4.53,3.07-7.6,3.07s-5.6-1.02-7.6-3.07Zm16.35,93.16h-17.5v-68.91c0-2.66.87-4.68,2.61-6.06,1.74-1.38,3.99-2.07,6.75-2.07,1.43,0,2.92.15,4.45.46,1.54.31,2.76.72,3.68,1.23v75.36Z"/><path d="m530.56,163.23c0-6.55,1.56-12.28,4.68-17.19,3.12-4.91,7.49-8.72,13.12-11.43,5.63-2.71,12.17-4.07,19.65-4.07s14.14,1.36,19.72,4.07c5.58,2.71,9.92,6.52,13.05,11.43,3.12,4.91,4.68,10.64,4.68,17.19v46.5h-17.5v-42.05c0-6.96-1.69-12.25-5.06-15.89-3.38-3.63-8.34-5.45-14.89-5.45-13.3,0-19.95,7.11-19.95,21.33v42.05h-17.5v-46.5Z"/><path d="m620.19,119.03c0-2.66.87-4.68,2.61-6.06,1.74-1.38,3.99-2.07,6.75-2.07,1.43,0,2.92.15,4.45.46s2.76.72,3.68,1.23v20.11h22.25c6.14,0,9.21,2.71,9.21,8.13,0,2.97-.67,5.63-2,7.98h-29.47v34.07c0,4.3,1.12,7.62,3.38,9.98,2.25,2.35,5.58,3.53,9.98,3.53,2.46,0,4.99-.36,7.6-1.07,2.61-.71,4.83-1.69,6.68-2.92l7.06,11.66c-2.66,2.25-6.27,4.12-10.82,5.6-4.55,1.48-9.24,2.23-14.04,2.23-8.29,0-14.91-2.28-19.87-6.83-4.96-4.55-7.44-10.72-7.44-18.49v-67.53Z"/><path d="m716.11,114.42c0-5.53,2.81-8.85,8.44-9.98,2.46-.51,6.14-.89,11.05-1.15,4.91-.25,10.33-.38,16.27-.38,15.55,0,27.52,3.07,35.91,9.21,8.39,6.14,12.59,14.89,12.59,26.24s-3.99,20.23-11.97,26.32c-7.98,6.09-19.54,9.13-34.69,9.13-2.25,0-4.81-.1-7.67-.31-2.87-.2-6.91-.61-12.12-1.23v37.45h-17.8v-95.31Zm65.54,23.94c0-13.3-10.08-19.95-30.24-19.95-3.48,0-6.96.1-10.44.31-3.48.21-5.83.41-7.06.61v37.45c1.84.41,4.6.77,8.29,1.07,3.68.31,7.11.46,10.28.46,19.44,0,29.16-6.65,29.16-19.95Z"/><path d="m847.94,211.88c-8.08,0-15.22-1.69-21.41-5.07-6.19-3.38-11.03-8.06-14.5-14.04-3.48-5.99-5.22-12.97-5.22-20.95s1.79-15.22,5.37-21.41c3.58-6.19,8.52-11.05,14.81-14.58s13.48-5.3,21.56-5.3c9.82,0,17.78,2.28,23.87,6.83,6.09,4.55,9.13,10.77,9.13,18.65s-3.56,13.97-10.67,17.96c-7.11,3.99-18.39,5.99-33.84,5.99-1.43,0-3.2-.02-5.29-.08-2.1-.05-4.17-.13-6.22-.23.82,5.32,3.55,9.57,8.21,12.74,4.65,3.17,10.51,4.76,17.57,4.76,7.67,0,14.63-1.79,20.87-5.37l6.45,12.28c-2.25,1.43-5.06,2.76-8.44,3.99-3.38,1.23-7.01,2.17-10.9,2.84-3.89.66-7.67,1-11.36,1Zm.31-67.84c-6.75,0-12.3,2.17-16.65,6.52s-6.63,10.05-6.83,17.11c1.74.1,3.58.15,5.53.15h7.67c17.7,0,26.55-4.04,26.55-12.13,0-3.58-1.51-6.42-4.53-8.52-3.02-2.1-6.93-3.15-11.74-3.15Z"/><path d="m891.53,163.23c0-6.55,1.56-12.28,4.68-17.19,3.12-4.91,7.49-8.72,13.12-11.43,5.63-2.71,12.17-4.07,19.65-4.07s14.14,1.36,19.72,4.07c5.58,2.71,9.92,6.52,13.05,11.43,3.12,4.91,4.68,10.64,4.68,17.19v46.5h-17.5v-42.05c0-6.96-1.69-12.25-5.06-15.89-3.38-3.63-8.34-5.45-14.89-5.45-13.3,0-19.95,7.11-19.95,21.33v42.05h-17.5v-46.5Z"/><path d="m1017.07,241.97c-5.42,0-11.03-.56-16.81-1.69-5.78-1.13-10.51-2.56-14.2-4.3l4.76-13.05c2.86,1.33,6.65,2.48,11.36,3.45,4.71.97,9.21,1.46,13.51,1.46,8.8,0,15.63-2.33,20.49-6.98,4.86-4.66,7.29-11.48,7.29-20.49v-1.84c-2.87,3.48-6.47,6.27-10.82,8.36-4.35,2.1-9.44,3.15-15.27,3.15-7.27,0-13.87-1.61-19.8-4.83-5.94-3.22-10.67-7.75-14.2-13.58-3.53-5.83-5.3-12.64-5.3-20.41s1.77-14.71,5.3-20.8c3.53-6.09,8.44-10.92,14.73-14.5,6.29-3.58,13.63-5.37,22.02-5.37s15.48,1.77,21.56,5.3c6.09,3.53,10.82,8.59,14.2,15.19,3.38,6.6,5.06,14.56,5.06,23.87v21.49c0,14.63-3.79,25.88-11.36,33.77-7.57,7.88-18.42,11.82-32.54,11.82Zm2.92-95.62c-7.16,0-12.92,2.25-17.27,6.75-4.35,4.5-6.52,10.44-6.52,17.8s2.17,13.3,6.52,17.8c4.35,4.5,10.1,6.75,17.27,6.75s12.92-2.25,17.27-6.75c4.35-4.5,6.52-10.44,6.52-17.8s-2.18-13.3-6.52-17.8c-4.35-4.5-10.11-6.75-17.27-6.75Z"/><path d="m1148.91,178.58c0,10.23-3.35,18.34-10.05,24.33-6.7,5.99-15.83,8.98-27.4,8.98s-20.57-2.99-27.32-8.98c-6.75-5.99-10.13-14.09-10.13-24.33v-37.76c0-2.66.87-4.68,2.61-6.06,1.74-1.38,3.99-2.07,6.75-2.07,1.43,0,2.92.15,4.45.46s2.76.72,3.68,1.23v40.37c0,14.22,6.65,21.33,19.95,21.33s19.95-7.11,19.95-21.33v-33.92c0-2.66.87-4.68,2.61-6.06,1.74-1.38,3.99-2.07,6.75-2.07,1.43,0,2.92.15,4.45.46s2.76.72,3.68,1.23v44.2Z"/><path d="m1165.72,116.57c-1.99-2.05-2.99-4.6-2.99-7.67s1-5.63,2.99-7.67c1.99-2.05,4.53-3.07,7.6-3.07s5.6,1.02,7.6,3.07c1.99,2.05,2.99,4.6,2.99,7.67s-1,5.63-2.99,7.67c-2,2.05-4.53,3.07-7.6,3.07s-5.6-1.02-7.6-3.07Zm16.35,93.16h-17.5v-68.91c0-2.66.87-4.68,2.61-6.06,1.74-1.38,3.99-2.07,6.75-2.07,1.43,0,2.92.15,4.45.46,1.54.31,2.76.72,3.68,1.23v75.36Z"/><path d="m1197.72,163.23c0-6.55,1.56-12.28,4.68-17.19,3.12-4.91,7.49-8.72,13.12-11.43,5.63-2.71,12.17-4.07,19.65-4.07s14.14,1.36,19.72,4.07c5.58,2.71,9.92,6.52,13.05,11.43,3.12,4.91,4.68,10.64,4.68,17.19v46.5h-17.5v-42.05c0-6.96-1.69-12.25-5.06-15.89-3.38-3.63-8.34-5.45-14.89-5.45-13.3,0-19.95,7.11-19.95,21.33v42.05h-17.5v-46.5Z"/></g><g><g><ellipse class="cls-2" cx="295.95" cy="104.16" rx="6.39" ry="6.01"/><path class="cls-2" d="m288.31,197.4s14.03-37.16,1.25-74.31c-9.17-21.12-17.34-22.41-17.34-22.41l-17.73,8.69-2.93,16.96,5.55,18.66s-2.31,27.45-2.31,27.91-4.32,28.68-4.32,28.68l.62,9.41,12.34,2.62,11.87-2.62,10.02-5.55,2.98-8.04Z"/><g><path d="m277.47,184c-3.67-2.68-7.22-5.3-10.8-7.89-1.93-1.4-3.31-1.85-3.56,1.32-.68,8.55-2.55,16.87-5.27,25.07-1.77,5.33.91,8.32,6.81,8.21,3.17-.06,6.32-.16,9.48-.77,7.24-1.38,11.38-5.82,14.17-12.55-.19,12.74-10.22,22.36-22.84,22.42-16.44.08-32.89.02-49.93.02,2.37-3.43,5.1-5.96,6.84-9.16,4.5-8.29,3.79-16.71,1.39-25.33-7.74-27.83-3.35-54.06,13.02-78.24,10.46-15.44,25.73-23.55,45.63-22.88,5.68.19,11.16,1.28,16.26,3.85,8.54,4.31,12.12,11.58,9.76,20.52-.59,2.25-.62,3.9,1.32,5.84,3.07,3.08,4.51,6.95,3.5,11.61-3.01-1.32-5.37-3.08-8.31-3.93-4.33-1.24-8.45-1.03-12.6.3-6.22,2.01-11.11.18-14.15-5.43-.88-1.61-1.45-3.37-2.37-4.96-2.87-4.96-8.49-6.07-13.36-2.73-5.52,3.8-8.04,10.3-6.48,16.57.51,2.04,2.13,3.24,3.6,4.62,15.44,14.54,20.96,32.19,18.55,52.32-.04.34-.36.65-.67,1.18Zm18.51-77.02c2.02-.35,3.42-1.29,3.15-3.37-.25-1.92-1.63-3.04-3.67-2.93-1.93.11-2.9,1.36-2.86,3.18.05,2.04,1.28,3.02,3.38,3.12Z"/><path d="m304.23,184.47c-3.63-2.8-6.5-5.01-9.36-7.21-.76-.59-1.41-1.13-1.24-2.25,1.73-11.75,1.23-23.49.03-35.29,10.01,13.28,12.95,28.01,10.57,44.75Z"/></g></g><g><path class="cls-2" d="m96.47,73.83s-13.04,67.35-2.42,126.38c20.05,16.51,29.96,15.16,29.96,15.16l20.94-23.87-11.03-42.71,12.83-36.54-6.53-47.19-25.44-9.1"/><circle class="cls-2" cx="110.85" cy="39.74" r="7.48"/><path class="cls-1" d="m105.46,168.22c-1.96-25.48,5.53-47.8,25.31-65.87,2.61-2.38,4.47-4.92,4.78-8.25.73-7.92-.05-15.66-3.66-22.99-4.65-9.45-11.06-10.74-19.02-3.62-3.06,2.74-7.76,7.31-11.89,8.28-6.59,1.56-4.19-.36-4.18-5.58.02-13.04-6.03-21.47-18.1-25.71-1.98-.7-4.38-.22-6.28-2.07,3.88-4.29,8.83-6.55,14.61-6.59,3.45-.03,5.42-.89,7.35-3.76,5.91-8.8,15.84-12.33,26.34-9.64,8.51,2.18,15.15,7.22,20.75,13.42,17.8,19.7,27.3,43.1,33.53,67.85,6.15,24.41,8.9,48.76,1.11,73.56-4.49,14.29-2.08,28.08,9.32,39.56.73.73,2.49,1.09,1.59,2.96-22.21,0-44.5.3-66.79-.11-14.74-.27-29.06-15.55-27.4-28.74,4.36,12.33,14.14,16.55,26.58,16.84,7.04.16,8.33-3.99,6.74-10.52-2.73-11.2-1.35-22.36-1.42-33.81-.02-2.87-.95-3.39-3.4-1.55-4.78,3.59-9.64,7.09-14.53,10.67-1.21-1.32-1.22-2.88-1.33-4.32Zm5.25-124.75c2.66-.04,4.83-1.83,4.74-4.64-.08-2.46-1.73-4.17-4.47-4.28-3.03-.12-4.55,1.59-4.9,4.08-.05,3.22,1.94,4.88,4.62,4.84Z"/></g><g><polygon class="cls-2" points="244.09 116.26 246.44 139.89 246.92 161.42 239.37 195.27 219.01 211 192.18 211 186.01 204.83 183.85 156.71 180.15 131.73 198.66 98.16 222.71 86.58 241.22 89.17 244.09 116.26"/><circle class="cls-2" cx="231.12" cy="65.56" r="6.84"/><path class="cls-4" d="m251.91,60.52c-3.86.49-5.42-1.11-7.35-3.53-6.31-7.98-15.15-9.77-24.63-5.22-3.31,1.59-6.27,3.63-9,6-11.39,9.85-19.54,21.91-26.68,34.63-1.22,2.16-2.72,3.47-5,4.5-21.21,9.72-31.11,26.38-37.07,47.71-.28.99-1.13,2.1-.29,2.98.97,1.01,2.08-.03,3.03-.39,8.09-3.02,13.31-5.34,21.75-7.07,2.75-.56,4.01.32,4.67,3,1.33,5.43,2.37,10.91,2.62,16.47,1,21.87-2.1,42.68-18.68,60.25,18.9,0,37.19-.31,55.47.1,1.84.04,3.6-.03,5.29-.21,11.08-1.18,18.95-6.99,24.05-16.63,10.7-20.22,10.35-41.65,6.36-63.22.65,15.33-.46,30.4-6.27,44.87-3.34,8.31-8.4,14.7-14.79,18.9-6.43,4.28-14.22,6.34-22.92,5.97-8.8-.37-11.7-3.01-10.04-10.46,3.47-15.53,1.1-30.61-3.6-45.4-2.94-9.27-7-18.04.36-27.12,2.11-2.6,3.29-5.85,5.03-8.74,5.39-8.97,11.3-17.59,20.03-24.07,8.73-6.49,16.11-5.12,22.14,3.69,1.36,2.01,2.46,4.09,3.4,6.25.98,2.25,1.79,4.56,2.55,6.91.6,1.85,1.16,3.72,1.77,5.57.21-5.84.01-11.68.16-17.49.03-1.54.09-3.06.19-4.6.91-14.14,4.96-25.12,20.17-28.2.17-.03.25-.45.4-.75-3.82-2.97-8.19-5.33-13.11-4.71Zm-20.49,8.92c-2.82.11-4.95-1.59-4.91-4.51.04-2.68,2.03-3.88,4.63-4.26,3,.12,4.31,1.86,4.57,4.35.31,2.87-1.83,4.33-4.29,4.43Z"/></g><g><path class="cls-2" d="m56.28,194.3s-14.48-38.36-2.53-84.78l13.81-21.73s21.28-3.25,22.21-2.94,15.07,20.51,15.07,20.51l-2.11,39.94,3.86,53.36-12.8,13.11-17.27,2.16-17.7-12.03-2.53-7.6Z"/><ellipse class="cls-2" cx="49.74" cy="87.9" rx="6.39" ry="6.01"/><g><path class="cls-3" d="m67.83,177.7c-2.75-22.9,3.52-43,21.07-59.55,1.67-1.57,3.51-2.94,4.09-5.26,1.78-7.13-1.09-14.54-7.36-18.86-5.53-3.81-11.91-2.54-15.18,3.1-1.05,1.81-1.7,3.81-2.69,5.65-3.46,6.38-9.01,8.46-16.08,6.18-4.72-1.52-9.4-1.76-14.32-.35-3.35.96-6.02,2.98-9.44,4.47-1.14-5.31.49-9.71,3.98-13.22,2.2-2.21,2.17-4.09,1.5-6.65-2.69-10.18,1.39-18.45,11.09-23.35,5.8-2.93,12.02-4.17,18.48-4.39,22.61-.76,39.97,8.47,51.85,26.04,18.6,27.52,23.58,57.37,14.79,89.05-2.72,9.81-3.53,19.39,1.58,28.83,1.98,3.65,5.09,6.52,7.78,10.43-19.36,0-38.05.07-56.73-.02-14.34-.07-25.73-11.02-25.95-25.52,3.17,7.66,7.87,12.71,16.1,14.28,3.6.69,7.18.8,10.77.87,6.7.13,9.74-3.28,7.74-9.34-3.09-9.34-5.22-18.81-5.99-28.54-.28-3.6-1.85-3.09-4.04-1.5-4.06,2.95-8.1,5.93-12.27,8.98-.36-.6-.72-.96-.76-1.34Zm-16.42-89.88c.05-2.06-1.05-3.49-3.25-3.61-2.32-.13-3.89,1.15-4.17,3.34-.31,2.37,1.28,3.44,3.58,3.83,2.39-.12,3.78-1.23,3.84-3.55Z"/><path class="cls-3" d="m38.19,179.57c4.13-3.18,7.38-5.7,10.64-8.21.87-.67,1.6-1.29,1.41-2.56-1.96-13.37-1.44-26.74-.08-40.17-11.38,15.12-14.68,31.89-11.98,50.93Z"/></g></g></g></svg>