<?xml version="1.0" encoding="UTF-8"?>
<svg id="Warstwa_1" data-name="Warstwa 1" xmlns="http://www.w3.org/2000/svg" xmlns:xlink="http://www.w3.org/1999/xlink" viewBox="0 0 78 78">
  <defs>
    <style>
      .cls-1 {
        fill: #fafafa;
      }

      .cls-2 {
        fill: url(#Gradient_bez_nazwy_14);
      }

      .cls-3 {
        fill: #90a4ae;
      }

      .cls-4 {
        fill: url(#Gradient_bez_nazwy_23);
      }

      .cls-5 {
        fill: url(#Gradient_bez_nazwy_14-2);
      }

      .cls-6 {
        opacity: .09;
      }
    </style>
    <linearGradient id="Gradient_bez_nazwy_14" data-name="Gradient bez nazwy 14" x1="21.34" y1="21.19" x2="64.84" y2="65.02" gradientUnits="userSpaceOnUse">
      <stop offset="0" stop-color="#7acbff"/>
      <stop offset="1" stop-color="#45a2e0"/>
    </linearGradient>
    <linearGradient id="Gradient_bez_nazwy_23" data-name="Gradient bez nazwy 23" x1="0" y1="39" x2="78" y2="39" gradientUnits="userSpaceOnUse">
      <stop offset="0" stop-color="#edf5ff"/>
      <stop offset="1" stop-color="#c7e9ff"/>
    </linearGradient>
    <linearGradient id="Gradient_bez_nazwy_14-2" data-name="Gradient bez nazwy 14" x1="56.41" y1="56.67" x2="70.54" y2="70.11" xlink:href="#Gradient_bez_nazwy_14"/>
  </defs>
  <path class="cls-2" d="m69.88,9.75H11.38c-.9,0-1.63.73-1.63,1.63v58.5c0,.9.73,1.63,1.63,1.63h42.25c.43,0,.85-.17,1.15-.47l16.25-16.25c.3-.31.48-.72.47-1.15V11.37c0-.9-.73-1.63-1.63-1.63Z"/>
  <path class="cls-4" d="m77.7.68c-.31-.42-.8-.68-1.32-.68H1.63C.73,0,0,.73,0,1.62v74.75c0,.9.73,1.63,1.63,1.63.17,0,.35-.03.51-.08l9.75-3.25c.66-.22,1.11-.84,1.11-1.54V13h60.13c.7,0,1.32-.45,1.54-1.11l3.25-9.75c.17-.49.08-1.04-.22-1.46Z"/>
  <path class="cls-6" d="m77.7.68c-.31-.42-.8-.68-1.32-.68H1.63C.73,0,0,.73,0,1.62v74.75c0,.9.73,1.63,1.63,1.63.17,0,.35-.03.51-.08l9.75-3.25c.66-.22,1.11-.84,1.11-1.54V13h60.13c.7,0,1.32-.45,1.54-1.11l3.25-9.75c.17-.49.08-1.04-.22-1.46Z"/>
  <g>
    <path class="cls-3" d="m11.38,71.5h-3.25c-.9,0-1.63-.73-1.63-1.63s.73-1.63,1.63-1.63h3.25c.9,0,1.63.73,1.63,1.63s-.73,1.63-1.63,1.63Z"/>
    <path class="cls-3" d="m11.38,61.75h-3.25c-.9,0-1.63-.73-1.63-1.63s.73-1.63,1.63-1.63h3.25c.9,0,1.63.73,1.63,1.63s-.73,1.63-1.63,1.63Z"/>
    <path class="cls-3" d="m11.38,52h-3.25c-.9,0-1.63-.73-1.63-1.63s.73-1.63,1.63-1.63h3.25c.9,0,1.63.73,1.63,1.63s-.73,1.63-1.63,1.63Z"/>
    <path class="cls-3" d="m11.38,42.25h-3.25c-.9,0-1.63-.73-1.63-1.63s.73-1.63,1.63-1.63h3.25c.9,0,1.63.73,1.63,1.63s-.73,1.63-1.63,1.63Z"/>
    <path class="cls-3" d="m11.38,32.5h-3.25c-.9,0-1.63-.73-1.63-1.63s.73-1.62,1.63-1.62h3.25c.9,0,1.63.73,1.63,1.63s-.73,1.62-1.63,1.62Z"/>
    <path class="cls-3" d="m11.38,22.75h-3.25c-.9,0-1.63-.73-1.63-1.63s.73-1.62,1.63-1.62h3.25c.9,0,1.63.73,1.63,1.63s-.73,1.62-1.63,1.62Z"/>
    <path class="cls-3" d="m21.13,13c-.9,0-1.63-.73-1.63-1.63v-3.25c0-.9.73-1.63,1.63-1.63s1.63.73,1.63,1.63v3.25c0,.9-.73,1.63-1.63,1.63Z"/>
    <path class="cls-3" d="m30.88,13c-.9,0-1.63-.73-1.63-1.63v-3.25c0-.9.73-1.63,1.63-1.63s1.63.73,1.63,1.63v3.25c0,.9-.73,1.63-1.63,1.63Z"/>
    <path class="cls-3" d="m40.63,13c-.9,0-1.63-.73-1.63-1.63v-3.25c0-.9.73-1.63,1.63-1.63s1.63.73,1.63,1.63v3.25c0,.9-.73,1.63-1.63,1.63Z"/>
    <path class="cls-3" d="m50.38,13c-.9,0-1.63-.73-1.63-1.63v-3.25c0-.9.73-1.63,1.63-1.63s1.63.73,1.63,1.63v3.25c0,.9-.73,1.63-1.63,1.63Z"/>
    <path class="cls-3" d="m60.13,13c-.9,0-1.63-.73-1.63-1.63v-3.25c0-.9.73-1.63,1.63-1.63s1.63.73,1.63,1.63v3.25c0,.9-.73,1.63-1.63,1.63Z"/>
    <path class="cls-3" d="m69.88,13c-.9,0-1.63-.73-1.63-1.63v-3.25c0-.9.73-1.63,1.63-1.63s1.63.73,1.63,1.63v3.25c0,.9-.73,1.63-1.63,1.63Z"/>
  </g>
  <path class="cls-5" d="m71.38,53c-.25-.61-.84-1-1.5-1h-16.25c-.9,0-1.63.73-1.63,1.63v16.25c0,.66.4,1.25,1,1.5.2.08.41.12.62.12.43,0,.85-.17,1.15-.47l16.25-16.25c.46-.47.6-1.16.35-1.77Z"/>
  <g>
    <path class="cls-1" d="m21.13,42.25h-3.25c-.9,0-1.63-.73-1.63-1.63s.73-1.63,1.63-1.63h3.25c.9,0,1.63.73,1.63,1.63s-.73,1.63-1.63,1.63Z"/>
    <path class="cls-1" d="m30.88,42.25h-3.25c-.9,0-1.63-.73-1.63-1.63s.73-1.63,1.63-1.63h3.25c.9,0,1.63.73,1.63,1.63s-.73,1.63-1.63,1.63Z"/>
    <path class="cls-1" d="m40.63,42.25h-3.25c-.9,0-1.63-.73-1.63-1.63s.73-1.63,1.63-1.63h1.63v-1.63c0-.9.73-1.63,1.63-1.63s1.63.73,1.63,1.63v3.25c0,.9-.73,1.63-1.63,1.63Z"/>
    <path class="cls-1" d="m40.63,32.5c-.9,0-1.63-.73-1.63-1.63v-3.25c0-.9.73-1.63,1.63-1.63s1.63.73,1.63,1.63v3.25c0,.9-.73,1.63-1.63,1.63Z"/>
    <path class="cls-1" d="m40.63,22.75c-.9,0-1.63-.73-1.63-1.63v-3.25c0-.9.73-1.63,1.63-1.63s1.63.73,1.63,1.63v3.25c0,.9-.73,1.63-1.63,1.63Z"/>
  </g>
</svg>