<?xml version="1.0" encoding="UTF-8"?>
<svg id="Warstwa_1" data-name="Warstwa 1" xmlns="http://www.w3.org/2000/svg" xmlns:xlink="http://www.w3.org/1999/xlink" viewBox="0 0 78 78">
  <defs>
    <style>
      .cls-1 {
        fill: url(#Gradient_bez_nazwy_13);
      }

      .cls-2 {
        fill: url(#Gradient_bez_nazwy_18);
      }

      .cls-3 {
        fill: url(#Gradient_bez_nazwy_9-2);
      }

      .cls-4 {
        fill: url(#Gradient_bez_nazwy_15-2);
      }

      .cls-5 {
        fill: url(#Gradient_bez_nazwy_16);
      }

      .cls-6 {
        fill: url(#Gradient_bez_nazwy_26-3);
      }

      .cls-7 {
        fill: url(#Gradient_bez_nazwy_14);
      }

      .cls-8 {
        fill: url(#Gradient_bez_nazwy_11);
      }

      .cls-9 {
        fill: url(#Gradient_bez_nazwy_17);
      }

      .cls-10 {
        fill: url(#Gradient_bez_nazwy_11-2);
      }

      .cls-11 {
        fill: url(#Gradient_bez_nazwy_20);
      }

      .cls-12 {
        fill: url(#Gradient_bez_nazwy_20-4);
      }

      .cls-13 {
        fill: url(#Gradient_bez_nazwy_23);
      }

      .cls-14 {
        fill: url(#Gradient_bez_nazwy_10);
      }

      .cls-15 {
        fill: url(#Gradient_bez_nazwy_20-3);
      }

      .cls-16 {
        fill: url(#Gradient_bez_nazwy_10-2);
      }

      .cls-17 {
        fill: url(#Gradient_bez_nazwy_23-2);
      }

      .cls-18 {
        fill: url(#Gradient_bez_nazwy_26-2);
      }

      .cls-19 {
        fill: url(#Gradient_bez_nazwy_15);
      }

      .cls-20 {
        fill: url(#Gradient_bez_nazwy_14-2);
      }

      .cls-21 {
        fill: url(#Gradient_bez_nazwy_20-2);
      }

      .cls-22 {
        fill: url(#Gradient_bez_nazwy_9);
      }

      .cls-23 {
        fill: url(#Gradient_bez_nazwy_13-2);
      }

      .cls-24 {
        fill: url(#Gradient_bez_nazwy_25);
      }

      .cls-25 {
        fill: url(#Gradient_bez_nazwy_26);
      }

      .cls-26 {
        fill: url(#Gradient_bez_nazwy_16-2);
      }
    </style>
    <linearGradient id="Gradient_bez_nazwy_9" data-name="Gradient bez nazwy 9" x1="34.88" y1="79.18" x2="59.12" y2="54.95" gradientTransform="translate(0 80.31) scale(1 -1)" gradientUnits="userSpaceOnUse">
      <stop offset="0" stop-color="#fff5d9"/>
      <stop offset="1" stop-color="#ffce47"/>
    </linearGradient>
    <linearGradient id="Gradient_bez_nazwy_10" data-name="Gradient bez nazwy 10" x1="6.87" y1="54.8" x2="17.72" y2="43.96" gradientTransform="translate(0 80.31) scale(1 -1)" gradientUnits="userSpaceOnUse">
      <stop offset="0" stop-color="#6fa953"/>
      <stop offset="1" stop-color="#43765a"/>
    </linearGradient>
    <linearGradient id="Gradient_bez_nazwy_11" data-name="Gradient bez nazwy 11" x1="24.56" y1="73.77" x2="38.81" y2="59.51" gradientTransform="translate(0 80.31) scale(1 -1)" gradientUnits="userSpaceOnUse">
      <stop offset="0" stop-color="#e4e08e"/>
      <stop offset="1" stop-color="#6fa953"/>
    </linearGradient>
    <linearGradient id="Gradient_bez_nazwy_20" data-name="Gradient bez nazwy 20" x1="50.56" y1="63.51" x2="73.69" y2="40.37" gradientTransform="translate(0 80.31) scale(1 -1)" gradientUnits="userSpaceOnUse">
      <stop offset="0" stop-color="#ffce47"/>
      <stop offset="1" stop-color="#ff9356"/>
    </linearGradient>
    <linearGradient id="Gradient_bez_nazwy_13" data-name="Gradient bez nazwy 13" x1="55.7" y1="42.63" x2="69.11" y2="29.22" gradientTransform="translate(0 80.31) scale(1 -1)" gradientUnits="userSpaceOnUse">
      <stop offset="0" stop-color="#ff9356"/>
      <stop offset="1" stop-color="#ff755c"/>
    </linearGradient>
    <linearGradient id="Gradient_bez_nazwy_14" data-name="Gradient bez nazwy 14" x1="4.94" y1="41" x2="20.72" y2="25.22" gradientTransform="translate(0 80.31) scale(1 -1)" gradientUnits="userSpaceOnUse">
      <stop offset="0" stop-color="#7acbff"/>
      <stop offset="1" stop-color="#45a2e0"/>
    </linearGradient>
    <linearGradient id="Gradient_bez_nazwy_15" data-name="Gradient bez nazwy 15" x1="38.83" y1="22.85" x2="52.07" y2="9.61" gradientTransform="translate(0 80.31) scale(1 -1)" gradientUnits="userSpaceOnUse">
      <stop offset="0" stop-color="#ff755c"/>
      <stop offset="1" stop-color="#ff4181"/>
    </linearGradient>
    <linearGradient id="Gradient_bez_nazwy_16" data-name="Gradient bez nazwy 16" x1="16.23" y1="29.71" x2="48.24" y2="-2.31" gradientTransform="translate(0 80.31) scale(1 -1)" gradientUnits="userSpaceOnUse">
      <stop offset="0" stop-color="#ff4181"/>
      <stop offset="1" stop-color="#843561"/>
    </linearGradient>
    <linearGradient id="Gradient_bez_nazwy_9-2" data-name="Gradient bez nazwy 9" x1="53.49" y1="54.32" x2="38.57" y2="69.24" xlink:href="#Gradient_bez_nazwy_9"/>
    <linearGradient id="Gradient_bez_nazwy_10-2" data-name="Gradient bez nazwy 10" x1="24.02" y1="42.08" x2="5.53" y2="60.56" xlink:href="#Gradient_bez_nazwy_10"/>
    <linearGradient id="Gradient_bez_nazwy_11-2" data-name="Gradient bez nazwy 11" x1="36.95" y1="56.95" x2="20.5" y2="73.41" xlink:href="#Gradient_bez_nazwy_11"/>
    <linearGradient id="Gradient_bez_nazwy_20-2" data-name="Gradient bez nazwy 20" x1="66.48" y1="41.33" x2="49.11" y2="58.69" xlink:href="#Gradient_bez_nazwy_20"/>
    <linearGradient id="Gradient_bez_nazwy_13-2" data-name="Gradient bez nazwy 13" x1="65.28" y1="28.62" x2="53.68" y2="40.22" xlink:href="#Gradient_bez_nazwy_13"/>
    <linearGradient id="Gradient_bez_nazwy_14-2" data-name="Gradient bez nazwy 14" x1="28.58" y1="23.61" x2="7.16" y2="45.04" xlink:href="#Gradient_bez_nazwy_14"/>
    <linearGradient id="Gradient_bez_nazwy_15-2" data-name="Gradient bez nazwy 15" x1="52" y1="14.1" x2="36.39" y2="29.71" xlink:href="#Gradient_bez_nazwy_15"/>
    <linearGradient id="Gradient_bez_nazwy_16-2" data-name="Gradient bez nazwy 16" x1="39.2" y1="12.99" x2="20.15" y2="32.04" xlink:href="#Gradient_bez_nazwy_16"/>
    <linearGradient id="Gradient_bez_nazwy_17" data-name="Gradient bez nazwy 17" x1="54.59" y1="25.41" x2="43.52" y2="36.49" gradientTransform="translate(0 80.31) scale(1 -1)" gradientUnits="userSpaceOnUse">
      <stop offset="0" stop-color="#843561" stop-opacity="0"/>
      <stop offset="1" stop-color="#3a2f4d"/>
    </linearGradient>
    <linearGradient id="Gradient_bez_nazwy_18" data-name="Gradient bez nazwy 18" x1="-98.05" y1="-1124.07" x2="-75.74" y2="-1124.07" gradientTransform="translate(869.28 -667.93) rotate(45) scale(1 -1)" gradientUnits="userSpaceOnUse">
      <stop offset="0" stop-color="#ffe0ea"/>
      <stop offset="1" stop-color="#ffc0d5"/>
    </linearGradient>
    <linearGradient id="Gradient_bez_nazwy_20-3" data-name="Gradient bez nazwy 20" x1="7.91" y1="31.76" x2="51.01" y2="31.76" xlink:href="#Gradient_bez_nazwy_20"/>
    <linearGradient id="Gradient_bez_nazwy_20-4" data-name="Gradient bez nazwy 20" x1="35.47" y1="24.68" x2="19.55" y2="40.6" xlink:href="#Gradient_bez_nazwy_20"/>
    <linearGradient id="Gradient_bez_nazwy_26" data-name="Gradient bez nazwy 26" x1="-87.57" y1="-1134.37" x2="-81.88" y2="-1134.37" gradientTransform="translate(869.28 -667.93) rotate(45) scale(1 -1)" gradientUnits="userSpaceOnUse">
      <stop offset="0" stop-color="#2f73a0"/>
      <stop offset="1" stop-color="#174461"/>
    </linearGradient>
    <linearGradient id="Gradient_bez_nazwy_23" data-name="Gradient bez nazwy 23" x1="-227.66" y1="-657.63" x2="-223.77" y2="-658.57" gradientTransform="translate(684.61 -291.49) rotate(45) scale(1 -1)" gradientUnits="userSpaceOnUse">
      <stop offset="0" stop-color="#edf5ff"/>
      <stop offset="1" stop-color="#c7e9ff"/>
    </linearGradient>
    <linearGradient id="Gradient_bez_nazwy_23-2" data-name="Gradient bez nazwy 23" x1="-219.28" y1="-658.54" x2="-213.72" y2="-660.11" xlink:href="#Gradient_bez_nazwy_23"/>
    <linearGradient id="Gradient_bez_nazwy_26-2" data-name="Gradient bez nazwy 26" x1="-217.9" y1="-652.39" x2="-224.75" y2="-652.39" gradientTransform="translate(684.61 -291.49) rotate(45) scale(1 -1)" xlink:href="#Gradient_bez_nazwy_26"/>
    <linearGradient id="Gradient_bez_nazwy_25" data-name="Gradient bez nazwy 25" x1="-221.99" y1="-674.22" x2="-221.99" y2="-677.96" gradientTransform="translate(684.61 -291.49) rotate(45) scale(1 -1)" gradientUnits="userSpaceOnUse">
      <stop offset="0" stop-color="#7acbff" stop-opacity="0"/>
      <stop offset="1" stop-color="#2f73a0"/>
    </linearGradient>
    <linearGradient id="Gradient_bez_nazwy_26-3" data-name="Gradient bez nazwy 26" x1="-222.77" y1="-680.45" x2="-221.01" y2="-688.04" gradientTransform="translate(684.61 -291.49) rotate(45) scale(1 -1)" xlink:href="#Gradient_bez_nazwy_26"/>
  </defs>
  <g>
    <g>
      <g>
        <path class="cls-22" d="m65.02,12.98l-14.45,14.45c-2.96-2.96-7.05-4.79-11.57-4.79V2.2c10.16,0,19.36,4.12,26.02,10.78Z"/>
        <path class="cls-14" d="m27.43,27.43c-2.96,2.96-4.79,7.05-4.79,11.57H2.2c0-10.16,4.12-19.36,10.78-26.02l14.45,14.45Z"/>
        <path class="cls-8" d="m39,2.2v20.44c-4.52,0-8.61,1.83-11.57,4.79l-14.45-14.45c6.66-6.66,15.86-10.78,26.02-10.78h0Z"/>
        <path class="cls-11" d="m75.8,39h-20.44c0-4.52-1.83-8.61-4.79-11.57l14.45-14.45c6.66,6.66,10.78,15.86,10.78,26.02h0Z"/>
        <path class="cls-1" d="m75.8,39c0,10.16-4.12,19.36-10.78,26.02l-14.45-14.45c2.96-2.96,4.79-7.05,4.79-11.57h20.44Z"/>
        <path class="cls-7" d="m27.43,50.57l-14.45,14.45c-6.66-6.66-10.78-15.86-10.78-26.02h20.44c0,4.52,1.83,8.61,4.79,11.57Z"/>
        <path class="cls-19" d="m65.02,65.02c-6.66,6.66-15.86,10.78-26.02,10.78v-20.44c4.52,0,8.61-1.83,11.57-4.79l14.45,14.45Z"/>
        <path class="cls-5" d="m39,55.36v20.44c-10.16,0-19.36-4.12-26.02-10.78l14.45-14.45c2.96,2.96,7.05,4.79,11.57,4.79Z"/>
      </g>
      <g>
        <path class="cls-3" d="m58.74,19.26l-8.17,8.17c-2.96-2.96-7.05-4.79-11.57-4.79v-11.56c7.71,0,14.69,3.12,19.74,8.18h0Z"/>
        <path class="cls-16" d="m27.43,27.43c-2.96,2.96-4.79,7.05-4.79,11.57h-11.56c0-7.71,3.12-14.69,8.18-19.74l8.17,8.17Z"/>
        <path class="cls-10" d="m39,11.09v11.56c-4.52,0-8.61,1.83-11.57,4.79l-8.17-8.17c5.05-5.05,12.03-8.18,19.74-8.18Z"/>
        <path class="cls-21" d="m66.91,39h-11.56c0-4.52-1.83-8.61-4.79-11.57l8.17-8.17c5.05,5.05,8.18,12.03,8.18,19.74h0Z"/>
        <path class="cls-23" d="m66.91,39c0,7.71-3.12,14.69-8.18,19.74l-8.17-8.17c2.96-2.96,4.79-7.05,4.79-11.57h11.56Z"/>
        <path class="cls-20" d="m27.43,50.57l-8.17,8.17c-5.05-5.05-8.18-12.03-8.18-19.74h11.56c0,4.52,1.83,8.61,4.79,11.57Z"/>
        <path class="cls-4" d="m58.74,58.74c-5.05,5.05-12.03,8.18-19.74,8.18v-11.56c4.52,0,8.61-1.83,11.57-4.79l8.17,8.17Z"/>
        <path class="cls-26" d="m39,55.36v11.56c-7.71,0-14.69-3.12-19.74-8.18l8.17-8.17c2.96,2.96,7.05,4.79,11.57,4.79h0Z"/>
      </g>
    </g>
    <path class="cls-9" d="m69.27,18.07l-15.02,15.02c.71,1.83,1.1,3.83,1.1,5.91,0,4.52-1.83,8.61-4.79,11.57s-7.05,4.79-11.57,4.79c-2.08,0-4.08-.39-5.91-1.1l-15.02,15.02c5.94,4.12,13.15,6.53,20.93,6.53,10.16,0,19.36-4.12,26.02-10.78,6.66-6.66,10.78-15.86,10.78-26.02,0-7.77-2.41-14.99-6.53-20.93h0Z"/>
  </g>
  <g>
    <g>
      <path class="cls-2" d="m7.94,54.22L.08,76.21c-.38,1.06.65,2.09,1.71,1.71l21.98-7.86c4.39-4.39-11.45-20.22-15.84-15.84h0Z"/>
      <path class="cls-15" d="m50.32,43.52l-26.54,26.54c-.43-.75-1.09-1.42-1.94-1.89-1.15-.64-2.96-.29-4.21.09-.27.08-.52-.06-.62-.28-.06-.13-.08-.29,0-.45,0,0,0,0,0,0,.07-.16.13-.32.18-.48.02-.08.05-.16.07-.23,0,0,0,0,0-.01.07-.25.11-.5.14-.76,0-.08.01-.17.02-.25,0-.14,0-.28,0-.42-.03-.98-.35-1.95-.96-2.77-.15-.2-.31-.39-.49-.58-.18-.18-.37-.35-.58-.49-.94-.69-2.08-1.01-3.19-.95-.08,0-.17.01-.25.02-.26.03-.51.07-.76.14,0,0,0,0-.01,0-.08.02-.16.05-.23.07-.08.03-.16.05-.25.09-.08.03-.16.06-.23.1t0,0c-.16.07-.32.06-.45,0-.22-.1-.36-.35-.28-.62.38-1.25.73-3.05.09-4.2-.47-.85-1.13-1.51-1.89-1.94l26.54-26.54c1.2-1.19,3.13-1.19,4.33,0l2.26,2.26,7,7,2.26,2.26c1.19,1.19,1.19,3.13,0,4.33h0Z"/>
      <path class="cls-12" d="m48.06,36.94l-31.05,31.05c-.06-.13-.08-.29,0-.45,0,0,0,0,0,0,.07-.16.37-1.24.39-1.49.01-.09.02-.17.02-.25.06-1.12-.26-2.25-.95-3.19-.15-.2-.31-.39-.49-.58-.18-.18-.37-.35-.58-.49-.94-.69-2.08-1.01-3.19-.95-.08,0-.17,0-.25.02-.25.02-.51.07-.76.14,0,0,0,0-.01,0-.08.02-.64.22-.71.25t0,0c-.16.07-.32.06-.45,0l31.05-31.05,7,7Z"/>
      <path class="cls-25" d="m4.52,73.48c-.83-.83-1.76-1.5-2.75-2.01l-1.69,4.73c-.38,1.06.65,2.09,1.71,1.71l4.73-1.69c-.51-.98-1.17-1.91-2.01-2.75Z"/>
    </g>
    <g>
      <g>
        <g>
          <path class="cls-13" d="m75.52,2.48l-32.05,32.05-4.69-4.69c-1.02-1.02-1.02-2.68,0-3.7l2.8-2.8c1.21-1.21,1.89-2.85,1.89-4.56v-3.49c0-2.75,1.74-5.2,4.34-6.1L74.03.09c1.45-.5,2.58,1.3,1.5,2.39Z"/>
          <path class="cls-17" d="m75.52,2.48l-32.05,32.05,4.69,4.69c1.02,1.02,2.68,1.02,3.7,0l2.8-2.8c1.21-1.21,2.85-1.89,4.56-1.89h3.49c2.75,0,5.2-1.74,6.1-4.34l9.09-26.21c.5-1.45-1.3-2.58-2.39-1.5Z"/>
        </g>
        <path class="cls-18" d="m60.43,19.08L76.52,2.98c.4-.4.45-1.05.07-1.48-.41-.47-1.12-.48-1.55-.05l-16.08,16.08c-1.05,1.05-2.51,1.63-4,1.5-1.37-.12-2.79.4-3.77,1.56-1.39,1.64-1.36,4.1.05,5.72,1.7,1.95,4.65,2.02,6.45.23.94-.94,1.37-2.2,1.28-3.43-.11-1.5.39-2.98,1.45-4.04Z"/>
        <path class="cls-24" d="m43.21,20.62c-.3,1.01-.86,1.95-1.62,2.71l-2.8,2.8c-1.02,1.02-1.02,2.68,0,3.7l4.69,4.69,4.69,4.69c1.02,1.02,2.68,1.02,3.7,0l2.8-2.8c.76-.76,1.7-1.31,2.71-1.62l-14.17-14.17Z"/>
      </g>
      <path class="cls-6" d="m46.39,47.45l-15.84-15.84,6.31-6.31c.73-.73,1.92-.73,2.65,0l13.19,13.19c.73.73.73,1.92,0,2.65l-6.31,6.31Z"/>
    </g>
  </g>
</svg>