<svg width="32" height="36" viewBox="0 0 32 36" fill="none" xmlns="http://www.w3.org/2000/svg">
<path d="M31.7288 34.8H28.7355V16.2C28.7355 15.9728 28.6076 15.765 28.4048 15.663L23.9463 13.4295V10.2C23.9463 9.93225 23.7697 9.69675 23.5122 9.6225L15.5651 7.347V0.6C15.5651 0.2685 15.2972 0 14.9664 0H2.99328C2.66253 0 2.39463 0.2685 2.39463 0.6V34.8H0V36H31.2125V34.8H28.2192H31.7288ZM14.3678 34.8H3.59194V33.6H8.97985V32.4H3.59194V30H8.97985V28.8H3.59194V26.4H8.97985V25.2H3.59194V22.8H8.97985V21.6H3.59194V19.2H8.97985V18H3.59194V15.6H8.97985V14.4H3.59194V12H8.97985V10.8H3.59194V8.4H8.97985V7.2H3.59194V4.8H8.97985V3.6H3.59194V1.2H14.3678V34.8ZM22.749 34.8H15.5651V33.6H19.7557V32.4H15.5651V30H19.7557V28.8H15.5651V26.4H19.7557V25.2H15.5651V22.8H19.7557V21.6H15.5651V19.2H19.7557V18H15.5651V15.6H19.7557V14.4H15.5651V12H19.7557V10.8H15.5651V8.59575L22.749 10.6523V34.8ZM27.5382 34.8H23.9463V33.6H25.7422V32.4H23.9463V30H25.7422V28.8H23.9463V26.4H25.7422V25.2H23.9463V22.8H25.7422V21.6H23.9463V19.2H25.7422V18H23.9463V14.7705L27.5382 16.5705V34.8Z" fill="black"/>
</svg>
