<svg width="27" height="27" viewBox="0 0 27 27" fill="none" xmlns="http://www.w3.org/2000/svg">
<path d="M22.546 16.4996C21.9397 15.9228 21.1346 15.6016 20.2977 15.6028C19.4609 15.6039 18.6566 15.9274 18.052 16.5059L16.0507 18.1922C14.4172 17.5162 12.9333 16.5242 11.6842 15.2732C10.4351 14.0221 9.44546 12.5367 8.77207 10.9021L10.4521 8.90707C11.0291 8.30122 11.3515 7.49694 11.3526 6.66028C11.3538 5.82362 11.0337 5.01844 10.4584 4.41097C10.4584 4.41097 8.51377 1.88782 8.48122 1.85527C7.88214 1.25231 7.06989 0.909245 6.21997 0.900208C5.37004 0.89117 4.55068 1.21688 3.93892 1.80697L2.73142 2.85697C-5.37353 11.4775 15.5414 32.4019 24.1514 24.172L25.109 23.0695C25.7172 22.4593 26.0587 21.633 26.0587 20.7715C26.0587 19.9101 25.7172 19.0837 25.109 18.4736C25.0744 18.4453 22.546 16.5007 22.546 16.5007V16.4996Z" fill="#3B61FF"/>
</svg>
