<svg width="106" height="106" viewBox="0 0 106 106" fill="none" xmlns="http://www.w3.org/2000/svg">
<path d="M23.0219 82.6262L64.7179 75.4215C69.2312 74.6348 72.2539 70.3492 71.4672 65.8566L68.4445 48.3211C67.6578 43.8078 63.3722 40.7851 58.8797 41.5719L17.1836 48.7766C12.6703 49.5633 9.64763 53.8488 10.4344 58.3414L13.457 75.8769C14.2437 80.3902 18.5293 83.4129 23.0219 82.6262Z" fill="#396CE8"/>
<path opacity="0.4" d="M82.9781 64.4074L41.282 57.2027C36.7687 56.416 33.746 52.1305 34.5327 47.6379L37.5554 30.1023C38.3421 25.589 42.6277 22.5664 47.1202 23.3531L88.8163 30.5578C93.3296 31.3445 96.3523 35.6301 95.5656 40.1226L92.5429 57.6582C91.7562 62.1715 87.4706 65.1941 82.9781 64.4074Z" fill="#396CE8"/>
</svg>
