<svg width="76" height="76" viewBox="0 0 76 76" fill="none" xmlns="http://www.w3.org/2000/svg">
<path opacity="0.4" d="M74.9208 44.6917C73.9073 50.3254 71.6156 55.6518 68.222 60.2616C64.8283 64.8713 60.423 68.6417 55.3446 71.2829C50.2661 73.9241 44.6498 75.3659 38.9271 75.4974C33.2044 75.629 27.5277 74.4468 22.3333 72.0417C20.4644 71.21 18.349 71.1206 16.4166 71.7917L5.99995 75.2917C5.26243 75.5442 4.46887 75.5847 3.70946 75.4087C2.95005 75.2327 2.25525 74.8471 1.70403 74.2959C1.15281 73.7447 0.76728 73.0499 0.591256 72.2905C0.415233 71.5311 0.455777 70.7375 0.708281 70L4.20828 59.5833C4.87933 57.6509 4.78995 55.5356 3.95828 53.6667C0.78724 46.812 -0.237157 39.1587 1.01955 31.7114C2.27627 24.2641 5.75535 17.3708 11.0002 11.9363C16.245 6.50174 23.0104 2.78001 30.4083 1.25958C37.8063 -0.260846 45.4912 0.491078 52.4541 3.41666C52.7369 3.54494 52.9617 3.77386 53.085 4.05883C53.2082 4.34381 53.221 4.66445 53.1208 4.95833C52.6936 6.44652 52.5176 7.99555 52.6 9.54166C52.8052 13.1497 54.329 16.5566 56.8817 19.1148C59.4345 21.6729 62.8382 23.2038 66.4458 23.4167C67.9919 23.4981 69.5407 23.3221 71.0291 22.8958C71.323 22.7956 71.6436 22.8084 71.9286 22.9316C72.2136 23.0549 72.4425 23.2798 72.5708 23.5625C75.3743 30.2318 76.1904 37.5693 74.9208 44.6917Z" fill="#396CE8"/>
<path d="M67.1666 17.1667C71.769 17.1667 75.4999 13.4357 75.4999 8.83333C75.4999 4.23096 71.769 0.5 67.1666 0.5C62.5642 0.5 58.8333 4.23096 58.8333 8.83333C58.8333 13.4357 62.5642 17.1667 67.1666 17.1667Z" fill="#396CE8"/>
</svg>
