<svg width="106" height="106" viewBox="0 0 106 106" fill="none" xmlns="http://www.w3.org/2000/svg">
<path d="M42.2758 26.7276C39.7915 26.7483 37.7625 24.7194 37.7625 22.2144V22.0073C37.7004 6.50068 67.9891 5.03076 68.0098 24.4296L68.2168 89.9757C68.2168 93.164 65.6497 95.7518 62.4614 95.7518L43.725 95.814C40.5368 95.814 37.9489 93.2468 37.9489 90.0585L37.7833 42.1722C37.7833 39.2323 39.9778 36.7686 42.8762 36.4374C49.2321 35.6714 59.3145 33.1663 59.2731 25.2577C59.7286 21.6761 57.0786 18.3429 53.4762 18.0116C48.8594 17.7839 47.2032 20.6823 46.6235 23.2081C46.2094 25.2784 44.3875 26.7276 42.2758 26.7276Z" fill="#396CE8"/>
<path d="M59.8528 90.3899L46.3751 90.452C44.7395 90.4727 43.4352 89.1477 43.4145 87.5122C43.3938 85.8766 44.7188 84.5723 46.3544 84.5516L59.8321 84.4895C61.4677 84.4688 62.772 85.7938 62.7927 87.4293C62.7927 89.0442 61.4884 90.3692 59.8528 90.3899Z" fill="#B0C4F6"/>
</svg>
