<svg width="122" height="122" viewBox="0 0 122 122" fill="none" xmlns="http://www.w3.org/2000/svg">
<g>
<path opacity="0.4" d="M31.4531 36.8383C28.8082 37.4816 26.1156 35.8613 25.4722 33.2164L25.4246 33.002C21.3261 16.5129 53.2082 7.12462 58.2597 27.7836L75.4875 97.5523C76.3215 100.936 74.2722 104.367 70.8648 105.201L50.9445 110.11C47.5609 110.944 44.1297 108.895 43.2957 105.487L30.7144 54.4949C29.9519 51.3734 31.6437 48.1805 34.6699 47.0367C41.2703 44.5586 51.3258 39.2926 49.2527 30.8813C48.8 26.9496 45.1304 24.0902 41.1988 24.6621C36.2187 25.6152 35.2179 29.1418 35.2418 31.9773C35.2418 34.2887 33.6929 36.3141 31.4531 36.8383Z" fill="#396CE8"/>
<path d="M68.4582 27.1403C65.8133 26.4731 64.2168 23.7567 64.9078 21.1117L64.9555 20.8973C69.1731 4.43205 101.698 11.2231 96.3848 31.8106L78.5613 101.413C77.7035 104.796 74.2484 106.822 70.8887 105.964L50.9922 100.888C47.6086 100.03 45.5832 96.5754 46.441 93.2156L59.4512 42.3426C60.2613 39.2211 63.2637 37.1957 66.4328 37.6723C73.4145 38.6016 84.7566 38.7446 86.925 30.3332C88.3785 26.6637 86.4961 22.3985 82.7551 21.0403C77.918 19.5153 75.3684 22.1364 74.0578 24.6621C73.0094 26.6875 70.6742 27.7121 68.4582 27.1403Z" fill="#396CE8"/>
<path d="M69.5543 99.5063L55.2336 95.8606C53.4942 95.4317 52.4696 93.6684 52.8985 91.9289C53.3274 90.1895 55.0907 89.1649 56.8301 89.5938L71.1508 93.2395C72.8903 93.6684 73.9149 95.4317 73.486 97.1711C73.0571 98.9106 71.2938 99.959 69.5543 99.5063Z" fill="#B0C4F6"/>
</g>
</svg>
