<svg width="29" height="34" viewBox="0 0 29 34" fill="none" xmlns="http://www.w3.org/2000/svg">
<path opacity="0.4" d="M22.5499 11.2999C21.7858 11.4089 21.0068 11.3385 20.2746 11.0944C19.5425 10.8503 18.8772 10.439 18.3314 9.8933C17.7857 9.34754 17.3744 8.68225 17.1303 7.95006C16.8862 7.21788 16.8158 6.43893 16.9249 5.67485V0.0498533H5.67485C4.91078 -0.0591626 4.13182 0.0111794 3.39964 0.255311C2.66746 0.499443 2.00216 0.910661 1.45641 1.45641C0.910661 2.00216 0.499443 2.66746 0.255311 3.39964C0.0111797 4.13182 -0.0591627 4.91078 0.0498532 5.67485V28.1749C-0.0591627 28.9389 0.0111797 29.7179 0.255311 30.4501C0.499443 31.1823 0.910661 31.8476 1.45641 32.3933C2.00216 32.9391 2.66746 33.3503 3.39964 33.5944C4.13182 33.8385 4.91078 33.9089 5.67485 33.7999H22.5499C23.3139 33.9089 24.0929 33.8385 24.8251 33.5944C25.5572 33.3503 26.2225 32.9391 26.7683 32.3933C27.314 31.8476 27.7253 31.1823 27.9694 30.4501C28.2135 29.7179 28.2839 28.9389 28.1749 28.1749V11.2999H22.5499Z" fill="#396CE8"/>
<path d="M22.5499 11.2998H28.1749L16.9249 0.0498047V5.67481C16.8158 6.43888 16.8862 7.21783 17.1303 7.95002C17.3744 8.6822 17.7857 9.3475 18.3314 9.89325C18.8772 10.439 19.5425 10.8502 20.2746 11.0943C21.0068 11.3385 21.7858 11.4088 22.5499 11.2998Z" fill="#396CE8"/>
<path d="M20.6748 18.3311H7.5498C7.17684 18.3311 6.81916 18.1829 6.55544 17.9192C6.29171 17.6554 6.14355 17.2978 6.14355 16.9248C6.14355 16.5518 6.29171 16.1942 6.55544 15.9304C6.81916 15.6667 7.17684 15.5186 7.5498 15.5186H20.6748C21.0478 15.5186 21.4055 15.6667 21.6692 15.9304C21.9329 16.1942 22.0811 16.5518 22.0811 16.9248C22.0811 17.2978 21.9329 17.6554 21.6692 17.9192C21.4055 18.1829 21.0478 18.3311 20.6748 18.3311ZM16.4561 24.4248C16.4561 24.0518 16.3079 23.6942 16.0442 23.4304C15.7805 23.1667 15.4228 23.0186 15.0498 23.0186H7.5498C7.17684 23.0186 6.81916 23.1667 6.55544 23.4304C6.29171 23.6942 6.14355 24.0518 6.14355 24.4248C6.14355 24.7978 6.29171 25.1555 6.55544 25.4192C6.81916 25.6829 7.17684 25.8311 7.5498 25.8311H15.0498C15.4228 25.8311 15.7805 25.6829 16.0442 25.4192C16.3079 25.1555 16.4561 24.7978 16.4561 24.4248Z" fill="#396CE8"/>
</svg>
