<svg width="122" height="122" viewBox="0 0 122 122" fill="none" xmlns="http://www.w3.org/2000/svg">
<path d="M50.5393 88.4741C39.4116 86.5202 34.8366 79.9675 36.8143 68.8397L43.6292 30.119V30.0952L24.3761 33.4788C13.2483 35.4565 8.67332 42.0093 10.6511 53.137L18.5143 97.6479C20.4206 108.776 26.9495 113.351 38.1011 111.373L71.4843 105.487C79.2761 104.082 83.9225 100.412 85.1616 94.5265L85.1378 94.455C84.7327 94.4073 84.3753 94.4073 83.9702 94.3358L50.5393 88.4741Z" fill="#396CE8"/>
<path opacity="0.4" d="M97.6476 16.4891L64.2644 10.6036C53.1367 8.64969 46.584 13.2247 44.6301 24.3286L43.6055 30.1188L36.7906 68.8634C34.8367 79.9911 39.4117 86.5438 50.5156 88.4977L83.8988 94.3595C84.3039 94.4309 84.6613 94.4309 85.0664 94.4786C95.4555 95.9083 101.651 91.3333 103.533 80.6106L111.373 36.0997C113.35 24.9958 108.775 18.4669 97.6476 16.4891Z" fill="#396CE8"/>
</svg>
