<svg width="68" height="68" viewBox="0 0 68 68" fill="none" xmlns="http://www.w3.org/2000/svg">
<path d="M27.14 52.0231C19.8467 50.7364 16.8467 46.4453 18.14 39.1498L22.6034 13.7631V13.7397L9.97336 15.9631C2.6778 17.2586 -0.322199 21.5553 0.973356 28.8531L6.12336 58.0398C7.37891 65.3375 11.6622 68.3375 18.9734 67.0398L40.8634 63.1864C45.9767 62.2631 49.0134 59.8531 49.8267 56.0031L49.8034 55.9631C49.5434 55.9264 49.3067 55.9264 49.04 55.8798L27.14 52.0231Z" fill="#396CE8"/>
<path opacity="0.4" d="M58.03 4.81331L36.1467 0.956642C28.8511 -0.330024 24.56 2.66998 23.2734 9.95664L22.6067 13.75L18.1267 39.15C16.8422 46.4455 19.8422 50.7366 27.1267 52.0233L49.0134 55.88C49.28 55.9266 49.5167 55.9266 49.7767 55.9633C56.59 56.9 60.6467 53.8933 61.8867 46.8666L67.03 17.6866C68.3256 10.3933 65.3256 6.1022 58.03 4.81331Z" fill="#396CE8"/>
</svg>
