<svg width="32" height="32" viewBox="0 0 32 32" fill="none" xmlns="http://www.w3.org/2000/svg">
<g clip-path="url(#clip0_2189_13031)">
<path d="M16 32C24.8363 32 32 24.8356 32 16C32 7.16438 24.8369 0 16 0C7.16313 0 0 7.16438 0 16C0 24.8356 7.16375 32 16 32Z" fill="#F0F0F0"/>
<path fill-rule="evenodd" clip-rule="evenodd" d="M1.64665e-06 15.9999C-0.00136385 19.0093 0.846554 21.958 2.44627 24.507C4.04599 27.056 6.33257 29.1019 9.04313 30.4093V1.5918C3.69188 4.17867 1.64665e-06 9.65367 1.64665e-06 15.9999ZM32 15.9999C32.0011 12.9907 31.153 10.0422 29.5531 7.49341C27.9533 4.94464 25.6667 2.89906 22.9563 1.5918V30.4093C25.6669 29.1019 27.9536 27.0562 29.5535 24.5072C31.1533 21.9581 32.0013 19.0094 32 15.9999V15.9999ZM21.5625 16.6937L18.78 18.0893L19.475 19.4762H16.695V21.5624H15.3038V19.4762H12.5219L13.2181 18.0893L10.4375 16.6937L11.8269 15.9999V14.6049L14.6094 15.9999L13.2181 13.2187H14.6094L16 11.1299L17.3913 13.2187H18.7825L17.3919 15.9999L20.175 14.6043V15.9999L21.5625 16.6937Z" fill="#D80027"/>
</g>
<defs>
<clipPath id="clip0_2189_13031">
<rect width="32" height="32" fill="white"/>
</clipPath>
</defs>
</svg>
