<svg width="32" height="32" viewBox="0 0 32 32" fill="none" xmlns="http://www.w3.org/2000/svg">
<g clip-path="url(#clip0_2189_13015)">
<path fill-rule="evenodd" clip-rule="evenodd" d="M16 0C7.16343 0 0 7.16343 0 16C0 24.8366 7.16343 32 16 32C24.8366 32 32 24.8366 32 16C32 7.16343 24.8366 0 16 0Z" fill="#E92B2B"/>
<path fill-rule="evenodd" clip-rule="evenodd" d="M29.8596 24H2.14062C3.01158 25.5056 4.12083 26.8561 5.41678 28H26.5834C27.8794 26.8561 28.9886 25.5056 29.8596 24Z" fill="#FBFBFB"/>
<path fill-rule="evenodd" clip-rule="evenodd" d="M32 16H0C0 17.3812 0.175014 18.7215 0.504071 20H31.4959C31.825 18.7215 32 17.3812 32 16Z" fill="#FBFBFB"/>
<path fill-rule="evenodd" clip-rule="evenodd" d="M29.8598 8H2.14084C1.42468 9.238 0.869645 10.5809 0.504395 12H31.4963C31.131 10.5809 30.576 9.238 29.8598 8Z" fill="#FBFBFB"/>
<path fill-rule="evenodd" clip-rule="evenodd" d="M26.5817 4H5.41504C8.23561 1.51054 11.9406 0 15.9984 0C20.0562 0 23.7611 1.51054 26.5817 4Z" fill="#FBFBFB"/>
<path fill-rule="evenodd" clip-rule="evenodd" d="M14.4004 0.0791016V16.0001H0C0 7.70342 6.31493 0.881652 14.4004 0.0791016Z" fill="#2A2FAF"/>
<path fill-rule="evenodd" clip-rule="evenodd" d="M2.43985 7.50586H3.12286L2.1824 8.18914L2.54163 9.29472L1.75 8.71957C1.96265 8.30415 2.19293 7.89929 2.43985 7.50586Z" fill="#FBFBFB"/>
<path fill-rule="evenodd" clip-rule="evenodd" d="M0.379395 12.5241C0.395566 12.4511 0.41223 12.3783 0.429395 12.3058H1.24129L1.60051 11.2002L1.95974 12.3058H3.1222L2.18174 12.9891L2.54097 14.0946L1.60051 13.4113L0.660059 14.0946L1.01928 12.9891L0.379395 12.5241Z" fill="#FBFBFB"/>
<path fill-rule="evenodd" clip-rule="evenodd" d="M5.69975 3.7559C6.14467 3.38116 6.61039 3.03023 7.09482 2.70508H7.9221L6.9816 3.38836L7.34082 4.49394L6.40039 3.81065L5.45996 4.49394L5.69975 3.7559Z" fill="#FBFBFB"/>
<path d="M6.40111 6.40039L6.76032 7.50596H7.92282L6.98232 8.18925L7.34161 9.29482L6.40111 8.61153L5.46068 9.29482L5.81989 8.18925L4.87939 7.50596H6.04189L6.40111 6.40039Z" fill="#FBFBFB"/>
<path d="M6.40111 11.2002L6.76032 12.3058H7.92282L6.98232 12.9891L7.34161 14.0946L6.40111 13.4113L5.46068 14.0946L5.81989 12.9891L4.87939 12.3058H6.04189L6.40111 11.2002Z" fill="#FBFBFB"/>
<path d="M11.2002 1.59961L11.5594 2.70519H12.7218L11.7814 3.38847L12.1406 4.49404L11.2002 3.81076L10.2597 4.49404L10.6189 3.38847L9.67847 2.70519H10.841L11.2002 1.59961Z" fill="#FBFBFB"/>
<path d="M11.2002 6.40039L11.5594 7.50596H12.7218L11.7814 8.18925L12.1406 9.29482L11.2002 8.61153L10.2597 9.29482L10.6189 8.18925L9.67847 7.50596H10.841L11.2002 6.40039Z" fill="#FBFBFB"/>
<path d="M11.2002 11.2002L11.5594 12.3058H12.7218L11.7814 12.9891L12.1406 14.0946L11.2002 13.4113L10.2597 14.0946L10.6189 12.9891L9.67847 12.3058H10.841L11.2002 11.2002Z" fill="#FBFBFB"/>
</g>
<defs>
<clipPath id="clip0_2189_13015">
<rect width="32" height="32" fill="white"/>
</clipPath>
</defs>
</svg>
