<svg width="32" height="32" viewBox="0 0 32 32" fill="none" xmlns="http://www.w3.org/2000/svg">
<g clip-path="url(#clip0_190_7038)">
<path d="M16 32C24.8363 32 32 24.8356 32 16C32 7.16438 24.8363 0 16 0C7.16375 0 0 7.16438 0 16C0 24.8356 7.16375 32 16 32Z" fill="#F0F0F0"/>
<path d="M32 15.9998C32 9.12047 27.6575 3.25422 21.5625 0.996094V31.0042C27.6575 28.7498 32 22.8805 32 15.9998Z" fill="#D80027"/>
<path d="M0 16C0 22.8806 4.34188 28.75 10.4375 31.005V1C4.3425 3.25437 0 9.12062 0 16Z" fill="#0052B4"/>
</g>
<defs>
<clipPath id="clip0_190_7038">
<rect width="32" height="32" fill="white"/>
</clipPath>
</defs>
</svg>
