<svg width="162" height="635" viewBox="0 0 162 635" fill="none" xmlns="http://www.w3.org/2000/svg">
<path d="M150.807 4.61987C150.045 1.96573 147.275 0.432025 144.621 1.19425C141.967 1.95647 140.433 4.72598 141.196 7.38013L150.807 4.61987ZM46.3851 633.732C48.9984 634.624 51.8401 633.229 52.7321 630.615L67.268 588.027C68.16 585.414 66.7645 582.572 64.1511 581.68C61.5377 580.788 58.6961 582.184 57.8041 584.797L44.8833 622.653L7.02759 609.732C4.4142 608.84 1.57253 610.236 0.680534 612.849C-0.211458 615.462 1.18401 618.304 3.7974 619.196L46.3851 633.732ZM45.793 612.107C44.7225 609.561 41.7911 608.366 39.2457 609.436C36.7002 610.507 35.5046 613.438 36.5751 615.984L45.793 612.107ZM25.6401 584.644C26.3796 587.304 29.1359 588.862 31.7964 588.122C34.457 587.383 36.0144 584.627 35.275 581.966L25.6401 584.644ZM28.8397 550.72C28.47 547.983 25.9519 546.065 23.2154 546.434C20.4788 546.804 18.56 549.322 18.9297 552.058L28.8397 550.72ZM16.7491 518.855C16.7433 521.616 18.9773 523.859 21.7387 523.865C24.5001 523.871 26.7433 521.637 26.7491 518.875L16.7491 518.855ZM28.8512 486.984C29.2004 484.245 27.2629 481.741 24.5236 481.392C21.7844 481.043 19.2807 482.98 18.9315 485.719L28.8512 486.984ZM24.9059 453.126C24.2704 455.814 25.9336 458.507 28.6209 459.143C31.3082 459.778 34.0019 458.115 34.6375 455.428L24.9059 453.126ZM43.3983 424.454C44.2545 421.828 42.8202 419.006 40.1949 418.15C37.5695 417.294 34.7472 418.728 33.8911 421.353L43.3983 424.454ZM45.1069 390.387C44.0923 392.955 45.3518 395.859 47.9201 396.874C50.4883 397.889 53.3928 396.629 54.4075 394.061L45.1069 390.387ZM66.9795 364.177C68.0978 361.652 66.9577 358.699 64.4329 357.581C61.9081 356.462 58.9547 357.602 57.8363 360.127L66.9795 364.177ZM71.4726 330.366C70.2979 332.865 71.3715 335.843 73.8706 337.018C76.3697 338.193 79.348 337.119 80.5226 334.62L71.4726 330.366ZM94.516 305.165C95.7044 302.673 94.6471 299.689 92.1545 298.5C89.6618 297.312 86.6778 298.369 85.4894 300.862L94.516 305.165ZM99.3882 271.404C98.2267 273.909 99.316 276.882 101.821 278.043C104.327 279.205 107.299 278.116 108.461 275.61L99.3882 271.404ZM121.879 245.721C122.973 243.185 121.803 240.243 119.268 239.15C116.732 238.057 113.79 239.226 112.696 241.762L121.879 245.721ZM124.915 211.748C123.934 214.329 125.231 217.217 127.812 218.198C130.393 219.179 133.281 217.882 134.262 215.301L124.915 211.748ZM145.056 184.19C145.877 181.553 144.405 178.751 141.768 177.93C139.131 177.109 136.329 178.582 135.508 181.218L145.056 184.19ZM143.898 150.115C143.29 152.808 144.98 155.485 147.673 156.093C150.367 156.702 153.044 155.012 153.652 152.318L143.898 150.115ZM159.42 119.738C159.766 116.999 157.825 114.497 155.086 114.151C152.346 113.806 149.845 115.746 149.499 118.486L159.42 119.738ZM151.783 86.519C151.741 89.2801 153.945 91.5523 156.706 91.594C159.467 91.6358 161.74 89.4314 161.781 86.6702L151.783 86.519ZM160.331 53.5123C160.046 50.7656 157.589 48.7697 154.842 49.0544C152.096 49.339 150.1 51.7964 150.384 54.5431L160.331 53.5123ZM145.197 22.9855C145.805 25.6791 148.482 27.3699 151.175 26.7619C153.869 26.1538 155.56 23.4773 154.952 20.7837L145.197 22.9855ZM52.4882 626.796C50.0678 621.867 47.8389 616.971 45.793 612.107L36.5751 615.984C38.6977 621.031 41.0074 626.104 43.5121 631.204L52.4882 626.796ZM35.275 581.966C32.346 571.427 30.2307 561.018 28.8397 550.72L18.9297 552.058C20.3814 562.806 22.5883 573.663 25.6401 584.644L35.275 581.966ZM26.7491 518.875C26.7713 508.161 27.5058 497.538 28.8512 486.984L18.9315 485.719C17.5373 496.656 16.7722 507.696 16.7491 518.855L26.7491 518.875ZM34.6375 455.428C37.0888 445.062 40.0423 434.745 43.3983 424.454L33.8911 421.353C30.4608 431.872 27.429 442.458 24.9059 453.126L34.6375 455.428ZM54.4075 394.061C58.3452 384.093 62.5667 374.139 66.9795 364.177L57.8363 360.127C53.3818 370.183 49.1053 380.265 45.1069 390.387L54.4075 394.061ZM80.5226 334.62C85.1276 324.823 89.8179 315.019 94.516 305.165L85.4894 300.862C80.7996 310.698 76.0926 320.537 71.4726 330.366L80.5226 334.62ZM108.461 275.61C113.052 265.707 117.556 255.747 121.879 245.721L112.696 241.762C108.419 251.682 103.954 261.556 99.3882 271.404L108.461 275.61ZM134.262 215.301C138.168 205.026 141.798 194.66 145.056 184.19L135.508 181.218C132.319 191.466 128.758 201.636 124.915 211.748L134.262 215.301ZM153.652 152.318C156.077 141.587 158.032 130.733 159.42 119.738L149.499 118.486C148.154 129.134 146.258 139.67 143.898 150.115L153.652 152.318ZM161.781 86.6702C161.947 75.7616 161.492 64.7135 160.331 53.5123L150.384 54.5431C151.503 65.3386 151.942 75.9916 151.783 86.519L161.781 86.6702ZM154.952 20.7837C153.743 15.4304 152.365 10.043 150.807 4.61987L141.196 7.38013C142.7 12.6192 144.031 17.8204 145.197 22.9855L154.952 20.7837Z" fill="white" style="mix-blend-mode:overlay"/>
</svg>
