<svg width="34" height="21" viewBox="0 0 34 21" fill="none" xmlns="http://www.w3.org/2000/svg">
<rect width="34" height="21" rx="3" fill="#31326F"/>
<path d="M19.7873 5.62988H14.3446V15.3701H19.7873V5.62988Z" fill="#FF5F00"/>
<path d="M14.6903 10.5003C14.6903 8.60735 15.5715 6.80042 17.0574 5.63022C14.362 3.51354 10.457 3.97818 8.33176 6.67996C6.2065 9.36454 6.67302 13.2537 9.38576 15.3704C11.6492 17.1429 14.8112 17.1429 17.0747 15.3704C15.5715 14.2002 14.6903 12.3933 14.6903 10.5003Z" fill="#EB001B"/>
<path d="M27.1308 10.5003C27.1308 13.9249 24.349 16.6955 20.9105 16.6955C19.511 16.6955 18.1633 16.2309 17.0747 15.3704C19.7702 13.2537 20.2367 9.36454 18.1114 6.66275C17.8004 6.28416 17.4548 5.92277 17.0747 5.63022C19.7702 3.51354 23.6924 3.97818 25.8004 6.67996C26.6643 7.76412 27.1308 9.10641 27.1308 10.5003Z" fill="#F79E1B"/>
<path d="M26.5434 14.3376V14.1311H26.6298V14.0967H26.4225V14.1311H26.5089V14.3376H26.5434ZM26.9408 14.3376V14.0967H26.8717L26.8026 14.2688L26.7335 14.0967H26.6644V14.3376H26.7162V14.1483L26.7853 14.3032H26.8372L26.9063 14.1483V14.3376H26.9408Z" fill="#F79E1B"/>
</svg>
