<?xml version="1.0" encoding="UTF-8"?>
<svg id="Warstwa_1" data-name="Warstwa 1" xmlns="http://www.w3.org/2000/svg" viewBox="0 0 150 150">
  <defs>
    <style>
      .cls-1 {
        fill: #fff;
      }

      .cls-2 {
        fill: red;
      }
    </style>
  </defs>
  <circle class="cls-2" cx="75" cy="75" r="75"/>
  <path class="cls-1" d="m99.24,111.47h-50.45v-9.14l19.8-19.69c3.24-3.2,5.88-5.98,7.91-8.32,2.03-2.34,3.61-4.48,4.75-6.42,1.13-1.93,1.89-3.76,2.29-5.48.39-1.72.59-3.57.59-5.57,0-1.88-.25-3.66-.76-5.36-.51-1.7-1.29-3.19-2.34-4.48s-2.42-2.3-4.1-3.05c-1.68-.74-3.69-1.11-6.04-1.11-3.24,0-6.19.72-8.85,2.17-2.66,1.45-5.1,3.32-7.32,5.62l-5.62-6.74c2.89-3.05,6.22-5.49,9.99-7.32,3.77-1.84,8.15-2.75,13.15-2.75,3.4,0,6.49.51,9.29,1.52,2.79,1.02,5.2,2.48,7.24,4.39,2.03,1.91,3.6,4.26,4.72,7.03,1.11,2.77,1.67,5.9,1.67,9.38,0,2.93-.39,5.65-1.17,8.14-.78,2.5-1.96,4.99-3.54,7.47-1.58,2.48-3.57,5.05-5.98,7.71-2.4,2.66-5.24,5.57-8.53,8.73l-13.89,13.54h37.21v9.73Z"/>
</svg>