<?xml version="1.0" encoding="UTF-8"?>
<svg id="Warstwa_1" data-name="Warstwa 1" xmlns="http://www.w3.org/2000/svg" viewBox="0 0 150 150">
  <defs>
    <style>
      .cls-1 {
        fill: #fff;
      }

      .cls-2 {
        fill: red;
      }
    </style>
  </defs>
  <circle class="cls-2" cx="75" cy="75" r="75"/>
  <path class="cls-1" d="m102.06,85.92c0,3.79-.82,7.25-2.46,10.37-1.64,3.13-3.9,5.81-6.77,8.06-2.87,2.25-6.26,3.99-10.17,5.24s-8.12,1.88-12.66,1.88c-1.13,0-2.35-.03-3.66-.09s-2.61-.14-3.9-.23c-1.29-.1-2.55-.21-3.78-.32s-2.33-.25-3.31-.41v-9.26c2.11.51,4.52.88,7.24,1.11s5.46.35,8.23.35c3.12,0,5.94-.37,8.44-1.11,2.5-.74,4.63-1.81,6.39-3.19,1.76-1.39,3.11-3.07,4.04-5.04.94-1.97,1.41-4.19,1.41-6.65,0-4.77-1.71-8.23-5.13-10.4s-8.33-3.25-14.74-3.25h-14.53v-39.14h41.25v8.91h-31.64v21.5h6.68c3.67,0,7.25.33,10.72,1,3.48.66,6.57,1.83,9.29,3.49,2.71,1.66,4.9,3.89,6.56,6.68,1.66,2.79,2.49,6.3,2.49,10.52Z"/>
</svg>