<?xml version="1.0" encoding="UTF-8"?>
<svg id="Warstwa_1" data-name="Warstwa 1" xmlns="http://www.w3.org/2000/svg" viewBox="0 0 150 150">
  <defs>
    <style>
      .cls-1 {
        fill: #fff;
      }

      .cls-2 {
        fill: red;
      }
    </style>
  </defs>
  <circle class="cls-2" cx="75" cy="75" r="75"/>
  <path class="cls-1" d="m101.4,86.15c0,3.52-.64,6.82-1.9,9.9-1.27,3.09-3.08,5.77-5.42,8.06s-5.17,4.08-8.47,5.39c-3.3,1.31-6.96,1.96-10.99,1.96s-7.95-.67-11.19-2.02c-3.24-1.35-5.96-3.42-8.14-6.21-2.19-2.79-3.85-6.32-4.98-10.58-1.13-4.26-1.7-9.3-1.7-15.12,0-3.91.25-7.69.76-11.37.51-3.67,1.35-7.13,2.52-10.37,1.17-3.24,2.73-6.21,4.69-8.91,1.95-2.7,4.38-5.01,7.29-6.94,2.91-1.93,6.34-3.44,10.28-4.51,3.94-1.07,8.51-1.61,13.71-1.61h7.56v8.91h-8.2c-4.57,0-8.54.55-11.89,1.64-3.36,1.09-6.17,2.64-8.44,4.63-2.27,1.99-4,4.39-5.21,7.21-1.21,2.81-1.97,5.96-2.29,9.43l-.23,2.4c2.46-1.44,5.3-2.61,8.53-3.49s6.71-1.32,10.46-1.32,7.25.57,10.17,1.7c2.91,1.13,5.33,2.71,7.27,4.72,1.93,2.01,3.39,4.42,4.37,7.24.98,2.81,1.46,5.9,1.46,9.26Zm-10.66.64c0-2.34-.28-4.46-.85-6.36-.57-1.89-1.46-3.5-2.67-4.8-1.21-1.31-2.75-2.32-4.6-3.05-1.86-.72-4.07-1.08-6.65-1.08-1.49,0-2.99.14-4.51.41-1.52.27-3.02.65-4.48,1.14-1.46.49-2.86,1.05-4.19,1.67-1.33.62-2.54,1.29-3.63,1.99,0,5.04.35,9.25,1.05,12.63.7,3.38,1.75,6.08,3.13,8.12,1.39,2.03,3.09,3.48,5.13,4.34,2.03.86,4.37,1.29,7.03,1.29,2.23,0,4.27-.36,6.12-1.08,1.85-.72,3.46-1.79,4.8-3.19s2.4-3.11,3.16-5.13c.76-2.01,1.14-4.31,1.14-6.88Z"/>
</svg>