<?xml version="1.0" encoding="UTF-8"?>
<svg id="Warstwa_1" data-name="Warstwa 1" xmlns="http://www.w3.org/2000/svg" viewBox="0 0 150 150">
  <defs>
    <style>
      .cls-1 {
        fill: #fff;
      }

      .cls-2 {
        fill: red;
      }
    </style>
  </defs>
  <circle class="cls-2" cx="75" cy="75" r="75"/>
  <path class="cls-1" d="m101.04,91.19c0,3.24-.67,6.12-1.99,8.64-1.33,2.52-3.18,4.64-5.57,6.36-2.38,1.72-5.2,3.03-8.44,3.93-3.24.9-6.76,1.35-10.55,1.35-4.18,0-7.86-.47-11.04-1.41-3.18-.94-5.85-2.25-8-3.93-2.15-1.68-3.77-3.67-4.86-5.98-1.09-2.3-1.64-4.84-1.64-7.62,0-4.69,1.31-8.73,3.93-12.13,2.62-3.4,6.66-6.48,12.13-9.26-5-2.54-8.65-5.36-10.96-8.47-2.31-3.11-3.46-6.67-3.46-10.69,0-2.46.51-4.84,1.52-7.15,1.01-2.3,2.55-4.35,4.6-6.15,2.05-1.8,4.62-3.23,7.71-4.31,3.08-1.07,6.72-1.61,10.9-1.61,3.94,0,7.41.42,10.4,1.26,2.99.84,5.5,2.04,7.53,3.6,2.03,1.56,3.55,3.46,4.57,5.68,1.01,2.23,1.52,4.71,1.52,7.44,0,4.45-1.24,8.24-3.72,11.37-2.48,3.13-6.01,5.86-10.58,8.2,2.26,1.13,4.37,2.38,6.33,3.75,1.95,1.37,3.65,2.89,5.1,4.57,1.44,1.68,2.57,3.55,3.37,5.62.8,2.07,1.2,4.38,1.2,6.91Zm-11.07.76c0-1.44-.23-2.85-.7-4.22-.47-1.37-1.31-2.71-2.52-4.04-1.21-1.33-2.83-2.66-4.86-3.98-2.03-1.33-4.61-2.7-7.73-4.1-2.66,1.29-4.89,2.57-6.71,3.84-1.82,1.27-3.28,2.56-4.39,3.87-1.11,1.31-1.9,2.67-2.37,4.07s-.7,2.89-.7,4.45c0,1.76.38,3.31,1.14,4.66s1.81,2.49,3.13,3.43c1.33.94,2.91,1.64,4.75,2.11,1.83.47,3.83.7,5.98.7s4.02-.21,5.86-.64c1.83-.43,3.43-1.08,4.78-1.96s2.41-1.99,3.19-3.34c.78-1.35,1.17-2.96,1.17-4.83Zm-1.05-40.37c0-3.48-1.22-6.06-3.66-7.76-2.44-1.7-5.87-2.55-10.28-2.55s-7.78.84-10.22,2.52c-2.44,1.68-3.66,4.2-3.66,7.56,0,1.52.29,2.93.88,4.22s1.49,2.5,2.72,3.63c1.23,1.13,2.76,2.25,4.6,3.34,1.83,1.09,4.02,2.21,6.56,3.34,4.41-2.07,7.69-4.23,9.84-6.47,2.15-2.25,3.22-4.85,3.22-7.82Z"/>
</svg>