<?xml version="1.0" encoding="UTF-8"?>
<svg id="Warstwa_1" data-name="Warstwa 1" xmlns="http://www.w3.org/2000/svg" viewBox="0 0 150 150">
  <defs>
    <style>
      .cls-1 {
        fill: #fff;
      }

      .cls-2 {
        fill: red;
      }
    </style>
  </defs>
  <circle class="cls-2" cx="75" cy="75" r="75"/>
  <path class="cls-1" d="m103.4,68.87c0,7.46-.9,13.88-2.7,19.25-1.8,5.37-4.45,9.79-7.97,13.24s-7.87,6.01-13.07,7.65-11.19,2.46-17.99,2.46h-6.39v-8.91h7.09c5.04,0,9.39-.51,13.07-1.52,3.67-1.02,6.73-2.51,9.17-4.48,2.44-1.97,4.31-4.37,5.6-7.21,1.29-2.83,2.09-6.06,2.4-9.7l.23-2.4c-2.46,1.45-5.29,2.61-8.5,3.49s-6.68,1.32-10.43,1.32-7.27-.57-10.2-1.7c-2.93-1.13-5.36-2.71-7.29-4.75-1.93-2.03-3.39-4.44-4.37-7.24-.98-2.79-1.46-5.83-1.46-9.11,0-3.55.64-6.87,1.93-9.96,1.29-3.09,3.1-5.77,5.42-8.06s5.11-4.09,8.35-5.42c3.24-1.33,6.82-1.99,10.72-1.99s7.29.63,10.52,1.88c3.22,1.25,6.01,3.27,8.35,6.06,2.34,2.79,4.18,6.42,5.51,10.87s1.99,9.86,1.99,16.23Zm-26.84-26.66c-2.19,0-4.21.36-6.06,1.08-1.86.72-3.46,1.78-4.8,3.16-1.35,1.39-2.41,3.1-3.19,5.13-.78,2.03-1.17,4.36-1.17,6.97,0,2.38.28,4.51.85,6.39s1.45,3.47,2.64,4.78c1.19,1.31,2.72,2.31,4.6,3.02s4.1,1.05,6.68,1.05c1.45,0,2.94-.14,4.48-.41,1.54-.27,3.05-.64,4.51-1.11s2.86-1.02,4.19-1.64c1.33-.62,2.52-1.29,3.57-1.99,0-5.04-.37-9.25-1.11-12.63-.74-3.38-1.82-6.09-3.22-8.14s-3.12-3.51-5.13-4.37c-2.01-.86-4.29-1.29-6.83-1.29Z"/>
</svg>