<svg width="120" height="96" viewBox="0 0 120 96" fill="none" xmlns="http://www.w3.org/2000/svg">
<path d="M120 21.412V87.6868C120 92.2753 116.284 95.9993 111.705 95.9993H8.29474C3.70775 95.9993 0 92.2753 0 87.6868V13.0996H111.705C116.284 13.0996 120 16.8236 120 21.412Z" fill="#F6B307"/>
<path d="M48.7814 13.1004H0V8.31241C0 3.72396 3.71604 0 8.29474 0H37.4673L48.7814 13.1004Z" fill="#F6B307"/>
<path d="M96.8671 19.2211L16.7321 31.2658C14.2857 31.6336 12.5999 33.9191 12.9669 36.3707L18.0482 70.3212C18.4151 72.7728 20.6957 74.4621 23.1422 74.0944L103.277 62.0497C105.724 61.682 107.409 59.3965 107.042 56.9448L101.961 22.9943C101.594 20.5427 99.3135 18.8534 96.8671 19.2211Z" fill="white"/>
<path d="M120 47.621V87.6868C120 92.2753 116.284 95.9992 111.705 95.9992H8.29474C3.70775 95.9992 0 92.2753 0 87.6868V47.621C0 43.0326 3.70775 39.3086 8.29474 39.3086H111.705C116.284 39.3086 120 43.0326 120 47.621Z" fill="#FFCA40"/>
<g style="mix-blend-mode:soft-light" opacity="0.2">
<path d="M110.635 68.6764C103.817 68.6764 97.4217 66.8892 91.8809 63.7554C82.7567 58.5934 75.9633 49.7906 73.4665 39.3086C72.7864 36.4492 72.4214 33.465 72.4214 30.3894C72.4214 27.7793 72.6785 25.2357 73.1845 22.7753C73.8647 19.3589 75.0011 16.117 76.5356 13.0996H55.9978C54.7204 17.1394 53.8827 21.3621 53.5343 25.7262C53.4099 27.264 53.3435 28.8184 53.3435 30.3894C53.3435 33.4234 53.5758 36.4076 54.0403 39.3086C55.6992 49.9568 60.2945 59.6408 66.9635 67.5043C77.4812 79.9064 93.1583 87.7949 110.635 87.7949C113.82 87.7949 116.956 87.5289 120 87.0219V67.5126C117.006 68.2774 113.87 68.6764 110.635 68.6764Z" fill="white"/>
</g>
</svg>
