<?xml version="1.0" encoding="utf-8"?>
<!-- Generator: Adobe Illustrator 27.0.0, SVG Export Plug-In . SVG Version: 6.00 Build 0)  -->
<svg version="1.1" id="Layer" xmlns="http://www.w3.org/2000/svg" xmlns:xlink="http://www.w3.org/1999/xlink" x="0px" y="0px"
	 viewBox="0 0 512 512" style="enable-background:new 0 0 512 512;" xml:space="preserve">
<style type="text/css">
	.st0{fill:#396CE8;}
	.st1{fill:#B0C4F6;}
</style>
<g>
	<path class="st0" d="M111.2,399.1l201.4-34.8c21.8-3.8,36.4-24.5,32.6-46.2l-14.6-84.7c-3.8-21.8-24.5-36.4-46.2-32.6L83,235.6
		c-21.8,3.8-36.4,24.5-32.6,46.2L65,366.5C68.8,388.3,89.5,402.9,111.2,399.1z"/>
	<path class="st1" d="M400.8,311.1l-201.4-34.8c-21.8-3.8-36.4-24.5-32.6-46.2l14.6-84.7c3.8-21.8,24.5-36.4,46.2-32.6L429,147.6
		c21.8,3.8,36.4,24.5,32.6,46.2L447,278.5C443.2,300.3,422.5,314.9,400.8,311.1z"/>
</g>
</svg>
