<?xml version="1.0" encoding="utf-8"?>
<!-- Generator: Adobe Illustrator 27.0.0, SVG Export Plug-In . SVG Version: 6.00 Build 0)  -->
<svg version="1.1" id="Layer" xmlns="http://www.w3.org/2000/svg" xmlns:xlink="http://www.w3.org/1999/xlink" x="0px" y="0px"
	 viewBox="0 0 512 512" style="enable-background:new 0 0 512 512;" xml:space="preserve">
<style type="text/css">
	.st0{fill:#396CE8;}
	.st1{fill:#B0C4F6;}
</style>
<g>
	<g>
		<path class="st0" d="M204.2,129.1L204.2,129.1c-12,0.1-21.8-9.7-21.8-21.8v-1c-0.3-74.9,146-82,146.1,11.7l1,316.6
			c0,15.4-12.4,27.9-27.8,27.9l-90.5,0.3c-15.4,0-27.9-12.4-27.9-27.8l-0.8-231.3c0-14.2,10.6-26.1,24.6-27.7
			c30.7-3.7,79.4-15.8,79.2-54c2.2-17.3-10.6-33.4-28-35c-22.3-1.1-30.3,12.9-33.1,25.1C223.2,122.1,214.4,129.1,204.2,129.1z"/>
		<path class="st1" d="M289.1,436.6l-65.1,0.3c-7.9,0.1-14.2-6.3-14.3-14.2l0,0c-0.1-7.9,6.3-14.2,14.2-14.3l65.1-0.3
			c7.9-0.1,14.2,6.3,14.3,14.2l0,0C303.3,430.1,297,436.5,289.1,436.6z"/>
	</g>
</g>
</svg>
