<?xml version="1.0" encoding="utf-8"?>
<!-- Generator: Adobe Illustrator 27.0.0, SVG Export Plug-In . SVG Version: 6.00 Build 0)  -->
<svg version="1.1" id="Layer" xmlns="http://www.w3.org/2000/svg" xmlns:xlink="http://www.w3.org/1999/xlink" x="0px" y="0px"
	 viewBox="0 0 512 512" style="enable-background:new 0 0 512 512;" xml:space="preserve">
<style type="text/css">
	.st0{fill:#B0C4F6;}
	.st1{fill:#396CE8;}
</style>
<g>
	<path class="st0" d="M132,154.6L132,154.6c-11.1,2.7-22.4-4.1-25.1-15.2l-0.2-0.9C89.5,69.3,223.3,29.9,244.5,116.6l72.3,292.8
		c3.5,14.2-5.1,28.6-19.4,32.1l-83.6,20.6c-14.2,3.5-28.6-5.1-32.1-19.4l-52.8-214c-3.2-13.1,3.9-26.5,16.6-31.3
		c27.7-10.4,69.9-32.5,61.2-67.8c-1.9-16.5-17.3-28.5-33.8-26.1c-20.9,4-25.1,18.8-25,30.7C147.9,143.9,141.4,152.4,132,154.6z"/>
	<g>
		<path class="st1" d="M287.3,113.9L287.3,113.9c-11.1-2.8-17.8-14.2-14.9-25.3l0.2-0.9c17.7-69.1,154.2-40.6,131.9,45.8
			l-74.8,292.1c-3.6,14.2-18.1,22.7-32.2,19.1L214,423.4c-14.2-3.6-22.7-18.1-19.1-32.2l54.6-213.5c3.4-13.1,16-21.6,29.3-19.6
			c29.3,3.9,76.9,4.5,86-30.8c6.1-15.4-1.8-33.3-17.5-39c-20.3-6.4-31,4.6-36.5,15.2C306.4,112,296.6,116.3,287.3,113.9z"/>
		<path class="st0" d="M291.9,417.6l-60.1-15.3c-7.3-1.8-11.6-9.2-9.8-16.5l0,0c1.8-7.3,9.2-11.6,16.5-9.8l60.1,15.3
			c7.3,1.8,11.6,9.2,9.8,16.5l0,0C306.6,415.1,299.2,419.5,291.9,417.6z"/>
	</g>
</g>
</svg>
