<?xml version="1.0" encoding="utf-8"?>
<!-- Generator: Adobe Illustrator 27.0.0, SVG Export Plug-In . SVG Version: 6.00 Build 0)  -->
<svg version="1.1" id="Layer" xmlns="http://www.w3.org/2000/svg" xmlns:xlink="http://www.w3.org/1999/xlink" x="0px" y="0px"
	 viewBox="0 0 512 512" style="enable-background:new 0 0 512 512;" xml:space="preserve">
<style type="text/css">
	.st0{fill:#396CE8;}
	.st1{opacity:0.4;fill:#396CE8;enable-background:new    ;}
</style>
<g id="papers">
	<path class="st0" d="M212.1,371.3c-46.7-8.2-65.9-35.7-57.6-82.4l28.6-162.5v-0.1l-80.8,14.2c-46.7,8.3-65.9,35.8-57.6,82.5
		l33,186.8c8,46.7,35.4,65.9,82.2,57.6l140.1-24.7c32.7-5.9,52.2-21.3,57.4-46l-0.1-0.3c-1.7-0.2-3.2-0.2-4.9-0.5L212.1,371.3z"/>
	<path class="st1" d="M409.8,69.2L269.7,44.5c-46.7-8.2-74.2,11-82.4,57.6l-4.3,24.3L154.4,289c-8.2,46.7,11,74.2,57.6,82.4
		L352.1,396c1.7,0.3,3.2,0.3,4.9,0.5c43.6,6,69.6-13.2,77.5-58.2l32.9-186.8C475.7,104.9,456.5,77.5,409.8,69.2L409.8,69.2z"/>
</g>
</svg>
