<svg width="58" height="64" viewBox="0 0 58 64" fill="none" xmlns="http://www.w3.org/2000/svg">
<path opacity="0.4" d="M29 0.333313C21.4882 0.342135 14.2866 3.33008 8.97501 8.6417C3.66339 13.9533 0.675448 21.1549 0.666626 28.6666C0.666626 45.2766 16.0966 55.47 26.3066 62.2133L28.0766 63.3867C28.3502 63.5687 28.6714 63.6658 29 63.6658C29.3285 63.6658 29.6498 63.5687 29.9233 63.3867L31.6933 62.2133C41.9033 55.47 57.3333 45.2766 57.3333 28.6666C57.3245 21.1549 54.3365 13.9533 49.0249 8.6417C43.7133 3.33008 36.5117 0.342135 29 0.333313V0.333313Z" fill="#396CE8"/>
<path d="M29 37C33.6023 37 37.3333 33.269 37.3333 28.6666C37.3333 24.0643 33.6023 20.3333 29 20.3333C24.3976 20.3333 20.6666 24.0643 20.6666 28.6666C20.6666 33.269 24.3976 37 29 37Z" fill="#396CE8"/>
</svg>
