<svg width="270" height="49" viewBox="0 0 270 49" fill="none" xmlns="http://www.w3.org/2000/svg">
<g clip-path="url(#clip0_2455_15385)">
<path d="M189.985 38.364L207 38.4066C207.032 38.4067 207.063 38.4165 207.09 38.4347C207.116 38.4529 207.136 38.4786 207.148 38.5084L210.835 48.5996C210.853 48.6475 210.885 48.6888 210.927 48.718C210.97 48.7473 211.02 48.7629 211.072 48.7629H222.128C222.148 48.763 222.168 48.7583 222.186 48.7493C222.204 48.7403 222.219 48.7272 222.23 48.7111C222.242 48.695 222.249 48.6765 222.251 48.657C222.254 48.6376 222.251 48.6179 222.244 48.5996L203.857 0.361787C203.845 0.329277 203.823 0.30116 203.794 0.281254C203.764 0.261348 203.729 0.25062 203.693 0.250531L193.648 0.236328C193.59 0.236273 193.534 0.253499 193.487 0.285675C193.44 0.317851 193.404 0.363423 193.384 0.41623L175.028 48.6019C175.022 48.6202 175.019 48.6397 175.022 48.6589C175.025 48.6781 175.032 48.6964 175.043 48.7122C175.054 48.7279 175.069 48.7408 175.086 48.7496C175.103 48.7585 175.122 48.763 175.142 48.7629H185.942C185.984 48.7628 186.024 48.7503 186.058 48.727C186.092 48.7036 186.117 48.6707 186.131 48.6327L189.762 38.5202C189.779 38.4745 189.809 38.4349 189.849 38.407C189.889 38.379 189.936 38.364 189.985 38.364Z" stroke="#E01D2E" stroke-width="2"/>
<path d="M11.3879 33.0943L17.4121 33.0801C17.4631 33.0802 17.5133 33.0935 17.5579 33.1188C17.6024 33.1442 17.6397 33.1806 17.6661 33.2245L26.9298 48.6464C26.9481 48.6774 26.9745 48.7031 27.0064 48.7209C27.0382 48.7388 27.0744 48.7482 27.1113 48.7482L39.3774 48.7624C39.529 48.7624 39.5661 48.6985 39.4887 48.5707L28.7468 31.0135C28.7338 30.993 28.7255 30.97 28.7225 30.9461C28.7195 30.9221 28.7219 30.8977 28.7295 30.8746C28.7371 30.8514 28.7496 30.8301 28.7664 30.812C28.7832 30.7939 28.8037 30.7795 28.8266 30.7697C31.7169 29.5514 33.9734 27.7319 35.596 25.3111C36.4395 24.0502 37.0718 22.6086 37.4927 20.9863C38.2476 18.0715 38.2702 15.1197 37.5605 12.1308C36.6153 8.15082 34.4476 5.17373 31.0573 3.19953C29.7863 2.4594 28.3008 1.85893 26.6008 1.39813C24.3186 0.777936 21.9436 0.489143 19.4758 0.531751C18.0161 0.557001 16.3226 0.553846 14.3952 0.522284C12.8097 0.497035 11.1976 0.496243 9.55888 0.519915C6.56533 0.560946 3.52581 0.543586 0.44033 0.467837C0.416416 0.467205 0.392614 0.47127 0.370331 0.479789C0.348049 0.488309 0.327736 0.501111 0.310596 0.517441C0.293455 0.53377 0.279833 0.553293 0.270535 0.57486C0.261237 0.596428 0.256451 0.6196 0.25646 0.643008L0.241943 48.5683C0.241943 48.616 0.261315 48.6618 0.295798 48.6955C0.33028 48.7293 0.377048 48.7482 0.425814 48.7482L11.0903 48.7624C11.1327 48.7624 11.1733 48.7457 11.2032 48.716C11.2332 48.6862 11.25 48.6459 11.25 48.6038L11.2645 33.2126C11.2645 33.1812 11.2775 33.1511 11.3007 33.1289C11.3238 33.1067 11.3552 33.0943 11.3879 33.0943Z" stroke="#E01D2E" stroke-width="2"/>
<path d="M60.8637 29.1885L80.2548 29.1152C80.301 29.1152 80.3454 29.0975 80.378 29.0659C80.4107 29.0344 80.429 28.9917 80.429 28.9471L80.4436 19.9235C80.4436 19.9027 80.4394 19.8821 80.4312 19.8628C80.4231 19.8436 80.4111 19.8261 80.3961 19.8114C80.381 19.7966 80.3632 19.785 80.3435 19.777C80.3238 19.769 80.3027 19.7649 80.2815 19.7649H60.8613C60.8254 19.7649 60.7909 19.751 60.7655 19.7261C60.7401 19.7012 60.7258 19.6675 60.7258 19.6324V10.088C60.7258 10.0334 60.748 9.98102 60.7875 9.9424C60.8269 9.90377 60.8805 9.88208 60.9363 9.88208H82.9936C83.0141 9.88208 83.0344 9.87808 83.0534 9.87032C83.0723 9.86256 83.0895 9.85119 83.1039 9.83687C83.1183 9.82255 83.1297 9.80557 83.1373 9.78692C83.1449 9.76826 83.1487 9.74831 83.1484 9.72821L83.1073 0.647827C83.1069 0.62669 83.1024 0.605821 83.094 0.586412C83.0856 0.567003 83.0733 0.54943 83.0581 0.534703C83.0428 0.519976 83.0247 0.50838 83.005 0.500577C82.9852 0.492774 82.964 0.488919 82.9427 0.489228C79.8089 0.544462 76.6573 0.55235 73.4879 0.512897C71.3508 0.48607 69.7379 0.472656 68.6492 0.472656C62.404 0.475812 56.1589 0.500272 49.9137 0.546037C49.8816 0.546037 49.8509 0.558509 49.8282 0.580705C49.8055 0.602901 49.7927 0.633004 49.7927 0.664395L49.7782 48.6039C49.7782 48.646 49.7953 48.6863 49.8257 48.7161C49.8561 48.7458 49.8973 48.7625 49.9403 48.7625H70.35C70.3896 48.7624 70.4285 48.7516 70.4626 48.7311C70.4967 48.7107 70.5247 48.6815 70.5435 48.6465L75.4161 39.5448C75.4237 39.531 75.4275 39.5155 75.4271 39.4999C75.4267 39.4842 75.4221 39.4689 75.4138 39.4555C75.4054 39.4421 75.3937 39.4311 75.3797 39.4235C75.3657 39.4159 75.3499 39.412 75.3339 39.4123H60.9073C60.863 39.4123 60.8205 39.3953 60.7892 39.3651C60.7579 39.3349 60.7403 39.294 60.7403 39.2513V29.3093C60.7403 29.2773 60.7533 29.2466 60.7765 29.2239C60.7996 29.2013 60.831 29.1885 60.8637 29.1885Z" stroke="#E01D2E" stroke-width="2"/>
<path d="M81.8831 48.7176L94.9185 48.7602C94.9849 48.7602 95.0501 48.7424 95.1072 48.7086C95.1643 48.6749 95.2112 48.6264 95.2427 48.5684L120.965 0.7023C120.977 0.680322 120.983 0.655655 120.983 0.6307C120.982 0.605745 120.974 0.581354 120.961 0.559901C120.948 0.538449 120.929 0.520666 120.906 0.508286C120.884 0.495906 120.858 0.489352 120.832 0.489258H107.86C107.823 0.489181 107.786 0.498848 107.755 0.517211C107.723 0.535575 107.698 0.561929 107.681 0.59341L81.8226 48.6182C81.8171 48.6287 81.8144 48.6405 81.8148 48.6523C81.8151 48.6641 81.8185 48.6756 81.8246 48.6856C81.8307 48.6956 81.8393 48.7038 81.8496 48.7094C81.8598 48.715 81.8713 48.7178 81.8831 48.7176Z" stroke="#014E9C" stroke-width="2"/>
<path d="M155.731 18.9605L155.76 48.5972C155.76 48.6411 155.779 48.6833 155.811 48.7144C155.843 48.7454 155.887 48.7629 155.932 48.7629H166.35C166.409 48.7629 166.466 48.74 166.507 48.6991C166.549 48.6583 166.573 48.6029 166.573 48.5451V0.66242C166.573 0.629553 166.559 0.597995 166.536 0.574534C166.512 0.551072 166.48 0.537582 166.447 0.536962C165.119 0.502244 163.851 0.493564 162.641 0.510923C160.322 0.544063 157.92 0.52907 155.436 0.465946C155.325 0.463828 155.216 0.488423 155.117 0.537558C155.018 0.586692 154.933 0.658849 154.87 0.747638L144.027 15.9731C144.015 15.9898 143.999 16.0033 143.981 16.0127C143.962 16.022 143.942 16.0269 143.921 16.0269C143.901 16.0269 143.88 16.022 143.862 16.0127C143.844 16.0033 143.828 15.9898 143.816 15.9731L132.69 0.539328C132.679 0.524474 132.665 0.512579 132.648 0.504764C132.631 0.49695 132.613 0.493471 132.594 0.494655C132.576 0.495838 132.557 0.501648 132.542 0.511533C132.526 0.521419 132.512 0.535056 132.503 0.551164C129.055 6.9835 125.608 13.3953 122.163 19.7866C121.71 20.6278 121.472 21.0775 121.449 21.1359C121.29 21.5746 121.21 22.0843 121.21 22.6651C121.21 31.2058 121.21 39.8048 121.21 48.4623C121.21 48.5018 121.218 48.5408 121.233 48.5773C121.249 48.6138 121.271 48.6469 121.3 48.6749C121.328 48.7028 121.362 48.7249 121.399 48.74C121.437 48.7551 121.477 48.7629 121.517 48.7629H131.748C131.778 48.7629 131.808 48.7571 131.835 48.746C131.863 48.7348 131.888 48.7184 131.909 48.6977C131.93 48.6771 131.947 48.6525 131.959 48.6255C131.97 48.5985 131.976 48.5696 131.976 48.5404L131.99 19.2209C131.99 19.0457 132.045 19.0276 132.155 19.1664L143.565 33.7102C143.596 33.7501 143.636 33.7823 143.683 33.8044C143.729 33.8265 143.78 33.8379 143.832 33.8377C143.883 33.8374 143.934 33.8256 143.981 33.8031C144.027 33.7806 144.068 33.748 144.099 33.7078L155.632 18.9273C155.698 18.8437 155.731 18.8548 155.731 18.9605Z" stroke="#E01D2E" stroke-width="2"/>
<path d="M248.284 15.5821C248.227 15.68 248.171 15.6792 248.115 15.5798L239.763 0.678543C239.735 0.629707 239.694 0.589047 239.646 0.560752C239.597 0.532457 239.541 0.517553 239.485 0.517578L227.298 0.588593C227.218 0.590171 227.198 0.624887 227.24 0.692745L241.587 24.0494C241.619 24.1015 241.636 24.1613 241.636 24.2222C241.636 24.2831 241.619 24.3429 241.587 24.395L226.534 48.6086C226.471 48.7112 226.5 48.7625 226.621 48.7625H238.519C238.58 48.7624 238.639 48.7467 238.691 48.7167C238.743 48.6868 238.787 48.6438 238.817 48.592L247.853 32.8623C247.96 32.6792 248.065 32.68 248.17 32.8647L257.163 48.6133C257.181 48.6456 257.208 48.6724 257.24 48.6912C257.272 48.7099 257.308 48.7198 257.344 48.7198L269.504 48.7601C269.683 48.7617 269.726 48.6867 269.632 48.5352L254.545 24.2104C254.521 24.1719 254.509 24.1276 254.509 24.0826C254.509 24.0375 254.521 23.9933 254.545 23.9547L269.119 0.605162C269.152 0.55624 269.138 0.53178 269.078 0.53178H257.054C257.018 0.531691 256.983 0.541316 256.952 0.559643C256.921 0.577971 256.895 0.604325 256.877 0.635936L248.284 15.5821Z" stroke="#E01D2E" stroke-width="2"/>
<path d="M198.416 14.7164L193.236 29.0637C193.229 29.083 193.227 29.1036 193.23 29.1239C193.233 29.1442 193.241 29.1635 193.253 29.1802C193.265 29.1969 193.281 29.2105 193.3 29.2199C193.318 29.2292 193.339 29.2341 193.36 29.2341H203.598C203.614 29.2343 203.629 29.2309 203.642 29.224C203.655 29.2172 203.667 29.2073 203.676 29.195C203.685 29.1826 203.69 29.1684 203.692 29.1534C203.695 29.1383 203.693 29.123 203.688 29.1086L198.581 14.7164C198.526 14.5633 198.471 14.5633 198.416 14.7164Z" stroke="#E01D2E" stroke-width="2"/>
<path d="M22.1153 10.3224C21.0895 10.0226 20.0282 9.87343 18.9315 9.87501C16.4718 9.87975 13.9556 9.88211 11.3831 9.88211C11.3478 9.88211 11.3139 9.89583 11.289 9.92025C11.2766 9.93233 11.2668 9.94669 11.2601 9.96248C11.2534 9.97828 11.25 9.99521 11.25 10.0123L11.2645 23.7157C11.2645 23.7474 11.2772 23.7777 11.2998 23.8003C11.3224 23.8229 11.3532 23.8358 11.3855 23.8365C14.0645 23.8949 16.7435 23.8893 19.4226 23.8199C20.2468 23.7978 20.9226 23.7292 21.45 23.614C22.1968 23.4514 22.8444 23.2289 23.3927 22.9464C25.3347 21.9443 26.4758 20.4451 26.8161 18.4488C27.0226 17.2368 27.0048 16.0643 26.7629 14.9312C26.4935 13.6735 25.8734 12.6201 24.9024 11.7711C24.1702 11.1335 23.2411 10.6506 22.1153 10.3224Z" stroke="#E01D2E" stroke-width="2"/>
<path d="M24.9024 11.7721C25.8734 12.6211 26.4935 13.6745 26.7629 14.9322C27.0048 16.0653 27.0226 17.2378 26.8161 18.4498C26.4758 20.4461 25.3347 21.9453 23.3927 22.9474C22.8444 23.2299 22.1968 23.4524 21.45 23.6149C20.9226 23.7301 20.2468 23.7988 19.4226 23.8209C16.7435 23.8903 14.0645 23.8958 11.3855 23.8374C11.3532 23.8368 11.3224 23.8238 11.2998 23.8013C11.2772 23.7787 11.2645 23.7483 11.2645 23.7167L11.25 10.0133C11.25 9.97875 11.264 9.94564 11.289 9.92122C11.3139 9.89681 11.3478 9.88309 11.3831 9.88309C13.9556 9.88309 16.4718 9.88072 18.9315 9.87599C20.0282 9.87441 21.0895 10.0235 22.1153 10.3234C23.2411 10.6516 24.1702 11.1345 24.9024 11.7721Z" fill="white"/>
<path d="M198.416 14.7164C198.471 14.5633 198.526 14.5633 198.581 14.7164L203.688 29.1086C203.693 29.123 203.695 29.1383 203.692 29.1534C203.69 29.1684 203.685 29.1826 203.676 29.195C203.667 29.2073 203.655 29.2172 203.642 29.224C203.629 29.2309 203.614 29.2343 203.598 29.2341H193.36C193.339 29.2341 193.318 29.2292 193.3 29.2199C193.281 29.2105 193.265 29.1969 193.253 29.1802C193.241 29.1635 193.233 29.1442 193.23 29.1239C193.227 29.1036 193.229 29.083 193.236 29.0637L198.416 14.7164Z" fill="white"/>
<path d="M189.985 38.364C189.936 38.364 189.889 38.379 189.849 38.407C189.809 38.4349 189.779 38.4745 189.762 38.5202L186.131 48.6327C186.117 48.6707 186.092 48.7036 186.058 48.727C186.024 48.7503 185.984 48.7628 185.942 48.7629H175.142C175.122 48.763 175.103 48.7585 175.086 48.7496C175.069 48.7408 175.054 48.728 175.043 48.7122C175.032 48.6964 175.025 48.6781 175.022 48.6589C175.019 48.6397 175.022 48.6202 175.028 48.6019L193.384 0.41623C193.404 0.363423 193.44 0.317851 193.487 0.285675C193.534 0.253499 193.59 0.236273 193.648 0.236328L203.693 0.250531C203.729 0.25062 203.764 0.261348 203.794 0.281254C203.823 0.30116 203.845 0.329277 203.857 0.361787L222.244 48.5996C222.251 48.6179 222.254 48.6376 222.251 48.6571C222.249 48.6765 222.242 48.695 222.23 48.7111C222.219 48.7272 222.204 48.7403 222.186 48.7493C222.168 48.7584 222.148 48.763 222.128 48.7629H211.072C211.02 48.7629 210.97 48.7473 210.927 48.718C210.885 48.6888 210.853 48.6475 210.835 48.5996L207.148 38.5084C207.136 38.4786 207.116 38.4529 207.09 38.4347C207.063 38.4165 207.032 38.4067 207 38.4066L189.985 38.364ZM198.416 14.7162L193.236 29.0635C193.229 29.0828 193.227 29.1034 193.23 29.1237C193.233 29.144 193.241 29.1633 193.253 29.18C193.265 29.1967 193.281 29.2103 193.3 29.2197C193.318 29.2291 193.339 29.2339 193.36 29.2339H203.598C203.614 29.2341 203.629 29.2307 203.642 29.2239C203.655 29.217 203.667 29.2071 203.676 29.1948C203.685 29.1825 203.69 29.1682 203.692 29.1532C203.695 29.1381 203.693 29.1228 203.688 29.1085L198.581 14.7162C198.526 14.5631 198.471 14.5631 198.416 14.7162Z" fill="#E01D2E"/>
<path d="M11.2645 33.2126L11.25 48.6038C11.25 48.6459 11.2332 48.6862 11.2032 48.716C11.1733 48.7457 11.1327 48.7624 11.0903 48.7624L0.425814 48.7482C0.377048 48.7482 0.33028 48.7293 0.295798 48.6955C0.261315 48.6618 0.241943 48.616 0.241943 48.5683L0.25646 0.643008C0.256451 0.6196 0.261237 0.596428 0.270535 0.57486C0.279833 0.553293 0.293455 0.53377 0.310596 0.517441C0.327736 0.501111 0.348049 0.488309 0.370331 0.479789C0.392614 0.47127 0.416415 0.467205 0.44033 0.467837C3.52581 0.543586 6.56533 0.560946 9.55888 0.519915C11.1976 0.496243 12.8097 0.497035 14.3952 0.522284C16.3226 0.553846 18.0161 0.557001 19.4758 0.531751C21.9436 0.489143 24.3186 0.777936 26.6008 1.39813C28.3008 1.85893 29.7863 2.4594 31.0573 3.19953C34.4476 5.17373 36.6153 8.15082 37.5605 12.1308C38.2702 15.1197 38.2476 18.0715 37.4927 20.9863C37.0718 22.6086 36.4395 24.0502 35.596 25.3111C33.9734 27.7319 31.7169 29.5514 28.8266 30.7697C28.8037 30.7795 28.7832 30.7939 28.7664 30.812C28.7496 30.8301 28.7371 30.8514 28.7295 30.8746C28.7219 30.8977 28.7195 30.9221 28.7225 30.9461C28.7255 30.97 28.7338 30.993 28.7468 31.0135L39.4887 48.5707C39.5661 48.6985 39.529 48.7624 39.3774 48.7624L27.1113 48.7482C27.0744 48.7482 27.0382 48.7388 27.0064 48.7209C26.9745 48.7031 26.9481 48.6774 26.9298 48.6464L17.6661 33.2245C17.6397 33.1806 17.6024 33.1442 17.5579 33.1188C17.5133 33.0935 17.4631 33.0802 17.4121 33.0801L11.3879 33.0943C11.3552 33.0943 11.3238 33.1067 11.3007 33.1289C11.2775 33.1511 11.2645 33.1812 11.2645 33.2126ZM22.1153 10.3223C21.0895 10.0224 20.0282 9.87331 18.9315 9.87489C16.4718 9.87963 13.9557 9.88199 11.3831 9.88199C11.3478 9.88199 11.3139 9.89571 11.289 9.92013C11.2766 9.93221 11.2668 9.94657 11.2601 9.96236C11.2534 9.97816 11.25 9.99509 11.25 10.0122L11.2645 23.7156C11.2645 23.7472 11.2772 23.7776 11.2998 23.8002C11.3224 23.8227 11.3532 23.8357 11.3855 23.8363C14.0645 23.8947 16.7436 23.8892 19.4226 23.8198C20.2468 23.7977 20.9226 23.729 21.45 23.6138C22.1968 23.4513 22.8444 23.2288 23.3927 22.9463C25.3347 21.9442 26.4758 20.445 26.8161 18.4487C27.0226 17.2367 27.0048 16.0642 26.7629 14.9311C26.4936 13.6734 25.8734 12.62 24.9024 11.771C24.1702 11.1334 23.2411 10.6505 22.1153 10.3223Z" fill="#E01D2E"/>
<path d="M60.7403 29.3093V39.2513C60.7403 39.294 60.7579 39.3349 60.7892 39.3651C60.8205 39.3953 60.863 39.4123 60.9073 39.4123H75.3339C75.3499 39.412 75.3657 39.4159 75.3797 39.4235C75.3937 39.4311 75.4054 39.4421 75.4138 39.4555C75.4221 39.4689 75.4267 39.4842 75.4271 39.4999C75.4275 39.5155 75.4237 39.531 75.4161 39.5448L70.5435 48.6465C70.5247 48.6815 70.4967 48.7107 70.4626 48.7311C70.4285 48.7516 70.3896 48.7624 70.35 48.7625H49.9403C49.8973 48.7625 49.8561 48.7458 49.8257 48.7161C49.7953 48.6863 49.7782 48.646 49.7782 48.6039L49.7927 0.664395C49.7927 0.633004 49.8055 0.602901 49.8282 0.580705C49.8509 0.558509 49.8816 0.546037 49.9137 0.546037C56.1589 0.500272 62.404 0.475812 68.6492 0.472656C69.7379 0.472656 71.3508 0.48607 73.4879 0.512897C76.6573 0.55235 79.8089 0.544462 82.9427 0.489228C82.964 0.488919 82.9852 0.492774 83.005 0.500577C83.0247 0.50838 83.0428 0.519976 83.0581 0.534703C83.0733 0.54943 83.0856 0.567003 83.094 0.586412C83.1024 0.605821 83.1069 0.62669 83.1073 0.647827L83.1484 9.72821C83.1487 9.74831 83.1449 9.76826 83.1373 9.78691C83.1297 9.80557 83.1183 9.82255 83.1039 9.83687C83.0895 9.85119 83.0723 9.86256 83.0534 9.87032C83.0344 9.87808 83.0141 9.88208 82.9936 9.88208H60.9363C60.8805 9.88208 60.8269 9.90378 60.7875 9.9424C60.748 9.98102 60.7258 10.0334 60.7258 10.088V19.6324C60.7258 19.6675 60.7401 19.7012 60.7655 19.7261C60.7909 19.751 60.8254 19.7649 60.8613 19.7649H80.2815C80.3027 19.7649 80.3238 19.769 80.3435 19.777C80.3632 19.785 80.381 19.7966 80.3961 19.8114C80.4111 19.8261 80.4231 19.8436 80.4312 19.8628C80.4394 19.8821 80.4436 19.9027 80.4436 19.9235L80.429 28.9471C80.429 28.9917 80.4107 29.0344 80.378 29.0659C80.3454 29.0975 80.301 29.1152 80.2548 29.1152L60.8637 29.1885C60.831 29.1885 60.7996 29.2013 60.7765 29.2239C60.7533 29.2466 60.7403 29.2773 60.7403 29.3093Z" fill="#E01D2E"/>
<path d="M155.731 18.9605C155.731 18.8548 155.698 18.8437 155.632 18.9273L144.099 33.7078C144.068 33.748 144.027 33.7806 143.981 33.8031C143.934 33.8256 143.883 33.8374 143.832 33.8377C143.78 33.8379 143.729 33.8265 143.683 33.8044C143.636 33.7823 143.596 33.7501 143.565 33.7102L132.155 19.1664C132.045 19.0276 131.99 19.0457 131.99 19.2209L131.976 48.5404C131.976 48.5696 131.97 48.5985 131.959 48.6255C131.947 48.6525 131.93 48.6771 131.909 48.6977C131.888 48.7184 131.863 48.7348 131.835 48.746C131.808 48.7571 131.778 48.7629 131.748 48.7629H121.517C121.477 48.7629 121.437 48.7551 121.399 48.74C121.362 48.7249 121.328 48.7028 121.3 48.6749C121.271 48.6469 121.249 48.6138 121.233 48.5773C121.218 48.5408 121.21 48.5018 121.21 48.4623C121.21 39.8048 121.21 31.2058 121.21 22.6651C121.21 22.0843 121.29 21.5746 121.449 21.1359C121.472 21.0775 121.71 20.6278 122.163 19.7866C125.608 13.3953 129.055 6.9835 132.503 0.551164C132.512 0.535056 132.526 0.521419 132.542 0.511533C132.557 0.501648 132.576 0.495838 132.594 0.494655C132.613 0.493471 132.631 0.49695 132.648 0.504764C132.665 0.512579 132.679 0.524474 132.69 0.539328L143.816 15.9731C143.828 15.9898 143.844 16.0033 143.862 16.0127C143.88 16.022 143.901 16.0269 143.921 16.0269C143.942 16.0269 143.962 16.022 143.981 16.0127C143.999 16.0033 144.015 15.9898 144.027 15.9731L154.87 0.747638C154.933 0.658849 155.018 0.586692 155.117 0.537558C155.216 0.488423 155.325 0.463828 155.436 0.465946C157.92 0.52907 160.322 0.544063 162.641 0.510923C163.851 0.493564 165.119 0.502244 166.447 0.536962C166.48 0.537582 166.512 0.551072 166.536 0.574534C166.559 0.597995 166.573 0.629553 166.573 0.66242V48.5451C166.573 48.5737 166.567 48.602 166.556 48.6285C166.544 48.6549 166.528 48.6789 166.507 48.6991C166.487 48.7193 166.462 48.7354 166.435 48.7463C166.408 48.7573 166.379 48.7629 166.35 48.7629H155.932C155.887 48.7629 155.843 48.7454 155.811 48.7144C155.779 48.6833 155.76 48.6411 155.76 48.5972L155.731 18.9605Z" fill="#E01D2E"/>
<path d="M248.284 15.5821L256.877 0.635936C256.895 0.604325 256.921 0.577971 256.952 0.559643C256.983 0.541316 257.018 0.531691 257.054 0.53178H269.078C269.138 0.53178 269.152 0.55624 269.119 0.605162L254.545 23.9547C254.521 23.9933 254.509 24.0375 254.509 24.0826C254.509 24.1276 254.521 24.1719 254.545 24.2104L269.632 48.5352C269.726 48.6867 269.683 48.7617 269.504 48.7601L257.344 48.7198C257.308 48.7198 257.272 48.7099 257.24 48.6912C257.208 48.6724 257.181 48.6456 257.163 48.6133L248.17 32.8647C248.065 32.68 247.96 32.6792 247.853 32.8623L238.817 48.592C238.787 48.6438 238.743 48.6868 238.691 48.7167C238.639 48.7467 238.58 48.7624 238.519 48.7625H226.621C226.5 48.7625 226.471 48.7112 226.534 48.6086L241.587 24.395C241.619 24.3429 241.636 24.2831 241.636 24.2222C241.636 24.1613 241.619 24.1015 241.587 24.0494L227.24 0.692745C227.198 0.624887 227.218 0.590171 227.298 0.588593L239.485 0.517578C239.541 0.517553 239.597 0.532457 239.646 0.560752C239.694 0.589047 239.735 0.629707 239.763 0.678543L248.115 15.5798C248.171 15.6792 248.227 15.68 248.284 15.5821Z" fill="#E01D2E"/>
<path d="M189.985 38.364C189.936 38.364 189.889 38.379 189.849 38.407C189.809 38.4349 189.779 38.4745 189.762 38.5202L186.131 48.6327C186.117 48.6707 186.092 48.7036 186.058 48.727C186.024 48.7503 185.984 48.7628 185.942 48.7629H175.142C175.122 48.763 175.103 48.7585 175.086 48.7496C175.069 48.7408 175.054 48.728 175.043 48.7122C175.032 48.6964 175.025 48.6781 175.022 48.6589C175.019 48.6397 175.022 48.6202 175.028 48.6019L193.384 0.41623C193.404 0.363423 193.44 0.317851 193.487 0.285675C193.534 0.253499 193.59 0.236273 193.648 0.236328L203.693 0.250531C203.729 0.25062 203.764 0.261348 203.794 0.281254C203.823 0.30116 203.845 0.329277 203.857 0.361787L222.244 48.5996C222.251 48.6179 222.254 48.6376 222.251 48.6571C222.249 48.6765 222.242 48.695 222.23 48.7111C222.219 48.7272 222.204 48.7403 222.186 48.7493C222.168 48.7584 222.148 48.763 222.128 48.7629H211.072C211.02 48.7629 210.97 48.7473 210.927 48.718C210.885 48.6888 210.853 48.6475 210.835 48.5996L207.148 38.5084C207.136 38.4786 207.116 38.4529 207.09 38.4347C207.063 38.4165 207.032 38.4067 207 38.4066L189.985 38.364ZM198.416 14.7162L193.236 29.0635C193.229 29.0828 193.227 29.1034 193.23 29.1237C193.233 29.144 193.241 29.1633 193.253 29.18C193.265 29.1967 193.281 29.2103 193.3 29.2197C193.318 29.2291 193.339 29.2339 193.36 29.2339H203.598C203.614 29.2341 203.629 29.2307 203.642 29.2239C203.655 29.217 203.667 29.2071 203.676 29.1948C203.685 29.1825 203.69 29.1682 203.692 29.1532C203.695 29.1381 203.693 29.1228 203.688 29.1085L198.581 14.7162C198.526 14.5631 198.471 14.5631 198.416 14.7162Z" fill="#E01D2E"/>
<path d="M11.2645 33.2126L11.25 48.6038C11.25 48.6459 11.2332 48.6862 11.2032 48.716C11.1733 48.7457 11.1327 48.7624 11.0903 48.7624L0.425814 48.7482C0.377048 48.7482 0.33028 48.7293 0.295798 48.6955C0.261315 48.6618 0.241943 48.616 0.241943 48.5683L0.25646 0.643008C0.256451 0.6196 0.261237 0.596428 0.270535 0.57486C0.279833 0.553293 0.293455 0.53377 0.310596 0.517441C0.327736 0.501111 0.348049 0.488309 0.370331 0.479789C0.392614 0.47127 0.416415 0.467205 0.44033 0.467837C3.52581 0.543586 6.56533 0.560946 9.55888 0.519915C11.1976 0.496243 12.8097 0.497035 14.3952 0.522284C16.3226 0.553846 18.0161 0.557001 19.4758 0.531751C21.9436 0.489143 24.3186 0.777936 26.6008 1.39813C28.3008 1.85893 29.7863 2.4594 31.0573 3.19953C34.4476 5.17373 36.6153 8.15082 37.5605 12.1308C38.2702 15.1197 38.2476 18.0715 37.4927 20.9863C37.0718 22.6086 36.4395 24.0502 35.596 25.3111C33.9734 27.7319 31.7169 29.5514 28.8266 30.7697C28.8037 30.7795 28.7832 30.7939 28.7664 30.812C28.7496 30.8301 28.7371 30.8514 28.7295 30.8746C28.7219 30.8977 28.7195 30.9221 28.7225 30.9461C28.7255 30.97 28.7338 30.993 28.7468 31.0135L39.4887 48.5707C39.5661 48.6985 39.529 48.7624 39.3774 48.7624L27.1113 48.7482C27.0744 48.7482 27.0382 48.7388 27.0064 48.7209C26.9745 48.7031 26.9481 48.6774 26.9298 48.6464L17.6661 33.2245C17.6397 33.1806 17.6024 33.1442 17.5579 33.1188C17.5133 33.0935 17.4631 33.0802 17.4121 33.0801L11.3879 33.0943C11.3552 33.0943 11.3238 33.1067 11.3007 33.1289C11.2775 33.1511 11.2645 33.1812 11.2645 33.2126ZM22.1153 10.3223C21.0895 10.0224 20.0282 9.87331 18.9315 9.87489C16.4718 9.87963 13.9557 9.88199 11.3831 9.88199C11.3478 9.88199 11.3139 9.89571 11.289 9.92013C11.2766 9.93221 11.2668 9.94657 11.2601 9.96236C11.2534 9.97816 11.25 9.99509 11.25 10.0122L11.2645 23.7156C11.2645 23.7472 11.2772 23.7776 11.2998 23.8002C11.3224 23.8227 11.3532 23.8357 11.3855 23.8363C14.0645 23.8947 16.7436 23.8892 19.4226 23.8198C20.2468 23.7977 20.9226 23.729 21.45 23.6138C22.1968 23.4513 22.8444 23.2288 23.3927 22.9463C25.3347 21.9442 26.4758 20.445 26.8161 18.4487C27.0226 17.2367 27.0048 16.0642 26.7629 14.9311C26.4936 13.6734 25.8734 12.62 24.9024 11.771C24.1702 11.1334 23.2411 10.6505 22.1153 10.3223Z" fill="#E01D2E"/>
<path d="M60.7403 29.3093V39.2513C60.7403 39.294 60.7579 39.3349 60.7892 39.3651C60.8205 39.3953 60.863 39.4123 60.9073 39.4123H75.3339C75.3499 39.412 75.3657 39.4159 75.3797 39.4235C75.3937 39.4311 75.4054 39.4421 75.4138 39.4555C75.4221 39.4689 75.4267 39.4842 75.4271 39.4999C75.4275 39.5155 75.4237 39.531 75.4161 39.5448L70.5435 48.6465C70.5247 48.6815 70.4967 48.7107 70.4626 48.7311C70.4285 48.7516 70.3896 48.7624 70.35 48.7625H49.9403C49.8973 48.7625 49.8561 48.7458 49.8257 48.7161C49.7953 48.6863 49.7782 48.646 49.7782 48.6039L49.7927 0.664395C49.7927 0.633004 49.8055 0.602901 49.8282 0.580705C49.8509 0.558509 49.8816 0.546037 49.9137 0.546037C56.1589 0.500272 62.404 0.475812 68.6492 0.472656C69.7379 0.472656 71.3508 0.48607 73.4879 0.512897C76.6573 0.55235 79.8089 0.544462 82.9427 0.489228C82.964 0.488919 82.9852 0.492774 83.005 0.500577C83.0247 0.50838 83.0428 0.519976 83.0581 0.534703C83.0733 0.54943 83.0856 0.567003 83.094 0.586412C83.1024 0.605821 83.1069 0.62669 83.1073 0.647827L83.1484 9.72821C83.1487 9.74831 83.1449 9.76826 83.1373 9.78691C83.1297 9.80557 83.1183 9.82255 83.1039 9.83687C83.0895 9.85119 83.0723 9.86256 83.0534 9.87032C83.0344 9.87808 83.0141 9.88208 82.9936 9.88208H60.9363C60.8805 9.88208 60.8269 9.90378 60.7875 9.9424C60.748 9.98102 60.7258 10.0334 60.7258 10.088V19.6324C60.7258 19.6675 60.7401 19.7012 60.7655 19.7261C60.7909 19.751 60.8254 19.7649 60.8613 19.7649H80.2815C80.3027 19.7649 80.3238 19.769 80.3435 19.777C80.3632 19.785 80.381 19.7966 80.3961 19.8114C80.4111 19.8261 80.4231 19.8436 80.4312 19.8628C80.4394 19.8821 80.4436 19.9027 80.4436 19.9235L80.429 28.9471C80.429 28.9917 80.4107 29.0344 80.378 29.0659C80.3454 29.0975 80.301 29.1152 80.2548 29.1152L60.8637 29.1885C60.831 29.1885 60.7996 29.2013 60.7765 29.2239C60.7533 29.2466 60.7403 29.2773 60.7403 29.3093Z" fill="#E01D2E"/>
<path d="M155.731 18.9605C155.731 18.8548 155.698 18.8437 155.632 18.9273L144.099 33.7078C144.068 33.748 144.027 33.7806 143.981 33.8031C143.934 33.8256 143.883 33.8374 143.832 33.8377C143.78 33.8379 143.729 33.8265 143.683 33.8044C143.636 33.7823 143.596 33.7501 143.565 33.7102L132.155 19.1664C132.045 19.0276 131.99 19.0457 131.99 19.2209L131.976 48.5404C131.976 48.5696 131.97 48.5985 131.959 48.6255C131.947 48.6525 131.93 48.6771 131.909 48.6977C131.888 48.7184 131.863 48.7348 131.835 48.746C131.808 48.7571 131.778 48.7629 131.748 48.7629H121.517C121.477 48.7629 121.437 48.7551 121.399 48.74C121.362 48.7249 121.328 48.7028 121.3 48.6749C121.271 48.6469 121.249 48.6138 121.233 48.5773C121.218 48.5408 121.21 48.5018 121.21 48.4623C121.21 39.8048 121.21 31.2058 121.21 22.6651C121.21 22.0843 121.29 21.5746 121.449 21.1359C121.472 21.0775 121.71 20.6278 122.163 19.7866C125.608 13.3953 129.055 6.9835 132.503 0.551164C132.512 0.535056 132.526 0.521419 132.542 0.511533C132.557 0.501648 132.576 0.495838 132.594 0.494655C132.613 0.493471 132.631 0.49695 132.648 0.504764C132.665 0.512579 132.679 0.524474 132.69 0.539328L143.816 15.9731C143.828 15.9898 143.844 16.0033 143.862 16.0127C143.88 16.022 143.901 16.0269 143.921 16.0269C143.942 16.0269 143.962 16.022 143.981 16.0127C143.999 16.0033 144.015 15.9898 144.027 15.9731L154.87 0.747638C154.933 0.658849 155.018 0.586692 155.117 0.537558C155.216 0.488423 155.325 0.463828 155.436 0.465946C157.92 0.52907 160.322 0.544063 162.641 0.510923C163.851 0.493564 165.119 0.502244 166.447 0.536962C166.48 0.537582 166.512 0.551072 166.536 0.574534C166.559 0.597995 166.573 0.629553 166.573 0.66242V48.5451C166.573 48.5737 166.567 48.602 166.556 48.6285C166.544 48.6549 166.528 48.6789 166.507 48.6991C166.487 48.7193 166.462 48.7354 166.435 48.7463C166.408 48.7573 166.379 48.7629 166.35 48.7629H155.932C155.887 48.7629 155.843 48.7454 155.811 48.7144C155.779 48.6833 155.76 48.6411 155.76 48.5972L155.731 18.9605Z" fill="#E01D2E"/>
<path d="M248.284 15.5821L256.877 0.635936C256.895 0.604325 256.921 0.577971 256.952 0.559643C256.983 0.541316 257.018 0.531691 257.054 0.53178H269.078C269.138 0.53178 269.152 0.55624 269.119 0.605162L254.545 23.9547C254.521 23.9933 254.509 24.0375 254.509 24.0826C254.509 24.1276 254.521 24.1719 254.545 24.2104L269.632 48.5352C269.726 48.6867 269.683 48.7617 269.504 48.7601L257.344 48.7198C257.308 48.7198 257.272 48.7099 257.24 48.6912C257.208 48.6724 257.181 48.6456 257.163 48.6133L248.17 32.8647C248.065 32.68 247.96 32.6792 247.853 32.8623L238.817 48.592C238.787 48.6438 238.743 48.6868 238.691 48.7167C238.639 48.7467 238.58 48.7624 238.519 48.7625H226.621C226.5 48.7625 226.471 48.7112 226.534 48.6086L241.587 24.395C241.619 24.3429 241.636 24.2831 241.636 24.2222C241.636 24.1613 241.619 24.1015 241.587 24.0494L227.24 0.692745C227.198 0.624887 227.218 0.590171 227.298 0.588593L239.485 0.517578C239.541 0.517553 239.597 0.532457 239.646 0.560752C239.694 0.589047 239.735 0.629707 239.763 0.678543L248.115 15.5798C248.171 15.6792 248.227 15.68 248.284 15.5821Z" fill="#E01D2E"/>
<path d="M81.8831 48.7185C81.8713 48.7188 81.8598 48.716 81.8496 48.7104C81.8393 48.7048 81.8307 48.6966 81.8246 48.6866C81.8185 48.6766 81.8151 48.6651 81.8148 48.6533C81.8144 48.6415 81.8171 48.6297 81.8226 48.6191L107.681 0.594386C107.698 0.562906 107.723 0.536552 107.755 0.518188C107.786 0.499824 107.823 0.490158 107.86 0.490235H120.832C120.858 0.490329 120.884 0.496883 120.906 0.509263C120.929 0.521643 120.948 0.539426 120.961 0.560878C120.974 0.58233 120.982 0.606722 120.983 0.631677C120.983 0.656631 120.977 0.681299 120.965 0.703277L95.2427 48.5694C95.2112 48.6274 95.1643 48.6758 95.1072 48.7096C95.0501 48.7434 94.9849 48.7612 94.9185 48.7612L81.8831 48.7185Z" fill="#014E9C"/>
</g>
<defs>
<clipPath id="clip0_2455_15385">
<rect width="270" height="49" fill="white"/>
</clipPath>
</defs>
</svg>
