<svg width="34" height="22" viewBox="0 0 34 22" fill="none" xmlns="http://www.w3.org/2000/svg">
<path fill-rule="evenodd" clip-rule="evenodd" d="M32.4859 0.0908203H1.4543C0.85 0.0908203 0.471484 0.181814 0.265625 0.370301C0.0863281 0.584785 0 0.93576 0 1.45572V3.39908V4.96547V16.1642V17.8021V19.6739C0 20.6034 0.491406 21.0843 1.4543 21.0843H32.4859C33.4953 21.0843 34 20.6034 34 19.6739V17.8021V16.1642V4.95897V3.39258V1.44922C34 0.532789 33.4953 0.0908203 32.4859 0.0908203Z" fill="#DFDFE0"/>
<path d="M32.4859 21.0845C33.4953 21.0845 34 20.6035 34 19.6741V17.8022V16.1644V11.8682C34 11.8682 24.7761 18.2377 7.88904 21.091H32.4859V21.0845Z" fill="#F58220"/>
<path d="M17.4784 4.94531C16.396 4.94531 15.5194 5.77075 15.5194 6.79118C15.5194 7.8766 16.3561 8.68905 17.4784 8.68905C18.5675 8.68905 19.4307 7.8701 19.4307 6.81718C19.4307 5.77075 18.5741 4.94531 17.4784 4.94531Z" fill="url(#paint0_radial_281_7501)"/>
<path d="M6.36177 5.01074H5.30591V8.60499H6.35513C6.91294 8.60499 7.31138 8.475 7.66333 8.18902C8.08169 7.85104 8.32739 7.33758 8.32739 6.81111C8.32739 5.75169 7.51724 5.01074 6.36177 5.01074ZM7.19849 7.71455C6.97271 7.91603 6.68052 8.00053 6.21567 8.00053H6.0231V5.6217H6.21567C6.68052 5.6217 6.95942 5.69969 7.19849 5.91418C7.44419 6.12866 7.59692 6.46664 7.59692 6.81111C7.59028 7.15559 7.44419 7.50006 7.19849 7.71455Z" fill="#081A23"/>
<path d="M9.37686 5.01074H8.65967V8.60499H9.37686V5.01074Z" fill="#081A23"/>
<path d="M11.1299 6.39538C10.6982 6.23939 10.5721 6.1354 10.5721 5.94041C10.5721 5.71293 10.7979 5.54394 11.1033 5.54394C11.3158 5.54394 11.4951 5.62844 11.6811 5.83642L12.0529 5.35546C11.7475 5.08898 11.3756 4.95898 10.9705 4.95898C10.3197 4.95898 9.82832 5.40095 9.82832 5.98591C9.82832 6.47988 10.0607 6.73336 10.7314 6.97384C11.0104 7.07133 11.1564 7.13633 11.2295 7.18183C11.3756 7.27282 11.442 7.40281 11.442 7.5523C11.442 7.84478 11.2029 8.05926 10.8842 8.05926C10.5455 8.05926 10.2666 7.89028 10.1006 7.5783L9.63574 8.01377C9.96777 8.48823 10.3596 8.69622 10.9107 8.69622C11.6545 8.69622 12.1791 8.20875 12.1791 7.5133C12.1857 6.94134 11.9467 6.68786 11.1299 6.39538Z" fill="#081A23"/>
<path d="M12.4116 6.81098C12.4116 7.87041 13.2616 8.68935 14.3507 8.68935C14.6562 8.68935 14.9218 8.63085 15.2472 8.48136V7.65592C14.9616 7.9354 14.7093 8.05239 14.3839 8.05239C13.6601 8.05239 13.1487 7.53893 13.1487 6.81098C13.1487 6.12203 13.68 5.57607 14.3507 5.57607C14.6894 5.57607 14.9483 5.69306 15.2472 5.97904V5.1536C14.9351 4.99761 14.6761 4.93262 14.364 4.93262C13.2815 4.93262 12.4116 5.77106 12.4116 6.81098Z" fill="#081A23"/>
<path d="M21.051 7.42857L20.0749 5.01074H19.2913L20.8518 8.70248H21.237L22.8241 5.01074H22.0471L21.051 7.42857Z" fill="#081A23"/>
<path d="M23.1494 8.61149H25.1814V8.00053H23.8666V7.0321H25.1283V6.42114H23.8666V5.6217H25.1814V5.01074H23.1494V8.61149Z" fill="#081A23"/>
<path d="M28.017 6.077C28.017 5.40105 27.5455 5.01758 26.7155 5.01758H25.653V8.61182H26.3701V7.16892H26.4631L27.4526 8.61182H28.3358L27.1803 7.09743C27.7182 6.98694 28.017 6.62296 28.017 6.077ZM26.576 6.66846H26.3701V5.57654H26.5893C27.0342 5.57654 27.2799 5.75853 27.2799 6.1095C27.2799 6.47347 27.0342 6.66846 26.576 6.66846Z" fill="#081A23"/>
<path d="M28.5217 5.28402C28.5217 5.21902 28.4818 5.18652 28.4021 5.18652H28.2959V5.505H28.3756V5.38151L28.4686 5.505H28.5615L28.4553 5.37501C28.4951 5.35551 28.5217 5.32301 28.5217 5.28402ZM28.3889 5.32301H28.3756V5.23852H28.3889C28.4287 5.23852 28.4486 5.25152 28.4486 5.27752C28.442 5.31002 28.4221 5.32301 28.3889 5.32301Z" fill="#231F20"/>
<path d="M28.4154 5.0625C28.2561 5.0625 28.1299 5.18599 28.1299 5.34198C28.1299 5.49797 28.2561 5.62146 28.4154 5.62146C28.5682 5.62146 28.6943 5.49797 28.6943 5.34198C28.6943 5.19249 28.5682 5.0625 28.4154 5.0625ZM28.4154 5.56946C28.2893 5.56946 28.1896 5.46547 28.1896 5.34198C28.1896 5.21849 28.2893 5.1145 28.4154 5.1145C28.535 5.1145 28.6412 5.21849 28.6412 5.34198C28.6346 5.46547 28.535 5.56946 28.4154 5.56946Z" fill="#231F20"/>
<path d="M11.7275 9.55371L12.6838 10.5351V9.60571H12.8232V10.8601L11.867 9.87869V10.8081H11.7275V9.55371Z" fill="#231F20"/>
<path d="M11.7144 9.55398V10.8214H11.8737C11.8737 10.8214 11.8737 9.96995 11.8737 9.91146C11.9136 9.95695 12.83 10.8929 12.83 10.8929V9.59298H12.6706C12.6706 9.59298 12.6706 10.4444 12.6706 10.5029C12.6308 10.4574 11.7144 9.52148 11.7144 9.52148V9.55398ZM11.7409 9.58648C11.7808 9.63198 12.6972 10.5679 12.6972 10.5679C12.6972 10.5679 12.6972 9.63848 12.6972 9.61898C12.7171 9.61898 12.7901 9.61898 12.8101 9.61898C12.8101 9.64498 12.8101 10.7759 12.8101 10.8344C12.7702 10.7889 11.8538 9.85296 11.8538 9.85296C11.8538 9.85296 11.8538 10.7759 11.8538 10.7954C11.8339 10.7954 11.7608 10.7954 11.7409 10.7954C11.7409 10.7694 11.7409 9.64498 11.7409 9.58648Z" fill="#231F20"/>
<path d="M13.4873 9.60547H14.1248V9.72896H13.6268V10.0864H14.1115V10.2099H13.6268V10.6844H14.1248V10.8079H13.4873V9.60547Z" fill="#231F20"/>
<path d="M14.1249 9.59277H13.4741V10.8212H14.1382V10.6717C14.1382 10.6717 13.6601 10.6717 13.6401 10.6717C13.6401 10.6457 13.6401 10.2492 13.6401 10.2232C13.6667 10.2232 14.1249 10.2232 14.1249 10.2232V10.0737C14.1249 10.0737 13.6667 10.0737 13.6401 10.0737C13.6401 10.0477 13.6401 9.76176 13.6401 9.74226C13.6667 9.74226 14.1382 9.74226 14.1382 9.74226V9.59277H14.1249ZM14.1116 9.61877C14.1116 9.63827 14.1116 9.70327 14.1116 9.71627C14.0851 9.71627 13.6136 9.71627 13.6136 9.71627V10.0997C13.6136 10.0997 14.0784 10.0997 14.0983 10.0997C14.0983 10.1192 14.0983 10.1777 14.0983 10.1972C14.0718 10.1972 13.6136 10.1972 13.6136 10.1972V10.6912C13.6136 10.6912 14.0917 10.6912 14.1116 10.6912C14.1116 10.7107 14.1116 10.7757 14.1116 10.7887C14.0851 10.7887 13.5272 10.7887 13.5007 10.7887C13.5007 10.7627 13.5007 9.63827 13.5007 9.61227C13.5206 9.61877 14.0851 9.61877 14.1116 9.61877Z" fill="#231F20"/>
<path d="M15.0877 10.8079H14.9482V9.72896H14.6494V9.60547H15.3799V9.72896H15.0811V10.8079H15.0877Z" fill="#231F20"/>
<path d="M15.3932 9.59277H14.6494V9.74226C14.6494 9.74226 14.9217 9.74226 14.9482 9.74226C14.9482 9.76826 14.9482 10.8212 14.9482 10.8212H15.1076C15.1076 10.8212 15.1076 9.76826 15.1076 9.74226C15.1342 9.74226 15.4064 9.74226 15.4064 9.74226V9.59277H15.3932ZM15.3799 9.61877C15.3799 9.63827 15.3799 9.70327 15.3799 9.71627C15.36 9.71627 15.0811 9.71627 15.0811 9.71627C15.0811 9.71627 15.0811 10.7692 15.0811 10.7952C15.0611 10.7952 14.9881 10.7952 14.9682 10.7952C14.9682 10.7692 14.9682 9.71627 14.9682 9.71627C14.9682 9.71627 14.6959 9.71627 14.6693 9.71627C14.6693 9.69677 14.6693 9.63177 14.6693 9.61877C14.6959 9.61877 15.3533 9.61877 15.3799 9.61877Z" fill="#231F20"/>
<path d="M16.303 10.5088L16.7015 9.54688L17.0999 10.5088L17.4253 9.60537H17.5714L17.0999 10.8728L16.7015 9.90435L16.303 10.8728L15.8315 9.60537H15.9776L16.303 10.5088Z" fill="#231F20"/>
<path d="M16.6948 9.54065C16.6948 9.54065 16.3295 10.4181 16.3096 10.4766C16.2897 10.4181 15.9975 9.59914 15.9975 9.59914H15.8248L16.3162 10.912C16.3162 10.912 16.6948 9.99561 16.7147 9.94362C16.7346 10.0021 17.1131 10.912 17.1131 10.912L17.6045 9.59914H17.4319C17.4319 9.59914 17.1397 10.4181 17.1198 10.4766C17.0932 10.4181 16.7213 9.51465 16.7213 9.51465L16.6948 9.54065ZM16.3162 10.5091C16.3162 10.5091 16.6815 9.62514 16.7014 9.57314C16.7213 9.62514 17.0998 10.5416 17.0998 10.5416C17.0998 10.5416 17.4252 9.63164 17.4319 9.61864C17.4451 9.61864 17.5248 9.61864 17.5514 9.61864C17.5381 9.65114 17.1198 10.7756 17.0998 10.8341C17.0733 10.7756 16.7014 9.86562 16.7014 9.86562C16.7014 9.86562 16.3295 10.7756 16.303 10.8341C16.283 10.7756 15.8647 9.65114 15.8514 9.61864C15.878 9.61864 15.9576 9.61864 15.9709 9.61864C15.9776 9.63814 16.303 10.5416 16.303 10.5416L16.3162 10.5091Z" fill="#231F20"/>
<path d="M19.3443 10.2099C19.3443 10.5544 19.0521 10.8338 18.7068 10.8338C18.3549 10.8338 18.0693 10.5609 18.0693 10.2099C18.0693 9.86542 18.3615 9.58594 18.7068 9.58594C19.0521 9.58594 19.3443 9.86542 19.3443 10.2099ZM18.1955 10.2034C18.1955 10.4764 18.4213 10.7039 18.7002 10.7039C18.9791 10.7039 19.2049 10.4764 19.2049 10.2034C19.2049 9.93041 18.9857 9.70293 18.7002 9.70293C18.4213 9.70943 18.1955 9.93041 18.1955 10.2034Z" fill="#231F20"/>
<path d="M18.0494 10.2102C18.0494 10.5612 18.3416 10.8407 18.7002 10.8407C19.0588 10.8407 19.351 10.5547 19.351 10.2102C19.351 9.85922 19.0588 9.57324 18.7002 9.57324C18.3416 9.57324 18.0494 9.85922 18.0494 10.2102ZM18.076 10.2102C18.076 9.87222 18.3549 9.59924 18.7069 9.59924C19.0522 9.59924 19.3377 9.87222 19.3377 10.2102C19.3377 10.5482 19.0522 10.8212 18.7069 10.8212C18.3549 10.8147 18.076 10.5417 18.076 10.2102Z" fill="#231F20"/>
<path d="M18.1823 10.2042C18.1823 10.4837 18.4147 10.7112 18.7002 10.7112C18.9858 10.7112 19.2182 10.4837 19.2182 10.2042C19.2182 9.92475 18.9858 9.69727 18.7002 9.69727C18.4147 9.69727 18.1823 9.92475 18.1823 10.2042ZM18.2088 10.2042C18.2088 9.93775 18.428 9.71676 18.7002 9.71676C18.9725 9.71676 19.1916 9.93775 19.1916 10.2042C19.1916 10.4707 18.9725 10.6917 18.7002 10.6917C18.4346 10.6917 18.2088 10.4772 18.2088 10.2042Z" fill="#231F20"/>
<path d="M20.0749 10.8079H19.9354V9.60547H20.1147C20.3471 9.60547 20.5663 9.66396 20.5663 9.93695C20.5663 10.1189 20.4468 10.2554 20.2608 10.2684L20.6526 10.8079H20.4866L20.1147 10.2814H20.0815V10.8079H20.0749ZM20.0749 10.1644H20.1147C20.2675 10.1644 20.4268 10.1384 20.4268 9.94994C20.4268 9.75496 20.2807 9.73546 20.1147 9.73546H20.0749V10.1644Z" fill="#231F20"/>
<path d="M19.9354 9.59277H19.9221V10.8212H20.0815C20.0815 10.8212 20.0815 10.3142 20.0815 10.2947C20.0881 10.2947 20.1014 10.2947 20.1014 10.2947C20.1014 10.3012 20.46 10.8147 20.46 10.8147L20.6393 10.8212H20.6659C20.6659 10.8212 20.294 10.3012 20.2741 10.2752C20.4534 10.2492 20.5729 10.1192 20.5729 9.93725C20.5729 9.70327 20.4202 9.59277 20.1081 9.59277H19.9354ZM20.1147 9.61877C20.4135 9.61877 20.553 9.72276 20.553 9.93725C20.553 10.1192 20.4401 10.2427 20.2542 10.2557H20.2342C20.2342 10.2557 20.5995 10.7562 20.626 10.7952C20.5928 10.7952 20.4799 10.7952 20.4799 10.7952C20.4799 10.7887 20.1213 10.2752 20.1213 10.2752L20.0749 10.2687H20.0616C20.0616 10.2687 20.0616 10.7757 20.0616 10.7952C20.0417 10.7952 19.9686 10.7952 19.9487 10.7952C19.9487 10.7692 19.9487 9.64477 19.9487 9.61877C19.9686 9.61877 20.1147 9.61877 20.1147 9.61877Z" fill="#231F20"/>
<path d="M20.0748 9.7168H20.0615V10.1718H20.1146C20.2674 10.1718 20.44 10.1458 20.44 9.94428C20.44 9.7298 20.274 9.7168 20.1146 9.7168H20.0748ZM20.1146 9.74279C20.274 9.74279 20.4135 9.75579 20.4135 9.94428C20.4135 10.1198 20.2607 10.1458 20.1146 10.1458C20.1146 10.1458 20.0947 10.1458 20.0881 10.1458C20.0881 10.1198 20.0881 9.76229 20.0881 9.74279C20.1014 9.74279 20.1146 9.74279 20.1146 9.74279Z" fill="#231F20"/>
<path d="M21.8878 9.60547H22.0737L21.496 10.1644L22.0936 10.8079H21.9077L21.403 10.2554L21.3698 10.2879V10.8079H21.2303V9.60547H21.3698V10.1189L21.8878 9.60547Z" fill="#231F20"/>
<path d="M22.0736 9.59244H21.8877C21.8877 9.59244 21.4229 10.0474 21.383 10.0929C21.383 10.0409 21.383 9.59244 21.383 9.59244H21.2236V10.8208H21.383C21.383 10.8208 21.383 10.2944 21.383 10.2879C21.383 10.2879 21.3963 10.2814 21.4029 10.2684C21.4229 10.2879 21.901 10.8078 21.901 10.8078L22.1002 10.8143H22.1268C22.1268 10.8143 21.5357 10.1774 21.5158 10.1579C21.5357 10.1384 22.1068 9.58594 22.1068 9.58594H22.0736V9.59244ZM22.0404 9.61844C22.0006 9.65743 21.476 10.1644 21.476 10.1644C21.476 10.1644 22.0271 10.7559 22.0604 10.7949C22.0205 10.7949 21.901 10.7949 21.901 10.7949C21.901 10.7884 21.4096 10.2489 21.4096 10.2489L21.4029 10.2359L21.3564 10.2814C21.3564 10.2814 21.3498 10.7754 21.3498 10.7949C21.3299 10.7949 21.2568 10.7949 21.2369 10.7949C21.2369 10.7689 21.2369 9.64443 21.2369 9.61844C21.2568 9.61844 21.3299 9.61844 21.3498 9.61844C21.3498 9.64443 21.3498 10.1514 21.3498 10.1514C21.3498 10.1514 21.8811 9.62493 21.8877 9.61844C21.901 9.61844 22.0006 9.61844 22.0404 9.61844Z" fill="#231F20"/>
<defs>
<radialGradient id="paint0_radial_281_7501" cx="0" cy="0" r="1" gradientUnits="userSpaceOnUse" gradientTransform="translate(17.477 6.81804) scale(1.93436 1.89326)">
<stop offset="0.005618" stop-color="#FFEEE1"/>
<stop offset="0.0966472" stop-color="#FFEAD8"/>
<stop offset="0.2452" stop-color="#FEDDC2"/>
<stop offset="0.4329" stop-color="#FCCA9F"/>
<stop offset="0.6522" stop-color="#F9AF72"/>
<stop offset="0.8954" stop-color="#F68F39"/>
<stop offset="1" stop-color="#F48220"/>
</radialGradient>
</defs>
</svg>
