<svg width="36" height="23" viewBox="0 0 36 23" fill="none" xmlns="http://www.w3.org/2000/svg">
<rect x="0.75" y="0.75" width="34.5" height="21.5" rx="3.25" fill="white" stroke="#EBEBF3" stroke-width="0.5"/>
<g clip-path="url(#clip0_281_7489)">
<path d="M16.4 14.8992H14.4558L15.6718 8.12305H17.6159L16.4 14.8992Z" fill="#00579F"/>
<path d="M23.4478 8.28849C23.0643 8.15138 22.4561 8 21.7041 8C19.7841 8 18.4321 8.92267 18.4238 10.2418C18.4079 11.2151 19.3918 11.7556 20.1277 12.0801C20.8799 12.4117 21.1356 12.6282 21.1356 12.9238C21.1279 13.3777 20.5278 13.587 19.968 13.587C19.1918 13.587 18.7759 13.4791 18.1439 13.2265L17.8879 13.1183L17.6158 14.6394C18.0718 14.8266 18.9119 14.9927 19.7841 15C21.8241 15 23.1522 14.0916 23.1679 12.6859C23.1757 11.9145 22.6561 11.3234 21.536 10.8404C20.856 10.5304 20.4396 10.3213 20.4396 10.0041C20.4475 9.7157 20.7918 9.42031 21.5594 9.42031C22.1914 9.40584 22.6558 9.54276 23.0076 9.67977L23.1834 9.75173L23.4478 8.28849Z" fill="#00579F"/>
<path d="M26.0318 12.4987C26.1919 12.1094 26.808 10.6027 26.808 10.6027C26.7999 10.6172 26.9677 10.2063 27.0637 9.95401L27.1996 10.5379C27.1996 10.5379 27.5678 12.1599 27.6477 12.4987C27.3439 12.4987 26.4158 12.4987 26.0318 12.4987ZM28.4316 8.12305H26.9278C26.464 8.12305 26.1117 8.24549 25.9116 8.68527L23.0238 14.8991H25.0638C25.0638 14.8991 25.3996 14.0628 25.4718 13.8827C25.6956 13.8827 27.68 13.8827 27.9679 13.8827C28.0238 14.1206 28.1999 14.8991 28.1999 14.8991H30L28.4316 8.12305Z" fill="#00579F"/>
<path d="M12.832 8.12305L10.928 12.7438L10.7199 11.8066C10.3679 10.7253 9.26395 9.55045 8.03198 8.96629L9.77596 14.892H11.8319L14.8878 8.12305H12.832Z" fill="#00579F"/>
<path d="M9.15998 8.12305H6.032L6 8.25996C8.44002 8.82228 10.056 10.1777 10.7199 11.8069L10.0399 8.69265C9.92799 8.25987 9.58396 8.13732 9.15998 8.12305Z" fill="#FAA61A"/>
</g>
<defs>
<clipPath id="clip0_281_7489">
<rect width="24" height="7" fill="white" transform="translate(6 8)"/>
</clipPath>
</defs>
</svg>
