<svg width="32" height="32" viewBox="0 0 32 32" fill="none" xmlns="http://www.w3.org/2000/svg">
<g clip-path="url(#clip0_190_7014)">
<path fill-rule="evenodd" clip-rule="evenodd" d="M16.0116 31.9874C24.8405 31.9874 31.9994 24.8284 31.9994 15.9995C31.9994 7.17064 24.8405 0.0117188 16.0116 0.0117188C7.18266 0.0117188 0.0237427 7.17064 0.0237427 15.9995C0.0237427 24.8284 7.18204 31.9874 16.0116 31.9874Z" fill="#003399"/>
<path d="M16.0116 3.56543L15.6131 4.79075H14.3241L15.3633 5.5458L14.9724 6.78048L16.0116 6.02543L17.0495 6.78048L16.6598 5.5458L17.699 4.79075H16.4113L16.0116 3.56543Z" fill="#FFCC00"/>
<path d="M16.4113 26.1072L16.0116 24.8818L15.6131 26.1072H14.3241L15.3633 26.8622L14.9724 28.0969L16.0116 27.3418L17.0495 28.0969L16.6586 26.8622L17.6978 26.1072H16.4113Z" fill="#FFCC00"/>
<path d="M5.35281 16.6873L6.39202 17.4367L6.00107 16.202L7.04027 15.447H5.7525L5.35281 14.2217L4.95311 15.447H3.66534L4.70455 16.202L4.3136 17.4367L5.35281 16.6873Z" fill="#FFCC00"/>
<path d="M10.6794 4.99512L10.2797 6.22106H8.99316L10.0324 6.98485L9.64142 8.21017L10.6794 7.4445L11.7186 8.20829L11.3276 6.98298L12.3675 6.21918H11.0822L10.6794 4.99512Z" fill="#FFCC00"/>
<path d="M6.78298 8.89453L6.38329 10.1198H5.09552L6.13473 10.8749L5.73503 12.1096L6.78298 11.3545L7.82219 12.1096L7.4225 10.8749L8.47045 10.1198H7.18206L6.78298 8.89453Z" fill="#FFCC00"/>
<path d="M7.18206 20.779L6.78236 19.5537L6.38266 20.779H5.09552L6.13473 21.5341L5.73503 22.7688L6.78298 22.0137L7.82219 22.7688L7.4225 21.5341L8.47045 20.779H7.18206Z" fill="#FFCC00"/>
<path d="M11.0816 24.6816L10.6794 23.4531L10.2822 24.6816H8.99316L10.0324 25.4454L9.64267 26.6676L10.6794 25.9038L11.7186 26.6676L11.3276 25.4422L12.3693 24.6816H11.0816Z" fill="#FFCC00"/>
<path d="M28.3578 15.4499H27.07L26.6703 14.2246L26.2706 15.4499H24.981L26.0202 16.205L25.6311 17.4372L26.6703 16.6877L27.7095 17.4372L27.3186 16.2025L28.3578 15.4499Z" fill="#FFCC00"/>
<path d="M21.3406 4.99512L20.9409 6.22106H19.6531L20.6923 6.98485L20.3014 8.21017L21.3406 7.4445L22.3798 8.20829L21.9889 6.98298L23.0281 6.21918H21.7403L21.3406 4.99512Z" fill="#FFCC00"/>
<path d="M24.6006 10.8749L24.2009 12.1096L25.2401 11.3545L26.2881 12.1096L25.8884 10.8749L26.9276 10.1198H25.6398L25.2401 8.89453L24.8404 10.1198H23.5527L24.6006 10.8749Z" fill="#FFCC00"/>
<path d="M25.6392 20.779L25.2395 19.5537L24.8398 20.779H23.5521L24.6 21.5341L24.2003 22.7688L25.2395 22.0137L26.2875 22.7688L25.8878 21.5341L26.9276 20.779H25.6392Z" fill="#FFCC00"/>
<path d="M21.7403 24.6814L21.3406 23.4561L20.9409 24.6814H19.6531L20.6923 25.4452L20.3014 26.6705L21.3406 25.9067L22.3798 26.6705L21.9889 25.4452L23.0281 24.6814H21.7403Z" fill="#FFCC00"/>
</g>
<defs>
<clipPath id="clip0_190_7014">
<rect width="32" height="32" fill="white"/>
</clipPath>
</defs>
</svg>
