<svg width="35" height="29" viewBox="0 0 35 29" fill="none" xmlns="http://www.w3.org/2000/svg">
<path d="M26.3144 5.6637V13.1105C26.3144 16.5175 23.521 19.3211 20.1112 19.3211H12.4437L10.9941 20.7707V20.7755C11.883 22.1354 13.4117 23.0445 15.1466 23.0445H23.3182L27.9192 27.643C28.7013 28.4203 30.0329 27.8682 30.0354 26.7655V23.0445C32.7643 23.0445 35 20.8088 35 18.0799V10.6307C35 7.90178 32.7643 5.6637 30.0354 5.6637H26.3144Z" fill="#3B61FF"/>
<path d="M5.20335 0.693604C2.47876 0.693604 0.244171 2.91868 0.244171 5.64329V13.0808C0.244171 15.8054 2.47874 18.0399 5.20335 18.0399V21.7624C5.20535 22.0063 5.27928 22.2441 5.41589 22.4462C5.5525 22.6483 5.7457 22.8057 5.9713 22.8984C6.19689 22.9912 6.44485 23.0151 6.6841 22.9676C6.92335 22.9201 7.14325 22.8031 7.31626 22.6312L11.9076 18.0399H20.076C22.8006 18.0399 25.0255 15.8054 25.0255 13.0808V5.64329C25.0255 2.91868 22.8006 0.693604 20.076 0.693604H5.20335Z" fill="#3B61FF"/>
</svg>
