<svg width="22" height="25" viewBox="0 0 22 25" fill="none" xmlns="http://www.w3.org/2000/svg">
<path fill-rule="evenodd" clip-rule="evenodd" d="M11.1968 24.4916C13.1463 23.5123 21.5981 18.805 21.5981 10.7991C21.5981 4.83491 16.7632 0 10.7991 0C4.83491 0 0 4.83491 0 10.7991C0 18.805 8.45187 23.5123 10.4013 24.4916C10.6559 24.6195 10.9423 24.6195 11.1968 24.4916ZM10.7991 15.4272C13.3551 15.4272 15.4272 13.3551 15.4272 10.7991C15.4272 8.243 13.3551 6.17089 10.7991 6.17089C8.243 6.17089 6.17089 8.243 6.17089 10.7991C6.17089 13.3551 8.243 15.4272 10.7991 15.4272Z" fill="#3B61FF"/>
</svg>
