<svg width="127" height="24" viewBox="0 0 127 24" fill="none" xmlns="http://www.w3.org/2000/svg">
<path d="M23.2888 3.35059H13.5481V20.645H23.2888V3.35059Z" fill="#FF5F00"/>
<path d="M14.1665 11.9977C14.1665 8.63655 15.7436 5.42822 18.403 3.35044C13.579 -0.407895 6.59046 0.417105 2.78695 5.21433C-1.01656 9.98099 -0.181639 16.8865 4.67324 20.6449C8.72413 23.7921 14.383 23.7921 18.4339 20.6449C15.7436 18.5671 14.1665 15.3588 14.1665 11.9977Z" fill="#EB001B"/>
<path d="M36.4309 11.9977C36.4309 18.0782 31.4523 22.9977 25.2987 22.9977C22.794 22.9977 20.382 22.1727 18.4338 20.6449C23.2578 16.8865 24.0927 9.98099 20.2892 5.18377C19.7326 4.51155 19.1141 3.86988 18.4338 3.35044C23.2578 -0.407895 30.2773 0.417105 34.0499 5.21433C35.596 7.13933 36.4309 9.52266 36.4309 11.9977Z" fill="#F79E1B"/>
<path d="M35.3795 18.8116V18.4449H35.5342V18.3838H35.1631V18.4449H35.3177V18.8116H35.3795ZM36.0908 18.8116V18.3838H35.9671L35.8434 18.6893L35.7197 18.3838H35.596V18.8116H35.6888V18.4755L35.8125 18.7505H35.9052L36.0289 18.4755V18.8116H36.0908Z" fill="#F79E1B"/>
<path d="M55.1507 16.9949V12.4116C55.1507 10.6699 54.0374 9.50879 52.2439 9.50879C51.1925 9.44768 50.203 9.93657 49.6464 10.8227C49.1207 9.96712 48.193 9.47823 47.2035 9.50879C46.3377 9.47823 45.5027 9.87546 45.0389 10.6088V9.69212H43.4309V16.9949H45.0698V12.9616C45.0698 11.6782 45.781 11.006 46.8943 11.006C47.9766 11.006 48.5022 11.7088 48.5022 12.931V16.9949H50.1412V12.9616C50.1412 11.6782 50.8833 11.006 51.9656 11.006C53.0788 11.006 53.6045 11.7088 53.6045 12.931V16.9949H55.1507ZM79.2395 9.69212H76.6111V7.46157H74.9722V9.69212H73.457V11.1588H74.9722V14.4893C74.9722 16.2005 75.6525 17.2088 77.5388 17.2088C78.25 17.2088 78.9612 17.0255 79.5487 16.6282L79.0849 15.2532C78.652 15.4977 78.1572 15.6505 77.6625 15.681C76.8585 15.681 76.5802 15.1921 76.5802 14.4588V11.1282H79.2086V9.69212H79.2395ZM92.9693 9.50879C92.1653 9.47823 91.4231 9.90601 91.0211 10.5782V9.69212H89.4131V16.9949H91.0211V12.9005C91.0211 11.6782 91.5468 11.006 92.5982 11.006C92.9383 11.006 93.2785 11.0671 93.6186 11.1893L94.1134 9.69212C93.7423 9.5699 93.3713 9.50879 92.9693 9.50879ZM72.1891 10.2727C71.2924 9.72268 70.241 9.47823 69.1587 9.50879C67.2724 9.50879 66.0664 10.3949 66.0664 11.8616C66.0664 13.0532 66.9632 13.7866 68.633 14.031L69.4061 14.1532C70.3028 14.2755 70.7048 14.5199 70.7048 14.9171C70.7048 15.4977 70.1173 15.8032 69.0041 15.8032C68.1073 15.8338 67.2415 15.5588 66.5302 15.0393L65.7572 16.2921C66.6849 16.9338 67.829 17.2699 68.9732 17.2393C71.1068 17.2393 72.3437 16.231 72.3437 14.856C72.3437 13.5727 71.3542 12.9005 69.7462 12.656L68.9732 12.5338C68.2619 12.4421 67.7053 12.2893 67.7053 11.8005C67.7053 11.2505 68.231 10.9449 69.1278 10.9449C69.9318 10.9449 70.7358 11.1588 71.447 11.5866L72.1891 10.2727ZM115.357 9.50879C114.553 9.47823 113.811 9.90601 113.409 10.5782V9.69212H111.801V16.9949H113.409V12.9005C113.409 11.6782 113.935 11.006 114.986 11.006C115.326 11.006 115.667 11.0671 116.007 11.1893L116.502 9.69212C116.13 9.5699 115.728 9.50879 115.357 9.50879ZM94.5772 13.3588C94.5772 15.5893 96.1543 17.2088 98.5354 17.2088C99.494 17.2699 100.453 16.9338 101.195 16.3227L100.422 15.0393C99.865 15.4671 99.1847 15.681 98.4735 15.7116C97.1748 15.7116 96.2471 14.7643 96.2471 13.3588C96.2471 11.9532 97.2057 11.0366 98.4735 11.006C99.1847 11.006 99.865 11.2505 100.422 11.6782L101.195 10.3949C100.453 9.78379 99.494 9.47823 98.5354 9.50879C96.1543 9.50879 94.5772 11.1282 94.5772 13.3588ZM109.668 13.3588V9.69212H108.06V10.5782C107.503 9.87546 106.637 9.47823 105.709 9.50879C103.638 9.50879 101.999 11.1282 101.999 13.3588C101.999 15.5893 103.638 17.2088 105.709 17.2088C106.606 17.2393 107.503 16.8421 108.06 16.1393V17.0255H109.668V13.3588ZM103.669 13.3588C103.669 12.0755 104.534 11.006 105.926 11.006C107.256 11.006 108.152 12.0143 108.152 13.3588C108.152 14.7032 107.256 15.7116 105.926 15.7116C104.534 15.681 103.669 14.6421 103.669 13.3588ZM84.249 9.50879C82.0844 9.50879 80.5692 11.0671 80.5692 13.3588C80.5692 15.681 82.1463 17.2088 84.3727 17.2088C85.4859 17.2393 86.5682 16.8727 87.4032 16.1699L86.5992 14.9782C85.9807 15.4671 85.2386 15.7421 84.4346 15.7421C83.3832 15.7421 82.4555 15.2532 82.2081 13.9393H87.7124C87.7433 13.7255 87.7433 13.5421 87.7433 13.3282C87.7433 11.0671 86.3209 9.50879 84.249 9.50879ZM84.2181 10.9143C85.2695 10.9143 85.9189 11.556 86.1044 12.6866H82.239C82.4246 11.6477 83.074 10.9143 84.2181 10.9143ZM124.634 13.3588V6.75879H123.026V10.5782C122.47 9.87546 121.604 9.47823 120.676 9.50879C118.604 9.50879 116.965 11.1282 116.965 13.3588C116.965 15.5893 118.604 17.2088 120.676 17.2088C121.573 17.2393 122.47 16.8421 123.026 16.1393V17.0255H124.634V13.3588ZM126.521 16.3227C126.582 16.3227 126.644 16.3227 126.706 16.3532C126.768 16.3838 126.799 16.4143 126.861 16.4449C126.892 16.4755 126.953 16.5366 126.953 16.5977C127.015 16.7199 127.015 16.8421 126.953 16.9643C126.923 17.0255 126.892 17.056 126.861 17.1171C126.83 17.1477 126.768 17.1782 126.706 17.2088C126.644 17.2393 126.582 17.2393 126.521 17.2393C126.335 17.2393 126.149 17.1171 126.088 16.9643C126.026 16.8421 126.026 16.7199 126.088 16.5977C126.149 16.4755 126.242 16.3838 126.335 16.3532C126.366 16.3532 126.428 16.3227 126.521 16.3227ZM126.521 17.1477C126.582 17.1477 126.613 17.1477 126.675 17.1171C126.706 17.0866 126.768 17.0866 126.799 17.0255C126.953 16.8727 126.953 16.6588 126.799 16.506C126.768 16.4755 126.737 16.4449 126.675 16.4143C126.644 16.3838 126.582 16.3838 126.521 16.3838C126.459 16.3838 126.428 16.3838 126.366 16.4143C126.18 16.506 126.088 16.7199 126.18 16.9032C126.211 16.9338 126.211 16.9949 126.242 17.0255C126.273 17.056 126.304 17.0866 126.366 17.1171C126.397 17.1477 126.459 17.1477 126.521 17.1477ZM126.521 16.5671C126.551 16.5671 126.613 16.5671 126.644 16.5977C126.675 16.6282 126.706 16.6588 126.675 16.6893C126.675 16.7199 126.675 16.7505 126.644 16.781C126.613 16.8116 126.582 16.8116 126.551 16.8116L126.706 16.9643H126.582L126.459 16.8116H126.428V16.9643H126.335V16.5366L126.521 16.5671ZM126.428 16.6588V16.781H126.521C126.551 16.781 126.551 16.781 126.582 16.781L126.613 16.7505C126.613 16.7199 126.613 16.7199 126.582 16.7199C126.551 16.7199 126.551 16.7199 126.521 16.7199H126.428V16.6588ZM118.635 13.3588C118.635 12.0755 119.501 11.006 120.893 11.006C122.222 11.006 123.119 12.0143 123.119 13.3588C123.119 14.7032 122.222 15.7116 120.893 15.7116C119.47 15.681 118.635 14.6421 118.635 13.3588ZM64.242 13.3588V9.69212H62.634V10.5782C62.0774 9.87546 61.2115 9.47823 60.2838 9.50879C58.212 9.50879 56.5731 11.1282 56.5731 13.3588C56.5731 15.5893 58.212 17.2088 60.2838 17.2088C61.1806 17.2393 62.0774 16.8421 62.634 16.1393V17.0255H64.242V13.3588ZM58.2429 13.3588C58.2429 12.0755 59.1088 11.006 60.5003 11.006C61.83 11.006 62.7267 12.0143 62.7267 13.3588C62.7267 14.7032 61.83 15.7116 60.5003 15.7116C59.0779 15.681 58.2429 14.6421 58.2429 13.3588Z" fill="white"/>
</svg>
