<?xml version="1.0" encoding="UTF-8"?><svg id="Capa_1" xmlns="http://www.w3.org/2000/svg" viewBox="0 0 511.99 511.99"><defs><style>.cls-1{fill:#317c34;}.cls-2{fill:#399139;}.cls-3{fill:#4caf50;}</style></defs><polygon class="cls-1" points="247.01 340.97 160.01 495.98 341 386.79 247.01 340.97"/><path class="cls-2" d="m506.02,19.53c-4.45-3.58-10.59-4.51-15.97-2.4L10.05,209.13C4.13,211.5.17,217.16,0,223.56s3.49,12.26,9.31,14.94l416,192c2.11.96,4.42,1.47,6.69,1.47,2.56,0,5.15-.64,7.46-1.86,4.45-2.34,7.49-6.59,8.32-11.52L511.78,34.6c.93-5.66-1.25-11.46-5.76-15.07Z"/><polygon class="cls-3" points="496.01 31.98 160.01 308.07 160.01 495.98 248.01 348.68 496.01 31.98"/></svg>