<?xml version="1.0" encoding="UTF-8"?>
<svg xmlns="http://www.w3.org/2000/svg" viewBox="0 0 1280.07 947.53">
  <defs>
    <style>
      .cls-1, .cls-2, .cls-3 {
        fill: #fff;
      }

      .cls-4 {
        isolation: isolate;
      }

      .cls-5 {
        fill: #bfa87a;
      }

      .cls-6 {
        fill: #fc6;
      }

      .cls-7 {
        fill: #cd9933;
      }

      .cls-8 {
        fill: #211600;
      }

      .cls-9 {
        fill: #ffdfa2;
      }

      .cls-10 {
        fill: #c6cad5;
      }

      .cls-11 {
        fill: #a58414;
      }

      .cls-12 {
        fill: #c9c8c8;
      }

      .cls-2 {
        opacity: .25;
      }

      .cls-13 {
        fill: #e9eaee;
      }

      .cls-3 {
        opacity: .15;
      }

      .cls-14 {
        fill: #fc3;
      }

      .cls-15 {
        fill: #212121;
        mix-blend-mode: color-burn;
        opacity: .4;
      }

      .cls-16 {
        fill: #6e7a94;
      }

      .cls-17 {
        fill: #c7c9d6;
      }
    </style>
  </defs>
  <g class="cls-4">
    <g id="Warstwa_1" data-name="Warstwa 1">
      <g>
        <circle class="cls-3" cx="761.57" cy="342.11" r="341.19"/>
        <circle class="cls-2" cx="761.57" cy="342.11" r="274.45"/>
        <path class="cls-17" d="m47.57,847.25s4.28,15.6,7.14,21.87l33.88-31.58-5.03-5.2-32.31,7.16-3.67,7.76Z"/>
        <path class="cls-1" d="m893.95,220.12c5.12,3.77,10.61,6.85,16.48,9.26.34.14.6.41.72.73.86,2.2,1.18,4.3.97,6.32-.42,4.11.06,7.59,1.45,10.44.87,1.78,1.48,3.43,1.82,4.95.39,1.72.09,3.15-.9,4.28-1.14,1.31-2.66,1.94-4.59,1.89-2.21-.06-4.04.17-5.49.7-.33.12-.61.36-.79.69-.6,1.15-1.07,2.35-1.4,3.59-.44,1.63-1.01,2.71-1.71,3.24-1.33.99-3.08,1.38-5.25,1.18-3.41-.32-6.28,1.04-8.63,4.08-1.14,1.46-2.95,2.22-5.45,2.28-4.95.1-8.7-1.49-11.28-4.77-1.83-2.34-3.16-3.77-4-4.29-.1-.05-1.51-.61-4.26-1.67-1.86-.72-3.13-1.49-3.8-2.29-1.03-1.25-1.49-2.76-1.36-4.56,0,0,.16-.77.48-2.29.48-2.26-.17-4.25-1.95-5.95-2.25-2.15-2.2-3.77.14-4.85,1.53-.71,1.72-1.68.57-2.92-1.32-1.42-1.54-2.82-.66-4.19.19-.28.19-.64.01-.91-3.39-5.05-2.25-8.93,3.43-11.63,1.11-.53,2.38-.96,3.83-1.28,1-.23,2.33-.32,3.98-.28,6.35.17,13.17-.95,20.45-3.35,2.32-.77,4.72-.24,7.19,1.58Zm-9.39,16.08c.53,2.28-.25,4.28-2.35,5.98-2.14,1.72-2.96,4.12-2.45,7.2.06.36.29.66.6.8,1.19.54,2.3.47,3.35-.21.26-.17.41-.5.39-.87-.14-2.09.62-3.84,2.27-5.25,1.69-1.46,2.79-3.38,3.29-5.76.51-2.36.11-4.18-1.18-5.47-.97-.97-2.51-1.5-4.62-1.59-2.28-.1-4.53.13-6.77.66-.4.1-.72.32-.86.6-.38.72-.42,1.71-.12,2.97.09.35.43.57.77.5,2.55-.49,4.89-.54,7.01-.17.34.06.61.3.69.62Zm-1.3,16.54c-3.55-.57-4.76.62-3.62,3.58.13.33.4.58.74.69,3.05.97,4.41-.03,4.07-3.01-.07-.64-.56-1.16-1.19-1.26Z"/>
        <path d="m888.46,232.6c1.3,1.29,1.69,3.11,1.18,5.47-.51,2.38-1.61,4.3-3.29,5.76-1.65,1.42-2.41,3.17-2.27,5.25.02.37-.13.7-.39.87-1.05.68-2.16.75-3.35.21-.31-.14-.54-.44-.6-.8-.5-3.07.32-5.47,2.45-7.2,2.1-1.7,2.89-3.7,2.35-5.98-.08-.32-.35-.56-.69-.62-2.12-.38-4.46-.32-7.01.17-.35.07-.69-.15-.77-.5-.3-1.26-.26-2.25.12-2.97.15-.28.46-.5.86-.6,2.23-.54,4.49-.76,6.77-.66,2.12.1,3.66.63,4.62,1.59Z"/>
        <path d="m883.25,252.73c.64.11,1.12.62,1.19,1.26.34,2.98-1.02,3.98-4.07,3.01-.34-.1-.61-.36-.74-.69-1.14-2.96.06-4.16,3.62-3.58Z"/>
        <path class="cls-1" d="m853.51,267.06c-1.84,2.16-3.74,3.45-5.7,3.88-1.18.26-2.27.04-3.26-.64-2.56-1.76-3.74-3.75-3.54-5.96.04-.36-.01-.71-.14-1.05-.49-1.31-.22-2.18.83-2.61,1.42-.57,2.89-.91,4.41-1.02,4.97-.33,7.55,1.81,7.75,6.42.01.35-.11.7-.34.97Z"/>
        <path class="cls-1" d="m860.86,275.05c.13,1.17-.03,2.28-.49,3.32-.49,1.08-1.27,1.75-2.34,2-1.57.36-2.91-.26-4.01-1.86-.43-.62-.43-1.52,0-2.34,1.55-2.99,3.65-3.65,6.3-1.98.31.2.51.51.54.86Z"/>
        <path d="m845.68,293.79c5.44,4.72,9.88,10.24,13.32,16.57,3.06,5.63,5.64,11.34,7.74,17.14.14.38.57.58.94.44.11-.04.21-.11.29-.2,1.63-1.84,3.03-3.67,4.21-5.51,2.54-3.98,2.59-7.27.15-9.88-1.31-1.41-3.35-2.49-6.1-3.26-2.26-.63-4.58-.99-6.99-1.07-.92-.04-.99-.29-.21-.77,3.32-2.06,7.11-3.3,11.37-3.7,9.03-.86,14.46,3.03,16.29,11.66.57,2.71.32,5.91-.76,9.62-2.18,7.51-6.71,14.13-13.59,19.86-.34.28-.48.73-.38,1.15,2.21,9.12,3.43,18.26,3.67,27.42.16,6.2-.08,11.88-.72,17.05-.85,6.84-2.12,12.36-3.8,16.55-3.88,9.66-11.31,16.07-22.29,19.24l-6.95,2.17c-10.4,2.37-20.89,2.85-31.46,1.43l-5.8-1.66c-5.76-1.69-10.75-4.65-14.97-8.89-4.37-5.7-7.21-12.89-8.52-21.56-.88-5.86-1.25-12.02-1.08-18.49.04-1.41-.29-2.72-.98-3.95-3.12-5.51-3.73-11.37-1.85-17.57,1.28-4.21,3.66-8.24,7.13-12.08.5-.56.85-1.21,1.05-1.95,2.65-9.94,6.28-19.58,10.87-28.92,2.51-5.12,5.52-9.87,9.04-14.25,4.19-5.2,8.31-8.93,12.38-11.17,9.26-5.12,18.59-3.59,28,4.59Zm-24.6,18.78c-1.95-4-6.97-5.55-11.22-3.48-4.25,2.07-6.11,6.99-4.16,10.99h0c1.95,4,6.97,5.55,11.22,3.48,4.25-2.07,6.11-6.99,4.16-10.99h0Zm16.36,10.72c3.47,1.8,6.47,1.67,9-.39,2.19-1.78,3.34-4.12,3.46-7.01.1-2.71-1.02-4.79-3.38-6.22-1.87-1.14-3.97-1.6-6.28-1.38-4.47.43-6.53,3.38-6.16,8.84.21,3.05,1.33,5.1,3.36,6.16Zm-14.31,4.68c1.05,1.43,2.42,2.43,4.1,3,.13.25.32.36.6.32.77.74,1.5.74,2.21,0,2.03-1.61,3.72-3.55,5.05-5.79.96-1.62.59-2.84-1.12-3.65-4.39-2.09-8.63-1.93-12.73.46-.88.52-1.21,1.62-.73,2.45.05.08.1.16.16.23l2.45,2.99Zm-19.45-3.79c.83.46,1.69.77,2.59.92.34.05.39-.05.15-.31l-2.92-3.15c-.43-.46-.7-.4-.83.2-.21,1.07.12,1.85,1.01,2.34Zm46.01-1.26l-4.52,2.52c-.35.2-.33.31.07.34,2.12.16,3.73-.66,4.82-2.48.35-.59.23-.72-.36-.39Zm-53.44,93.52c7.58,5.34,16.36,7.9,26.34,7.66,11.23-.26,21.94-2.72,32.14-7.39,1.56-.71,2.8-1.79,3.74-3.22,1.83-2.79,3.1-5.77,3.81-8.96.43-1.89.8-5.07,1.12-9.53.66-9.31-.23-17.94-2.68-25.9-3.06-9.95-9.1-16.56-18.13-19.82-5.25-1.9-11.11-2.55-17.59-1.95-6.42.6-12.18,2.45-17.28,5.53-6.41,3.88-11.22,9.21-14.45,15.99-.36.75-.43,1.62-.2,2.43,1.81,6.23,4.11,12.23,6.88,18,1.23,2.54.51,3.35-2.17,2.42-2.96-1.02-5.69-2.46-8.21-4.31-.29-.21-.44-.14-.46.23-.41,7.34.38,14.54,2.39,21.59.92,3.23,2.51,5.63,4.77,7.22Z"/>
        <path d="m718.03,307.26c6.39,5.02,11.69,11.7,15.89,20.04,4.57,9.07,7.97,17.38,10.2,24.94-7.99,2.79-16.1,5.19-24.32,7.19-3.39-3.15-7.09-5.37-11.1-6.63-4.99-1.58-9.9-1.14-14.72,1.3-3.41,1.73-6.44,3.97-9.1,6.71l-23.45-7.51c2.74-9.3,6.61-18.5,11.61-27.6,2.78-5.05,6.06-9.56,9.85-13.54,4.5-4.72,9-7.85,13.5-9.36,7.43-2.51,14.64-1.03,21.64,4.46Zm-24.53,31.95c.46.35.72.82.78,1.43-.27.37-.29.69-.04.95.31.33.47.51.49.53,1.99,3.12,4.71,5.09,8.17,5.91,1.4.34,2.64.19,3.73-.44,1.15-.67,2.1-1.61,2.86-2.81,1.81-1.47,3.03-3.32,3.68-5.53,4.78.6,7.87-1.17,9.29-5.32,1.27-3.73.58-6.63-2.06-8.69-1.4-1.09-3.09-1.73-5.07-1.91-1.87-.18-3.74.03-5.59.61-2.4.75-3.67,2.35-3.79,4.81-.11,2.06.36,4.08,1.43,6.08l-8.06.23c1.8-2.51,2.21-4.89,1.24-7.16-.83-1.92-2.44-3.29-4.81-4.13-2.58-.91-5.07-.82-7.48.29-3.6,1.64-5.28,4.27-5.04,7.88.17,2.56,1.17,4.53,3.01,5.93,1.98,1.5,4.4,1.95,7.29,1.35Zm-11.22.53c.56.32,1.16.51,1.8.56.72.06.83-.16.31-.65-.11-.1-.27-.2-.49-.29-.94-.4-1.67-1.12-2.17-2.17-.55-1.14-1.02-1.1-1.39.11-.23.75.42,1.56,1.93,2.43Z"/>
        <path class="cls-1" d="m821.07,312.57c1.95,4,.08,8.91-4.16,10.99h0c-4.25,2.07-9.27.51-11.22-3.48-1.95-4-.08-8.91,4.16-10.99h0c4.25-2.07,9.27-.51,11.22,3.48Zm-7.27,2.02c.05-.44-.1-.53-.45-.25-2.03,1.54-2.07,2.77-.13,3.69.34.16.72.2,1.05.09,1.16-.38,1.58-1.16,1.24-2.32-.11-.36-.27-.37-.48-.03-1.08,1.71-1.49,1.32-1.23-1.17Z"/>
        <path class="cls-1" d="m846.51,309.67c2.36,1.44,3.49,3.51,3.38,6.22-.12,2.89-1.27,5.23-3.46,7.01-2.53,2.06-5.53,2.19-9,.39-2.03-1.05-3.15-3.11-3.36-6.16-.37-5.46,1.68-8.41,6.16-8.84,2.31-.22,4.41.24,6.28,1.38Zm-2.13,6.66c0-1.07-.87-1.95-1.95-1.95-1.07,0-1.95.87-1.95,1.95h0c0,1.07.87,1.95,1.95,1.95,1.07,0,1.95-.87,1.95-1.95Z"/>
        <path d="m813.8,314.59c-.27,2.49.14,2.88,1.23,1.17.21-.34.36-.33.48.03.34,1.16-.07,1.94-1.24,2.32-.33.11-.71.07-1.05-.09-1.94-.92-1.89-2.15.13-3.69.35-.27.5-.19.45.25Z"/>
        <path d="m844.37,316.32c0,1.07-.87,1.95-1.95,1.95-1.07,0-1.95-.87-1.95-1.95s.87-1.95,1.95-1.95h0c1.07,0,1.95.87,1.95,1.95Zm-2.32-.35c-.07.99.28,1.29,1.05.91.32-.16.53-.47.56-.83.1-.97-.25-1.26-1.06-.9-.31.14-.53.46-.55.82Z"/>
        <path class="cls-13" d="m843.1,316.88c-.77.38-1.12.08-1.05-.91.03-.36.24-.68.55-.82.81-.37,1.16-.07,1.06.9-.03.36-.25.67-.56.83Z"/>
        <path class="cls-14" d="m833.97,321.84c1.7.81,2.07,2.03,1.12,3.65-1.33,2.25-3.02,4.18-5.05,5.79-.71-.37-1.44-.37-2.21,0-.27.04-.47-.07-.6-.32-.78-1.82-2.15-2.82-4.1-3l-2.45-2.99c-.61-.74-.46-1.86.33-2.51.08-.06.16-.12.24-.17,4.09-2.4,8.33-2.55,12.73-.46Z"/>
        <path class="cls-1" d="m803.5,321.63l2.92,3.15c.24.26.18.36-.15.31-.9-.15-1.76-.45-2.59-.92-.88-.49-1.22-1.28-1.01-2.34.13-.6.4-.66.83-.2Z"/>
        <path class="cls-1" d="m850.05,323.3c-1.09,1.81-2.7,2.64-4.82,2.48-.4-.03-.42-.14-.07-.34l4.52-2.52c.6-.33.72-.2.36.39Z"/>
        <path class="cls-1" d="m700.53,327.9c.97,2.27.56,4.66-1.24,7.16-2.59.51-4.53,1.89-5.8,4.15-2.88.6-5.31.15-7.29-1.35-1.84-1.39-2.84-3.37-3.01-5.93-.24-3.61,1.44-6.24,5.04-7.88,2.41-1.11,4.91-1.2,7.48-.29,2.37.84,3.98,2.22,4.81,4.13Zm-2.9,3.27c-.02-.57.17-.87.56-.87.38,0,.68-.19.69-.42,0-.38-.32-.49-.97-.35-.32.07-.6.23-.84.49-1.65,1.78-1.28,2.89,1.13,3.35.35.07.7-.04.95-.3,1.15-1.16.85-1.63-.88-1.43-.31.04-.59-.15-.63-.42,0-.01,0-.03,0-.04Z"/>
        <path class="cls-1" d="m720.39,325.25c2.64,2.06,3.32,4.96,2.06,8.69-1.42,4.15-4.51,5.92-9.29,5.32-1.39-2.15-3.32-3.63-5.8-4.42-1.06-2-1.54-4.02-1.43-6.08.13-2.45,1.39-4.06,3.79-4.81,1.86-.58,3.72-.78,5.59-.61,1.98.18,3.67.82,5.07,1.91Zm1.25,4.94c.07-.36-.19-.56-.78-.61-2.12-.16-2.95.48-2.49,1.93.35,1.07,1.02,1.61,2.02,1.64.5.01.88-.16,1.15-.53.32-.43.37-.92.14-1.45-.1-.24-.12-.59-.04-.98Z"/>
        <path class="cls-11" d="m827.22,330.96c-1.68-.57-3.05-1.57-4.1-3,1.95.18,3.32,1.18,4.1,3Z"/>
        <path d="m697.91,329.52c.65-.14.97-.02.97.35,0,.23-.31.41-.69.42-.4,0-.59.3-.56.87.01.27.27.48.58.47.02,0,.03,0,.05,0,1.74-.21,2.03.27.88,1.43-.25.25-.61.37-.95.3-2.4-.46-2.78-1.57-1.13-3.35.24-.26.52-.42.84-.49Z"/>
        <path d="m720.86,329.58c.6.04.86.25.78.61-.07.39-.06.74.04.98.23.53.18,1.01-.14,1.45-.27.37-.65.55-1.15.53-1-.02-1.68-.57-2.02-1.64-.46-1.45.36-2.1,2.49-1.93Zm-1.14,1.25c-.1.34.01.55.32.64.3.09.65-.09.83-.43.4-.71.27-1-.38-.86-.38.08-.67.33-.77.65Z"/>
        <path class="cls-1" d="m720.04,331.47c-.31-.09-.42-.3-.32-.64.1-.32.4-.57.77-.65.65-.14.77.15.38.86-.18.34-.53.52-.83.43Z"/>
        <path class="cls-11" d="m830.03,331.28c-.71.74-1.44.74-2.21,0,.77-.37,1.5-.37,2.21,0Z"/>
        <path class="cls-14" d="m707.36,334.83c2.48.8,4.42,2.27,5.8,4.42-.65,2.21-1.88,4.05-3.68,5.53-.43-.08-.78.02-1.03.31-1.86,2.14-4.11,2.55-6.73,1.21-2.82-1.44-5.3-3.32-7.44-5.66-.07-.6-.33-1.08-.78-1.43,1.28-2.26,3.21-3.64,5.8-4.15l8.06-.23Z"/>
        <path class="cls-1" d="m680.34,337.31c.38-1.21.84-1.25,1.39-.11.5,1.05,1.22,1.77,2.17,2.17.21.09.38.18.49.29.52.49.41.71-.31.65-.64-.05-1.24-.24-1.8-.56-1.52-.87-2.16-1.68-1.93-2.43Z"/>
        <path class="cls-11" d="m694.28,340.63c2.14,2.34,4.62,4.22,7.44,5.66,2.62,1.34,4.87.94,6.73-1.21.25-.29.59-.39,1.03-.31-.76,1.2-1.71,2.14-2.86,2.81-1.08.63-2.33.78-3.73.44-3.46-.83-6.18-2.8-8.17-5.91-.01-.02-.18-.2-.49-.53-.24-.27-.23-.58.04-.95Z"/>
        <path class="cls-1" d="m842.58,349.28c9.03,3.27,15.07,9.87,18.13,19.82,2.45,7.96,3.34,16.59,2.68,25.9-.32,4.46-.69,7.64-1.12,9.53-.72,3.18-1.99,6.17-3.81,8.96-.94,1.43-2.18,2.5-3.74,3.22-10.2,4.67-20.91,7.13-32.14,7.39-9.98.24-18.76-2.32-26.34-7.66-2.26-1.58-3.84-3.99-4.77-7.22-2-7.05-2.8-14.25-2.39-21.59.02-.37.18-.45.46-.23,2.52,1.85,5.26,3.29,8.21,4.31,2.68.93,3.4.12,2.17-2.42-2.77-5.77-5.06-11.77-6.88-18-.24-.81-.16-1.68.2-2.43,3.23-6.78,8.04-12.11,14.45-15.99,5.1-3.08,10.86-4.92,17.28-5.53,6.48-.6,12.34.04,17.59,1.95Z"/>
        <path class="cls-7" d="m643.8,347.75l17.63,5.55,23.45,7.51,14.69,5.02.6,12.95c-.18,1.45-.2,3.66-.04,6.63.69,13.3.78,28.21.28,44.73-15.18-3.52-27.55-6.52-37.1-9.01-.52-.13-.88-.06-1.08.21-1.72-.89-3.55-1.34-5.48-1.34-1.21-.66-2.49-1.15-3.86-1.45-6.12-1.36-12.19-2.89-18.21-4.6-.27-.07-.43-.35-.35-.63,0-.01,0-.03.01-.04,3.22-9.12,5.27-18.51,6.15-28.16,1.89,2,3.28,3.08,4.17,3.25,2.96.55,3.95-.62,2.97-3.53-2.16-4.99-4.11-10.06-5.85-15.2.63-6.71.83-13.65.57-20.84-.02-.6.46-1.1,1.08-1.11.13,0,.25.01.38.05Z"/>
        <path class="cls-6" d="m759.36,347.8c.42-.12.86.12.99.54.02.06.03.12.03.19l.32,6.2-.04.39c-.02.22-.19.41-.43.48-2.93.86-5.93,1.06-8.98.59-2.34-.36-4.54-.07-6.61.87-.31.14-.58.38-.78.71-1.69,2.63-3.29,4.36-4.82,5.2-1.79.97-3.19,2.38-4.2,4.25-.74,1.36-.52,2.57.66,3.63l3.96,3.5c.26.23.43.55.46.91.17,1.66.33,3.32.48,4.99.13,1.45.55,2.53,1.26,3.23,1,.97,2.2,1.42,3.59,1.34,3.5-.21,6.21.74,8.12,2.86,1.25,1.39,1.88,2.1,1.91,2.12,2.74,2.32,6.01,3.06,9.81,2.22,1.39,7.11,3.36,14.04,5.89,20.82.09.25-.04.53-.3.63-.02,0-.03.01-.05.02l-21.02,5.16c-1.95-2.34-4.64-3.66-8.09-3.97-2.04-.18-2.53-1.15-1.46-2.91.69-1.11,1.72-2.2,3.11-3.25,1.4-1.07,1.73-2.09,1-3.06-.38-.5-1.13-.86-2.27-1.08-.92-.18-1.83-.44-2.72-.76-1.64-.61-1.83-1.58-.55-2.91,1.36-1.41,1.92-2.92,1.68-4.53-.18-1.3-.95-2.52-2.31-3.66-3.54-2.96-8.07-3.75-13.59-2.37-.89.22-1.79-.29-2.06-1.16-1.16-3.74-4.04-5.24-8.65-4.5-3.08.5-5.28-.31-6.59-2.43-1.69-2.74-4-3.83-6.93-3.25l-.6-12.95c6.04-1.72,12.05-3.53,18.03-5.42,0,0,.34-.06,1.01-.19.49-.09.89-.35,1.18-.8,8.23-2,16.33-4.39,24.32-7.19l15.25-4.44Z"/>
        <path class="cls-1" d="m708.69,352.8c4.01,1.27,7.71,3.48,11.1,6.63-.29.44-.69.71-1.18.8-.67.13-1.01.19-1.01.19-5.98,1.89-12,3.69-18.03,5.42l-14.69-5.02c2.66-2.74,5.69-4.98,9.1-6.71,4.82-2.45,9.73-2.88,14.72-1.3Z"/>
        <path class="cls-9" d="m760.7,354.73c.91,3.63,1.28,7.31,1.11,11.06-.71,3.69-2.59,6.24-5.64,7.67-2.75,1.28-4.99,2.7-6.72,4.26-.74.67-1.14,1.35-1.18,2.02-.07,1.05.56,1.76,1.89,2.12,4.27,2.8,8.98,3.98,14.14,3.55.75,2.13,1.01,4.33.78,6.59-3.8.84-7.06.1-9.81-2.22-.03-.02-.67-.73-1.91-2.12-1.91-2.12-4.61-3.08-8.12-2.86-1.39.08-2.59-.36-3.59-1.34-.71-.7-1.13-1.78-1.26-3.23-.15-1.67-.31-3.33-.48-4.99-.04-.36-.2-.68-.46-.91l-3.96-3.5c-1.19-1.05-1.41-2.26-.66-3.63,1.01-1.86,2.41-3.28,4.2-4.25,1.53-.83,3.13-2.56,4.82-5.2.2-.32.48-.57.78-.71,2.07-.94,4.27-1.23,6.61-.87,3.05.47,6.04.28,8.98-.59.24-.07.41-.26.43-.48l.04-.39Z"/>
        <path d="m761.81,365.79c4.7-.51,6.69,1.59,5.97,6.29-.4,2.58-1.96,5-4.68,7.25-4.02,2.28-8.33,3.13-12.95,2.53-1.33-.36-1.96-1.07-1.89-2.12.04-.68.44-1.35,1.18-2.02,1.73-1.56,3.97-2.97,6.72-4.26,3.04-1.43,4.92-3.99,5.64-7.67Z"/>
        <path d="m641.76,369.66c1.74,5.14,3.69,10.21,5.85,15.2.98,2.9-.01,4.08-2.97,3.53-.89-.17-2.28-1.25-4.17-3.25-1.48-1.9-2.76-3.91-3.85-6.03-1.01-1.99-1.23-3.75-.65-5.28.86-2.31,2.79-3.7,5.79-4.17Z"/>
        <path class="cls-9" d="m700.17,378.78c2.93-.57,5.24.51,6.93,3.25,1.31,2.12,3.51,2.93,6.59,2.43,4.61-.74,7.49.76,8.65,4.5.27.87,1.17,1.38,2.06,1.16,5.52-1.39,10.05-.6,13.59,2.37,1.36,1.14,2.13,2.35,2.31,3.66.24,1.61-.32,3.13-1.68,4.53-1.28,1.33-1.09,2.3.55,2.91.89.32,1.8.58,2.72.76,1.14.22,1.89.58,2.27,1.08.74.97.41,1.99-1,3.06-1.39,1.05-2.42,2.14-3.11,3.25-1.07,1.75-.58,2.72,1.46,2.91,3.45.31,6.15,1.63,8.09,3.97-.21.3-.49.55-.83.74-.88-.1-1.71.03-2.49.36-2.13.18-4.16.73-6.08,1.66l-.62-.09c-.6-.09-.94-.12-1.02-.1l-38.16,8.94c.51-16.52.42-31.44-.28-44.73-.15-2.97-.14-5.18.04-6.63Z"/>
        <path class="cls-5" d="m763.1,379.33l1.19,6.08c-5.16.43-9.87-.75-14.14-3.55,4.61.6,8.93-.25,12.95-2.53Z"/>
        <path class="cls-1" d="m788.9,419.23c.21-.11.45-.14.73-.1,4.22,4.24,9.21,7.2,14.97,8.89.36,3.04-.25,5.65-1.82,7.83-.76,1.05-2.03,1.83-3.8,2.34-1.97.57-3.43,1.11-4.39,1.6-.87.44-1.2,1.2-1,2.28-.63,1.33-.46,2.71.51,4.15,1.87,2.79,3.47,5.37,4.79,7.74.87,1.56,1.01,3.17.41,4.85-1.02,2.89-2.09,5.75-3.21,8.59-1.46,3.7-2.3,6.62-2.51,8.76-.6,5.91.61,11.59,3.62,17.05.8,1.47,2.35,2.66,4.64,3.59,3.48,1.42,6.84,1.97,10.09,1.67,2.67-.25,5.76-1.36,9.28-3.34,9.34-5.24,16.02-12.99,20.03-23.24.01-.04.21-.62.6-1.75.72-2.13,1.95-3.92,3.69-5.38,2.34-1.95,3.63-4.46,3.88-7.51.26-3.07,1.74-4.79,4.46-5.16,3.28-.43,4.51-2.03,3.7-4.79-.1-.34-.11-.69-.03-1.06l.69-3.29c.95-.38,1.36-.9,1.23-1.57-.08-.45-.44-.82-1.08-1.12-1.37-.65-2.78-1.18-4.23-1.59-1.86-.53-3.14-1.22-3.85-2.07-1.44-1.74-2-3.88-1.69-6.41.69.01,1.59.2,2.72.55,25.37,7.95,48.88,19.63,70.54,35.02.38.27.92.17,1.21-.24.03-.05.06-.1.09-.15l1.93-4.15c.41-.9.79-.84,1.14.17l2.24,6.71c.1.28.43.43.74.32,0,0,.02,0,.02,0,2.85-1.05,5.46-2.54,7.85-4.44.39-.31.97-.23,1.29.19.07.09.12.18.15.28l1.92,5.52c.09.25.37.37.63.28.02,0,.05-.02.07-.03l5.74-3.08c.45-.24.61-.12.49.38-1.05,4.22-.54,8.66,1.53,13.33.12.28.45.41.76.32l10.83-3.15c1.91-.56,2.15-.11.73,1.34-1.96,2-3.77,4.65-5.43,7.96-.27.54-.05,1.2.49,1.47.08.04.17.07.25.09,3.92.86,7.06,2.52,9.41,4.98.29.29.25.78-.09,1.08-.09.08-.19.14-.29.18l-5.63,2.06c-.21.07-.3.32-.21.55.02.05.05.1.09.15l14.45,15.81c15.24,17.92,28.88,36.99,40.91,57.21,7.92,13.41,15.05,27.23,21.37,41.46-.91,5.68-1.39,11.39-1.43,17.14-2.23,13.57-8.15,25.62-17.76,36.14-10.81,11.84-22.89,21.51-36.26,29.03-5.88,3.31-12.58,6.34-20.1,9.09-10.41,3.81-21.08,6.8-32.01,8.98-12.93,2.59-26.2,3.59-39.81,3-15.2-.66-29.7-1.68-43.52-3.06-.06,0-3.47-.39-10.24-1.17-13.39-1.54-25.6-1.79-36.63-.74-13.81,1.31-26.22,4.1-37.25,8.36-41.3,15.96-83.43,22.59-126.41,19.9-7.27-.46-14.59-1.29-21.95-2.5-14.16-2.32-28.11-5.58-41.86-9.77-13.1-3.99-26.09-8.31-38.98-12.95-17.14-5.65-33.42-13.15-48.84-22.48-19.1-11.55-31.86-27.57-38.29-48.07-2.37-7.58-3.52-14.82-3.45-21.72.1-9.75,2.28-19.16,6.56-28.24.24-.52.24-1.25,0-2.17,12.22-14.3,25.04-28.04,38.46-41.23,16.78-16.51,34.47-31.99,53.07-46.43.87-.49,1.7-1.03,2.48-1.64,37.21-28.66,78.02-50.7,122.41-66.13l5.02,3.91c-1.63,2.15-3.37,4.2-5.23,6.15-2.03,2.39-4.5,2.96-7.42,1.7-2.73-1.19-4.34-1.78-4.81-1.77-2.54.03-2.87.9-.98,2.62,1.74,1.58,1.7,2.86-.11,3.84-.36.2-.63.46-.76.73-.75,1.55-.04,2.19,2.13,1.93,1.13-.13,1.97.42,2.53,1.66-1.39,1.91-2.91,3.72-4.56,5.44-1.36,1.42-2.3,3.04-2.84,4.86-.41,1.42-.28,2.61.4,3.57.91,1.29,2.28,1.68,4.11,1.18,1.28-.35,1.95-.53,1.99-.54,1.93-.38,3.87-.71,5.83-.97,3.13-.55,5.07.65,5.8,3.59.27,2.4.56,4.8.87,7.19.41,2.97,1,5.3,1.78,6.98,1.53,3.29,3.7,5.83,6.53,7.61,5.17,3.24,11.23,4.48,18.19,3.71,13.02-1.43,23.06-7.39,30.13-17.89,1.97-2.93,2.97-4.42,3.01-4.47,2.65-3.7,4.06-5.64,4.23-5.83,1.58-1.64,3.46-2.82,5.64-3.54,3.52-1.15,5.56-1.95,6.11-2.4,1.67-1.39,2.76-3.14,3.25-5.27,1.16-5.06,4.15-6.51,8.98-4.33,2.56,1.15,4.29.32,5.21-2.49.47-1.58.58-2.78.32-3.59-.76-2.42.14-4.01,2.7-4.77,1.41-.42,1.7-1.04.88-1.85-.25-.25-.71-.49-1.37-.72-1.7-.57-2.13-1.65-1.32-3.22.44-.85.69-1.4.74-1.66.26-1.34-.47-1.7-2.19-1.06-.85.31-1.95,1.1-3.32,2.37-1.35,1.26-2.45,2.01-3.29,2.24-1.72.47-3.45.2-5.21-.81-.8-.47-3.97-2.57-9.51-6.29,3.64-4.02,6.33-8.62,8.06-13.78.78-.34,1.61-.46,2.49-.36,13.07-.43,26.13-.35,39.19.22.17.01.53-.12.94-.35Zm-238.26,120.37c2.14.71,3.73,1.56,4.78,2.56,1.19,1.13,1.77.86,1.74-.81l-.13-8.57c0-.34.28-.61.64-.6.09,0,.18.02.26.05l4,1.66c.5.2,1.07-.04,1.27-.55.03-.07.05-.13.06-.2.45-2.73,2.45-4.56,6.01-5.49,1.14-.3,2.29-.44,3.46-.42,1.56.03,3.06-1.21,4.51-3.7.12-.22.4-.29.61-.17.04.02.08.05.11.09l4.1,4.4c.34.37.93.39,1.31.03.09-.08.16-.18.21-.29l1.17-2.55c.18-.37.63-.52,1-.33.11.05.21.13.28.23,1.66,2.17,3.7,3.74,6.14,4.71.91.36,1.17.09.8-.82-1.92-4.57-2.55-9.61-1.91-15.14.13-1.16-.34-1.51-1.4-1.03-3.24,1.46-5.93,3.67-8.05,6.64-.17.24-.5.29-.73.13,0,0-.01,0-.02-.01-2.48-1.99-4.2-4.53-5.17-7.62-.85-2.73-1.61-2.7-2.26.09-.57,2.46-1.01,5.9-1.32,10.3-.02.37-.33.65-.7.64-4.88-.17-9.03-1.5-12.46-3.98-.63-.46-.92-.27-.85.55l.52,6.24c.02.25-.2.46-.49.48-.02,0-.05,0-.07,0l-6.28-.49c-.24-.02-.44.19-.46.46,0,.03,0,.06,0,.09l.98,9.07c.06.55-.31,1.05-.84,1.12-.09.01-.18,0-.27,0l-6.95-1.13c-1.11-.18-1.28.17-.49,1.04,2.26,2.5,4.05,5.3,5.36,8.4.53,1.25.96,1.35,1.28.28.09-.29.07-.66-.04-1.05-.38-1.28-.49-2.58-.33-3.9.04-.26.28-.44.54-.41.03,0,.06.01.08.02Z"/>
        <path d="m746.28,419.73c-1.73,5.16-4.42,9.75-8.06,13.78l-4.7,3.87c-7.3,3.41-15.21,5.9-23.73,7.46-11.69,2.15-23.01,1.42-33.95-2.21l-6.08-3.04-5.02-3.91c-3.93-4.57-6.6-9.79-8.02-15.67,1.93,0,3.76.45,5.48,1.34.53,1.9,1.47,3.57,2.81,5.02,3.75,5.05,8.82,8.54,15.2,10.46,6.97,2.1,13.78,2.92,20.45,2.47,10.52-.71,20.54-3.31,30.06-7.78,1.23-.58,3-2.05,5.32-4.4,1.79-1.61,3.17-3.51,4.15-5.72,1.92-.93,3.95-1.48,6.08-1.66Z"/>
        <path class="cls-12" d="m663.3,421.13c9.55,2.49,21.92,5.49,37.1,9.01l38.16-8.94c.08-.02.42.01,1.02.1l.62.09c-.97,2.2-2.35,4.11-4.15,5.72-.09-.8-.48-.99-1.17-.57-10.52,2.6-21.02,5.27-31.51,8-1.89.49-3.8.7-5.74.63-10.49-2.99-20.99-5.94-31.51-8.84-.18-.05-.55-.04-1.11.04-1.34-1.44-2.28-3.12-2.81-5.02.21-.27.57-.34,1.08-.21Z"/>
        <path class="cls-6" d="m848.83,426.09c-.43,1.33-.51,2.7-.23,4.1-.31,2.54.25,4.67,1.69,6.41.71.85,1.99,1.54,3.85,2.07,1.45.41,2.86.94,4.23,1.59.64.29,1,.67,1.08,1.12.13.67-.28,1.19-1.23,1.57-2.95-.27-3.94.84-2.99,3.32.15.39.19.76.12,1.05-.27,1.14-.91,1.35-1.9.63-2.15-1.55-4.05-1.64-5.69-.28-1.09.9-1.81,1.41-2.16,1.54-1.88.69-2.63-.2-2.24-2.64.36-2.32.42-4.19.17-5.59l-1.66-12.71,6.95-2.17Z"/>
        <path class="cls-1" d="m665.02,426.36c.56-.08.93-.1,1.11-.04,10.52,2.9,21.02,5.85,31.51,8.84,1.94.07,3.85-.14,5.74-.63,10.49-2.73,20.99-5.4,31.51-8,.69-.41,1.08-.22,1.17.57-2.31,2.35-4.09,3.82-5.32,4.4-9.52,4.47-19.54,7.07-30.06,7.78-6.67.46-13.49-.36-20.45-2.47-6.38-1.92-11.45-5.41-15.2-10.46Z"/>
        <path class="cls-6" d="m804.6,428.02l5.8,1.66-.6,8.8c-.58,2.4-.57,4.79.04,7.19.79,3.08.07,4.07-2.14,2.97-1.56-.77-2.86-1.63-3.9-2.56-.75-.67-1.9-.66-2.64.04-1.72,1.62-2.8,1.86-3.26.71-.1-.26-.06-.64.11-1.04.4-.91.34-1.75-.18-2.52-.18-.27-.51-.46-.9-.54l-3.35-.65c-.21-1.08.13-1.84,1-2.28.96-.49,2.42-1.03,4.39-1.6,1.78-.52,3.04-1.3,3.8-2.34,1.58-2.17,2.19-4.78,1.82-7.83Z"/>
        <path class="cls-1" d="m841.87,428.25l1.66,12.71c-1.6-.31-3.41-.1-5.42.62-3.38,1.22-7.27,1.85-11.67,1.87-2.98.01-8.12-1.02-15.41-3.11-.73-.21-1.14-.84-1.22-1.87l.6-8.8c10.58,1.42,21.07.95,31.46-1.43Z"/>
        <path class="cls-6" d="m738.22,433.5c5.54,3.72,8.7,5.82,9.51,6.29,1.75,1.01,3.49,1.28,5.21.81.85-.24,1.95-.98,3.29-2.24,1.36-1.27,2.47-2.06,3.32-2.37,1.72-.63,2.45-.28,2.19,1.06-.05.26-.3.81-.74,1.66-.82,1.57-.38,2.64,1.32,3.22.66.23,1.12.47,1.37.72.82.81.52,1.43-.88,1.85-2.56.75-3.46,2.34-2.7,4.77.26.82.15,2.02-.32,3.59-1.28.42-2.34.21-3.21-.62-1.75-1.7-3.45-2.94-5.12-3.73-5.7-2.7-11.18-5.78-16.44-9.25-.71-.47-1.21-1.1-1.49-1.88l4.7-3.87Z"/>
        <path class="cls-13" d="m733.53,437.37c.28.78.78,1.41,1.49,1.88,5.26,3.47,10.74,6.56,16.44,9.25,1.67.79,3.37,2.03,5.12,3.73.86.83,1.93,1.04,3.21.62-.91,2.81-2.65,3.64-5.21,2.49-4.83-2.17-7.82-.73-8.98,4.33-.49,2.13-1.58,3.89-3.25,5.27-.55.45-2.59,1.25-6.11,2.4-2.17.71-4.05,1.89-5.64,3.54-.18.18-1.59,2.13-4.23,5.83-.04.04-1.04,1.53-3.01,4.47-7.07,10.5-17.11,16.46-30.13,17.89-6.96.77-13.02-.47-18.19-3.71-2.83-1.78-5.01-4.31-6.53-7.61-.78-1.68-1.37-4.01-1.78-6.98-.32-2.39-.61-4.78-.87-7.19-.74-2.94-2.67-4.14-5.8-3.59-1.95.27-3.9.59-5.83.97-.04,0-.71.19-1.99.54-1.84.5-3.21.11-4.11-1.18-.68-.97-.81-2.16-.4-3.57.54-1.82,1.49-3.44,2.84-4.86,1.64-1.72,3.16-3.53,4.56-5.44l1.4,4.36c.7,2.17,1.67,2.17,2.91,0,1.22-2.14,2.71-4.06,4.47-5.76,4.13-3.99,8.12-8.13,11.95-12.42,10.95,3.63,22.26,4.36,33.95,2.21,8.51-1.56,16.42-4.05,23.73-7.46Z"/>
        <path class="cls-13" d="m809.81,438.48c.08,1.03.49,1.65,1.22,1.87,7.3,2.09,12.43,3.12,15.41,3.11,4.4-.02,8.29-.64,11.67-1.87,2.01-.72,3.82-.93,5.42-.62.25,1.41.2,3.27-.17,5.59-.38,2.45.36,3.33,2.24,2.64.35-.13,1.06-.64,2.16-1.54,1.64-1.36,3.54-1.27,5.69.28,1,.72,1.63.51,1.9-.63.07-.29.03-.66-.12-1.05-.96-2.48.04-3.58,2.99-3.32l-.69,3.29c-.07.37-.06.72.03,1.06.81,2.76-.42,4.35-3.7,4.79-2.71.37-4.2,2.09-4.46,5.16-.25,3.05-1.54,5.55-3.88,7.51-1.74,1.46-2.97,3.25-3.69,5.38-.38,1.13-.58,1.71-.6,1.75-4.02,10.25-10.69,18-20.03,23.24-3.52,1.98-6.61,3.09-9.28,3.34-3.25.3-6.62-.25-10.09-1.67-2.29-.93-3.84-2.13-4.64-3.59-3.01-5.45-4.21-11.14-3.62-17.05.21-2.14,1.05-5.06,2.51-8.76,1.12-2.84,2.19-5.7,3.21-8.59.6-1.68.46-3.3-.41-4.85-1.32-2.37-2.92-4.95-4.79-7.74-.97-1.44-1.14-2.82-.51-4.15l3.35.65c.39.08.71.27.9.54.52.77.57,1.61.18,2.52-.17.4-.21.78-.11,1.04.46,1.15,1.54.91,3.26-.71.74-.7,1.89-.72,2.64-.04,1.05.94,2.35,1.79,3.9,2.56,2.22,1.1,2.93.11,2.14-2.97-.61-2.4-.63-4.79-.04-7.19Z"/>
        <path class="cls-6" d="m669.77,439.58l6.08,3.04c-3.83,4.28-7.82,8.42-11.95,12.42-1.76,1.7-3.25,3.62-4.47,5.76-1.24,2.17-2.21,2.17-2.91,0l-1.4-4.36c-.56-1.24-1.4-1.79-2.53-1.66-2.17.26-2.89-.39-2.13-1.93.14-.27.4-.53.76-.73,1.81-.97,1.85-2.25.11-3.84-1.89-1.72-1.56-2.59.98-2.62.47,0,2.07.58,4.81,1.77,2.92,1.25,5.39.69,7.42-1.7,1.86-1.95,3.6-3.99,5.23-6.15Z"/>
        <path class="cls-13" d="m573.41,511.87c.65-2.79,1.4-2.82,2.26-.09.97,3.09,2.7,5.63,5.17,7.62.22.18.55.14.74-.09,0,0,.01-.01.01-.02,2.12-2.97,4.81-5.19,8.05-6.64,1.07-.48,1.54-.14,1.4,1.03-.64,5.52,0,10.57,1.91,15.14.38.91.11,1.18-.8.82-2.43-.97-4.48-2.54-6.14-4.71-.25-.34-.73-.41-1.06-.17-.1.07-.17.16-.23.27l-1.17,2.55c-.23.47-.78.68-1.24.47-.11-.05-.2-.12-.28-.21l-4.1-4.4c-.16-.18-.45-.19-.63-.02-.03.03-.06.07-.09.11-1.45,2.5-2.96,3.73-4.51,3.7-1.17-.02-2.33.12-3.46.42-3.56.94-5.56,2.77-6.01,5.49-.09.54-.59.9-1.12.81-.07-.01-.14-.03-.2-.06l-4-1.66c-.33-.14-.71,0-.85.31-.03.08-.05.16-.05.24l.13,8.57c.03,1.67-.55,1.93-1.74.81-1.05-1-2.64-1.86-4.78-2.56-.25-.08-.52.05-.6.3,0,.03-.02.06-.02.08-.16,1.32-.05,2.62.33,3.9.12.39.13.76.04,1.05-.32,1.07-.75.98-1.28-.28-1.31-3.1-3.1-5.9-5.36-8.4-.79-.87-.63-1.22.49-1.04l6.95,1.13c.52.09,1.02-.29,1.1-.84.01-.09.02-.19,0-.28l-.98-9.07c-.03-.27.14-.52.37-.55.03,0,.05,0,.08,0l6.28.49c.29.02.54-.16.56-.41,0-.02,0-.04,0-.06l-.52-6.24c-.07-.83.22-1.01.85-.55,3.43,2.48,7.58,3.81,12.46,3.98.36.01.67-.27.7-.64.3-4.41.74-7.84,1.32-10.3Z"/>
        <path class="cls-13" d="m448.33,591.09c.24.92.24,1.64,0,2.17-4.27,9.07-6.46,18.49-6.56,28.24-.07,6.91,1.08,14.15,3.45,21.72,6.43,20.5,19.19,36.52,38.29,48.07,15.43,9.33,31.71,16.82,48.84,22.48,12.89,4.64,25.89,8.95,38.98,12.95,13.75,4.19,27.7,7.45,41.86,9.77,7.36,1.21,14.67,2.04,21.95,2.5,42.98,2.69,85.12-3.94,126.41-19.9,11.03-4.26,23.44-7.05,37.25-8.36,11.03-1.05,23.24-.8,36.63.74,6.77.78,10.18,1.17,10.24,1.17,13.81,1.39,28.32,2.41,43.52,3.06,13.61.59,26.88-.41,39.81-3,10.92-2.17,21.59-5.17,32.01-8.98,7.52-2.75,14.22-5.78,20.1-9.09,13.37-7.52,25.46-17.2,36.26-29.03,9.6-10.53,15.52-22.57,17.76-36.14.04-5.75.51-11.46,1.43-17.14,1.41,1.93,2.52,4.03,3.34,6.29,7.3,16.68,13.62,33.72,18.95,51.13,6.01,19.66,9.53,39.77,10.56,60.32.14.78.03,1.52-.32,2.21-.61-.39-1.5-1.15-2.65-2.28-1.97-1.92-4.26-3.07-6.87-3.46-2.17-.32-4.59.02-7.25,1.03-3.66,1.39-7.06,3.54-10.2,6.43-5.19,4.8-9.71,9.48-13.58,14.05-2.5,2.96-3.97,4.81-4.41,5.53-1.26,2.06-2,4.35-2.21,6.89-1.07,12.47,3.57,22.01,13.93,28.62,5.66,3.61,11.72,6.39,18.16,8.34,6.99,2.12,14.09,3.73,21.29,4.84,14.53,2.25,29.13,4,43.79,5.25,16.03,1.37,33.18,4.97,51.44,10.8,14.38,4.59,27.96,10.81,40.74,18.65,3.21,1.98,7.73,5.24,13.57,9.81,5.76,4.5,10.35,7.67,13.79,9.53,4.18,2.25,8.6,3.8,13.28,4.64,6.51,1.17,12.36-.19,17.55-4.09,1.52-1.14,2.63-1.77,3.34-1.87-.37,2.7-1.17,5.28-2.4,7.74-2.4,3.74-5.1,6.85-8.13,9.33-2.9,2.37-6.16,3.95-9.8,4.74-2.94.64-6.12.58-9.54-.19-3.17-.71-6.22-1.81-9.14-3.29-5.33-2.7-9.15-4.78-11.46-6.24-7.37-4.65-15.02-8.78-22.96-12.38-6.79-3.09-13.9-5.02-21.33-5.79-11.31-1.19-22.64-1.53-34.01-1.02-16.2.73-32.34,2.15-48.42,4.27-20.28,2.67-37.58,6.1-51.9,10.29-6.91,2.03-14.56,2.2-22.94.51-11.39-4.89-18.3-13.58-20.73-26.09-.35-1.79-.87-1.85-1.58-.17-1.7,4.08-2.99,8.39-3.88,12.94-2.5,12.74-8.67,23.3-18.52,31.68-.7.6-1.37,1.48-2,2.65-6.71,2.4-13.53,4.43-20.46,6.09-22.21,5.36-44.69,9.22-67.43,11.6-.01-.46.38-1.43,1.17-2.93,7.19-13.52,9.26-28.35,6.22-44.5-1.23-6.51-3.12-12.82-5.68-18.93-5.23-12.45-13.92-20.95-26.09-25.52-3.36-1.26-6.53-1.82-9.51-1.68-3.29.15-6.5.87-9.64,2.14-2.55,1.04-5.41,1.26-8.58.66-1.5-.28-2.44-1.15-2.82-2.62-.35-1.32-.69-2.54-1.02-3.65-.71-2.42-2.33-3.79-4.86-4.1-.49-.06-2.15-.04-4.98.04-1.71-1.52-3.37-2.36-4.98-2.53-3.07-.32-6.67.04-10.78,1.11-5.96,1.53-14.44,5.01-25.46,10.43-8.93,4.39-18.11,8.14-27.53,11.25-5.26,1.73-12.32,3.83-21.18,6.3-14.65,4.08-29.49,7.31-44.52,9.68-7.94,1.26-15.26,1.99-21.97,2.19-14.95.44-29.31-.7-43.07-3.44-22.77-4.53-45.46-11.74-68.08-21.61-6.2-2.7-10.98-4.39-14.35-5.04-14.14-2.73-27.61.08-40.42,8.41-2.86,1.86-5.3,3.69-7.33,5.51-2.2,1.96-3.81,4.35-4.84,7.16-2.94,8.01-2.79,15.82.46,23.44,1.56,3.65,3.91,7.17,7.05,10.56,2.9,3.15,6.16,5.92,9.77,8.33,8.13,5.42,16.78,9.83,25.94,13.24,13.54,5.05,27.38,9.06,41.53,12.04,24.37,5.14,48.94,9.07,73.71,11.76,29.14,3.18,58.34,3.98,87.62,2.39,17.67-.96,35.28-2.54,52.85-4.74,13.13-1.15,25.9-3.94,38.31-8.37,6.49-2.32,12.86-4.91,19.12-7.75,7.03-3.19,12.55-6.53,16.55-10.02,7.19-6.26,12.66-13.85,16.41-22.79.51-1.2,1.13-2.07,1.87-2.6,3.1,16.69-.6,31.38-11.12,44.07-.03.04-.55.53-1.55,1.48-.85.82-1.32,1.85-1.43,3.1-.84-.08-1.88.37-3.11,1.36-9.47,7.58-20.46,13.32-32.96,17.24-3.2,1-7.72,2.26-13.55,3.78-4.89,1.28-9.47,2.28-13.74,3.03-13.52,2.35-27.51,3.95-41.96,4.81-6.11.36-13.48.58-22.1.66-54.86.5-109.46-2.97-163.79-10.41-10.49-1.44-17.79-2.53-21.89-3.27-15.44-2.81-30.47-7.16-45.09-13.07-1.53-.61-3.1-1.07-4.72-1.36-.43-.3-.81-.66-1.14-1.06-.38-.46-.74-.79-1.11-1.01-8.76-5.09-15.45-10.86-20.08-17.3-7.24-10.08-9.68-21.18-7.32-33.32.12-.61-.11-.79-.67-.54-8.14,3.52-16.64,5.33-25.52,5.43-12.66.13-24.72-2.44-36.16-7.71,4.44-15.39,4.85-30.9,1.23-46.52-2.61-11.24-6.74-21.93-12.38-32.07-.17-.29-.07-.66.22-.83.05-.03.11-.05.16-.06,8.59-2.02,15.5-6.71,20.75-14.09,3.34-4.69,4.97-9.52,4.9-14.49-.07-5.2-.53-9.53-1.38-12.99-3.74-15.34-12.94-25.22-27.57-29.64-11.24-3.41-21.94-2.4-32.11,3.03-3.35,1.79-6.05,3.84-8.08,6.16-2.2,2.5-4.01,5.43-5.44,8.79-.19.44-.7.65-1.14.46-.02,0-.05-.02-.07-.03-15.57-8.33-31.96-13.34-49.14-15.02-1.4-.14-1.75-.88-1.06-2.21,1.5-.35,2.89-.98,4.17-1.87,14.72-8.86,29.28-17.97,43.69-27.32,23.84-15.46,46.77-32.17,68.81-50.11,11.09-9.02,21.63-18.64,31.62-28.87.96-.98,2-1.86,3.13-2.63Z"/>
        <path d="m4.78,623.39h31.21c.86,0,1.6.62,1.74,1.47.52,3.35.04,6.12-1.44,8.31-8.31,12.25-16.84,24.36-25.58,36.33-.43.58-.28.87.44.87,7.87,0,15.68-.08,23.42-.23,2.72-.05,3.7,1.98,2.95,6.08-.25,1.4-1.08,2.1-2.5,2.11l-32.92.06c-1.02,0-1.88-.77-1.99-1.79-.42-3.8.46-7.17,2.63-10.11,8.4-11.37,16.58-22.89,24.54-34.57.21-.3.13-.45-.23-.45l-22.74-.07c-.58,0-1.11-.33-1.36-.85-.85-1.72-1-3.53-.46-5.43.29-1.03,1.23-1.74,2.3-1.74Z"/>
        <path class="cls-1" d="m267.42,675.73c6.76,1.29,12.91,3.91,18.45,7.85,6.04,4.3,9.72,10.4,11.03,18.31-.69,1.33-.34,2.07,1.06,2.21,17.19,1.69,33.57,6.7,49.14,15.02.42.23.94.06,1.17-.36.01-.02.02-.05.03-.07,1.43-3.36,3.24-6.29,5.44-8.79,2.03-2.31,4.73-4.37,8.08-6.16,10.16-5.42,20.87-6.43,32.11-3.03,14.64,4.42,23.83,14.3,27.57,29.64.85,3.46,1.31,7.79,1.38,12.99.07,4.98-1.56,9.81-4.9,14.49-5.25,7.37-12.17,12.07-20.75,14.09-.33.08-.53.4-.45.73.01.06.04.11.06.16,5.65,10.14,9.77,20.83,12.38,32.07,3.63,15.63,3.22,31.13-1.23,46.52l-4.51,10.5c-.75-.29-1.36-.27-1.82.07-8.36,6.07-17.41,10.86-27.14,14.35-12.91,4.64-26.17,7.8-39.79,9.5-10.39,1.28-22.28,2.06-35.68,2.34-22.05.46-42.78-.36-62.19-2.47-4.56-.49-11.56-1.6-21.01-3.34-21.81-4.01-42.1-10.84-60.87-20.5-6.53-3.36-11.46-6.12-14.79-8.28-4.8-3.1-9.22-6.67-13.26-10.69-5.15-5.13-8.64-10.03-10.47-14.7-2.31-5.88-2.78-12.12-1.43-18.73,1.15-5.59,3.32-11.2,6.5-16.8.04-.06.11-.4.22-1.02l.12-.72c26.9-9.48,49.56-25.07,67.97-46.79,8.1-9.55,17.55-17.55,28.35-23.98.48-.29.77-.82.74-1.38-.41-8.23,1.27-15.66,5.02-22.29,5.7-10.05,13.68-16.66,23.96-19.81,6.25-1.92,12.74-2.23,19.48-.95Zm94.16,60.43c-.46.39-.85.43-1.16.12-.17-.17-.25-.46-.25-.88,0-2.07-.44-4.04-1.3-5.89-.21-.46-.42-.46-.63.01-1.25,2.8-2.99,5.24-5.22,7.32-.33.31-.51.66-.45.88.07.28.41.26,1.03-.06.99-.51,2.12-1.04,3.37-1.58,1.11-.48,1.5-.14,1.17,1.03l-1.23,4.39c-.3,1.07.13,1.43,1.28,1.07l6.05-1.84c.29-.09.59.08.68.38,0,.02.01.04.02.06l.73,3.94c.12.62.68,1.05,1.27.94.06-.01.12-.03.18-.05,1.41-.51,2.64-.42,3.69.27,1.78,1.16,3.25,2.64,4.42,4.42.96,1.47,2.56,2.38,4.82,2.73.25.04.42.28.38.54,0,.05-.02.1-.05.14l-2.52,4.91c-.53,1.02-.23,1.4.9,1.14,2.53-.58,3.42-.11,2.68,1.42-1.02,2.1-1.57,4.32-1.65,6.67-.02.65.2.74.66.29,3.41-3.38,7.52-5.7,12.35-6.94,1.54-.41,1.58-.94.13-1.59-1.3-.59-2.37-1.7-3.2-3.34,9.18-5.78,11.69-13.65,7.53-23.6-2.16-5.17-5.72-8.51-10.69-10.04-4.39-1.34-8.83-.95-13.31,1.18-5.11,2.43-9,6.42-11.67,11.96Zm-160.64,39.54c6.32.46,12.32,1.37,17.98,2.75,3.32.8,6.77,2.37,10.37,4.71.37.24,1.43,1.11,3.17,2.63,1.33,1.15,2.62,1.74,3.87,1.78,2.16.06,2.69-.84,1.59-2.7-2.35-3.97-6.31-7.03-11.87-9.17-8.35-3.21-16.75-3.39-25.19-.54-.86.29-.84.46.08.53Zm32.48,32.66c-.57-1.25-.26-2.21.94-2.89,1.44-.8,2.78-1.5,4.02-2.08,1.92-.89,3.17-1.71,3.75-2.44,1.36-1.75.87-3.44-1.47-5.06-.29-.2-.65-.27-1.01-.21-2.22.38-5.7,1.29-10.45,2.74-14.11,4.33-26.43,1.72-36.95-7.81-1.67-1.51-2.32-1.16-1.96,1.06.95,5.86,2.82,11.08,5.59,15.66,7.89,12.99,19.43,17.37,34.63,13.13,1.61-.45,2.84-1.23,3.7-2.33.75-.95,1.02-2.25.8-3.89-.29-2.21-.82-4.17-1.6-5.88Z"/>
        <path d="m70.22,679.5c5.86,1.98,11.65,4.15,17.38,6.49.32.13.53.43.52.75-.03,2.2-.72,3.77-2.08,4.71-7.69,5.33-15.48,10.62-23.38,15.87-.62.42-.57.77.14,1.04l14.17,5.41c.32.12.55.42.57.76.13,1.34-.25,2.52-1.14,3.55-.23.26-.59.35-.91.23l-20.32-7.56c-.32-.12-.53-.43-.53-.77,0-2.41,1.02-4.23,3.04-5.47,1.06-.66,1.61-1.01,1.65-1.03,6.69-4.7,13.57-9.35,20.62-13.96.62-.41.58-.74-.12-1.01l-12.46-4.73c-.71-.28-1.12-1.03-.98-1.79.55-2.93,1.82-3.75,3.83-2.48Z"/>
        <path class="cls-16" d="m386.57,723.01c4.97,1.53,8.53,4.87,10.69,10.04,4.16,9.96,1.65,17.83-7.53,23.6-1.7.06-3.28-.34-4.72-1.19-.27-.16-.38-.51-.24-.82,1.16-2.63,2.86-5.01,5.09-7.13,1.26-1.2,1.07-1.62-.56-1.25l-9.51,2.12c-.39.08-.76-.1-.9-.43-1.47-3.58-1.79-7.54-.96-11.87.1-.53-.1-.66-.62-.4l-4.77,2.47c-.41.21-.94-.02-1.17-.52-.03-.06-.05-.12-.07-.19l-1.27-4.64c-.06-.23-.33-.35-.61-.27-.03,0-.05.02-.08.03l-7.76,3.6c2.68-5.54,6.57-9.53,11.67-11.96,4.48-2.13,8.92-2.52,13.31-1.18Z"/>
        <path class="cls-1" d="m1059.55,726.55c2.61.39,4.9,1.54,6.87,3.46,1.16,1.13,2.04,1.89,2.65,2.28,3.83,4.72,8.35,8.35,13.59,10.9,3.4,1.65,8.79,3.45,16.19,5.41,11.23,2.97,22.62,4.11,34.2,3.42,6.93-.42,14.18-1.64,21.75-3.67,9.22-2.46,18.46-5.86,27.72-10.18,4.13-1.93,8.9-3.14,14.31-3.63,9.04-.81,18.46.08,28.26,2.66,4.58,1.21,8.21,3.39,10.87,6.53,1.91,2.26,3.55,4.68,4.92,7.26.89,1.68,1.96,4.38,3.21,8.1,5.27,15.74,11.32,31.18,18.14,46.32,3.44,7.63,6.52,16.33,9.23,26.09,2.24,8.06,2.69,15.89,1.34,23.49-.71.1-1.82.73-3.34,1.87-5.19,3.9-11.04,5.26-17.55,4.09-4.67-.85-9.1-2.4-13.28-4.64-3.43-1.86-8.03-5.03-13.79-9.53-5.84-4.56-10.36-7.83-13.57-9.81-12.78-7.84-26.36-14.06-40.74-18.65-18.26-5.83-35.41-9.43-51.44-10.8-14.66-1.25-29.26-3-43.79-5.25-7.21-1.11-14.31-2.73-21.29-4.84-6.45-1.95-12.5-4.72-18.16-8.34-10.36-6.61-15-16.15-13.93-28.62.21-2.54.95-4.83,2.21-6.89.44-.72,1.91-2.56,4.41-5.53,3.86-4.57,8.39-9.25,13.58-14.05,3.14-2.9,6.54-5.04,10.2-6.43,2.66-1.01,5.08-1.35,7.25-1.03Z"/>
        <path class="cls-13" d="m358.86,729.5c.86,1.86,1.3,3.82,1.3,5.89,0,.42.08.72.25.88.31.31.7.27,1.16-.12l7.76-3.6c.26-.12.56-.04.66.18.01.02.02.04.02.07l1.27,4.64c.14.53.63.87,1.08.77.05-.01.11-.03.16-.06l4.77-2.47c.52-.27.72-.13.62.4-.83,4.33-.5,8.29.96,11.87.13.33.51.51.9.43l9.51-2.12c1.64-.37,1.82.05.56,1.25-2.23,2.12-3.92,4.5-5.09,7.13-.13.31-.03.66.24.82,1.44.85,3.02,1.25,4.72,1.19.83,1.64,1.89,2.75,3.2,3.34,1.45.66,1.41,1.19-.13,1.59-4.83,1.25-8.94,3.56-12.35,6.94-.46.46-.69.36-.66-.29.07-2.34.62-4.57,1.65-6.67.74-1.53-.15-2-2.68-1.42-1.13.27-1.43-.11-.9-1.14l2.52-4.91c.12-.23.03-.52-.19-.64-.04-.02-.09-.04-.14-.05-2.26-.35-3.86-1.26-4.82-2.73-1.17-1.78-2.65-3.26-4.42-4.42-1.05-.69-2.28-.77-3.69-.27-.55.21-1.18-.11-1.4-.7-.02-.06-.04-.13-.05-.19l-.73-3.94c-.06-.31-.34-.51-.64-.46-.02,0-.04,0-.06.01l-6.05,1.84c-1.16.35-1.58,0-1.28-1.07l1.23-4.39c.32-1.16-.07-1.51-1.17-1.03-1.25.55-2.38,1.07-3.37,1.58-.62.32-.96.34-1.03.06-.05-.23.12-.57.45-.88,2.23-2.08,3.97-4.52,5.22-7.32.21-.47.42-.48.63-.01Z"/>
        <path d="m44.36,733.32c.67-.13,1.34.2,1.67.8.8,1.47.98,2.98.54,4.54-.03.1-.63,1.43-1.79,3.99-3.33,7.34-6.69,14.57-10.07,21.68-.34.71-.12,1,.66.85l14.69-2.68c.35-.06.7.04.93.28,1.02,1.05,1.34,2.34.94,3.87-.08.33-.35.58-.7.66-7.05,1.67-14.18,2.97-21.37,3.88-.35.04-.68-.12-.84-.41-1.08-1.92-1.14-3.95-.2-6.09,3.96-8.12,7.71-16.34,11.25-24.64.15-.34.04-.48-.33-.43-4.27.6-8.51,1.36-12.71,2.28-2,.17-2.87-1.14-2.61-3.92.05-.51.43-.93.93-1.02l19-3.64Z"/>
        <path class="cls-8" d="m226.05,775.7c5.56,2.14,9.52,5.19,11.87,9.17,1.1,1.86.57,2.76-1.59,2.7-1.25-.04-2.54-.63-3.87-1.78-1.75-1.52-2.8-2.4-3.17-2.63-3.6-2.34-7.05-3.91-10.37-4.71-5.66-1.38-11.65-2.3-17.98-2.75-.91-.07-.94-.24-.08-.53,8.44-2.85,16.83-2.66,25.19.54Z"/>
        <path class="cls-13" d="m192.26,790.61c10.52,9.53,22.83,12.13,36.95,7.81,4.75-1.45,8.23-2.37,10.45-2.74.35-.06.72.01,1.01.21,2.34,1.62,2.83,3.31,1.47,5.06-.57.74-1.82,1.55-3.75,2.44-1.25.58-2.59,1.28-4.02,2.08-1.2.67-1.51,1.63-.94,2.89.78,1.71,1.32,3.67,1.6,5.88.22,1.64-.04,2.94-.8,3.89-.86,1.11-2.1,1.88-3.7,2.33-15.2,4.24-26.74-.14-34.63-13.13-2.78-4.58-4.64-9.8-5.59-15.66-.36-2.22.29-2.57,1.96-1.06Z"/>
        <path class="cls-13" d="m121.9,790.93l-.12.72c-.11.62-.18.96-.22,1.02-3.18,5.61-5.35,11.21-6.5,16.8-1.36,6.6-.88,12.85,1.43,18.73,1.83,4.67,5.32,9.57,10.47,14.7,4.04,4.02,8.46,7.59,13.26,10.69,3.33,2.16,8.26,4.92,14.79,8.28,18.77,9.66,39.06,16.49,60.87,20.5,9.44,1.74,16.44,2.85,21.01,3.34,19.41,2.1,40.14,2.92,62.19,2.47,13.39-.28,25.28-1.06,35.68-2.34,13.62-1.7,26.88-4.86,39.79-9.5,9.74-3.49,18.78-8.28,27.14-14.35.46-.33,1.07-.35,1.82-.07-5.08,10.27-12.32,19.04-21.72,26.32-9.4,7.28-19.36,12.93-29.88,16.95-.34.12-.63.35-.84.65l-.57.81c-1.72.18-3.84.65-6.36,1.43-20.09,6.21-41.01,9.89-62.74,11.06-12.8.69-36.84.84-72.14.46-25.44-.27-50.78-1.91-76.03-4.94-5.06-.6-9.2-.68-12.42-.22-6.8.97-12.9,1.01-18.32.14-3.73-.6-5.06-2.74-4-6.43.27-.92.09-1.79-.41-1.93-8.54-2.55-16.57-6.22-24.07-11.02-.57-.36-1.18-.59-1.85-.7-.18-.43-.44-.79-.8-1.09-4.95-4.16-8.98-9.08-12.1-14.76-3.22-5.86-5.78-11.99-7.68-18.39-.08-.29.02-.36.3-.23.52.25,1.01.09,1.45-.48.57-.71.85-1.08.86-1.09,4.84-4.94,8.27-7.9,10.29-8.9,4.07-1.99,8.19-3.85,12.37-5.59,2.01-.83,3.83-1.96,5.46-3.38,1.14-.63,1.63-1.6,1.45-2.93,3.43-2.74,5.92-6.17,7.47-10.27,1.15-3.01,1.43-5.97.84-8.89-.58-2.93-1.66-5.6-3.23-8.03-2.15-3.32-5.43-5.33-9.83-6.03.38-.77,1.01-1.22,1.88-1.33,1.26-.15,1.91-.23,1.95-.24,13.15-3.54,26.17-7.51,39.06-11.93Zm-39.29,60.61c.31-1.21-.6-2.5-2.03-2.87s-2.86.31-3.17,1.52t0,0c-.31,1.21.6,2.5,2.03,2.87,1.44.37,2.86-.31,3.17-1.52Zm-8.33,1.91c.32-1.19-.59-2.47-2.03-2.86s-2.86.27-3.18,1.46h0c-.32,1.19.59,2.47,2.03,2.86h0c1.44.39,2.86-.27,3.18-1.46Zm7.61,6.9c.26-1.19-.75-2.43-2.26-2.76-1.51-.33-2.94.37-3.21,1.56-.26,1.19.75,2.43,2.26,2.76s2.94-.37,3.21-1.56Z"/>
        <path class="cls-1" d="m815.38,798.07c1.61.17,3.27,1.01,4.98,2.53.92,2.7,1.22,5.43.9,8.18-.29,2.48-.8,4.52-1.54,6.14-.91,2-2.38,3.62-4.41,4.85-1.88,1.14-3.68,2.4-5.4,3.78-1.98,1.58-2.71,3.47-2.2,5.68.38,1.61,1.21,2.99,2.5,4.15,1,.9,2.38,1.64,4.12,2.22,6.29,2.09,11.64.97,16.04-3.36.83-.81,2.27-2.74,4.3-5.79,1.77-2.64,3.28-4.52,4.54-5.65,4.67-4.16,9.74-4.65,15.24-1.47,3.78,2.18,7.05,4.96,9.82,8.35,6.66,8.16,10.9,17.44,12.75,27.84-.74.53-1.36,1.4-1.87,2.6-3.75,8.93-9.22,16.53-16.41,22.79-4,3.49-9.52,6.83-16.55,10.02-6.26,2.85-12.63,5.43-19.12,7.75-12.4,4.43-25.17,7.22-38.31,8.37-17.56,2.2-35.18,3.78-52.85,4.74-29.28,1.59-58.48.8-87.62-2.39-24.77-2.7-49.33-6.62-73.71-11.76-14.14-2.98-27.99-6.99-41.53-12.04-9.16-3.41-17.81-7.83-25.94-13.24-3.61-2.4-6.87-5.18-9.77-8.33-3.14-3.39-5.49-6.91-7.05-10.56-3.25-7.61-3.41-15.43-.46-23.44,1.03-2.82,2.65-5.2,4.84-7.16,2.03-1.81,4.47-3.65,7.33-5.51,12.81-8.34,26.28-11.14,40.42-8.41,3.37.66,8.15,2.34,14.35,5.04,22.62,9.88,45.31,17.08,68.08,21.61,13.76,2.73,28.12,3.88,43.07,3.44,6.71-.2,14.03-.93,21.97-2.19,15.03-2.37,29.87-5.6,44.52-9.68,8.87-2.47,15.93-4.57,21.18-6.3,9.42-3.11,18.6-6.86,27.53-11.25,11.02-5.42,19.51-8.89,25.46-10.43,4.11-1.06,7.71-1.43,10.78-1.11Z"/>
        <path class="cls-10" d="m820.36,800.6c2.82-.09,4.48-.1,4.98-.04,2.54.31,4.16,1.68,4.86,4.1.33,1.11.67,2.33,1.02,3.65.38,1.47,1.32,2.34,2.82,2.62,3.17.6,6.03.38,8.58-.66,3.14-1.28,6.35-1.99,9.64-2.14,2.98-.14,6.15.42,9.51,1.68,12.17,4.56,20.87,13.07,26.09,25.52,2.56,6.11,4.45,12.42,5.68,18.93,3.04,16.15.96,30.98-6.22,44.5-.8,1.5-1.19,2.47-1.17,2.93l-23.22,2.49c.1-1.25.58-2.28,1.43-3.1,1-.95,1.52-1.44,1.55-1.48,10.52-12.69,14.23-27.38,11.12-44.07-1.84-10.4-6.09-19.68-12.75-27.84-2.76-3.38-6.04-6.17-9.82-8.35-5.49-3.18-10.57-2.69-15.24,1.47-1.26,1.13-2.78,3.01-4.54,5.65-2.03,3.05-3.47,4.98-4.3,5.79-4.4,4.33-9.75,5.45-16.04,3.36-1.75-.58-3.12-1.32-4.12-2.22-1.29-1.16-2.12-2.54-2.5-4.15-.51-2.21.22-4.11,2.2-5.68,1.72-1.38,3.52-2.64,5.4-3.78,2.03-1.23,3.5-2.85,4.41-4.85.74-1.61,1.25-3.66,1.54-6.14.32-2.75.03-5.48-.9-8.18Z"/>
        <path class="cls-8" d="m79.02,804.43c4.4.69,7.68,2.7,9.83,6.03,1.57,2.42,2.65,5.1,3.23,8.03.59,2.92.31,5.88-.84,8.89-1.56,4.11-4.05,7.53-7.47,10.27-2.73,1.75-5.13,2.66-7.19,2.72-5,.14-9.97.5-14.93,1.08-3.14.37-5.32,1.99-6.55,4.88-.8,1.86-1.9,3.69-3.31,5.48-.98,1.25-1.83,1.16-2.55-.24-.95-1.83-1.68-3.98-2.2-6.46-2.52-12-3.92-19.02-4.19-21.05-.72-5.36.6-9.52,3.97-12.49,1.63-1.43,4.34-2.57,8.15-3.42,4.06-.91,8.13-1.79,12.19-2.65,3.91-.82,7.86-1.17,11.85-1.06Zm-14.78,6.52c1.77.83,2.96.08,3.56-2.24.32-1.27-.08-1.59-1.21-.97l-2.47,1.34c-1.2.66-1.16,1.28.11,1.88Zm-17.95,12.5c.99,1.02,2.02,1.07,3.1.14,3.46-2.98,7.21-5.42,11.24-7.34,1.07-.51,1.81-1,2.23-1.48.97-1.1,1-2.11.11-3.03-.63-.65-1.6-1.06-2.92-1.23-6.63-.84-11.37,1.77-14.24,7.82-.99,2.08-.83,3.78.48,5.12Z"/>
        <path class="cls-1" d="m66.59,807.73c1.13-.62,1.53-.29,1.21.97-.6,2.32-1.79,3.07-3.56,2.24-1.28-.6-1.31-1.22-.11-1.88l2.47-1.34Z"/>
        <path class="cls-1" d="m62.97,811.75c.89.92.86,1.93-.11,3.03-.42.48-1.16.97-2.23,1.48-4.03,1.92-7.78,4.36-11.24,7.34-1.08.92-2.11.87-3.1-.14-1.3-1.33-1.46-3.04-.48-5.12,2.87-6.05,7.61-8.66,14.24-7.82,1.32.17,2.29.58,2.92,1.23Z"/>
        <path class="cls-10" d="m1000.02,836.89c2.42,12.51,9.33,21.21,20.73,26.09-14.53,9.3-30.1,16.3-46.71,21.01.63-1.17,1.3-2.06,2-2.65,9.85-8.37,16.02-18.93,18.52-31.68.89-4.55,2.19-8.86,3.88-12.94.71-1.68,1.23-1.63,1.58.17Z"/>
        <path class="cls-15" d="m1178.02,848.93c7.43.77,14.54,2.7,21.33,5.79,7.94,3.6,15.59,7.73,22.96,12.38,2.31,1.46,6.14,3.54,11.46,6.24,2.93,1.49,5.97,2.59,9.14,3.29,3.42.77,6.6.83,9.54.19,3.63-.79,6.9-2.37,9.8-4.74,3.02-2.48,5.73-5.59,8.13-9.33,3.52,2.72,6.24,5.78,8.18,9.19,2.71,4.77,1.78,8.69-2.76,11.75-1.53,1.03-3.74,1.89-6.62,2.59-14.9,3.61-29.8,3.6-44.72-.03-5.68-1.16-11.35-2.41-16.99-3.75-8.11-1.92-13.76-3.17-16.96-3.77-42.71-8.05-85.48-7.75-128.29.88-7.93,1.6-18.22,4.23-30.87,7.9-8.87,2.57-15.98,4.48-21.35,5.73-25.94,6.01-52.13,10.61-78.57,13.8-8.64,1.05-14.63,2.04-17.99,2.97-5.9,1.65-11.55,4-16.95,7.04-7.49,4.23-15.1,8.22-22.84,11.96-5.51,2.66-14.43,5.49-26.78,8.48-17.71,4.28-35.67,6.92-53.86,7.93-13.22.73-26.44,1.1-39.68,1.12-11.13,0-16.74.01-16.84.01-39.76.23-76.67-.16-110.7-1.16-34.97-1.03-70.32-4.62-106.04-10.77-9.42-1.62-16.7-2.72-21.85-3.29-17.56-1.98-33.89-2.92-49.01-2.8-22.69.18-48.31,1.29-76.86,3.33-9.79.69-17.14,1.17-22.07,1.44-34.77,1.88-65.83,2.69-93.17,2.42-30.68-.29-61.36-.57-92.04-.83-21.1-.58-42.2-.45-63.31.4-8.12.33-16.2-.11-24.23-1.34-5.69-.86-10.76-2.69-15.21-5.48-3.63-2.28-6.21-5.59-7.73-9.91-1.17-3.34-1.24-6.5-.2-9.47.82-2.34,2.62-4.71,5.41-7.1,3.74-3.21,7.97-5.7,12.68-7.5.66.1,1.28.34,1.85.7,7.5,4.8,15.53,8.47,24.07,11.02.49.15.68,1.01.41,1.93-1.06,3.69.27,5.84,4,6.43,5.42.87,11.52.82,18.32-.14,3.21-.46,7.35-.38,12.42.22,25.25,3.03,50.6,4.68,76.03,4.94,35.3.38,59.34.22,72.14-.46,21.74-1.16,42.65-4.85,62.74-11.06,2.51-.77,4.63-1.25,6.36-1.43,1.35.21,2.27.32,2.76.32,47.26.28,94.52.37,141.79.28,1.67.07,3.33-.03,4.98-.32,1.62.29,3.2.75,4.72,1.36,14.62,5.9,29.64,10.26,45.09,13.07,4.11.74,11.4,1.84,21.89,3.27,54.34,7.44,108.93,10.92,163.79,10.41,8.62-.08,15.99-.3,22.1-.66,14.45-.85,28.43-2.46,41.96-4.81,4.27-.74,8.86-1.75,13.74-3.03,5.84-1.52,10.36-2.78,13.55-3.78,12.5-3.91,23.49-9.66,32.96-17.24,1.23-.99,2.27-1.44,3.11-1.36l23.22-2.49c22.74-2.37,45.21-6.24,67.43-11.6,6.94-1.67,13.76-3.7,20.46-6.09,16.61-4.7,32.18-11.7,46.71-21.01,8.38,1.69,16.03,1.52,22.94-.51,14.31-4.19,31.61-7.62,51.9-10.29,16.08-2.12,32.22-3.54,48.42-4.27,11.37-.51,22.7-.17,34.01,1.02Z"/>
        <ellipse class="cls-1" cx="80.01" cy="850.86" rx="2.27" ry="2.69" transform="translate(-763.78 715.29) rotate(-75.5)"/>
        <ellipse class="cls-1" cx="71.68" cy="852.74" rx="2.23" ry="2.7" transform="translate(-770.56 701.27) rotate(-75)"/>
        <path class="cls-10" d="m408.02,851.42c11.45,5.27,23.5,7.84,36.16,7.71,8.87-.1,17.38-1.91,25.52-5.43.57-.25.79-.07.67.54-2.36,12.14.08,23.25,7.32,33.32,4.63,6.44,11.32,12.21,20.08,17.3.36.21.73.55,1.11,1.01.33.41.71.76,1.14,1.06-1.64.29-3.3.39-4.98.32-47.27.1-94.53,0-141.79-.28-.49,0-1.42-.11-2.76-.32l.57-.81c.21-.3.5-.53.84-.65,10.53-4.02,20.49-9.67,29.88-16.95,9.4-7.28,16.65-16.06,21.72-26.32l4.51-10.5Z"/>
        <ellipse class="cls-1" cx="79.16" cy="859.74" rx="2.21" ry="2.8" transform="translate(-777.52 752.44) rotate(-77.6)"/>
      </g>
    </g>
  </g>
</svg>