<svg width="32" height="32" viewBox="0 0 32 32" fill="none" xmlns="http://www.w3.org/2000/svg">
<circle cx="16" cy="16" r="16" fill="#3B61FF"/>
<path d="M9.19009 21V11.835H15.3781V13.408H11.2051V15.644H15.0921V17.217H11.2051V21H9.19009ZM16.6042 21V11.835H20.7902C21.8128 11.835 22.6015 12.082 23.1562 12.576C23.7108 13.07 23.9882 13.759 23.9882 14.643C23.9882 15.3277 23.8105 15.8997 23.4552 16.359C23.1085 16.8097 22.6102 17.1173 21.9602 17.282C22.4195 17.4207 22.7965 17.7543 23.0912 18.283L24.5732 21H22.3502L20.7642 18.075C20.6342 17.841 20.4738 17.6807 20.2832 17.594C20.0925 17.4987 19.8672 17.451 19.6072 17.451H18.6192V21H16.6042ZM18.6192 15.995H20.4262C21.5095 15.995 22.0512 15.5617 22.0512 14.695C22.0512 13.837 21.5095 13.408 20.4262 13.408H18.6192V15.995Z" fill="white"/>
</svg>
