<svg width="104" height="73" viewBox="0 0 104 73" fill="none" xmlns="http://www.w3.org/2000/svg">
<path d="M10.6919 6.00001C10.6919 2.6863 13.3782 0 16.6919 0H34.2965C42.5275 0 42.7221 6.42908 50.573 8.30233C50.9573 8.39403 51.343 8.43023 51.7381 8.43023C57.9329 8.43023 76.1051 8.43023 85.6344 8.43023C88.9481 8.43023 91.6221 11.1165 91.6221 14.4302V35.3081C91.6221 38.6218 88.9358 41.3081 85.6221 41.3081H16.6919C13.3782 41.3081 10.6919 38.6218 10.6919 35.3081V6.00001Z" fill="#0008C4"/>
<path d="M10.6919 6.00001C10.6919 2.6863 13.3782 0 16.6919 0H34.2965C42.5275 0 42.7221 6.42908 50.573 8.30233C50.9573 8.39403 51.343 8.43023 51.7381 8.43023C57.9329 8.43023 76.1051 8.43023 85.6344 8.43023C88.9481 8.43023 91.6221 11.1165 91.6221 14.4302V35.3081C91.6221 38.6218 88.9358 41.3081 85.6221 41.3081H16.6919C13.3782 41.3081 10.6919 38.6218 10.6919 35.3081V6.00001Z" fill="url(#paint0_linear_2396_14130)" fill-opacity="0.2"/>
<path d="M1.67591 33.9161C1.09834 30.2732 3.91346 26.9766 7.60189 26.9766H96.3983C100.087 26.9766 102.902 30.2732 102.324 33.9161L97.0094 67.4393C96.5473 70.3539 94.0344 72.4998 91.0834 72.4998H12.9168C9.96582 72.4998 7.45293 70.354 6.99084 67.4394L1.67591 33.9161Z" fill="#3B61FF"/>
<defs>
<linearGradient id="paint0_linear_2396_14130" x1="51.157" y1="42.1512" x2="51.157" y2="-26.1337" gradientUnits="userSpaceOnUse">
<stop offset="0.112123"/>
<stop offset="0.395954" stop-opacity="0"/>
</linearGradient>
</defs>
</svg>
