<svg width="13" height="14" viewBox="0 0 13 14" fill="none" xmlns="http://www.w3.org/2000/svg">
<path d="M7.09589 10.7918C6.98876 10.7913 6.88417 10.7591 6.79535 10.6992C6.70652 10.6393 6.63745 10.5545 6.59686 10.4553C6.55628 10.3562 6.546 10.2472 6.56734 10.1422C6.58867 10.0373 6.64066 9.94096 6.71672 9.86552L9.20839 7.38469C9.25916 7.33433 9.29946 7.27442 9.32696 7.20842C9.35446 7.14241 9.36861 7.07161 9.36861 7.0001C9.36861 6.9286 9.35446 6.8578 9.32696 6.79179C9.29946 6.72578 9.25916 6.66588 9.20839 6.61552L6.71672 4.13469C6.66595 4.08433 6.62565 4.02442 6.59815 3.95842C6.57065 3.89241 6.55649 3.82161 6.55649 3.7501C6.55649 3.6786 6.57065 3.6078 6.59815 3.54179C6.62565 3.47578 6.66595 3.41588 6.71672 3.36552C6.81821 3.26463 6.95549 3.20801 7.09859 3.20801C7.24169 3.20801 7.37898 3.26463 7.48047 3.36552L9.96672 5.85177C10.271 6.15646 10.442 6.56948 10.442 7.0001C10.442 7.43073 10.271 7.84375 9.96672 8.14844L7.48047 10.6347C7.42986 10.6849 7.36983 10.7246 7.30383 10.7516C7.23784 10.7785 7.16717 10.7922 7.09589 10.7918Z" fill="#96B0CF"/>
<path d="M3.30417 10.7918C3.19704 10.7913 3.09245 10.7591 3.00363 10.6992C2.9148 10.6393 2.84573 10.5545 2.80515 10.4553C2.76456 10.3562 2.75429 10.2472 2.77562 10.1422C2.79695 10.0373 2.84894 9.94096 2.925 9.86552L5.79042 7.0001L2.925 4.13469C2.87423 4.08433 2.83393 4.02442 2.80643 3.95842C2.77893 3.89241 2.76478 3.82161 2.76478 3.7501C2.76478 3.6786 2.77893 3.6078 2.80643 3.54179C2.83393 3.47578 2.87423 3.41588 2.925 3.36552C3.02649 3.26463 3.16377 3.20801 3.30687 3.20801C3.44998 3.20801 3.58726 3.26463 3.68875 3.36552L6.93875 6.61552C6.98952 6.66588 7.02982 6.72578 7.05732 6.79179C7.08482 6.8578 7.09897 6.9286 7.09897 7.0001C7.09897 7.07161 7.08482 7.14241 7.05732 7.20842C7.02982 7.27442 6.98952 7.33433 6.93875 7.38469L3.68875 10.6347C3.63814 10.6849 3.57811 10.7246 3.51212 10.7516C3.44612 10.7785 3.37545 10.7922 3.30417 10.7918Z" fill="#96B0CF"/>
</svg>
