<svg width="24" height="23" viewBox="0 0 24 23" fill="none" xmlns="http://www.w3.org/2000/svg">
<path fill-rule="evenodd" clip-rule="evenodd" d="M23.4999 11.7616C23.4999 10.9461 23.4253 10.162 23.2866 9.4093H12.2346V13.8577H18.55C18.278 15.2952 17.4512 16.5132 16.2084 17.3286V20.2141H20.0009C22.2198 18.212 23.4999 15.2639 23.4999 11.7616Z" fill="#4285F4"/>
<path fill-rule="evenodd" clip-rule="evenodd" d="M12.2343 22.9998C15.4027 22.9998 18.059 21.9701 20.0006 20.2137L16.2081 17.3282C15.1573 18.0182 13.8132 18.426 12.2343 18.426C9.17798 18.426 6.59101 16.403 5.66823 13.6848H1.74777V16.6644C3.67867 20.4228 7.64713 22.9998 12.2343 22.9998Z" fill="#34A853"/>
<path fill-rule="evenodd" clip-rule="evenodd" d="M5.6686 13.6849C5.43391 12.9949 5.30056 12.2578 5.30056 11.4999C5.30056 10.7419 5.43391 10.0049 5.6686 9.31488V6.33533H1.74815C0.953386 7.88783 0.5 9.6442 0.5 11.4999C0.5 13.3556 0.953386 15.1119 1.74815 16.6644L5.6686 13.6849Z" fill="#FBBC05"/>
<path fill-rule="evenodd" clip-rule="evenodd" d="M12.2343 4.57387C13.9572 4.57387 15.504 5.1541 16.7202 6.29365L20.0859 2.99523C18.0537 1.13955 15.3974 0 12.2343 0C7.64713 0 3.67866 2.57705 1.74777 6.33547L5.66823 9.31502C6.591 6.59683 9.17797 4.57387 12.2343 4.57387Z" fill="#EA4335"/>
</svg>
