<svg width="23" height="23" viewBox="0 0 23 23" fill="none" xmlns="http://www.w3.org/2000/svg">
<path d="M10 4.5L11.5 8V5.5L14.5 3.5L18.5 2.5L21.5 5L22 9.5L19.5 15.5L15.5 19L11.5 21.5L4.5 16.5L1 11L1.5 5L6 3L10 4.5Z" fill="black"/>
<g clip-path="url(#clip0_206_3375)">
<path d="M16.7706 1.83691C15.6915 1.8537 14.6359 2.15494 13.7104 2.71022C12.7849 3.26549 12.0224 4.05514 11.4998 4.99941C10.9771 4.05514 10.2146 3.26549 9.28911 2.71022C8.36365 2.15494 7.30805 1.8537 6.22892 1.83691C4.50866 1.91166 2.88789 2.6642 1.72072 3.93014C0.553539 5.19607 -0.065171 6.8725 -0.000243422 8.59316C-0.000243422 12.9507 4.58634 17.7098 8.43309 20.9365C9.29197 21.6582 10.3779 22.0539 11.4998 22.0539C12.6216 22.0539 13.7075 21.6582 14.5664 20.9365C18.4132 17.7098 22.9998 12.9507 22.9998 8.59316C23.0647 6.8725 22.446 5.19607 21.2788 3.93014C20.1116 2.6642 18.4909 1.91166 16.7706 1.83691ZM13.335 19.4702C12.8213 19.9028 12.1713 20.14 11.4998 20.14C10.8282 20.14 10.1782 19.9028 9.66455 19.4702C4.74063 15.3389 1.91642 11.3752 1.91642 8.59316C1.85091 7.3806 2.26752 6.19132 3.0754 5.28471C3.88327 4.3781 5.01686 3.82771 6.22892 3.75358C7.44099 3.82771 8.57458 4.3781 9.38245 5.28471C10.1903 6.19132 10.6069 7.3806 10.5414 8.59316C10.5414 8.84733 10.6424 9.09109 10.8221 9.27081C11.0018 9.45053 11.2456 9.5515 11.4998 9.5515C11.7539 9.5515 11.9977 9.45053 12.1774 9.27081C12.3571 9.09109 12.4581 8.84733 12.4581 8.59316C12.3926 7.3806 12.8092 6.19132 13.6171 5.28471C14.4249 4.3781 15.5585 3.82771 16.7706 3.75358C17.9827 3.82771 19.1162 4.3781 19.9241 5.28471C20.732 6.19132 21.1486 7.3806 21.0831 8.59316C21.0831 11.3752 18.2589 15.3389 13.335 19.4664V19.4702Z" fill="black"/>
</g>
<defs>
<clipPath id="clip0_206_3375">
<rect width="23" height="23" fill="white"/>
</clipPath>
</defs>
</svg>
