<svg width="41" height="40" viewBox="0 0 41 40" fill="none" xmlns="http://www.w3.org/2000/svg">
<path d="M2.44775 12.057V7.72446C2.44775 4.53427 5.03427 1.94775 8.22446 1.94775H12.557" stroke="white" stroke-miterlimit="10" stroke-linecap="round" stroke-linejoin="round"/>
<path d="M12.557 38.0521H8.22446C5.03427 38.0521 2.44775 35.4656 2.44775 32.2754V27.9429" stroke="white" stroke-miterlimit="10" stroke-linecap="round" stroke-linejoin="round"/>
<path d="M38.5522 27.9429V32.2754C38.5522 35.4656 35.9657 38.0521 32.7755 38.0521H28.443" stroke="white" stroke-miterlimit="10" stroke-linecap="round" stroke-linejoin="round"/>
<path d="M28.443 1.94775H32.7755C35.9657 1.94775 38.5522 4.53427 38.5522 7.72446V12.057" stroke="white" stroke-miterlimit="10" stroke-linecap="round" stroke-linejoin="round"/>
<path d="M34.2919 6.20811C26.6666 -1.4027 14.3334 -1.4027 6.70811 6.20811C-0.902703 13.8334 -0.902703 26.1666 6.70811 33.7919C14.3334 41.4027 26.6666 41.4027 34.2919 33.7919C41.9027 26.1666 41.9027 13.8334 34.2919 6.20811Z" stroke="white" stroke-miterlimit="10" stroke-linecap="round" stroke-linejoin="round"/>
<path d="M12.8459 27.6542C8.6145 23.4228 8.6145 16.5774 12.8459 12.3459C17.0774 8.1145 23.9228 8.1145 28.1542 12.3459C32.3857 16.5774 32.3857 23.4228 28.1542 27.6542C23.9228 31.8857 17.0774 31.8857 12.8459 27.6542Z" stroke="white" stroke-miterlimit="10" stroke-linecap="round" stroke-linejoin="round"/>
<path d="M35.7217 32.1601L29.5407 25.979C29.1363 26.5711 28.6886 27.1343 28.1542 27.6542C27.6343 28.1886 27.0711 28.6363 26.479 29.0407L32.6601 35.2217C33.2233 34.774 33.7721 34.2975 34.292 33.792C34.7975 33.2721 35.274 32.7233 35.7217 32.1601Z" stroke="white" stroke-miterlimit="10" stroke-linecap="round" stroke-linejoin="round"/>
<path d="M12.8458 12.3458C13.3657 11.8115 13.9289 11.3638 14.5211 10.9594L8.33998 4.77832C7.77675 5.22602 7.22796 5.70259 6.70806 6.20806C6.20259 6.72796 5.72602 7.27675 5.27832 7.83998L11.4594 14.0211C11.8638 13.4289 12.3115 12.8657 12.8458 12.3458Z" stroke="white" stroke-miterlimit="10" stroke-linecap="round" stroke-linejoin="round"/>
<path d="M28.1542 12.3458C28.6886 12.8657 29.1363 13.4289 29.5407 14.0211L35.7217 7.83998C35.274 7.27675 34.7975 6.72796 34.292 6.20806C33.7721 5.70259 33.2233 5.22602 32.6601 4.77832L26.479 10.9594C27.0711 11.3638 27.6343 11.8115 28.1542 12.3458Z" stroke="white" stroke-miterlimit="10" stroke-linecap="round" stroke-linejoin="round"/>
<path d="M12.8458 27.6542C12.3115 27.1343 11.8638 26.5711 11.4594 25.979L5.27832 32.1601C5.72602 32.7233 6.20259 33.2721 6.70806 33.792C7.22796 34.2975 7.77675 34.774 8.33998 35.2217L14.5211 29.0407C13.9289 28.6363 13.3657 28.1886 12.8458 27.6542Z" stroke="white" stroke-miterlimit="10" stroke-linecap="round" stroke-linejoin="round"/>
</svg>
