<svg width="145" height="116" viewBox="0 0 145 116" fill="none" xmlns="http://www.w3.org/2000/svg">
<path d="M144.67 25.7598V105.49C144.67 111.01 140.19 115.49 134.67 115.49H10C4.47 115.49 0 111.01 0 105.49V15.7598H134.67C140.19 15.7598 144.67 20.2398 144.67 25.7598Z" fill="#077BF6"/>
<path d="M58.81 15.76H0V10C0 4.48 4.48 0 10 0H45.17L58.81 15.76Z" fill="#077BF6"/>
<path d="M116.781 23.123L20.1718 37.6131C17.2225 38.0555 15.1901 40.805 15.6325 43.7543L21.7584 84.5975C22.2008 87.5468 24.9503 89.5791 27.8997 89.1368L124.509 74.6467C127.458 74.2043 129.491 71.4548 129.048 68.5055L122.922 27.6623C122.48 24.713 119.731 22.6806 116.781 23.123Z" fill="white"/>
<path d="M144.67 57.29V105.49C144.67 111.01 140.19 115.49 134.67 115.49H10C4.47 115.49 0 111.01 0 105.49V57.29C0 51.77 4.47 47.29 10 47.29H134.67C140.19 47.29 144.67 51.77 144.67 57.29Z" fill="#4092FF"/>
<g style="mix-blend-mode:soft-light" opacity="0.2">
<path d="M133.38 82.6198C125.16 82.6198 117.45 80.4698 110.77 76.6998C99.7701 70.4898 91.5801 59.8998 88.5701 47.2898C87.7501 43.8498 87.3101 40.2598 87.3101 36.5598C87.3101 33.4198 87.6201 30.3598 88.2301 27.3998C89.0501 23.2898 90.4201 19.3898 92.2701 15.7598H67.5101C65.9701 20.6198 64.9601 25.6998 64.5401 30.9498C64.3901 32.7998 64.3101 34.6698 64.3101 36.5598C64.3101 40.2098 64.5901 43.7998 65.1501 47.2898C67.1501 60.0998 72.6901 71.7498 80.7301 81.2098C93.4101 96.1298 112.31 105.62 133.38 105.62C137.22 105.62 141 105.3 144.67 104.69V81.2198C141.06 82.1398 137.28 82.6198 133.38 82.6198Z" fill="white"/>
</g>
</svg>
