<svg width="159" height="133" viewBox="0 0 159 133" fill="none" xmlns="http://www.w3.org/2000/svg">
<path d="M147.233 26.1828L156.95 105.319C157.623 110.797 153.722 115.79 148.243 116.463L24.5023 131.656C19.0136 132.33 14.0309 128.428 13.3582 122.949L2.42285 33.8882L136.089 17.476C141.568 16.8033 146.56 20.704 147.233 26.1828Z" fill="#077BF6"/>
<path d="M60.7943 26.721L2.42261 33.8881L1.72065 28.1711C1.04793 22.6922 4.94856 17.6996 10.4274 17.0269L45.3353 12.7408L60.7943 26.721Z" fill="#077BF6"/>
<path d="M118.095 17.7114L23.9714 43.8672C21.0979 44.6657 19.4159 47.6424 20.2144 50.5158L31.2721 90.308C32.0706 93.1814 35.0474 94.8635 37.9208 94.065L132.044 67.9092C134.918 67.1107 136.6 64.134 135.801 61.2606L124.743 21.4684C123.945 18.595 120.968 16.9129 118.095 17.7114Z" fill="white"/>
<path d="M151.075 57.4777L156.95 105.318C157.622 110.797 153.722 115.79 148.243 116.463L24.5021 131.656C19.0133 132.33 14.0307 128.428 13.3579 122.949L7.48383 75.1086C6.81111 69.6297 10.7018 64.6383 16.1906 63.9644L139.931 48.771C145.41 48.0982 150.403 51.9989 151.075 57.4777Z" fill="#4092FF"/>
<g style="mix-blend-mode:soft-light" opacity="0.2">
<path d="M142.957 83.9949C134.798 84.9967 126.883 83.8023 119.794 80.8745C108.119 76.0513 98.6995 66.5384 94.1751 54.3892C92.942 51.0748 92.0678 47.5652 91.6169 43.8927C91.2342 40.7762 91.169 37.7012 91.4137 34.6889C91.7267 30.5096 92.6112 26.4717 94.005 22.6433L69.4296 25.6608C68.4933 30.6723 68.11 35.8375 68.3329 41.0995C68.4095 42.954 68.558 44.8198 68.7883 46.6957C69.2331 50.3185 69.9486 53.8477 70.9297 57.2434C74.4759 69.7142 81.3944 80.6022 90.5274 89.0118C104.931 102.275 124.847 109.391 145.76 106.823C149.571 106.355 153.284 105.577 156.852 104.524L153.992 81.2294C150.521 82.5825 146.828 83.5196 142.957 83.9949Z" fill="white"/>
</g>
</svg>
